<svg width="113" height="113" viewBox="0 0 113 113" fill="none" xmlns="http://www.w3.org/2000/svg">
<path d="M56.8231 0.202942C25.8328 0.202942 0.710449 25.3253 0.710449 56.3156C0.710449 87.3058 25.8328 112.428 56.8231 112.428C87.8133 112.428 112.936 87.3058 112.936 56.3156C112.936 25.3253 87.8133 0.202942 56.8231 0.202942ZM95.4686 34.635L58.5132 71.5902C57.061 73.0426 54.6085 72.9618 53.2554 71.4173L37.6398 53.6023L43.0594 48.8516L56.1382 63.7725L90.3722 29.5386L95.4686 34.635ZM56.8231 95.44C35.2499 95.44 17.6987 77.8887 17.6987 56.3156C17.6987 34.7424 35.2499 17.1912 56.8231 17.1912C65.8414 17.1912 74.6484 20.3459 81.6222 26.0742L77.0476 31.6435C71.3596 26.9713 64.1769 24.3983 56.8228 24.3983C39.2236 24.3983 24.9055 38.7163 24.9055 56.3156C24.9055 73.9148 39.2239 88.2329 56.8231 88.2329C74.4223 88.2329 88.7404 73.9148 88.7404 56.3156C88.7404 53.815 88.449 51.3247 87.8745 48.9137L94.8852 47.2431C95.59 50.2007 95.9472 53.2531 95.9472 56.3156C95.9475 77.8887 78.3962 95.44 56.8231 95.44Z" fill="#28A745" fill-opacity="0.11"/>
</svg>
