<svg width="20" height="20" viewBox="0 0 20 20" fill="none" xmlns="http://www.w3.org/2000/svg">
<circle cx="10" cy="10" r="10" fill="#FF961B" fill-opacity="0.1"/>
<g clip-path="url(#clip0_3707_865)">
<path d="M13.3333 9.58333V12.9167C13.3333 14.0654 12.3987 15 11.25 15H7.08333C5.93458 15 5 14.0654 5 12.9167V8.75C5 7.60125 5.93458 6.66667 7.08333 6.66667H10.4167C10.6467 6.66667 10.8333 6.85333 10.8333 7.08333C10.8333 7.31333 10.6467 7.5 10.4167 7.5H7.08333C6.39417 7.5 5.83333 8.06083 5.83333 8.75V12.9167C5.83333 13.6058 6.39417 14.1667 7.08333 14.1667H11.25C11.9392 14.1667 12.5 13.6058 12.5 12.9167V9.58333C12.5 9.35333 12.6867 9.16667 12.9167 9.16667C13.1467 9.16667 13.3333 9.35333 13.3333 9.58333ZM13.75 5H10.8333C10.6033 5 10.4167 5.18667 10.4167 5.41667C10.4167 5.64667 10.6033 5.83333 10.8333 5.83333H13.5775L8.45542 10.9554C8.2925 11.1183 8.2925 11.3817 8.45542 11.5446C8.53667 11.6258 8.64333 11.6667 8.75 11.6667C8.85667 11.6667 8.96333 11.6258 9.04458 11.5446L14.1667 6.4225V9.16667C14.1667 9.39667 14.3533 9.58333 14.5833 9.58333C14.8133 9.58333 15 9.39667 15 9.16667V6.25C15 5.56083 14.4392 5 13.75 5Z" fill="#FF1901"/>
</g>
<defs>
<clipPath id="clip0_3707_865">
<rect width="10" height="10" fill="white" transform="translate(5 5)"/>
</clipPath>
</defs>
</svg>
