<svg width="22" height="23" viewBox="0 0 22 23" fill="none" xmlns="http://www.w3.org/2000/svg">
<circle cx="11" cy="11.8529" r="11" fill="white"/>
<path d="M11.7524 7.19909C11.7524 6.73106 11.3798 6.35294 10.9187 6.35294C10.4576 6.35294 10.0851 6.73106 10.0851 7.19909V11.0068H6.33365C5.87254 11.0068 5.5 11.3849 5.5 11.8529C5.5 12.321 5.87254 12.6991 6.33365 12.6991H10.0851V16.5068C10.0851 16.9748 10.4576 17.3529 10.9187 17.3529C11.3798 17.3529 11.7524 16.9748 11.7524 16.5068V12.6991H15.5038C15.9649 12.6991 16.3374 12.321 16.3374 11.8529C16.3374 11.3849 15.9649 11.0068 15.5038 11.0068H11.7524V7.19909Z" fill="#DC143C"/>
</svg>
