<svg width="144" height="80" viewBox="0 0 144 80" fill="none" xmlns="http://www.w3.org/2000/svg">
<path d="M68.7891 13.6063L68.6211 13.4062C68.6671 13.3669 73.327 9.48869 80.0609 7.52115C86.2825 5.703 95.5986 5.18863 104.645 13.0588L104.473 13.2563C95.519 5.46623 86.3006 5.97285 80.1426 7.7698C73.4593 9.71977 68.8351 13.5675 68.7891 13.6063Z" fill="white"/>
<path d="M140.076 64.0825C139.105 53.759 135.095 45.9233 124.706 40.1765C121.642 38.4819 117.805 37.6536 115.968 34.6766C114.144 31.7213 114.821 27.947 114.46 24.4943C113.533 15.6371 105.051 8.78836 96.1763 7.85084C87.3013 6.91332 78.4728 10.9242 71.7315 16.7601C66.6734 21.139 62.2429 26.7286 55.8698 28.7788C45.3601 32.1604 33.9248 24.6175 23.1398 26.9827C17.3364 28.2552 12.4679 32.3099 8.91232 37.0609C2.96277 45.011 1.4799 55.0624 3.29953 64.817C4.29482 70.153 6.73011 75.5611 10.2201 79.7147L135.27 79.4539C138.926 75.8054 140.492 68.5088 140.076 64.0825Z" fill="white"/>
<path d="M50.9715 23.9626C56.3125 23.9626 60.6423 19.6328 60.6423 14.2918C60.6423 8.95083 56.3125 4.62109 50.9715 4.62109C45.6305 4.62109 41.3008 8.95083 41.3008 14.2918C41.3008 19.6328 45.6305 23.9626 50.9715 23.9626Z" fill="white"/>
<path d="M69.928 8.50204C71.4932 6.93682 71.4932 4.39911 69.928 2.8339C68.3628 1.26868 65.8251 1.26868 64.2599 2.8339C62.6946 4.39911 62.6946 6.93683 64.2599 8.50204C65.8251 10.0673 68.3628 10.0673 69.928 8.50204Z" fill="white"/>
<path d="M131.264 36.4708C132.829 34.9056 132.829 32.3679 131.264 30.8026C129.699 29.2374 127.161 29.2374 125.596 30.8026C124.031 32.3679 124.031 34.9056 125.596 36.4708C127.161 38.036 129.699 38.036 131.264 36.4708Z" fill="white"/>
<path d="M140.047 79.4353L139.817 79.3128C144.518 70.4511 145.016 60.9246 141.182 53.1775C137.152 45.0323 128.926 39.552 118.02 37.7462L118.062 37.4883C129.054 39.308 137.348 44.8384 141.417 53.0611C145.288 60.8848 144.789 70.4976 140.048 79.4348L140.047 79.4353Z" fill="white"/>
<path d="M11.4075 79.8165C5.74423 73.718 2.00765 66.373 0.601004 58.5763C-0.708452 51.3161 0.137809 44.1123 2.98367 38.2918C7.3804 29.2999 15.8895 24.6669 26.3264 25.5778L26.3037 25.8383C15.9785 24.9362 7.56495 29.5175 3.21837 38.4066C0.396805 44.1774 -0.441702 51.3238 0.857932 58.5297C2.25527 66.2774 5.96962 73.5769 11.5983 79.6392L11.407 79.8171L11.4075 79.8165Z" fill="white"/>
<g clip-path="url(#clip0_3526_11047)">
<path d="M37.4065 14.5783L14.556 29.832L37.0636 63.4088L59.9141 48.1551L37.4065 14.5783Z" fill="#FBE7E8"/>
<path d="M48.1094 46.5676L47.8488 48.1691L36.4888 46.5351L36.7495 44.9336L48.1094 46.5676Z" fill="#A8B9CA"/>
<path d="M42.3888 40.8525L44.0181 41.0883L42.2116 52.2498L40.5803 52.0141L42.3888 40.8525Z" fill="#A8B9CA"/>
<path d="M31.9249 26.6673C31.9412 26.6917 29.6521 28.2484 26.811 30.1446C23.97 32.0408 21.6544 33.5589 21.6381 33.5345C21.6219 33.5101 23.911 31.9534 26.752 30.0572C29.593 28.161 31.9086 26.6429 31.9249 26.6673Z" fill="#A8B9CA"/>
<path d="M40.3278 24.5618C40.3441 24.5862 36.5357 27.1571 31.8231 30.3011C27.1084 33.4471 23.2756 35.9774 23.2593 35.953C23.243 35.9286 27.0494 33.3597 31.764 30.2117C36.4767 27.0656 40.3115 24.5354 40.3278 24.5597V24.5618Z" fill="#A8B9CA"/>
<path d="M42.012 27.0754C42.0283 27.0998 38.2199 29.6707 33.5073 32.8147C28.7927 35.9608 24.9598 38.491 24.9435 38.4667C24.9272 38.4423 28.7336 35.8734 33.4483 32.7253C38.1609 29.5793 41.9957 27.049 42.012 27.0734V27.0754Z" fill="#A8B9CA"/>
<path d="M43.6962 29.5891C43.7125 29.6135 39.9041 32.1844 35.1915 35.3284C30.4769 38.4745 26.644 41.0047 26.6277 40.9803C26.6114 40.9559 30.4178 38.3871 35.1325 35.239C39.8451 32.093 43.6799 29.5627 43.6962 29.5871V29.5891Z" fill="#A8B9CA"/>
<path d="M45.3825 32.1018C45.3988 32.1262 41.5904 34.6971 36.8778 37.8411C32.1631 40.9872 28.3303 43.5174 28.314 43.493C28.2977 43.4686 32.1041 40.8998 36.8187 37.7517C41.5314 34.6056 45.3662 32.0754 45.3825 32.0998V32.1018Z" fill="#A8B9CA"/>
<path d="M113.817 37.079L94.6262 49.8896L113.528 78.0879L132.719 65.2773L113.817 37.079Z" fill="#FBE7E8"/>
<path d="M122.807 63.948L122.589 65.2934L113.048 63.9216L113.266 62.5762L122.807 63.948Z" fill="#A8B9CA"/>
<path d="M118.001 59.1494L119.371 59.3466L117.852 68.7197L116.483 68.5225L118.001 59.1494Z" fill="#A8B9CA"/>
<path d="M109.215 47.2358C109.231 47.2602 107.311 48.571 104.924 50.1623C102.537 51.7557 100.59 53.0259 100.574 53.0015C100.557 52.9771 102.478 51.6663 104.865 50.0729C107.249 48.4816 109.198 47.2094 109.215 47.2337V47.2358Z" fill="#A8B9CA"/>
<path d="M116.272 45.468C116.288 45.4924 113.092 47.6548 109.133 50.2968C105.174 52.9388 101.952 55.0606 101.936 55.0362C101.92 55.0118 105.115 52.8514 109.074 50.2074C113.031 47.5653 116.255 45.4436 116.272 45.468Z" fill="#A8B9CA"/>
<path d="M117.687 47.5774C117.703 47.6017 114.508 49.7641 110.549 52.4062C106.59 55.0482 103.368 57.17 103.352 57.1456C103.335 57.1212 106.531 54.9608 110.49 52.3168C114.447 49.6747 117.671 47.553 117.687 47.5774Z" fill="#A8B9CA"/>
<path d="M119.1 49.6888C119.117 49.7132 115.921 51.8755 111.962 54.5155C108.003 57.1576 104.781 59.2793 104.765 59.2549C104.749 59.2306 107.944 57.0702 111.903 54.4261C115.86 51.7841 119.084 49.6623 119.1 49.6867V49.6888Z" fill="#A8B9CA"/>
<path d="M120.516 51.799C120.532 51.8234 117.337 53.9858 113.377 56.6279C109.418 59.2699 106.197 61.3916 106.18 61.3672C106.164 61.3429 109.359 59.1825 113.318 56.5384C117.275 53.8964 120.499 51.7746 120.516 51.799Z" fill="#A8B9CA"/>
<path d="M83.4572 15.8148L62.5177 4.63867L46.0268 35.4073L66.9664 46.5834L83.4572 15.8148Z" fill="#FBE7E8"/>
<path d="M63.3838 36.9563L62.0559 37.4096L58.6833 28.1076L60.0112 27.6523L63.3838 36.9563Z" fill="#A8B9CA"/>
<path d="M65.4204 30.2822L65.9051 31.6175L56.6468 34.7798L56.1621 33.4466L65.4204 30.2822Z" fill="#A8B9CA"/>
<path d="M71.9984 16.5561C71.9821 16.5866 69.858 15.4851 67.2553 14.095C64.6505 12.7048 62.5548 11.5545 62.5711 11.5241C62.5874 11.4936 64.7116 12.5951 67.3143 13.9852C69.9171 15.3753 72.0147 16.5256 71.9984 16.5561Z" fill="#A8B9CA"/>
<path d="M77.0226 22.0903C77.0063 22.1208 73.4912 20.2775 69.1737 17.9728C64.8541 15.6682 61.3655 13.774 61.3818 13.7435C61.3981 13.7131 64.9132 15.5564 69.2328 17.8631C73.5503 20.1677 77.0389 22.0619 77.0226 22.0923V22.0903Z" fill="#A8B9CA"/>
<path d="M75.7885 24.395C75.7722 24.4255 72.2571 22.5822 67.9396 20.2775C63.62 17.9728 60.1313 16.0787 60.1476 16.0482C60.1639 16.0177 63.6791 17.8611 67.9986 20.1678C72.3162 22.4724 75.8048 24.3665 75.7885 24.397V24.395Z" fill="#A8B9CA"/>
<path d="M74.5544 26.6977C74.5381 26.7282 71.023 24.8849 66.7054 22.5802C62.3859 20.2756 58.8972 18.3814 58.9135 18.351C58.9298 18.3205 62.4449 20.1638 66.7645 22.4705C71.082 24.7752 74.5707 26.6693 74.5544 26.6998V26.6977Z" fill="#A8B9CA"/>
<path d="M73.3202 29.0005C73.304 29.031 69.7888 27.1876 65.4713 24.883C61.1517 22.5783 57.6631 20.6842 57.6794 20.6537C57.6957 20.6232 61.2108 22.4665 65.5304 24.7732C69.8479 27.0779 73.3365 28.972 73.3202 29.0025V29.0005Z" fill="#A8B9CA"/>
<path d="M127.788 79.1192C127.788 79.1477 101.466 79.1721 69.0027 79.1721C36.5397 79.1721 10.2109 79.1477 10.2109 79.1192C10.2109 79.0908 36.5275 79.0664 69.0027 79.0664C101.478 79.0664 127.788 79.0908 127.788 79.1192Z" fill="#5D6C87"/>
<path d="M16.7178 66.3906C17.4062 66.415 18.0518 66.7869 18.5059 67.3052C18.9601 67.8214 19.2391 68.4717 19.4163 69.1363C19.7605 70.4207 19.5486 71.9389 19.1821 73.2172C17.787 72.7193 16.9276 71.2357 16.5386 70.4553C15.9236 69.2217 15.5631 66.6223 16.7158 66.3906" fill="#FF9933"/>
<path d="M21.1901 74.7735C20.7502 74.1435 20.74 73.2676 21.0883 72.5806C21.4366 71.8957 22.1046 71.4019 22.8398 71.1763C23.1799 71.0727 23.575 71.0279 23.8703 71.2251C24.1472 71.41 24.2674 71.7718 24.2307 72.101C24.1941 72.4302 24.0271 72.7331 23.8295 72.9993C23.1513 73.9159 22.3265 74.678 21.1901 74.7715" fill="#FF9933"/>
<path d="M21.3429 79.0685C21.3429 79.0685 21.3144 78.975 21.2798 78.8023C21.2431 78.6112 21.1942 78.3653 21.1372 78.0706C21.0272 77.4548 20.8521 76.5789 20.9845 75.6115C21.1107 74.6482 21.4956 73.8231 21.8989 73.3312C22.0964 73.0833 22.2879 72.9065 22.4284 72.7988C22.4956 72.7419 22.5567 72.7073 22.5934 72.6789C22.6321 72.6524 22.6545 72.6403 22.6565 72.6443C22.6708 72.6606 22.3306 72.8719 21.9539 73.3739C21.573 73.8678 21.2065 74.6766 21.0802 75.6257C20.9498 76.5748 21.1107 77.4426 21.2044 78.0605C21.2533 78.3714 21.294 78.6234 21.3185 78.7982C21.3409 78.973 21.3511 79.0705 21.3429 79.0705V79.0685Z" fill="#5D6C87"/>
<path d="M17.1678 68.3459C17.1678 68.3459 17.1902 68.3804 17.2249 68.4515C17.2615 68.5308 17.3104 68.6345 17.3695 68.7605C17.4917 69.0308 17.6668 69.423 17.8766 69.9087C18.2961 70.8822 18.8582 72.2357 19.4447 73.7417C20.0313 75.2497 20.5302 76.6276 20.8764 77.6275C21.0496 78.1275 21.188 78.5339 21.2797 78.8164C21.3225 78.9506 21.3571 79.0583 21.3835 79.1416C21.406 79.2168 21.4161 79.2554 21.4141 79.2574C21.4121 79.2595 21.3937 79.2209 21.3652 79.1477C21.3347 79.0644 21.2939 78.9587 21.2451 78.8286C21.1392 78.54 20.9925 78.1397 20.8133 77.6499C20.4488 76.654 19.9396 75.2822 19.3551 73.7742C18.7686 72.2683 18.2187 70.9127 17.8155 69.9331C17.6179 69.4515 17.455 69.0572 17.3369 68.7726C17.2839 68.6426 17.2432 68.5369 17.2106 68.4556C17.1821 68.3824 17.1699 68.3438 17.1719 68.3418L17.1678 68.3459Z" fill="#5D6C87"/>
<path d="M19.6892 76.2275C18.8664 74.8313 17.3329 73.8801 15.7138 73.7623C15.3024 73.7318 14.8055 73.8009 14.6222 74.1708C14.4389 74.5406 14.6833 74.9776 14.9643 75.2824C16.1333 76.5445 18.1088 76.9855 19.7034 76.3393" fill="#FF9933"/>
<path d="M16.341 74.8634C16.341 74.8634 16.4327 74.8614 16.5997 74.8736C16.6832 74.8797 16.785 74.8858 16.9011 74.9081C17.0172 74.9305 17.1516 74.9427 17.2962 74.9813C17.4408 75.0158 17.6017 75.0524 17.7666 75.1114C17.9357 75.1601 18.1088 75.2333 18.29 75.3105C18.6485 75.4731 19.0313 75.6865 19.3939 75.9629C19.7543 76.2434 20.0578 76.5563 20.3062 76.8632C20.4244 77.0197 20.5384 77.1701 20.628 77.3225C20.7258 77.4689 20.7991 77.6152 20.8663 77.7473C20.9396 77.8774 20.9824 78.0054 21.0313 78.1131C21.0801 78.2208 21.1086 78.3184 21.1331 78.3976C21.182 78.5562 21.2064 78.6435 21.2003 78.6456C21.1799 78.6537 21.0801 78.298 20.8052 77.7778C20.7339 77.6497 20.6586 77.5075 20.5588 77.3652C20.4692 77.2168 20.3551 77.0726 20.235 76.9201C19.9885 76.6214 19.6871 76.3165 19.3328 76.0401C18.9764 75.7678 18.6037 75.5564 18.2513 75.3918C18.0742 75.3146 17.9031 75.2394 17.7381 75.1886C17.5772 75.1276 17.4204 75.089 17.2779 75.0484C16.7056 74.9041 16.337 74.8837 16.339 74.8634H16.341Z" fill="#5D6C87"/>
<path d="M53.5125 37.398L46.3112 74.3457L45.3683 79.1827L93.4436 78.9469C95.6003 78.9367 97.5126 77.0243 98.2071 74.1852L106.732 39.3023C107.26 37.146 106.103 34.9043 104.466 34.9043L55.8077 34.9551C54.7324 34.9551 53.7936 35.957 53.5125 37.398Z" fill="#FF9933"/>
<g opacity="0.5">
<path d="M53.5125 37.398L46.3112 74.3457L45.3683 79.1827L93.4436 78.9469C95.6003 78.9367 97.5126 77.0243 98.2071 74.1852L106.732 39.3023C107.26 37.146 106.103 34.9043 104.466 34.9043L55.8077 34.9551C54.7324 34.9551 53.7936 35.957 53.5125 37.398Z" fill="#1D212D"/>
</g>
<path d="M88.8327 71.842L83.7433 30.9088C83.5356 29.2322 82.1955 27.9803 80.6152 27.9864L69.4527 28.0229C68.6259 28.025 67.8336 28.3766 67.2471 28.9985L61.948 34.6199L30.9045 34.7825C29.0085 34.7926 27.5503 36.5831 27.8008 38.5971L32.5277 76.4289C32.7374 78.1036 34.0734 79.3535 35.6518 79.3494L89.7533 79.2437C95.7795 79.3677 96.3538 77.5935 96.3538 77.5935C89.4478 79.1198 88.8327 71.8481 88.8327 71.844V71.842Z" fill="#FF9933"/>
<g opacity="0.5">
<path d="M65.5059 63.6498L63.6811 65.607L49.6288 52.9903L51.4536 51.0352L65.5059 63.6498Z" fill="white"/>
<path d="M62.9154 50.6025L64.9336 52.4113L52.2173 66.0401L50.201 64.2293L62.9154 50.6025Z" fill="white"/>
</g>
</g>
<defs>
<clipPath id="clip0_3526_11047">
<rect width="122.51" height="74.7125" fill="white" transform="translate(10.2109 4.63672)"/>
</clipPath>
</defs>
</svg>
