<svg width="36" height="36" viewBox="0 0 36 36" fill="none" xmlns="http://www.w3.org/2000/svg">
<g filter="url(#filter0_d_3216_26930)">
<circle cx="17.9607" cy="17.9607" r="13.9607" fill="white"/>
<circle cx="17.9607" cy="17.9607" r="13.4607" stroke="white"/>
</g>
<path d="M17.9312 12.2769C20.282 12.2769 22.2407 14.3147 22.2407 16.895C22.2407 17.4546 22.0289 18.108 21.6626 18.8071C21.2996 19.4998 20.8052 20.1993 20.2866 20.8403C19.2509 22.1206 18.1557 23.1245 17.9331 23.3247L17.9302 23.3228L17.6157 23.0317C17.1658 22.6063 16.3546 21.8006 15.5767 20.8394C15.058 20.1984 14.5627 19.4998 14.1997 18.8071C13.8334 18.1081 13.6226 17.4546 13.6226 16.895C13.6226 14.3148 15.5805 12.2771 17.9312 12.2769ZM17.9312 12.3833C15.546 12.3862 13.6652 14.4346 13.6626 16.895L13.6714 17.0972C13.7117 17.5714 13.8865 18.0658 14.1196 18.5396C14.3897 19.0884 14.7589 19.6514 15.1597 20.188C15.9613 21.2614 16.9242 22.2704 17.5864 22.9028L17.9312 23.2319L18.2769 22.9019C18.9392 22.2691 19.9021 21.2605 20.7036 20.187C21.1043 19.6504 21.4726 19.0872 21.7427 18.5386C22.0091 17.9973 22.2007 17.4293 22.2007 16.895L22.1948 16.6655C22.0801 14.3083 20.2429 12.3861 17.9321 12.3833H17.9312Z" fill="#FF1901" stroke="#FF1901"/>
<path d="M18.5054 18.2877C18.3278 18.3744 18.1338 18.4244 17.9321 18.4244C17.7301 18.4244 17.5356 18.3747 17.3579 18.2877C17.5322 18.3657 17.7256 18.4098 17.9321 18.4098C18.1384 18.4098 18.3312 18.3655 18.5054 18.2877ZM17.9321 15.3668C18.1337 15.3668 18.3279 15.416 18.5054 15.5026C18.3313 15.4249 18.1382 15.3815 17.9321 15.3815C17.7257 15.3815 17.5322 15.4246 17.3579 15.5026C17.5355 15.4157 17.7303 15.3668 17.9321 15.3668Z" fill="#FF1901" stroke="#FF1901"/>
<defs>
<filter id="filter0_d_3216_26930" x="0" y="0" width="35.9214" height="35.9214" filterUnits="userSpaceOnUse" color-interpolation-filters="sRGB">
<feFlood flood-opacity="0" result="BackgroundImageFix"/>
<feColorMatrix in="SourceAlpha" type="matrix" values="0 0 0 0 0 0 0 0 0 0 0 0 0 0 0 0 0 0 127 0" result="hardAlpha"/>
<feOffset/>
<feGaussianBlur stdDeviation="2"/>
<feComposite in2="hardAlpha" operator="out"/>
<feColorMatrix type="matrix" values="0 0 0 0 0.9 0 0 0 0 0.946 0 0 0 0 1 0 0 0 1 0"/>
<feBlend mode="normal" in2="BackgroundImageFix" result="effect1_dropShadow_3216_26930"/>
<feBlend mode="normal" in="SourceGraphic" in2="effect1_dropShadow_3216_26930" result="shape"/>
</filter>
</defs>
</svg>
