<svg width="36" height="36" viewBox="0 0 36 36" fill="none" xmlns="http://www.w3.org/2000/svg">
<g filter="url(#filter0_d_3490_10654)">
<circle cx="17.9607" cy="17.9607" r="13.9607" fill="white"/>
<circle cx="17.9607" cy="17.9607" r="13.4607" stroke="white"/>
</g>
<path d="M17.9312 12.6365C20.3242 12.6365 22.2407 14.5196 22.2407 16.8132C22.2407 17.3037 22.0371 17.8871 21.6724 18.5232C21.3118 19.1519 20.8193 19.7887 20.3013 20.3738C19.2659 21.5432 18.1707 22.4607 17.9497 22.6423L17.9331 22.655L17.9136 22.6394L17.5991 22.3738C17.1496 21.9854 16.3389 21.2499 15.562 20.3728C15.044 19.7879 14.5514 19.1518 14.1909 18.5232C13.8261 17.8871 13.6226 17.3037 13.6226 16.8132C13.6226 14.5197 15.5383 12.6367 17.9312 12.6365ZM17.9312 12.6472C15.5881 12.6498 13.6654 14.5003 13.6626 16.8123V16.8132C13.6626 17.3216 13.8608 17.8533 14.1284 18.3503C14.4007 18.856 14.771 19.3739 15.1724 19.865C15.9756 20.8478 16.9405 21.7703 17.603 22.3484L17.9312 22.6355L18.2603 22.3484C18.9228 21.77 19.8867 20.8469 20.6899 19.864C21.0914 19.3727 21.4625 18.855 21.7349 18.3494C22.0024 17.8526 22.2006 17.3211 22.2007 16.8132V16.8123C22.1979 14.5003 20.2752 12.6498 17.9321 12.6472H17.9312Z" fill="#FF1901" stroke="#FF1901"/>
<mask id="path-4-inside-1_3490_10654" fill="white">
<path d="M17.9321 18.6673C16.8793 18.6673 16.0259 17.8374 16.0259 16.8135C16.0259 15.7897 16.8793 14.9598 17.9321 14.9598C18.9849 14.9598 19.8383 15.7897 19.8383 16.8135C19.8383 17.8374 18.9849 18.6673 17.9321 18.6673ZM17.9321 15.8866C17.4057 15.8866 16.979 16.3016 16.979 16.8135C16.979 17.3254 17.4057 17.7404 17.9321 17.7404C18.4585 17.7404 18.8852 17.3254 18.8852 16.8135C18.8852 16.3016 18.4585 15.8866 17.9321 15.8866Z"/>
</mask>
<path d="M17.9321 18.6673C16.8793 18.6673 16.0259 17.8374 16.0259 16.8135C16.0259 15.7897 16.8793 14.9598 17.9321 14.9598C18.9849 14.9598 19.8383 15.7897 19.8383 16.8135C19.8383 17.8374 18.9849 18.6673 17.9321 18.6673ZM17.9321 15.8866C17.4057 15.8866 16.979 16.3016 16.979 16.8135C16.979 17.3254 17.4057 17.7404 17.9321 17.7404C18.4585 17.7404 18.8852 17.3254 18.8852 16.8135C18.8852 16.3016 18.4585 15.8866 17.9321 15.8866Z" fill="#FF1901"/>
<path d="M17.9321 18.6673V17.6673C17.4051 17.6673 17.0259 17.2589 17.0259 16.8135H16.0259H15.0259C15.0259 18.4158 16.3535 19.6673 17.9321 19.6673V18.6673ZM16.0259 16.8135H17.0259C17.0259 16.3681 17.4051 15.9598 17.9321 15.9598V14.9598V13.9598C16.3535 13.9598 15.0259 15.2113 15.0259 16.8135H16.0259ZM17.9321 14.9598V15.9598C18.4591 15.9598 18.8383 16.3681 18.8383 16.8135H19.8383H20.8383C20.8383 15.2113 19.5107 13.9598 17.9321 13.9598V14.9598ZM19.8383 16.8135H18.8383C18.8383 17.259 18.4591 17.6673 17.9321 17.6673V18.6673V19.6673C19.5107 19.6673 20.8383 18.4158 20.8383 16.8135H19.8383ZM17.9321 15.8866V14.8866C16.8799 14.8866 15.979 15.7232 15.979 16.8135H16.979H17.979C17.979 16.8259 17.9762 16.8395 17.9709 16.8516C17.966 16.8629 17.9601 16.8704 17.9553 16.875C17.9506 16.8796 17.9459 16.8825 17.9415 16.8843C17.9392 16.8852 17.9371 16.8859 17.9352 16.8862C17.9343 16.8864 17.9335 16.8865 17.9329 16.8866C17.9324 16.8866 17.9321 16.8866 17.9321 16.8866V15.8866ZM16.979 16.8135H15.979C15.979 17.9038 16.8799 18.7404 17.9321 18.7404V17.7404V16.7404C17.9321 16.7404 17.9324 16.7404 17.9329 16.7405C17.9335 16.7405 17.9343 16.7406 17.9352 16.7408C17.9371 16.7412 17.9392 16.7418 17.9415 16.7428C17.9459 16.7446 17.9506 16.7475 17.9553 16.752C17.9601 16.7566 17.966 16.7641 17.9709 16.7755C17.9762 16.7876 17.979 16.8012 17.979 16.8135H16.979ZM17.9321 17.7404V18.7404C18.9843 18.7404 19.8852 17.9038 19.8852 16.8135H18.8852H17.8852C17.8852 16.8012 17.888 16.7876 17.8933 16.7755C17.8982 16.7641 17.9042 16.7566 17.9089 16.752C17.9136 16.7475 17.9183 16.7446 17.9227 16.7428C17.925 16.7418 17.9272 16.7412 17.929 16.7408C17.9299 16.7406 17.9307 16.7405 17.9313 16.7405C17.9319 16.7404 17.9321 16.7404 17.9321 16.7404V17.7404ZM18.8852 16.8135H19.8852C19.8852 15.7232 18.9843 14.8866 17.9321 14.8866V15.8866V16.8866C17.9321 16.8866 17.9319 16.8866 17.9313 16.8866C17.9307 16.8865 17.93 16.8864 17.929 16.8862C17.9272 16.8859 17.925 16.8852 17.9227 16.8843C17.9183 16.8825 17.9136 16.8796 17.9089 16.875C17.9042 16.8704 17.8982 16.8629 17.8933 16.8516C17.888 16.8395 17.8852 16.8258 17.8852 16.8135H18.8852Z" fill="#FF1901" mask="url(#path-4-inside-1_3490_10654)"/>
<defs>
<filter id="filter0_d_3490_10654" x="0" y="0" width="35.9214" height="35.9213" filterUnits="userSpaceOnUse" color-interpolation-filters="sRGB">
<feFlood flood-opacity="0" result="BackgroundImageFix"/>
<feColorMatrix in="SourceAlpha" type="matrix" values="0 0 0 0 0 0 0 0 0 0 0 0 0 0 0 0 0 0 127 0" result="hardAlpha"/>
<feOffset/>
<feGaussianBlur stdDeviation="2"/>
<feComposite in2="hardAlpha" operator="out"/>
<feColorMatrix type="matrix" values="0 0 0 0 0.9 0 0 0 0 0.946 0 0 0 0 1 0 0 0 1 0"/>
<feBlend mode="normal" in2="BackgroundImageFix" result="effect1_dropShadow_3490_10654"/>
<feBlend mode="normal" in="SourceGraphic" in2="effect1_dropShadow_3490_10654" result="shape"/>
</filter>
</defs>
</svg>
