<svg width="18" height="18" viewBox="0 0 18 18" fill="none" xmlns="http://www.w3.org/2000/svg">
<path d="M17.5589 12.067L11.054 9.10912C11.0315 9.09862 11.009 9.09037 10.9865 9.08212C10.4406 8.89613 9.84811 9.03337 9.44015 9.44136C9.03218 9.84934 8.89495 10.4418 9.10868 11.0545L12.0664 17.5605C12.1856 17.8238 12.4459 17.9948 12.7354 18H12.7496C13.0331 18 13.2933 17.8395 13.4208 17.5853L14.8089 14.8089L17.5852 13.4207C17.8439 13.2909 18.0051 13.0255 17.9999 12.736C17.9946 12.4472 17.8236 12.187 17.5604 12.067H17.5589ZM9.68313 16.4686C9.55414 16.4798 9.4244 16.4881 9.29316 16.4933C8.79221 15.9976 7.48582 14.6049 6.57541 12.7495H7.12436C7.53832 12.7495 7.87429 12.4142 7.87429 11.9995C7.87429 11.5848 7.53832 11.2495 7.12436 11.2495H5.97696C5.75873 10.5356 5.62449 9.77959 5.62449 8.99963C5.62449 8.21966 5.75948 7.46444 5.97846 6.74972H12.0207C12.1092 7.03996 12.1841 7.33694 12.2419 7.63993C12.3199 8.04716 12.7136 8.31565 13.1186 8.23616C13.525 8.15891 13.792 7.76593 13.7148 7.35944C13.6758 7.1532 13.6293 6.94996 13.5775 6.74972H16.122C16.1318 6.74972 16.1423 6.74972 16.152 6.74972C16.3763 7.46069 16.497 8.21666 16.497 9.00038C16.497 9.23062 16.4865 9.45786 16.4663 9.68285C16.4295 10.0953 16.7332 10.4598 17.1457 10.4973C17.5597 10.5378 17.9234 10.2303 17.9601 9.81784C17.9841 9.5486 17.9969 9.27561 17.9969 9.00038C17.9984 4.03708 13.9615 0 8.99919 0C4.03689 0 0 4.03708 0 8.99963C0 13.9622 4.03689 17.9993 8.99844 17.9993C9.27366 17.9993 9.54589 17.9865 9.81436 17.9625C10.2268 17.9258 10.532 17.562 10.4953 17.1488C10.4586 16.7371 10.0963 16.4326 9.68313 16.4686ZM4.4186 11.2495H1.87483C1.86508 11.2495 1.85533 11.2495 1.84483 11.2495C1.6206 10.5386 1.49986 9.78259 1.49986 8.99887C1.49986 8.21516 1.6206 7.45919 1.84483 6.74822C1.85458 6.74822 1.86433 6.74822 1.87483 6.74822H4.4186C4.23487 7.46444 4.12463 8.21741 4.12463 8.99813C4.12463 9.77884 4.23412 10.5318 4.4186 11.248V11.2495ZM6.57916 5.24978C7.34484 3.6921 8.39024 2.4569 9.00069 1.80892C9.61188 2.45615 10.6573 3.6891 11.423 5.24978H6.57916ZM15.4921 5.24978H13.0713C12.4781 3.83534 11.6554 2.63389 10.9475 1.75718C12.8816 2.2784 14.5089 3.55485 15.4921 5.24978ZM7.04936 1.75793C6.34143 2.63464 5.518 3.83609 4.92556 5.24978H2.50627C3.48868 3.55485 5.11529 2.27841 7.04936 1.75793ZM2.50627 12.7495H4.92556C5.518 14.1639 6.34143 15.3646 7.04936 16.2413C5.11604 15.7201 3.48943 14.4436 2.50627 12.7495Z" fill="#FF1901"/>
</svg>
