<svg width="17" height="18" viewBox="0 0 17 18" fill="none" xmlns="http://www.w3.org/2000/svg">
<path fill-rule="evenodd" clip-rule="evenodd" d="M6.49971 3.74955H2.74961C1.78193 3.74955 1 4.53294 1 5.49989V12.4998C1 13.4668 1.78195 14.2502 2.74961 14.2502H4.49995V15.2504C4.49995 15.7143 4.68496 16.1595 5.01233 16.4876C5.3397 16.8157 5.78488 17 6.24956 17H14.2504C14.7151 17 15.1603 16.8157 15.4876 16.4876C15.815 16.1595 16 15.7143 16 15.2504V5.49991C16 5.36187 15.888 5.24985 15.7499 5.24985C15.6126 5.24985 15.4999 5.36187 15.4999 5.49991V15.2504C15.4999 15.5814 15.3676 15.8994 15.1349 16.1342C14.9001 16.3684 14.5828 16.4999 14.2504 16.4999H6.24954C5.9171 16.4999 5.59985 16.3684 5.36499 16.1342C5.13228 15.8994 5.00002 15.5814 5.00002 15.2504V14.2502H9.75027C10.7179 14.2502 11.4999 13.4668 11.4999 12.4998V5.49989C11.4999 4.53292 10.7179 3.74955 9.75027 3.74955H9.00012V3.24945C9.00012 2.55928 8.44005 1.99993 7.74988 1.99993C7.05971 1.99993 6.49964 2.55928 6.49964 3.24945L6.49971 3.74955ZM8.50001 3.74955V3.24945C8.50001 2.83535 8.16468 2.4993 7.74986 2.4993C7.33504 2.4993 6.99971 2.83535 6.99971 3.24945V5.62495C6.99971 5.72396 7.04018 5.81936 7.11028 5.89018C7.17966 5.96028 7.27505 6.00003 7.37479 6.00003C7.47524 6.00003 7.56991 5.96028 7.64001 5.89018C7.71011 5.81936 7.74986 5.72396 7.74986 5.62495V4.8748C7.74986 4.73677 7.8626 4.62474 7.99992 4.62474C8.13723 4.62474 8.24997 4.73676 8.24997 4.8748V5.62495C8.24997 5.85693 8.15747 6.07952 7.9927 6.24358C7.8301 6.40763 7.60752 6.50013 7.37481 6.50013C7.14283 6.50013 6.92025 6.40763 6.75765 6.24358C6.59215 6.07953 6.49966 5.85695 6.49966 5.62495V4.24968H2.74956C2.05939 4.24968 1.50004 4.80975 1.50004 5.49992V12.4999C1.50004 13.1901 2.05939 13.7501 2.74956 13.7501H9.75023C10.4404 13.7501 10.9998 13.1901 10.9998 12.4999V5.49992C10.9998 4.80975 10.4404 4.24968 9.75023 4.24968H7.74994C7.61263 4.24968 7.49988 4.13766 7.49988 3.99962C7.49988 3.86158 7.61262 3.74956 7.74994 3.74956L8.50001 3.74955ZM3.24969 11.2503H9.25021C9.38752 11.2503 9.50027 11.1383 9.50027 11.0003C9.50027 10.8622 9.38753 10.7502 9.25021 10.7502H3.24969C3.11238 10.7502 2.99963 10.8622 2.99963 11.0003C2.99963 11.1383 3.11237 11.2503 3.24969 11.2503ZM3.24969 9.25002H9.25021C9.38752 9.25002 9.50027 9.138 9.50027 8.99996C9.50027 8.86192 9.38753 8.7499 9.25021 8.7499H3.24969C3.11238 8.7499 2.99963 8.86192 2.99963 8.99996C2.99963 9.138 3.11237 9.25002 3.24969 9.25002ZM3.24969 7.24971H5.50012C5.63743 7.24971 5.75017 7.13769 5.75017 6.99965C5.75017 6.86161 5.63743 6.7496 5.50012 6.7496H3.24969C3.11238 6.7496 2.99963 6.86161 2.99963 6.99965C2.99963 7.13769 3.11237 7.24971 3.24969 7.24971ZM12.2499 1.50003V2.99962C12.2499 3.96658 13.0326 4.74996 14.0003 4.74996H15.7499C15.8503 4.74996 15.9428 4.68925 15.9804 4.5953C16.0202 4.50207 15.9978 4.3944 15.9277 4.32284L12.6778 1.07299C12.6301 1.02602 12.5651 1 12.5 1H6.24956C5.78488 1 5.3397 1.18428 5.01233 1.51238C4.68496 1.84047 4.49995 2.28566 4.49995 2.74962V2.99968C4.49995 3.13771 4.61269 3.24973 4.75 3.24973C4.88731 3.24973 5.00006 3.13772 5.00006 2.99968V2.74962C5.00006 2.41862 5.13231 2.10065 5.36502 1.86578C5.59989 1.63164 5.91716 1.50009 6.24958 1.50009L12.2499 1.50003ZM12.75 1.85344V2.99962C12.75 3.68979 13.3101 4.24986 14.0003 4.24986H15.1479L12.75 1.85344Z" fill="#FF1901" stroke="#FF1901" stroke-width="0.4"/>
</svg>
