<svg width="31" height="16" viewBox="0 0 31 16" fill="none" xmlns="http://www.w3.org/2000/svg">
<path d="M7.82652 0H4.76587L1.4866 3.86667C1.35543 4 1.26798 4.13333 1.13681 4.26667C1.09309 4.31111 1.04936 4.35556 1.00564 4.44444C0.655853 4.84444 0.349788 5.2 0 5.6C0.349788 6 0.699576 6.4 1.00564 6.84444C1.13681 7.02222 1.26798 7.2 1.44288 7.33333H1.39915L3.62905 9.95555C3.97884 10.3556 4.28491 10.7556 4.6347 11.1556L4.76587 11.2889H7.82652L4.06629 6.84444C11.1058 6.88889 18.189 6.88889 25.2722 6.93333C26.2779 6.97778 27.1086 7.42222 27.7207 8.04444C28.3329 8.66667 28.6826 9.51111 28.6826 10.3556V10.5333C28.6389 11.2444 28.3329 11.9556 27.8082 12.5333C27.3272 13.0667 26.6276 13.5111 25.7969 13.6444C21.9929 13.6444 18.1453 13.6444 14.3413 13.6444V16C18.2327 16 22.0804 16 25.9718 16H26.0592H26.1467C27.5021 15.7333 28.6827 15.0667 29.5134 14.1333C30.3879 13.2 30.9126 11.9556 31 10.6667C31 10.5778 31 10.4889 31 10.3556C31 8.84444 30.3879 7.46667 29.3822 6.4C28.3766 5.33333 26.9774 4.62222 25.3597 4.57778H25.3159H25.2722C18.189 4.53333 11.1495 4.53333 4.06629 4.48889L7.82652 0Z" fill="#F5230C"/>
</svg>
