<svg width="20" height="20" viewBox="0 0 20 20" fill="none" xmlns="http://www.w3.org/2000/svg">
<g clip-path="url(#clip0_260_8598)">
<path d="M0 15.8335C0.00132321 16.9382 0.440735 17.9972 1.22185 18.7783C2.00296 19.5594 3.062 19.9988 4.16667 20.0002H15.8333C16.938 19.9988 17.997 19.5594 18.7782 18.7783C19.5593 17.9972 19.9987 16.9382 20 15.8335V8.3335H0V15.8335ZM14.1667 12.0835C14.4139 12.0835 14.6556 12.1568 14.8611 12.2942C15.0667 12.4315 15.2269 12.6267 15.3215 12.8551C15.4161 13.0835 15.4409 13.3349 15.3926 13.5774C15.3444 13.8198 15.2254 14.0426 15.0505 14.2174C14.8757 14.3922 14.653 14.5112 14.4105 14.5595C14.1681 14.6077 13.9167 14.583 13.6883 14.4883C13.4599 14.3937 13.2647 14.2335 13.1273 14.028C12.99 13.8224 12.9167 13.5807 12.9167 13.3335C12.9167 13.002 13.0484 12.684 13.2828 12.4496C13.5172 12.2152 13.8351 12.0835 14.1667 12.0835ZM10 12.0835C10.2472 12.0835 10.4889 12.1568 10.6945 12.2942C10.9 12.4315 11.0602 12.6267 11.1548 12.8551C11.2495 13.0835 11.2742 13.3349 11.226 13.5774C11.1777 13.8198 11.0587 14.0426 10.8839 14.2174C10.7091 14.3922 10.4863 14.5112 10.2439 14.5595C10.0014 14.6077 9.75005 14.583 9.52165 14.4883C9.29324 14.3937 9.09801 14.2335 8.96066 14.028C8.82331 13.8224 8.75 13.5807 8.75 13.3335C8.75 13.002 8.8817 12.684 9.11612 12.4496C9.35054 12.2152 9.66848 12.0835 10 12.0835ZM5.83333 12.0835C6.08056 12.0835 6.32223 12.1568 6.5278 12.2942C6.73336 12.4315 6.89357 12.6267 6.98818 12.8551C7.08279 13.0835 7.10755 13.3349 7.05931 13.5774C7.01108 13.8198 6.89203 14.0426 6.71722 14.2174C6.5424 14.3922 6.31967 14.5112 6.0772 14.5595C5.83472 14.6077 5.58339 14.583 5.35498 14.4883C5.12657 14.3937 4.93135 14.2335 4.794 14.028C4.65664 13.8224 4.58333 13.5807 4.58333 13.3335C4.58333 13.002 4.71503 12.684 4.94945 12.4496C5.18387 12.2152 5.50181 12.0835 5.83333 12.0835Z" fill="#828282"/>
<path d="M15.8333 1.66667H15V0.833333C15 0.61232 14.9122 0.400358 14.7559 0.244078C14.5996 0.0877974 14.3877 0 14.1667 0C13.9457 0 13.7337 0.0877974 13.5774 0.244078C13.4211 0.400358 13.3333 0.61232 13.3333 0.833333V1.66667H6.66667V0.833333C6.66667 0.61232 6.57887 0.400358 6.42259 0.244078C6.26631 0.0877974 6.05435 0 5.83333 0C5.61232 0 5.40036 0.0877974 5.24408 0.244078C5.0878 0.400358 5 0.61232 5 0.833333V1.66667H4.16667C3.062 1.66799 2.00296 2.1074 1.22185 2.88852C0.440735 3.66963 0.00132321 4.72867 0 5.83333L0 6.66667H20V5.83333C19.9987 4.72867 19.5593 3.66963 18.7782 2.88852C17.997 2.1074 16.938 1.66799 15.8333 1.66667Z" fill="#828282"/>
</g>
<defs>
<clipPath id="clip0_260_8598">
<rect width="20" height="20" fill="white"/>
</clipPath>
</defs>
</svg>
