<svg width="18" height="20" viewBox="0 0 18 20" fill="none" xmlns="http://www.w3.org/2000/svg">
<mask id="path-1-inside-1_1043_7368" fill="white">
<path d="M13.2515 2.22631V0.722827C13.2515 0.327682 12.9238 0 12.5287 0C12.1335 0 11.8058 0.327682 11.8058 0.722827V2.16848L5.54136 2.16848V0.722827C5.54136 0.327682 5.21368 0 4.81853 0C4.42339 0 4.0957 0.327682 4.0957 0.722827V2.22631C1.49353 2.46725 0.230988 4.01892 0.0382338 6.32233C0.0189584 6.60182 0.250263 6.83313 0.520119 6.83313L16.8271 6.83313C17.1066 6.83313 17.3379 6.59218 17.309 6.32233C17.1162 4.01892 15.8537 2.46725 13.2515 2.22631Z"/>
</mask>
<path d="M13.2515 2.22631V0.722827C13.2515 0.327682 12.9238 0 12.5287 0C12.1335 0 11.8058 0.327682 11.8058 0.722827V2.16848L5.54136 2.16848V0.722827C5.54136 0.327682 5.21368 0 4.81853 0C4.42339 0 4.0957 0.327682 4.0957 0.722827V2.22631C1.49353 2.46725 0.230988 4.01892 0.0382338 6.32233C0.0189584 6.60182 0.250263 6.83313 0.520119 6.83313L16.8271 6.83313C17.1066 6.83313 17.3379 6.59218 17.309 6.32233C17.1162 4.01892 15.8537 2.46725 13.2515 2.22631Z" fill="#828282"/>
<path d="M13.2515 2.22631L5.30764 2.22631L5.30764 9.46859L12.5191 10.1363L13.2515 2.22631ZM11.8058 2.16848L11.8058 10.1123H19.7497V2.16848L11.8058 2.16848ZM5.54136 2.16848L-2.40249 2.16848L-2.40249 10.1123H5.54136L5.54136 2.16848ZM4.0957 2.22631L4.82811 10.1363L12.0396 9.46859L12.0396 2.22631L4.0957 2.22631ZM0.0382338 6.32233L-7.87794 5.65989L-7.88279 5.7178L-7.88679 5.77578L0.0382338 6.32233ZM17.309 6.32233L9.39278 6.98477L9.40048 7.07679L9.41032 7.16861L17.309 6.32233ZM21.1953 2.22631V0.722827L5.30764 0.722827V2.22631L21.1953 2.22631ZM21.1953 0.722827C21.1953 -4.05958 17.3111 -7.94385 12.5287 -7.94385L12.5287 7.94385C8.53654 7.94385 5.30764 4.71495 5.30764 0.722827L21.1953 0.722827ZM12.5287 -7.94385C7.74625 -7.94385 3.86198 -4.05958 3.86198 0.722827L19.7497 0.722827C19.7497 4.71495 16.5208 7.94385 12.5287 7.94385L12.5287 -7.94385ZM3.86198 0.722827L3.86198 2.16848L19.7497 2.16848V0.722827L3.86198 0.722827ZM11.8058 -5.77537L5.54136 -5.77537L5.54136 10.1123L11.8058 10.1123L11.8058 -5.77537ZM13.4852 2.16848V0.722827L-2.40249 0.722827L-2.40249 2.16848L13.4852 2.16848ZM13.4852 0.722827C13.4852 -4.05958 9.60094 -7.94385 4.81853 -7.94385L4.81853 7.94385C0.82641 7.94385 -2.40249 4.71495 -2.40249 0.722827L13.4852 0.722827ZM4.81853 -7.94385C0.0361193 -7.94385 -3.84814 -4.05958 -3.84814 0.722827L12.0396 0.722827C12.0396 4.71495 8.81065 7.94385 4.81853 7.94385L4.81853 -7.94385ZM-3.84814 0.722827L-3.84814 2.22631L12.0396 2.22631V0.722827L-3.84814 0.722827ZM3.3633 -5.6837C0.581165 -5.4261 -2.34886 -4.35593 -4.61896 -1.946C-6.83765 0.409352 -7.67627 3.24981 -7.87794 5.65989L7.95441 6.98477C7.94549 7.09144 7.83452 8.00436 6.94583 8.94779C6.00573 9.94579 5.00806 10.1197 4.82811 10.1363L3.3633 -5.6837ZM-7.88679 5.77578C-8.23817 10.8708 -4.12458 14.777 0.520119 14.777L0.520119 -1.11072C4.62511 -1.11072 8.27609 2.33287 7.96326 6.86888L-7.88679 5.77578ZM0.520119 14.777L16.8271 14.777L16.8271 -1.11072L0.520119 -1.11072L0.520119 14.777ZM16.8271 14.777C21.3948 14.777 25.7847 10.8623 25.2076 5.47605L9.41032 7.16861C8.89104 2.32206 12.8183 -1.11072 16.8271 -1.11072L16.8271 14.777ZM25.2251 5.65989C25.0235 3.24981 24.1848 0.409352 21.9661 -1.946C19.696 -4.35593 16.766 -5.4261 13.9839 -5.6837L12.5191 10.1363C12.3391 10.1197 11.3415 9.94579 10.4014 8.94779C9.51267 8.00436 9.4017 7.09144 9.39278 6.98477L25.2251 5.65989Z" fill="#A8B9CA" mask="url(#path-1-inside-1_1043_7368)"/>
<path opacity="0.4" d="M13.376 12.2529V15.1816C13.376 15.5979 13.3237 15.8296 13.2871 15.9404C13.1791 15.9742 12.9437 16.0283 12.5293 16.0283H4.81934C4.40335 16.0283 4.16707 15.9742 4.05957 15.9404C4.02299 15.8294 3.97168 15.5974 3.97168 15.1816L3.97168 12.2529L13.376 12.2529Z" fill="#828282" stroke="#A8B9CA" stroke-width="7.94385"/>
<path d="M4.90527 13.1621C5.00163 13.2054 5.1038 13.2353 5.20801 13.2461L5.30176 13.251C5.5209 13.251 5.74006 13.1696 5.91406 13.0332L5.98633 12.9717L5.30176 12.3223L5.24609 12.375M4.90527 13.1621L5.24609 12.375M4.90527 13.1621C4.82864 13.1277 4.75555 13.085 4.68945 13.0332L4.61719 12.9717L5.24609 12.375M4.90527 13.1621L5.24609 12.375M5.66797 11.4004C5.32756 11.2532 4.92678 11.3267 4.65625 11.5684L5.30078 12.249L5.36816 12.1777M5.66797 11.4004L5.36816 12.1777M5.66797 11.4004C5.77515 11.4416 5.86733 11.4979 5.94629 11.5674L5.36816 12.1777M5.66797 11.4004L5.36816 12.1777M6.26074 12.3809C6.23986 12.5818 6.15153 12.7759 6.01953 12.9307L5.33887 12.2861L6.01953 11.6416C6.17251 11.8205 6.26562 12.0536 6.26562 12.2871L6.26074 12.3809ZM4.58301 12.9307C4.45119 12.776 4.36364 12.5816 4.34277 12.3809L4.33789 12.2871C4.33789 12.0537 4.43023 11.8205 4.58301 11.6416L5.26367 12.2871L4.58301 12.9307Z" fill="#828282" stroke="#A8B9CA" stroke-width="7.94385"/>
<path d="M8.86621 13.2314L8.74414 12.5L8.63281 12.3613L7.98926 12.9717L8.06152 13.0332C8.21072 13.1501 8.39299 13.2267 8.58008 13.2461L8.67383 13.251L8.86621 13.2314ZM8.86621 13.2314C8.90968 13.2242 8.95262 13.2095 8.99609 13.1914L9.04004 13.1738C9.06899 13.1642 9.09801 13.1522 9.12695 13.1377L9.21387 13.0869M8.86621 13.2314L8.76465 12.5264L9.21387 13.0869M9.21387 13.0869L9.3584 12.9717L8.79395 12.4375M9.21387 13.0869L8.80762 12.4785M8.80762 12.4785L8.79395 12.4375M8.80762 12.4785L8.79395 12.4375M8.80762 12.4785L8.75684 12.4014L8.79395 12.4375M9.63281 12.3809C9.61193 12.5818 9.5236 12.7759 9.3916 12.9307L9.11914 12.6729L8.76758 12.2334L9.3916 11.6416C9.54458 11.8205 9.6377 12.0536 9.6377 12.2871L9.63281 12.3809ZM8.59961 12.3203L7.95508 12.9307C7.82326 12.776 7.73571 12.5816 7.71484 12.3809L7.70996 12.2871C7.70996 12.0537 7.8023 11.8205 7.95508 11.6416L8.37988 12.0439L8.59961 12.3203ZM8.59375 11.3281C8.85554 11.3048 9.12117 11.3917 9.31836 11.5674L8.73145 12.1875L8.71387 12.166L8.59375 11.3281ZM8.5498 11.335L8.68164 12.126L8.15918 11.4727C8.17794 11.4615 8.19689 11.4504 8.2168 11.4404L8.30762 11.4004C8.38581 11.3666 8.46746 11.3462 8.5498 11.335Z" fill="#828282" stroke="#A8B9CA" stroke-width="7.94385"/>
<path d="M12.2383 13.2324L12.1162 12.501L12.0635 12.4355L11.6113 13.001M12.2383 13.2324L12.0459 13.252L11.9521 13.2471C11.8128 13.2326 11.677 13.1851 11.5547 13.1143M12.2383 13.2324C12.2818 13.2252 12.3247 13.2105 12.3682 13.1924L12.4121 13.1748C12.4411 13.1652 12.4701 13.1532 12.499 13.1387L12.5859 13.0879M12.2383 13.2324L12.1367 12.5273L12.2334 12.6465M11.5547 13.1143L11.6113 13.001M11.5547 13.1143C11.5468 13.1097 11.539 13.1053 11.5312 13.1006L11.6113 13.001M11.5547 13.1143L11.6113 13.001M12.2334 12.6465L12.2441 12.6729M12.2334 12.6465L12.2441 12.6729M12.2334 12.6465L12.2383 12.6533M12.2441 12.6729L12.2383 12.6533M12.2441 12.6729L12.2383 12.6533M12.2383 12.6533L12.5859 13.0879M12.5859 13.0879C12.6075 13.0707 12.6289 13.0533 12.6504 13.0361L12.2666 12.6094L12.5859 13.0879ZM12.1738 12.1133L12.1533 12.1348L12.1797 12.0957M12.1738 12.1133L12.1797 12.0957M12.1738 12.1133L12.6885 11.5703L12.5859 11.4883M12.1738 12.1133L12.1797 12.0957M12.1797 12.0957L12.5859 11.4883M12.5859 11.4883C12.5571 11.4691 12.5279 11.4519 12.499 11.4375L12.3252 11.3652C12.2963 11.3556 12.2672 11.3486 12.2383 11.3438C12.1467 11.3255 12.0553 11.3203 11.9658 11.3281L12.0791 12.1211L12.5859 11.4883ZM13.0049 12.3818C12.984 12.5828 12.8957 12.7769 12.7637 12.9316L12.4912 12.6738L12.1826 12.2881L12.4922 11.9004L12.7637 11.6426C12.9167 11.8215 13.0098 12.0545 13.0098 12.2881L13.0049 12.3818ZM11.7529 12.5283L11.3271 12.9316C11.1953 12.7769 11.1078 12.5826 11.0869 12.3818L11.082 12.2881C11.082 12.0547 11.1743 11.8215 11.3271 11.6426L11.752 12.0449L11.9463 12.2881L11.7529 12.5283ZM11.9219 11.334L12.0537 12.127L11.5322 11.4746C11.5512 11.463 11.5706 11.4518 11.5908 11.4414L11.6797 11.4014C11.7571 11.367 11.8385 11.3454 11.9219 11.334Z" fill="#828282" stroke="#A8B9CA" stroke-width="7.94385"/>
<path d="M5.49316 16.6035L5.35938 15.7998L5.34082 15.7793L4.86621 16.3721M5.49316 16.6035L5.30078 16.623L5.20703 16.6172C5.14453 16.6103 5.08254 16.5972 5.02246 16.5781L4.93457 16.5459C4.88948 16.5286 4.84852 16.5077 4.80957 16.4854M5.49316 16.6035C5.53665 16.5963 5.57956 16.5816 5.62305 16.5635L5.66699 16.5459C5.69594 16.5362 5.72496 16.5242 5.75391 16.5098L5.84082 16.459C5.86297 16.4457 5.88313 16.4259 5.90527 16.4072L5.45312 15.9043M5.49316 16.6035L5.38184 15.8252L5.42188 15.8701M4.80957 16.4854L4.86621 16.3721M4.80957 16.4854C4.80193 16.481 4.79457 16.4763 4.78711 16.4717L4.86621 16.3721M4.80957 16.4854L4.86621 16.3721M5.42188 15.8701L5.49902 16.0439M5.42188 15.8701L5.49902 16.0439M5.42188 15.8701L5.45312 15.9043M5.49902 16.0439L5.45312 15.9043M5.49902 16.0439L5.45312 15.9043M5.66699 14.7725C5.60917 14.7435 5.55099 14.7245 5.49316 14.7148C5.40162 14.6966 5.31018 14.6914 5.2207 14.6992L5.33398 15.4922L5.41504 15.3906M5.66699 14.7725L5.6416 14.8467M5.66699 14.7725C5.66865 14.773 5.67022 14.7738 5.67188 14.7744M5.66699 14.7725L5.6416 14.8467M5.6416 14.8467L5.41504 15.3906M5.6416 14.8467L5.41504 15.3906M5.6416 14.8467L5.67188 14.7744M5.6416 14.8467L5.67188 14.7744M5.41504 15.3906L5.84082 14.8594M5.67188 14.7744C5.72802 14.7937 5.78468 14.8219 5.84082 14.8594M5.84082 14.8594L5.90527 14.9102L5.52246 15.3359L5.84082 14.8594ZM6.25977 15.7529C6.23891 15.9539 6.15055 16.148 6.01855 16.3027L5.74609 16.0449L5.4375 15.6592L5.74707 15.2715L6.01855 15.0137C6.17156 15.1926 6.26465 15.4256 6.26465 15.6592L6.25977 15.7529ZM5.00781 15.8994L4.58203 16.3027C4.45022 16.148 4.36264 15.9537 4.3418 15.7529L4.33691 15.6592C4.33691 15.4258 4.42923 15.1926 4.58203 15.0137L5.05566 15.4629L5.21484 15.6406L5.00781 15.8994ZM5.17676 14.7051L5.30859 15.498L4.78711 14.8457C4.80768 14.8331 4.82855 14.8207 4.85059 14.8096L4.93457 14.7725C5.01198 14.7381 5.09338 14.7164 5.17676 14.7051Z" fill="#828282" stroke="#A8B9CA" stroke-width="7.94385"/>
<path d="M8.67383 16.626L8.58008 16.6211C8.36169 16.5985 8.14952 16.4985 7.98926 16.3467L8.00684 16.3291L8.67383 15.6982M8.67383 16.626V15.6982M8.67383 16.626C8.92427 16.6259 9.17435 16.52 9.35742 16.3467L9.33984 16.3291L8.67383 15.6982M8.67383 16.626V15.6982M9.63281 15.7568C9.61187 15.9578 9.52363 16.1519 9.3916 16.3066L8.71094 15.6621L9.3916 15.0176C9.54441 15.1964 9.63758 15.4288 9.6377 15.6621L9.63281 15.7568ZM7.95508 16.3066C7.82324 16.152 7.73578 15.9576 7.71484 15.7568L7.70996 15.6621C7.71008 15.4289 7.80247 15.1963 7.95508 15.0176L8.63574 15.6621L7.95508 16.3066ZM8.02832 14.9434C8.37865 14.6347 8.96783 14.6349 9.31836 14.9434L8.67383 15.624L8.02832 14.9434Z" fill="#828282" stroke="#A8B9CA" stroke-width="7.94385"/>
<path d="M12.0469 16.626L11.9531 16.6211C11.7347 16.5985 11.5226 16.4985 11.3623 16.3467L11.3799 16.3291L12.0469 15.6982M12.0469 16.626V15.6982M12.0469 16.626C12.2973 16.6259 12.5474 16.52 12.7305 16.3467L12.7129 16.3291L12.0469 15.6982M12.0469 16.626V15.6982M13.0059 15.7568C12.9849 15.9578 12.8967 16.1519 12.7646 16.3066L12.084 15.6621L12.7646 15.0176C12.9175 15.1964 13.0106 15.4288 13.0107 15.6621L13.0059 15.7568ZM11.3281 16.3066C11.1963 16.152 11.1088 15.9576 11.0879 15.7568L11.083 15.6621C11.0831 15.4289 11.1755 15.1963 11.3281 15.0176L12.0088 15.6621L11.3281 16.3066ZM11.4014 14.9434C11.7517 14.6347 12.3409 14.6349 12.6914 14.9434L12.0469 15.624L11.4014 14.9434Z" fill="#828282" stroke="#A8B9CA" stroke-width="7.94385"/>
</svg>
