<svg width="18" height="19" viewBox="0 0 18 19" fill="none" xmlns="http://www.w3.org/2000/svg">
<circle cx="8.82143" cy="9.08388" r="8.57143" fill="#FD0D1B"/>
<path d="M6.94635 9.30485C7.06426 9.35131 7.17532 9.40919 7.28745 9.46807C7.32016 9.48485 7.35286 9.50163 7.38656 9.51891C7.4856 9.56987 7.58432 9.62141 7.68296 9.67315C7.70997 9.68726 7.73699 9.70137 7.76483 9.7159C7.89204 9.78238 8.019 9.84932 8.14582 9.91655C8.35356 10.0265 8.56238 10.1343 8.77112 10.2423C9.05634 10.39 9.34116 10.5383 9.62521 10.6882C9.82851 10.7955 10.0322 10.902 10.236 11.0083C10.2682 11.025 10.3004 11.0418 10.3335 11.0591C10.4321 11.1105 10.5308 11.1619 10.6294 11.2133C10.8557 11.3313 11.082 11.4493 11.3082 11.5675C11.368 11.5987 11.4277 11.6298 11.4874 11.6609C12.4475 12.1609 12.4475 12.1609 12.5379 12.2513C12.5285 12.5116 12.4474 12.7177 12.3433 12.9544C12.3187 13.0112 12.3187 13.0112 12.2936 13.0692C11.9076 13.9533 11.4749 14.8143 10.9642 15.633C10.9492 15.6573 10.9342 15.6816 10.9188 15.7066C10.6964 16.0649 10.4775 16.3873 10.0551 16.5157C9.39161 16.664 8.59317 16.2303 8.01778 15.9343C7.95081 15.8673 7.95081 15.8673 7.93951 15.7871C7.95368 15.6778 7.98317 15.6505 8.06473 15.5782C8.08887 15.5563 8.11302 15.5344 8.13789 15.5118C8.16386 15.4889 8.18982 15.4661 8.21658 15.4425C8.26937 15.3944 8.32208 15.3462 8.3747 15.2979C8.40004 15.2747 8.42538 15.2516 8.45149 15.2278C8.80252 14.9023 9.33199 14.337 9.42821 13.8521C9.42279 13.6867 9.38812 13.6226 9.2901 13.4901C9.19111 13.4088 9.0842 13.4142 8.95855 13.411C8.82526 13.4341 8.74153 13.4992 8.65538 13.601C8.63487 13.6307 8.61437 13.6604 8.59325 13.691C8.57012 13.7239 8.54698 13.7567 8.52315 13.7905C8.50001 13.824 8.47688 13.8574 8.45304 13.8919C8.25997 14.17 8.05013 14.4177 7.81688 14.662C7.79245 14.6882 7.76803 14.7144 7.74286 14.7414C7.59618 14.8943 7.4389 15.0325 7.27489 15.1663C7.25539 15.1827 7.23589 15.1991 7.2158 15.216C7.08572 15.3194 7.00996 15.3478 6.8459 15.3316C6.75943 15.2924 6.75943 15.2924 6.67287 15.2371C6.64048 15.2166 6.60809 15.1962 6.57472 15.1751C6.52354 15.1417 6.52354 15.1417 6.47132 15.1077C6.4361 15.0852 6.40088 15.0627 6.36459 15.0396C5.48932 14.4773 5.48932 14.4773 5.37269 14.3607C5.37132 14.2937 5.37126 14.2267 5.37269 14.1598C5.43268 14.1298 5.49267 14.0998 5.55265 14.0698C5.58956 14.0512 5.62646 14.0326 5.66448 14.0134C5.7293 13.9813 5.79448 13.9498 5.8604 13.92C6.03585 13.8394 6.18809 13.7401 6.34158 13.624C6.36951 13.6032 6.36951 13.6032 6.398 13.5819C6.52668 13.4816 6.6266 13.3845 6.65835 13.2202C6.65655 13.0718 6.64497 12.9711 6.54456 12.854C6.40755 12.7561 6.29076 12.7324 6.12747 12.7568C5.97865 12.8096 5.86625 12.9125 5.74361 13.0097C5.36503 13.2985 4.89558 13.4033 4.43519 13.4901C4.39997 13.497 4.36475 13.5039 4.32846 13.511C4.12267 13.4773 4.01078 13.3313 3.86599 13.1888C3.82308 13.1507 3.77985 13.113 3.73625 13.0758C2.8204 12.2746 2.8204 12.2746 2.78436 11.9151C2.77295 11.6233 2.81803 11.4417 3.00801 11.2217C3.23911 11.0236 3.43795 10.97 3.73416 10.9036C4.76734 10.6568 5.7725 10.204 6.55306 9.46807C6.57581 9.44667 6.59856 9.42526 6.62199 9.4032C6.6412 9.38417 6.6604 9.36513 6.68019 9.34552C6.77892 9.28399 6.8304 9.28823 6.94635 9.30485Z" fill="#E6F1FF"/>
<path d="M14.3521 3.2153C14.6403 3.48492 14.8345 3.86013 14.8595 4.25534C14.861 4.30485 14.8621 4.35438 14.8627 4.40391C14.863 4.42669 14.8633 4.44946 14.8637 4.47292C14.8579 4.81384 14.7147 5.10434 14.5613 5.4021C14.5434 5.43735 14.5255 5.4726 14.5071 5.50892C14.3742 5.76985 14.2384 6.02925 14.1012 6.28794C13.9916 6.49487 13.8842 6.70293 13.7766 6.91089C13.7169 7.026 13.6572 7.14111 13.5975 7.25621C13.5626 7.32356 13.5277 7.39094 13.4929 7.45834C13.4495 7.5424 13.4059 7.62637 13.3622 7.71028C13.349 7.73566 13.3358 7.76104 13.3222 7.7872C13.2202 7.98086 13.1061 8.1641 12.9831 8.34513C12.9326 8.43035 12.9326 8.43035 12.9433 8.51803C12.9775 8.61432 13.0206 8.70023 13.0693 8.79007C13.4028 9.44042 13.3644 10.1507 13.1472 10.8277C13.1191 10.9121 13.0894 10.9958 13.0588 11.0794C13.0496 11.1057 13.0403 11.1319 13.0308 11.159C12.9618 11.3371 12.9618 11.3371 12.8694 11.3794C12.7225 11.3814 12.62 11.3177 12.4925 11.2493C12.4516 11.2281 12.4516 11.2281 12.4099 11.2065C12.3226 11.1611 12.2355 11.115 12.1485 11.069C12.0918 11.0393 12.035 11.0097 11.9782 10.9802C11.8358 10.906 11.6937 10.8312 11.5517 10.7562C11.4111 10.6819 11.2704 10.6079 11.1297 10.5339C11.1031 10.5199 11.0766 10.506 11.0493 10.4916C10.8481 10.3857 10.6467 10.2803 10.4451 10.1754C10.2132 10.0546 9.98159 9.93332 9.75035 9.81128C9.4915 9.67472 9.23177 9.53989 8.97189 9.40531C8.85697 9.34572 8.74207 9.28612 8.62716 9.22652C8.5589 9.19115 8.4906 9.15583 8.42228 9.12058C7.89799 8.85005 7.89799 8.85005 7.69329 8.7273C7.67106 8.714 7.64883 8.70071 7.62593 8.68701C7.58238 8.63522 7.58238 8.63522 7.5625 8.54367C7.59124 8.38561 7.67777 8.3104 7.78955 8.19995C7.82844 8.16024 7.86729 8.12048 7.90608 8.08067C7.93461 8.05177 7.93461 8.05177 7.96372 8.02229C8.01357 7.96986 8.05925 7.91604 8.10449 7.85964C8.44276 7.46096 9.04744 7.15691 9.55783 7.06156C9.61005 7.0609 9.66229 7.06123 9.71451 7.06234C9.961 7.06549 9.961 7.06549 10.194 6.9946C10.3462 6.83588 10.4156 6.61686 10.4928 6.41487C10.5459 6.28228 10.613 6.15913 10.6816 6.03408C10.7094 5.98168 10.7372 5.92923 10.7649 5.87674C10.7802 5.84772 10.7955 5.8187 10.8113 5.7888C10.9094 5.60131 11.0061 5.41306 11.1029 5.22486C11.1398 5.1531 11.1768 5.08136 11.2138 5.00963C11.3206 4.80252 11.4272 4.59537 11.5324 4.38749C11.5637 4.32568 11.5952 4.26395 11.6267 4.20224C11.6648 4.12747 11.7027 4.05258 11.7403 3.97754C12.01 3.45057 12.314 3.07875 12.8855 2.88231C13.3954 2.75232 13.9444 2.88824 14.3521 3.2153Z" fill="#E6F1FF"/>
<path d="M4.61537 6.76647C4.78899 6.88635 4.94055 7.02606 4.98812 7.23758C5.02077 7.4647 4.99099 7.62935 4.86714 7.82234C4.74049 7.98916 4.60707 8.05107 4.40611 8.0932C4.18555 8.11207 4.02818 8.06607 3.85575 7.92579C3.6937 7.77107 3.62846 7.62183 3.61719 7.39845C3.62398 7.20423 3.68059 7.05279 3.8135 6.90969C4.04324 6.70607 4.32835 6.66548 4.61537 6.76647Z" fill="#E6F1FF"/>
<path d="M2.86783 8.85913C3.03359 8.979 3.13118 9.10218 3.1799 9.3029C3.21115 9.51307 3.17331 9.66202 3.06899 9.84907C2.93283 10.0202 2.81109 10.1029 2.59396 10.142C2.36924 10.1521 2.20255 10.1024 2.02202 9.96757C1.86413 9.8203 1.81685 9.66868 1.80713 9.45566C1.81548 9.25456 1.86743 9.1007 2.00554 8.95238C2.25348 8.73199 2.57798 8.69073 2.86783 8.85913Z" fill="#E6F1FF"/>
</svg>
