<svg width="103" height="46" viewBox="0 0 103 46" fill="none" xmlns="http://www.w3.org/2000/svg">
<rect x="0.5" y="0.5" width="102" height="45" rx="11.5" fill="white"/>
<rect x="0.5" y="0.5" width="102" height="45" rx="11.5" stroke="#FF1901"/>
<path d="M27.5328 29.18C26.5728 29.18 25.6788 29.024 24.8508 28.712C24.0348 28.388 23.3208 27.938 22.7088 27.362C22.1088 26.774 21.6408 26.084 21.3048 25.292C20.9688 24.5 20.8008 23.636 20.8008 22.7C20.8008 21.764 20.9688 20.9 21.3048 20.108C21.6408 19.316 22.1148 18.632 22.7268 18.056C23.3388 17.468 24.0528 17.018 24.8688 16.706C25.6848 16.382 26.5788 16.22 27.5508 16.22C28.5828 16.22 29.5248 16.4 30.3768 16.76C31.2288 17.108 31.9488 17.63 32.5368 18.326L31.0248 19.748C30.5688 19.256 30.0588 18.89 29.4948 18.65C28.9308 18.398 28.3188 18.272 27.6588 18.272C26.9988 18.272 26.3928 18.38 25.8408 18.596C25.3008 18.812 24.8268 19.118 24.4188 19.514C24.0228 19.91 23.7108 20.378 23.4828 20.918C23.2668 21.458 23.1588 22.052 23.1588 22.7C23.1588 23.348 23.2668 23.942 23.4828 24.482C23.7108 25.022 24.0228 25.49 24.4188 25.886C24.8268 26.282 25.3008 26.588 25.8408 26.804C26.3928 27.02 26.9988 27.128 27.6588 27.128C28.3188 27.128 28.9308 27.008 29.4948 26.768C30.0588 26.516 30.5688 26.138 31.0248 25.634L32.5368 27.074C31.9488 27.758 31.2288 28.28 30.3768 28.64C29.5248 29 28.5768 29.18 27.5328 29.18ZM40.397 29V27.056L40.271 26.642V23.24C40.271 22.58 40.073 22.07 39.677 21.71C39.281 21.338 38.681 21.152 37.877 21.152C37.337 21.152 36.803 21.236 36.275 21.404C35.759 21.572 35.321 21.806 34.961 22.106L34.079 20.468C34.595 20.072 35.207 19.778 35.915 19.586C36.635 19.382 37.379 19.28 38.147 19.28C39.539 19.28 40.613 19.616 41.369 20.288C42.137 20.948 42.521 21.974 42.521 23.366V29H40.397ZM37.373 29.126C36.653 29.126 36.023 29.006 35.483 28.766C34.943 28.514 34.523 28.172 34.223 27.74C33.935 27.296 33.791 26.798 33.791 26.246C33.791 25.706 33.917 25.22 34.169 24.788C34.433 24.356 34.859 24.014 35.447 23.762C36.035 23.51 36.815 23.384 37.787 23.384H40.577V24.878H37.949C37.181 24.878 36.665 25.004 36.401 25.256C36.137 25.496 36.005 25.796 36.005 26.156C36.005 26.564 36.167 26.888 36.491 27.128C36.815 27.368 37.265 27.488 37.841 27.488C38.393 27.488 38.885 27.362 39.317 27.11C39.761 26.858 40.079 26.486 40.271 25.994L40.649 27.344C40.433 27.908 40.043 28.346 39.479 28.658C38.927 28.97 38.225 29.126 37.373 29.126ZM50.8626 19.28C51.6306 19.28 52.3146 19.43 52.9146 19.73C53.5266 20.03 54.0066 20.492 54.3546 21.116C54.7026 21.728 54.8766 22.52 54.8766 23.492V29H52.6266V23.78C52.6266 22.928 52.4226 22.292 52.0146 21.872C51.6186 21.452 51.0606 21.242 50.3406 21.242C49.8126 21.242 49.3446 21.35 48.9366 21.566C48.5286 21.782 48.2106 22.106 47.9826 22.538C47.7666 22.958 47.6586 23.492 47.6586 24.14V29H45.4086V19.388H47.5506V21.98L47.1726 21.188C47.5086 20.576 47.9946 20.108 48.6306 19.784C49.2786 19.448 50.0226 19.28 50.8626 19.28ZM62.1585 29.126C61.1505 29.126 60.2505 28.916 59.4585 28.496C58.6785 28.064 58.0665 27.476 57.6225 26.732C57.1785 25.988 56.9565 25.142 56.9565 24.194C56.9565 23.234 57.1785 22.388 57.6225 21.656C58.0665 20.912 58.6785 20.33 59.4585 19.91C60.2505 19.49 61.1505 19.28 62.1585 19.28C63.0945 19.28 63.9165 19.472 64.6245 19.856C65.3445 20.228 65.8905 20.78 66.2625 21.512L64.5345 22.52C64.2465 22.064 63.8925 21.728 63.4725 21.512C63.0645 21.296 62.6205 21.188 62.1405 21.188C61.5885 21.188 61.0905 21.308 60.6465 21.548C60.2025 21.788 59.8545 22.136 59.6025 22.592C59.3505 23.036 59.2245 23.57 59.2245 24.194C59.2245 24.818 59.3505 25.358 59.6025 25.814C59.8545 26.258 60.2025 26.6 60.6465 26.84C61.0905 27.08 61.5885 27.2 62.1405 27.2C62.6205 27.2 63.0645 27.092 63.4725 26.876C63.8925 26.66 64.2465 26.324 64.5345 25.868L66.2625 26.876C65.8905 27.596 65.3445 28.154 64.6245 28.55C63.9165 28.934 63.0945 29.126 62.1585 29.126ZM72.5848 29.126C71.5168 29.126 70.5808 28.916 69.7768 28.496C68.9848 28.064 68.3668 27.476 67.9228 26.732C67.4908 25.988 67.2748 25.142 67.2748 24.194C67.2748 23.234 67.4848 22.388 67.9048 21.656C68.3368 20.912 68.9248 20.33 69.6688 19.91C70.4248 19.49 71.2828 19.28 72.2428 19.28C73.1788 19.28 74.0128 19.484 74.7448 19.892C75.4768 20.3 76.0528 20.876 76.4728 21.62C76.8928 22.364 77.1028 23.24 77.1028 24.248C77.1028 24.344 77.0968 24.452 77.0848 24.572C77.0848 24.692 77.0788 24.806 77.0668 24.914H69.0568V23.42H75.8788L74.9968 23.888C75.0088 23.336 74.8948 22.85 74.6548 22.43C74.4148 22.01 74.0848 21.68 73.6648 21.44C73.2568 21.2 72.7828 21.08 72.2428 21.08C71.6908 21.08 71.2048 21.2 70.7848 21.44C70.3768 21.68 70.0528 22.016 69.8128 22.448C69.5848 22.868 69.4708 23.366 69.4708 23.942V24.302C69.4708 24.878 69.6028 25.388 69.8668 25.832C70.1308 26.276 70.5028 26.618 70.9828 26.858C71.4628 27.098 72.0148 27.218 72.6388 27.218C73.1788 27.218 73.6648 27.134 74.0968 26.966C74.5288 26.798 74.9128 26.534 75.2488 26.174L76.4548 27.56C76.0228 28.064 75.4768 28.454 74.8168 28.73C74.1688 28.994 73.4248 29.126 72.5848 29.126ZM79.2641 29V15.644H81.5141V29H79.2641Z" fill="#FF1901"/>
</svg>
