<svg width="19" height="19" viewBox="0 0 19 19" fill="none" xmlns="http://www.w3.org/2000/svg">
<path d="M9.49991 14.6154C12.3251 14.6154 14.6153 12.3251 14.6153 9.5C14.6153 6.67485 12.3251 4.38461 9.49991 4.38461C6.67476 4.38461 4.38452 6.67485 4.38452 9.5C4.38452 12.3251 6.67476 14.6154 9.49991 14.6154Z" fill="#ADADAD"/>
<path d="M9.5 19C4.2617 19 0 14.7383 0 9.5C0 4.2617 4.2617 0 9.5 0C14.7383 0 19 4.2617 19 9.5C19 14.7383 14.7383 19 9.5 19ZM9.5 1.26667C4.96027 1.26667 1.26667 4.96027 1.26667 9.5C1.26667 14.0397 4.96027 17.7333 9.5 17.7333C14.0397 17.7333 17.7333 14.0397 17.7333 9.5C17.7333 4.96027 14.0397 1.26667 9.5 1.26667Z" fill="#8D91A0"/>
</svg>
