<svg width="23" height="23" viewBox="0 0 23 23" fill="none" xmlns="http://www.w3.org/2000/svg">
<circle cx="11.5" cy="11.5" r="11" fill="white"/>
<path d="M12.2524 6.84615C12.2524 6.37812 11.8798 6 11.4187 6C10.9576 6 10.5851 6.37812 10.5851 6.84615V10.6538H6.83365C6.37254 10.6538 6 11.032 6 11.5C6 11.968 6.37254 12.3462 6.83365 12.3462H10.5851V16.1538C10.5851 16.6219 10.9576 17 11.4187 17C11.8798 17 12.2524 16.6219 12.2524 16.1538V12.3462H16.0038C16.4649 12.3462 16.8374 11.968 16.8374 11.5C16.8374 11.032 16.4649 10.6538 16.0038 10.6538H12.2524V6.84615Z" fill="#DC143C"/>
</svg>
