<svg width="18" height="18" viewBox="0 0 18 18" fill="none" xmlns="http://www.w3.org/2000/svg">
<circle cx="8.82143" cy="8.57143" r="8.57143" fill="#FD0D1B"/>
<path d="M6.94635 8.79241C7.06426 8.83888 7.17532 8.89676 7.28745 8.95564C7.32016 8.97241 7.35286 8.98919 7.38656 9.00647C7.4856 9.05744 7.58432 9.10898 7.68296 9.16072C7.70997 9.17482 7.73699 9.18893 7.76483 9.20347C7.89204 9.26994 8.019 9.33689 8.14582 9.40412C8.35356 9.51404 8.56238 9.6219 8.77112 9.72991C9.05634 9.87757 9.34116 10.0259 9.62521 10.1758C9.82851 10.283 10.0322 10.3895 10.236 10.4958C10.2682 10.5126 10.3004 10.5294 10.3335 10.5467C10.4321 10.5981 10.5308 10.6495 10.6294 10.7009C10.8557 10.8188 11.082 10.9369 11.3082 11.055C11.368 11.0862 11.4277 11.1174 11.4874 11.1485C12.4475 11.6485 12.4475 11.6485 12.5379 11.7388C12.5285 11.9992 12.4474 12.2053 12.3433 12.442C12.3187 12.4988 12.3187 12.4988 12.2936 12.5568C11.9076 13.4408 11.4749 14.3018 10.9642 15.1205C10.9492 15.1448 10.9342 15.1691 10.9188 15.1941C10.6964 15.5524 10.4775 15.8748 10.0551 16.0032C9.39161 16.1516 8.59317 15.7178 8.01778 15.4219C7.95081 15.3549 7.95081 15.3549 7.93951 15.2746C7.95368 15.1654 7.98317 15.138 8.06473 15.0657C8.08887 15.0438 8.11302 15.0219 8.13789 14.9994C8.16386 14.9765 8.18982 14.9537 8.21658 14.9301C8.26937 14.882 8.32208 14.8338 8.3747 14.7855C8.40004 14.7623 8.42538 14.7392 8.45149 14.7153C8.80252 14.3898 9.33199 13.8245 9.42821 13.3397C9.42279 13.1743 9.38812 13.1101 9.2901 12.9777C9.19111 12.8964 9.0842 12.9018 8.95855 12.8986C8.82526 12.9216 8.74153 12.9868 8.65538 13.0886C8.63487 13.1183 8.61437 13.148 8.59325 13.1786C8.57012 13.2114 8.54698 13.2443 8.52315 13.2781C8.50001 13.3116 8.47688 13.345 8.45304 13.3795C8.25997 13.6576 8.05013 13.9052 7.81688 14.1496C7.79245 14.1758 7.76803 14.202 7.74286 14.2289C7.59618 14.3819 7.4389 14.52 7.27489 14.6539C7.25539 14.6703 7.23589 14.6867 7.2158 14.7036C7.08572 14.8069 7.00996 14.8354 6.8459 14.8192C6.75943 14.78 6.75943 14.78 6.67287 14.7246C6.64048 14.7042 6.60809 14.6837 6.57472 14.6627C6.52354 14.6293 6.52354 14.6293 6.47132 14.5953C6.4361 14.5728 6.40088 14.5503 6.36459 14.5271C5.48932 13.9648 5.48932 13.9648 5.37269 13.8482C5.37132 13.7813 5.37126 13.7143 5.37269 13.6473C5.43268 13.6173 5.49267 13.5873 5.55265 13.5573C5.58956 13.5387 5.62646 13.5201 5.66448 13.501C5.7293 13.4688 5.79448 13.4374 5.8604 13.4076C6.03585 13.3269 6.18809 13.2277 6.34158 13.1116C6.36951 13.0907 6.36951 13.0907 6.398 13.0695C6.52668 12.9691 6.6266 12.8721 6.65835 12.7077C6.65655 12.5593 6.64497 12.4587 6.54456 12.3415C6.40755 12.2437 6.29076 12.22 6.12747 12.2443C5.97865 12.2972 5.86625 12.4001 5.74361 12.4973C5.36503 12.786 4.89558 12.8908 4.43519 12.9777C4.39997 12.9846 4.36475 12.9915 4.32846 12.9986C4.12267 12.9649 4.01078 12.8188 3.86599 12.6763C3.82308 12.6383 3.77985 12.6006 3.73625 12.5633C2.8204 11.7622 2.8204 11.7622 2.78436 11.4027C2.77295 11.1108 2.81803 10.9292 3.00801 10.7093C3.23911 10.5112 3.43795 10.4576 3.73416 10.3912C4.76734 10.1443 5.7725 9.69156 6.55306 8.95564C6.57581 8.93423 6.59856 8.91282 6.62199 8.89077C6.6412 8.87173 6.6604 8.8527 6.68019 8.83309C6.77892 8.77156 6.8304 8.77579 6.94635 8.79241Z" fill="#E6F1FF"/>
<path d="M14.3523 2.70285C14.6406 2.97247 14.8347 3.34768 14.8598 3.74289C14.8613 3.7924 14.8623 3.84193 14.8629 3.89146C14.8632 3.91424 14.8636 3.93701 14.8639 3.96047C14.8581 4.30139 14.7149 4.59189 14.5616 4.88965C14.5437 4.9249 14.5258 4.96015 14.5073 4.99646C14.3744 5.2574 14.2387 5.5168 14.1014 5.77549C13.9918 5.98242 13.8844 6.19048 13.7768 6.39844C13.7171 6.51355 13.6574 6.62865 13.5977 6.74376C13.5628 6.81111 13.528 6.87848 13.4932 6.94589C13.4498 7.02995 13.4062 7.11392 13.3625 7.19782C13.3493 7.22321 13.3361 7.24859 13.3225 7.27475C13.2204 7.46841 13.1063 7.65165 12.9833 7.83268C12.9329 7.9179 12.9329 7.9179 12.9436 8.00558C12.9777 8.10187 13.0208 8.18778 13.0695 8.27762C13.4031 8.92797 13.3647 9.63824 13.1475 10.3152C13.1193 10.3997 13.0896 10.4834 13.059 10.567C13.0498 10.5932 13.0406 10.6195 13.031 10.6465C12.962 10.8246 12.962 10.8246 12.8696 10.867C12.7227 10.869 12.6203 10.8052 12.4927 10.7369C12.4519 10.7157 12.4519 10.7157 12.4102 10.6941C12.3228 10.6487 12.2358 10.6026 12.1488 10.5565C12.092 10.5269 12.0352 10.4973 11.9785 10.4678C11.836 10.3935 11.6939 10.3187 11.5519 10.2437C11.4113 10.1695 11.2706 10.0955 11.1299 10.0214C11.1034 10.0075 11.0768 9.9935 11.0495 9.97911C10.8484 9.87322 10.647 9.76789 10.4453 9.66295C10.2135 9.54213 9.98183 9.42087 9.75059 9.29883C9.49175 9.16226 9.23202 9.02744 8.97213 8.89286C8.85722 8.83327 8.74231 8.77367 8.6274 8.71407C8.55914 8.6787 8.49085 8.64338 8.42252 8.60813C7.89823 8.3376 7.89823 8.3376 7.69353 8.21484C7.67131 8.20155 7.64908 8.18826 7.62618 8.17456C7.58262 8.12277 7.58262 8.12277 7.56274 8.03122C7.59148 7.87316 7.67802 7.79795 7.78979 7.6875C7.82869 7.64779 7.86753 7.60803 7.90633 7.56822C7.93486 7.53932 7.93486 7.53932 7.96397 7.50984C8.01382 7.45741 8.05949 7.40359 8.10474 7.34719C8.44301 6.94851 9.04769 6.64445 9.55807 6.54911C9.6103 6.54845 9.66254 6.54878 9.71476 6.54989C9.96124 6.55304 9.96124 6.55304 10.1942 6.48214C10.3465 6.32343 10.4159 6.10441 10.4931 5.90242C10.5461 5.76983 10.6132 5.64668 10.6818 5.52163C10.7097 5.46923 10.7375 5.41678 10.7651 5.36429C10.7804 5.33527 10.7957 5.30625 10.8115 5.27635C10.9097 5.08886 11.0064 4.9006 11.1032 4.71241C11.1401 4.64065 11.1771 4.56891 11.2141 4.49717C11.3208 4.29007 11.4274 4.08292 11.5327 3.87504C11.564 3.81323 11.5954 3.7515 11.6269 3.68979C11.6651 3.61502 11.7029 3.54013 11.7405 3.46509C12.0102 2.93812 12.3142 2.5663 12.8858 2.36986C13.3956 2.23987 13.9446 2.37579 14.3523 2.70285Z" fill="#E6F1FF"/>
<path d="M4.61513 6.25405C4.78875 6.37393 4.94031 6.51363 4.98788 6.72516C5.02053 6.95228 4.99074 7.11693 4.8669 7.30992C4.74024 7.47674 4.60682 7.53865 4.40587 7.58078C4.1853 7.59965 4.02794 7.55365 3.8555 7.41337C3.69346 7.25865 3.62822 7.10941 3.61694 6.88603C3.62373 6.69181 3.68035 6.54037 3.81326 6.39727C4.043 6.19365 4.3281 6.15306 4.61513 6.25405Z" fill="#E6F1FF"/>
<path d="M2.86759 8.34655C3.03335 8.46643 3.13094 8.58961 3.17965 8.79032C3.21091 9.00049 3.17306 9.14945 3.06874 9.3365C2.93259 9.50767 2.81084 9.59031 2.59372 9.62947C2.36899 9.63953 2.20231 9.58984 2.02177 9.455C1.86389 9.30772 1.81661 9.15611 1.80688 8.94308C1.81524 8.74199 1.86719 8.58813 2.00529 8.43981C2.25324 8.21941 2.57774 8.17816 2.86759 8.34655Z" fill="#E6F1FF"/>
</svg>
