<svg width="134" height="46" viewBox="0 0 134 46" fill="none" xmlns="http://www.w3.org/2000/svg">
<rect x="0.5" y="0.5" width="133" height="45" rx="11.5" fill="#FF1901"/>
<rect x="0.5" y="0.5" width="133" height="45" rx="11.5" stroke="#FF1901"/>
<circle cx="38.5" cy="22.5" r="10" fill="white"/>
<path d="M36.3127 22.7578C36.4502 22.812 36.5798 22.8795 36.7106 22.9482C36.7488 22.9678 36.7869 22.9874 36.8262 23.0075C36.9418 23.067 37.057 23.1271 37.172 23.1875C37.2035 23.2039 37.2351 23.2204 37.2675 23.2374C37.416 23.3149 37.5641 23.393 37.712 23.4715C37.9544 23.5997 38.198 23.7255 38.4416 23.8515C38.7743 24.0238 39.1066 24.1969 39.438 24.3717C39.6752 24.4968 39.9128 24.6211 40.1505 24.7451C40.1881 24.7647 40.2257 24.7843 40.2644 24.8045C40.3794 24.8644 40.4945 24.9244 40.6095 24.9844C40.8736 25.122 41.1376 25.2596 41.4015 25.3975C41.4712 25.4339 41.5409 25.4703 41.6106 25.5066C42.7307 26.0899 42.7307 26.0899 42.8361 26.1953C42.8252 26.499 42.7306 26.7395 42.609 27.0156C42.5804 27.0819 42.5804 27.0819 42.5511 27.1495C42.1008 28.181 41.596 29.1854 41.0002 30.1406C40.9827 30.1689 40.9652 30.1973 40.9472 30.2265C40.6877 30.6445 40.4323 31.0206 39.9395 31.1704C39.1655 31.3435 38.2339 30.8374 37.5627 30.4922C37.4845 30.414 37.4845 30.414 37.4713 30.3204C37.4879 30.1929 37.5223 30.161 37.6174 30.0767C37.6456 30.0511 37.6738 30.0256 37.7028 29.9992C37.7331 29.9726 37.7634 29.9459 37.7946 29.9184C37.8562 29.8623 37.9177 29.806 37.9791 29.7497C38.0086 29.7227 38.0382 29.6957 38.0687 29.6679C38.4782 29.2881 39.0959 28.6286 39.2082 28.063C39.2018 27.87 39.1614 27.7951 39.047 27.6406C38.9315 27.5457 38.8068 27.5521 38.6602 27.5483C38.5047 27.5752 38.407 27.6512 38.3065 27.77C38.2826 27.8046 38.2587 27.8393 38.234 27.875C38.207 27.9133 38.1801 27.9516 38.1523 27.9911C38.1253 28.0301 38.0983 28.0692 38.0705 28.1094C37.8452 28.4338 37.6004 28.7227 37.3283 29.0078C37.2998 29.0384 37.2713 29.0689 37.2419 29.1004C37.0708 29.2789 36.8873 29.44 36.696 29.5962C36.6732 29.6153 36.6505 29.6345 36.627 29.6542C36.4752 29.7747 36.3869 29.8079 36.1955 29.789C36.0946 29.7433 36.0946 29.7433 35.9936 29.6787C35.9558 29.6549 35.918 29.631 35.8791 29.6064C35.8194 29.5675 35.8194 29.5675 35.7585 29.5278C35.7174 29.5016 35.6763 29.4753 35.6339 29.4483C34.6128 28.7923 34.6128 28.7923 34.4767 28.6562C34.4751 28.5781 34.4751 28.5 34.4767 28.4219C34.5467 28.3869 34.6167 28.3519 34.6867 28.3169C34.7297 28.2952 34.7728 28.2735 34.8171 28.2511C34.8928 28.2136 34.9688 28.1769 35.0457 28.1422C35.2504 28.0481 35.428 27.9323 35.6071 27.7969C35.6397 27.7725 35.6397 27.7725 35.6729 27.7477C35.823 27.6306 35.9396 27.5174 35.9767 27.3257C35.9746 27.1526 35.961 27.0351 35.8439 26.8984C35.684 26.7842 35.5478 26.7566 35.3573 26.785C35.1837 26.8467 35.0525 26.9667 34.9095 27.0802C34.4678 27.417 33.9201 27.5393 33.383 27.6406C33.3419 27.6487 33.3008 27.6567 33.2585 27.665C33.0184 27.6257 32.8878 27.4553 32.7189 27.289C32.6688 27.2447 32.6184 27.2007 32.5675 27.1572C31.499 26.2226 31.499 26.2226 31.457 25.8031C31.4437 25.4626 31.4963 25.2508 31.7179 24.9941C31.9875 24.763 32.2195 24.7005 32.5651 24.623C33.7705 24.335 34.9432 23.8068 35.8538 22.9482C35.8804 22.9233 35.9069 22.8983 35.9342 22.8725C35.9566 22.8503 35.979 22.8281 36.0021 22.8053C36.1173 22.7335 36.1774 22.7384 36.3127 22.7578Z" fill="#FF1901"/>
<path d="M44.9524 15.6533C45.2887 15.9679 45.5153 16.4056 45.5444 16.8667C45.5462 16.9245 45.5474 16.9823 45.5481 17.04C45.5485 17.0666 45.5489 17.0932 45.5493 17.1206C45.5425 17.5183 45.3755 17.8572 45.1965 18.2046C45.1757 18.2457 45.1548 18.2868 45.1333 18.3292C44.9782 18.6336 44.8198 18.9363 44.6597 19.2381C44.5319 19.4795 44.4066 19.7222 44.281 19.9648C44.2114 20.0991 44.1417 20.2334 44.0721 20.3677C44.0314 20.4463 43.9907 20.5249 43.9501 20.6035C43.8994 20.7016 43.8486 20.7996 43.7976 20.8975C43.7822 20.9271 43.7668 20.9567 43.7509 20.9872C43.6319 21.2131 43.4987 21.4269 43.3553 21.6381C43.2964 21.7375 43.2964 21.7375 43.3089 21.8398C43.3487 21.9522 43.399 22.0524 43.4558 22.1572C43.845 22.916 43.8002 23.7446 43.5468 24.5344C43.5139 24.6329 43.4793 24.7306 43.4436 24.8281C43.4328 24.8588 43.422 24.8894 43.4109 24.921C43.3304 25.1287 43.3304 25.1287 43.2226 25.1781C43.0512 25.1805 42.9317 25.1061 42.7829 25.0263C42.7352 25.0016 42.7352 25.0016 42.6866 24.9764C42.5847 24.9234 42.4831 24.8697 42.3816 24.8159C42.3154 24.7814 42.2492 24.7468 42.1829 24.7124C42.0168 24.6258 41.8509 24.5385 41.6853 24.451C41.5212 24.3644 41.3571 24.2781 41.1929 24.1917C41.162 24.1754 41.131 24.1591 41.0991 24.1423C40.8645 24.0188 40.6295 23.8959 40.3943 23.7734C40.1238 23.6325 39.8535 23.491 39.5837 23.3486C39.2818 23.1893 38.9787 23.032 38.6755 22.875C38.5415 22.8055 38.4074 22.736 38.2734 22.6664C38.1937 22.6251 38.114 22.5839 38.0343 22.5428C37.4227 22.2272 37.4227 22.2272 37.1838 22.084C37.1579 22.0685 37.132 22.053 37.1053 22.037C37.0544 21.9766 37.0544 21.9766 37.0312 21.8698C37.0648 21.6854 37.1657 21.5976 37.2961 21.4688C37.3415 21.4224 37.3868 21.376 37.4321 21.3296C37.4654 21.2959 37.4654 21.2959 37.4993 21.2615C37.5575 21.2003 37.6108 21.1375 37.6636 21.0717C38.0582 20.6066 38.7637 20.2519 39.3591 20.1406C39.4201 20.1399 39.481 20.1402 39.5419 20.1415C39.8295 20.1452 39.8295 20.1452 40.1013 20.0625C40.2789 19.8773 40.3599 19.6218 40.45 19.3862C40.5119 19.2315 40.5902 19.0878 40.6702 18.9419C40.7027 18.8808 40.7351 18.8196 40.7674 18.7583C40.7852 18.7245 40.8031 18.6906 40.8215 18.6557C40.936 18.437 41.0488 18.2174 41.1617 17.9978C41.2048 17.9141 41.248 17.8304 41.2911 17.7467C41.4157 17.5051 41.5401 17.2634 41.6628 17.0209C41.6994 16.9488 41.7361 16.8767 41.7728 16.8048C41.8173 16.7175 41.8615 16.6301 41.9053 16.5426C42.22 15.9278 42.5746 15.494 43.2414 15.2648C43.8363 15.1132 44.4768 15.2718 44.9524 15.6533Z" fill="#FF1901"/>
<path d="M33.5923 19.7964C33.7948 19.9362 33.9717 20.0992 34.0272 20.346C34.0652 20.611 34.0305 20.8031 33.886 21.0282C33.7382 21.2229 33.5826 21.2951 33.3481 21.3442C33.0908 21.3662 32.9072 21.3126 32.7061 21.1489C32.517 20.9684 32.4409 20.7943 32.4277 20.5337C32.4357 20.3071 32.5017 20.1304 32.6568 19.9635C32.9248 19.7259 33.2574 19.6786 33.5923 19.7964Z" fill="#FF1901"/>
<path d="M31.5539 22.2376C31.7473 22.3775 31.8611 22.5212 31.918 22.7554C31.9544 23.0006 31.9103 23.1744 31.7886 23.3926C31.6297 23.5923 31.4877 23.6887 31.2344 23.7344C30.9722 23.7461 30.7777 23.6881 30.5671 23.5308C30.3829 23.359 30.3277 23.1821 30.3164 22.9336C30.3262 22.699 30.3868 22.5195 30.5479 22.3464C30.8371 22.0893 31.2157 22.0412 31.5539 22.2376Z" fill="#FF1901"/>
<path d="M66.0572 29.144C65.0972 29.144 64.2092 28.988 63.3932 28.676C62.5892 28.352 61.8872 27.902 61.2872 27.326C60.6992 26.738 60.2372 26.054 59.9012 25.274C59.5652 24.494 59.3972 23.636 59.3972 22.7C59.3972 21.764 59.5652 20.906 59.9012 20.126C60.2372 19.346 60.7052 18.668 61.3052 18.092C61.9052 17.504 62.6072 17.054 63.4112 16.742C64.2272 16.418 65.1152 16.256 66.0752 16.256C67.0472 16.256 67.9412 16.424 68.7572 16.76C69.5852 17.084 70.2872 17.57 70.8632 18.218L69.6932 19.352C69.2132 18.848 68.6732 18.476 68.0732 18.236C67.4732 17.984 66.8312 17.858 66.1472 17.858C65.4392 17.858 64.7792 17.978 64.1672 18.218C63.5672 18.458 63.0452 18.794 62.6012 19.226C62.1572 19.658 61.8092 20.174 61.5572 20.774C61.3172 21.362 61.1972 22.004 61.1972 22.7C61.1972 23.396 61.3172 24.044 61.5572 24.644C61.8092 25.232 62.1572 25.742 62.6012 26.174C63.0452 26.606 63.5672 26.942 64.1672 27.182C64.7792 27.422 65.4392 27.542 66.1472 27.542C66.8312 27.542 67.4732 27.422 68.0732 27.182C68.6732 26.93 69.2132 26.546 69.6932 26.03L70.8632 27.164C70.2872 27.812 69.5852 28.304 68.7572 28.64C67.9412 28.976 67.0412 29.144 66.0572 29.144ZM73.179 29V15.644H74.907V29H73.179ZM82.4544 29.108C81.4344 29.108 80.5344 28.898 79.7544 28.478C78.9864 28.058 78.3864 27.482 77.9544 26.75C77.5344 26.018 77.3244 25.178 77.3244 24.23C77.3244 23.282 77.5284 22.442 77.9364 21.71C78.3564 20.978 78.9264 20.408 79.6464 20C80.3784 19.58 81.2004 19.37 82.1124 19.37C83.0364 19.37 83.8524 19.574 84.5604 19.982C85.2684 20.39 85.8204 20.966 86.2164 21.71C86.6244 22.442 86.8284 23.3 86.8284 24.284C86.8284 24.356 86.8224 24.44 86.8104 24.536C86.8104 24.632 86.8044 24.722 86.7924 24.806H78.6744V23.564H85.8924L85.1904 23.996C85.2024 23.384 85.0764 22.838 84.8124 22.358C84.5484 21.878 84.1824 21.506 83.7144 21.242C83.2584 20.966 82.7244 20.828 82.1124 20.828C81.5124 20.828 80.9784 20.966 80.5104 21.242C80.0424 21.506 79.6764 21.884 79.4124 22.376C79.1484 22.856 79.0164 23.408 79.0164 24.032V24.32C79.0164 24.956 79.1604 25.526 79.4484 26.03C79.7484 26.522 80.1624 26.906 80.6904 27.182C81.2184 27.458 81.8244 27.596 82.5084 27.596C83.0724 27.596 83.5824 27.5 84.0384 27.308C84.5064 27.116 84.9144 26.828 85.2624 26.444L86.2164 27.56C85.7844 28.064 85.2444 28.448 84.5964 28.712C83.9604 28.976 83.2464 29.108 82.4544 29.108ZM94.8862 29V26.984L94.7962 26.606V23.168C94.7962 22.436 94.5802 21.872 94.1482 21.476C93.7282 21.068 93.0922 20.864 92.2402 20.864C91.6762 20.864 91.1242 20.96 90.5842 21.152C90.0442 21.332 89.5882 21.578 89.2162 21.89L88.4962 20.594C88.9882 20.198 89.5762 19.898 90.2602 19.694C90.9562 19.478 91.6822 19.37 92.4382 19.37C93.7462 19.37 94.7542 19.688 95.4622 20.324C96.1702 20.96 96.5242 21.932 96.5242 23.24V29H94.8862ZM91.7542 29.108C91.0462 29.108 90.4222 28.988 89.8822 28.748C89.3542 28.508 88.9462 28.178 88.6582 27.758C88.3702 27.326 88.2262 26.84 88.2262 26.3C88.2262 25.784 88.3462 25.316 88.5862 24.896C88.8382 24.476 89.2402 24.14 89.7922 23.888C90.3562 23.636 91.1122 23.51 92.0602 23.51H95.0842V24.752H92.1322C91.2682 24.752 90.6862 24.896 90.3862 25.184C90.0862 25.472 89.9362 25.82 89.9362 26.228C89.9362 26.696 90.1222 27.074 90.4942 27.362C90.8662 27.638 91.3822 27.776 92.0422 27.776C92.6902 27.776 93.2542 27.632 93.7342 27.344C94.2262 27.056 94.5802 26.636 94.7962 26.084L95.1382 27.272C94.9102 27.836 94.5082 28.286 93.9322 28.622C93.3562 28.946 92.6302 29.108 91.7542 29.108ZM99.722 29V19.46H101.378V22.052L101.216 21.404C101.48 20.744 101.924 20.24 102.548 19.892C103.172 19.544 103.94 19.37 104.852 19.37V21.044C104.78 21.032 104.708 21.026 104.636 21.026C104.576 21.026 104.516 21.026 104.456 21.026C103.532 21.026 102.8 21.302 102.26 21.854C101.72 22.406 101.45 23.204 101.45 24.248V29H99.722Z" fill="white"/>
</svg>
