<svg width="23" height="22" viewBox="0 0 23 22" fill="none" xmlns="http://www.w3.org/2000/svg">
<path d="M20.6067 6.37612C20.3395 6.50975 20.2058 6.80417 20.3395 7.09751C20.874 8.30019 21.1684 9.6365 21.1684 11.0001C21.1684 16.2921 16.865 20.6215 11.547 20.6215C6.22903 20.6215 1.92559 16.2921 1.92559 11.0001C1.92559 5.70802 6.25496 1.37866 11.547 1.37866C12.8029 1.37866 14.0056 1.61878 15.155 2.07397C16.3305 2.55525 17.3996 3.27664 18.3349 4.1849C18.4414 4.29139 18.6022 4.34567 18.7358 4.34567H18.7629C18.9237 4.34567 19.0573 4.29243 19.1638 4.1588C19.2703 4.05231 19.3246 3.89154 19.2975 3.75791L19.0834 1.19177C19.0563 0.897358 18.789 0.684404 18.4957 0.710489C18.2013 0.737632 17.9883 1.0049 18.0144 1.29825L18.1209 2.6074C17.3191 1.99249 16.4641 1.48512 15.5547 1.11031C14.2727 0.576831 12.9364 0.30957 11.5469 0.30957C5.63989 0.30957 0.856445 5.09301 0.856445 11C0.856445 16.8798 5.63989 21.6905 11.5469 21.6905C17.4539 21.6905 22.2373 16.8798 22.2373 11C22.2373 9.47684 21.9168 8.00696 21.3019 6.64339C21.1954 6.37613 20.874 6.24249 20.6067 6.37612Z" fill="#828282"/>
<path d="M11.5471 2.52783C6.86999 2.52783 3.10107 6.32267 3.10107 10.9738C3.10107 15.6509 6.89592 19.4457 11.5471 19.4457C16.2241 19.4457 19.9931 15.6509 19.9931 10.9738C19.9931 6.34993 16.2241 2.52783 11.5471 2.52783ZM16.3578 15.8104C16.2513 15.9169 16.1176 15.9712 15.984 15.9712C15.8504 15.9712 15.7168 15.918 15.6103 15.8104L11.1994 11.4006L11.1723 11.3735C11.119 11.3203 11.0919 11.267 11.0658 11.2127C11.0125 11.1334 11.0125 11.053 11.0125 10.9997V4.71911C11.0125 4.42469 11.2527 4.18458 11.5471 4.18458C11.8415 4.18458 12.0816 4.4247 12.0816 4.71911V10.7857L16.3578 15.0618C16.5718 15.2759 16.5718 15.5964 16.3578 15.8104Z" fill="#828282"/>
</svg>
