<svg width="28" height="28" viewBox="0 0 28 28" fill="none" xmlns="http://www.w3.org/2000/svg">
<g filter="url(#filter0_d_1043_7354)">
<circle cx="14" cy="14" r="10" fill="white"/>
<circle cx="14" cy="14" r="9.5" stroke="#E6F1FF"/>
</g>
<path d="M18.704 10.7078C19.0945 10.3174 19.0945 9.68327 18.704 9.29283C18.3136 8.90239 17.6795 8.90239 17.2891 9.29283L14 12.585L10.7078 9.29595C10.3174 8.90551 9.68327 8.90551 9.29283 9.29595C8.90239 9.6864 8.90239 10.3205 9.29283 10.7109L12.585 14L9.29596 17.2922C8.90551 17.6826 8.90551 18.3167 9.29596 18.7072C9.6864 19.0976 10.3205 19.0976 10.7109 18.7072L14 15.415L17.2922 18.704C17.6826 19.0945 18.3167 19.0945 18.7072 18.704C19.0976 18.3136 19.0976 17.6795 18.7072 17.2891L15.415 14L18.704 10.7078Z" fill="#FF1901"/>
<defs>
<filter id="filter0_d_1043_7354" x="0" y="0" width="28" height="28" filterUnits="userSpaceOnUse" color-interpolation-filters="sRGB">
<feFlood flood-opacity="0" result="BackgroundImageFix"/>
<feColorMatrix in="SourceAlpha" type="matrix" values="0 0 0 0 0 0 0 0 0 0 0 0 0 0 0 0 0 0 127 0" result="hardAlpha"/>
<feOffset/>
<feGaussianBlur stdDeviation="2"/>
<feComposite in2="hardAlpha" operator="out"/>
<feColorMatrix type="matrix" values="0 0 0 0 0 0 0 0 0 0 0 0 0 0 0 0 0 0 0.25 0"/>
<feBlend mode="normal" in2="BackgroundImageFix" result="effect1_dropShadow_1043_7354"/>
<feBlend mode="normal" in="SourceGraphic" in2="effect1_dropShadow_1043_7354" result="shape"/>
</filter>
</defs>
</svg>
