<svg width="20" height="20" viewBox="0 0 20 20" fill="none" xmlns="http://www.w3.org/2000/svg">
<g clip-path="url(#clip0_260_8631)">
<path d="M18.8967 13.345C18.7483 12.8083 18.3992 12.3617 17.9158 12.0875L17.2917 11.735C17.43 11.1583 17.5 10.5758 17.5 10C17.5 9.42417 17.43 8.84167 17.2917 8.265L17.915 7.91167C18.9142 7.345 19.2675 6.07167 18.7008 5.07333C18.4267 4.58833 17.9808 4.24 17.4442 4.09083C16.9083 3.945 16.3458 4.01167 15.8617 4.28583L15.2358 4.64083C14.3492 3.77333 13.27 3.14417 12.0825 2.80083V2.08333C12.0825 0.934167 11.1475 0 9.99916 0C8.85083 0 7.91583 0.934167 7.91583 2.08333V2.80083C6.72833 3.14417 5.64916 3.77333 4.7625 4.64083L4.1375 4.28667C3.65333 4.01167 3.0925 3.945 2.555 4.09083C2.01833 4.24 1.5725 4.58833 1.29833 5.07333C0.732498 6.07167 1.085 7.34583 2.08416 7.91167L2.7075 8.265C2.56916 8.84167 2.49916 9.42417 2.49916 10C2.49916 10.5758 2.56916 11.1583 2.7075 11.735L2.08416 12.0875C1.6 12.3617 1.25083 12.8083 1.1025 13.345C0.954164 13.8817 1.02333 14.4425 1.2975 14.9267C1.57166 15.4117 2.0175 15.76 2.55416 15.9092C3.09083 16.0558 3.65166 15.9892 4.13666 15.7142L4.7625 15.3592C5.64916 16.2267 6.72833 16.8558 7.91583 17.1992V17.9167C7.91583 19.0658 8.85083 20 9.99916 20C11.1475 20 12.0825 19.0658 12.0825 17.9167V17.1992C13.27 16.8558 14.3492 16.2267 15.2358 15.3592L15.8608 15.7133C16.3458 15.9892 16.9067 16.0567 17.4433 15.9092C17.98 15.76 18.4258 15.4117 18.7 14.9267C18.9742 14.4425 19.0433 13.8808 18.895 13.345H18.8967ZM17.9767 14.5167C17.8125 14.8075 17.5442 15.0167 17.2225 15.1058C16.9008 15.1933 16.5633 15.1533 16.2725 14.9875L15.3683 14.4758C15.2025 14.3842 14.9917 14.4142 14.8592 14.5542C13.9675 15.505 12.83 16.1683 11.5683 16.4733C11.3817 16.5192 11.25 16.6867 11.25 16.8783V17.9167C11.25 18.6058 10.6892 19.1667 10 19.1667C9.31083 19.1667 8.75 18.6058 8.75 17.9167V16.8783C8.75 16.6867 8.61833 16.5183 8.43166 16.4733C7.17 16.1683 6.0325 15.505 5.14083 14.5542C5.06 14.4675 4.94916 14.4225 4.83666 14.4225C4.76666 14.4225 4.69583 14.44 4.63166 14.4758L3.72666 14.9883C3.43583 15.1525 3.09916 15.1933 2.7775 15.1058C2.45583 15.0167 2.1875 14.8075 2.02333 14.5167C1.68416 13.9167 1.89583 13.1525 2.495 12.8133L3.3975 12.3025C3.565 12.2075 3.645 12.01 3.5925 11.8258C3.42 11.2192 3.3325 10.6058 3.3325 10.0008C3.3325 9.39583 3.42 8.78167 3.5925 8.17583C3.645 7.99083 3.56416 7.79417 3.3975 7.7L2.495 7.18917C1.895 6.84917 1.68333 6.085 2.02333 5.485C2.1875 5.19417 2.45583 4.985 2.7775 4.89583C3.09916 4.80833 3.43666 4.84833 3.7275 5.01417L4.63166 5.52583C4.79916 5.61917 5.01 5.58833 5.14083 5.4475C6.03166 4.49667 7.17 3.83333 8.43166 3.52833C8.61833 3.4825 8.75 3.315 8.75 3.12333V2.085C8.75 1.39583 9.31083 0.835 10 0.835C10.6892 0.835 11.25 1.39583 11.25 2.085V3.12333C11.25 3.315 11.3817 3.48333 11.5683 3.52833C12.83 3.83333 13.9675 4.49667 14.8592 5.4475C14.9908 5.5875 15.2017 5.6175 15.3683 5.52583L16.2733 5.01333C16.5642 4.84917 16.9008 4.80833 17.2225 4.89583C17.5442 4.985 17.8125 5.19417 17.9767 5.485C18.3167 6.085 18.1042 6.84917 17.505 7.18917L16.6025 7.7C16.435 7.79417 16.355 7.99167 16.4075 8.17583C16.58 8.7825 16.6675 9.39583 16.6675 10.0008C16.6675 10.6058 16.58 11.22 16.4075 11.8258C16.355 12.0108 16.4358 12.2075 16.6025 12.3025L17.505 12.8133C17.795 12.9775 18.0042 13.2458 18.0933 13.5667C18.1825 13.8875 18.1408 14.2258 17.9758 14.5167H17.9767ZM7.08916 10.0592L7.08333 6.24917C7.08333 6.02 6.89666 5.83333 6.66666 5.83333C6.43666 5.83333 6.25 6.02083 6.25083 6.25083L6.25666 10.0592C5.54 10.2458 5.0075 10.8925 5.0075 11.6667C5.0075 12.4408 5.53916 13.0858 6.255 13.2733L6.25166 13.7467C6.25 13.9767 6.435 14.165 6.665 14.1667H6.66833C6.89666 14.1667 7.08333 13.9817 7.085 13.7533L7.08833 13.275C7.80666 13.0892 8.34083 12.4417 8.34083 11.6667C8.34083 10.8917 7.8075 10.245 7.09 10.0592H7.08916ZM6.67333 12.5C6.21416 12.5 5.84 12.1267 5.84 11.6667C5.84 11.2067 6.21416 10.8333 6.67333 10.8333C7.1325 10.8333 7.50666 11.2067 7.50666 11.6667C7.50666 12.1267 7.1325 12.5 6.67333 12.5ZM13.7558 10.0592L13.75 6.24917C13.75 6.02 13.5633 5.83333 13.3333 5.83333C13.1033 5.83333 12.9167 6.02083 12.9175 6.25083L12.9233 10.0592C12.2067 10.2458 11.6742 10.8925 11.6742 11.6667C11.6742 12.4408 12.2058 13.0858 12.9217 13.2733L12.9183 13.7467C12.9167 13.9767 13.1017 14.165 13.3317 14.1667H13.335C13.5633 14.1667 13.75 13.9817 13.7517 13.7533L13.755 13.275C14.4733 13.0892 15.0075 12.4417 15.0075 11.6667C15.0075 10.8917 14.4733 10.245 13.7558 10.0592ZM13.34 12.5C12.8808 12.5 12.5067 12.1267 12.5067 11.6667C12.5067 11.2067 12.8808 10.8333 13.34 10.8333C13.7992 10.8333 14.1733 11.2067 14.1733 11.6667C14.1733 12.1267 13.7992 12.5 13.34 12.5ZM10.4208 6.725L10.4175 6.24667C10.4158 6.01833 10.2292 5.83333 10.0008 5.83333H9.9975C9.7675 5.835 9.5825 6.02333 9.58416 6.25333L9.5875 6.72667C8.87166 6.91417 8.34 7.56 8.34 8.33333C8.34 9.10667 8.8725 9.75417 9.58916 9.94083L9.58333 13.7492C9.58333 13.9792 9.76916 14.1667 9.99916 14.1667C10.2292 14.1667 10.4158 13.98 10.4158 13.7508L10.4217 9.94083C11.1392 9.755 11.6725 9.1075 11.6725 8.33333C11.6725 7.55917 11.1383 6.91083 10.42 6.725H10.4208ZM10.0067 9.16667C9.5475 9.16667 9.17333 8.79333 9.17333 8.33333C9.17333 7.87333 9.5475 7.5 10.0067 7.5C10.4658 7.5 10.84 7.87333 10.84 8.33333C10.84 8.79333 10.4658 9.16667 10.0067 9.16667Z" fill="black"/>
</g>
<defs>
<clipPath id="clip0_260_8631">
<rect width="20" height="20" fill="white"/>
</clipPath>
</defs>
</svg>
