<svg width="23" height="21" viewBox="0 0 23 21" fill="none" xmlns="http://www.w3.org/2000/svg">
<ellipse cx="11.5" cy="10.5" rx="11" ry="10.5" fill="#FFE0BB"/>
<path d="M10.0179 4.44941C10.1384 4.17266 10.3862 4 10.6563 4H13.3438C13.6138 4 13.8616 4.17266 13.9821 4.44941L14.1429 4.8125H16.2857C16.6808 4.8125 17 5.17559 17 5.625C17 6.07441 16.6808 6.4375 16.2857 6.4375H7.71429C7.3192 6.4375 7 6.07441 7 5.625C7 5.17559 7.3192 4.8125 7.71429 4.8125H9.85714L10.0179 4.44941ZM7.71429 7.25H16.2857V15.375C16.2857 16.2713 15.6451 17 14.8571 17H9.14286C8.35491 17 7.71429 16.2713 7.71429 15.375V7.25ZM9.85714 8.875C9.66071 8.875 9.5 9.05781 9.5 9.28125V14.9688C9.5 15.1922 9.66071 15.375 9.85714 15.375C10.0536 15.375 10.2143 15.1922 10.2143 14.9688V9.28125C10.2143 9.05781 10.0536 8.875 9.85714 8.875ZM12 8.875C11.8036 8.875 11.6429 9.05781 11.6429 9.28125V14.9688C11.6429 15.1922 11.8036 15.375 12 15.375C12.1964 15.375 12.3571 15.1922 12.3571 14.9688V9.28125C12.3571 9.05781 12.1964 8.875 12 8.875ZM14.1429 8.875C13.9464 8.875 13.7857 9.05781 13.7857 9.28125V14.9688C13.7857 15.1922 13.9464 15.375 14.1429 15.375C14.3393 15.375 14.5 15.1922 14.5 14.9688V9.28125C14.5 9.05781 14.3393 8.875 14.1429 8.875Z" fill="#FF1901"/>
</svg>
