<svg width="18" height="18" viewBox="0 0 18 18" fill="none" xmlns="http://www.w3.org/2000/svg">
<g clip-path="url(#clip0_762_6280)">
<path d="M10.5 5.25V0.345C11.1825 0.6075 11.8125 1.005 12.345 1.5375L14.955 4.155C15.4875 4.6875 15.885 5.3175 16.1475 6H11.2425C10.83 6 10.4925 5.6625 10.4925 5.25H10.5ZM11.625 10.5H6.375C6.165 10.5 6 10.665 6 10.875V13.125C6 13.335 6.165 13.5 6.375 13.5H11.625C11.835 13.5 12 13.335 12 13.125V10.875C12 10.665 11.835 10.5 11.625 10.5ZM16.5 7.8675V14.25C16.5 16.32 14.82 18 12.75 18H5.25C3.18 18 1.5 16.32 1.5 14.25V3.75C1.5 1.68 3.18 0 5.25 0H8.6325C8.7525 0 8.8725 0.0075 9 0.015V5.25C9 6.4875 10.0125 7.5 11.25 7.5H16.485C16.4925 7.62 16.5 7.74 16.5 7.8675ZM4.5 6.75C4.5 7.1625 4.8375 7.5 5.25 7.5H6.75C7.1625 7.5 7.5 7.1625 7.5 6.75C7.5 6.3375 7.1625 6 6.75 6H5.25C4.8375 6 4.5 6.3375 4.5 6.75ZM13.5 10.875C13.5 9.84 12.66 9 11.625 9H6.375C5.34 9 4.5 9.84 4.5 10.875V13.125C4.5 14.16 5.34 15 6.375 15H11.625C12.66 15 13.5 14.16 13.5 13.125V10.875Z" fill="black"/>
</g>
<defs>
<clipPath id="clip0_762_6280">
<rect width="18" height="18" fill="white"/>
</clipPath>
</defs>
</svg>
