<svg width="24" height="25" viewBox="0 0 24 25" fill="none" xmlns="http://www.w3.org/2000/svg">
<ellipse cx="12" cy="12.5" rx="12" ry="12.5" fill="#FF1901"/>
<path d="M18.4252 14.3983C18.186 14.3983 17.9921 14.5942 17.9921 14.836V16.7664C17.9921 17.7074 17.2611 18.4729 16.3628 18.4729L7.49554 18.4735C6.59714 18.4735 5.86618 17.708 5.86618 16.7669V14.8366C5.86618 14.5948 5.67236 14.3989 5.43309 14.3989C5.19383 14.3989 5 14.5948 5 14.8366V16.7669C5 18.191 6.11926 19.3489 7.49498 19.3489H16.3622C17.738 19.3489 18.8572 18.1905 18.8572 16.7669V14.8366C18.8572 14.5948 18.6634 14.3989 18.4241 14.3989L18.4252 14.3983Z" fill="white" stroke="white" stroke-width="0.6"/>
<path d="M11.6523 15.1053C11.7976 15.2625 12.0592 15.263 12.2045 15.1053L14.4113 12.8026C14.7624 12.4131 14.234 11.8653 13.8591 12.2328L12.3177 13.8413V6.55132C12.3177 6.32814 12.1434 6.14734 11.9283 6.14734C11.7133 6.14734 11.539 6.32814 11.539 6.55132V13.8413L9.99761 12.2328C9.62379 11.8659 9.09381 12.412 9.4454 12.8026L11.6523 15.1053Z" fill="white" stroke="white" stroke-width="0.6"/>
</svg>
