<svg width="25" height="25" viewBox="0 0 25 25" fill="none" xmlns="http://www.w3.org/2000/svg">
<circle cx="12.5" cy="12.5" r="12.5" fill="#FF1901"/>
<path d="M18.5947 14.3983C18.3703 14.3983 18.1884 14.5941 18.1884 14.8359V16.7663C18.1884 17.7073 17.5027 18.4729 16.6599 18.4729L8.34117 18.4735C7.49834 18.4735 6.8126 17.708 6.8126 16.7669V14.8365C6.8126 14.5947 6.63077 14.3988 6.4063 14.3988C6.18184 14.3988 6 14.5947 6 14.8365V16.7669C6 18.1909 7.05002 19.3488 8.34064 19.3488H16.6594C17.95 19.3488 19 18.1904 19 16.7669V14.8365C19 14.5947 18.8182 14.3988 18.5937 14.3988L18.5947 14.3983Z" fill="white" stroke="white" stroke-width="0.6"/>
<path d="M12.2411 15.1052C12.3774 15.2624 12.6228 15.263 12.7591 15.1052L14.8294 12.8025C15.1587 12.413 14.663 11.8653 14.3113 12.2328L12.8653 13.8412V6.55126C12.8653 6.32808 12.7018 6.14728 12.5 6.14728C12.2983 6.14728 12.1348 6.32808 12.1348 6.55126V13.8412L10.6887 12.2328C10.338 11.8658 9.84085 12.412 10.1707 12.8025L12.2411 15.1052Z" fill="white" stroke="white" stroke-width="0.6"/>
</svg>
