<svg width="137" height="38" viewBox="0 0 137 38" fill="none" xmlns="http://www.w3.org/2000/svg">
<rect width="137" height="38" rx="8" fill="white"/>
<rect x="0.5" y="0.5" width="136" height="37" rx="7.5" stroke="#FF1901" stroke-opacity="0.4"/>
<path d="M49.8473 24.5V14.7H54.1313C55.1953 14.7 56.1286 14.9053 56.9313 15.316C57.7339 15.7267 58.3593 16.296 58.8073 17.024C59.2553 17.752 59.4793 18.6107 59.4793 19.6C59.4793 20.58 59.2553 21.4387 58.8073 22.176C58.3593 22.904 57.7339 23.4733 56.9313 23.884C56.1286 24.2947 55.1953 24.5 54.1313 24.5H49.8473ZM51.6673 22.96H54.0473C54.7846 22.96 55.4193 22.82 55.9513 22.54C56.4926 22.26 56.9079 21.868 57.1973 21.364C57.4959 20.86 57.6453 20.272 57.6453 19.6C57.6453 18.9187 57.4959 18.3307 57.1973 17.836C56.9079 17.332 56.4926 16.94 55.9513 16.66C55.4193 16.38 54.7846 16.24 54.0473 16.24H51.6673V22.96ZM64.6057 24.598C63.8403 24.598 63.159 24.4347 62.5617 24.108C61.9643 23.772 61.493 23.3147 61.1477 22.736C60.8023 22.1573 60.6297 21.4993 60.6297 20.762C60.6297 20.0153 60.8023 19.3573 61.1477 18.788C61.493 18.2093 61.9643 17.7567 62.5617 17.43C63.159 17.1033 63.8403 16.94 64.6057 16.94C65.3803 16.94 66.0663 17.1033 66.6637 17.43C67.2703 17.7567 67.7417 18.2047 68.0777 18.774C68.423 19.3433 68.5957 20.006 68.5957 20.762C68.5957 21.4993 68.423 22.1573 68.0777 22.736C67.7417 23.3147 67.2703 23.772 66.6637 24.108C66.0663 24.4347 65.3803 24.598 64.6057 24.598ZM64.6057 23.1C65.035 23.1 65.4177 23.0067 65.7537 22.82C66.0897 22.6333 66.351 22.3627 66.5377 22.008C66.7337 21.6533 66.8317 21.238 66.8317 20.762C66.8317 20.2767 66.7337 19.8613 66.5377 19.516C66.351 19.1613 66.0897 18.8907 65.7537 18.704C65.4177 18.5173 65.0397 18.424 64.6197 18.424C64.1903 18.424 63.8077 18.5173 63.4717 18.704C63.145 18.8907 62.8837 19.1613 62.6877 19.516C62.4917 19.8613 62.3937 20.2767 62.3937 20.762C62.3937 21.238 62.4917 21.6533 62.6877 22.008C62.8837 22.3627 63.145 22.6333 63.4717 22.82C63.8077 23.0067 64.1857 23.1 64.6057 23.1ZM71.716 24.5L68.972 17.024H70.624L72.976 23.618H72.192L74.656 17.024H76.126L78.52 23.618H77.75L80.172 17.024H81.726L78.968 24.5H77.288L75.104 18.662H75.622L73.396 24.5H71.716ZM87.1713 16.94C87.7686 16.94 88.3006 17.0567 88.7673 17.29C89.2433 17.5233 89.6166 17.8827 89.8873 18.368C90.1579 18.844 90.2933 19.46 90.2933 20.216V24.5H88.5433V20.44C88.5433 19.7773 88.3846 19.2827 88.0673 18.956C87.7593 18.6293 87.3253 18.466 86.7653 18.466C86.3546 18.466 85.9906 18.55 85.6733 18.718C85.3559 18.886 85.1086 19.138 84.9313 19.474C84.7633 19.8007 84.6793 20.216 84.6793 20.72V24.5H82.9293V17.024H84.5953V19.04L84.3013 18.424C84.5626 17.948 84.9406 17.584 85.4353 17.332C85.9393 17.0707 86.5179 16.94 87.1713 16.94ZM92.5132 24.5V14.112H94.2632V24.5H92.5132ZM99.9201 24.598C99.1548 24.598 98.4734 24.4347 97.8761 24.108C97.2788 23.772 96.8074 23.3147 96.4621 22.736C96.1168 22.1573 95.9441 21.4993 95.9441 20.762C95.9441 20.0153 96.1168 19.3573 96.4621 18.788C96.8074 18.2093 97.2788 17.7567 97.8761 17.43C98.4734 17.1033 99.1548 16.94 99.9201 16.94C100.695 16.94 101.381 17.1033 101.978 17.43C102.585 17.7567 103.056 18.2047 103.392 18.774C103.737 19.3433 103.91 20.006 103.91 20.762C103.91 21.4993 103.737 22.1573 103.392 22.736C103.056 23.3147 102.585 23.772 101.978 24.108C101.381 24.4347 100.695 24.598 99.9201 24.598ZM99.9201 23.1C100.349 23.1 100.732 23.0067 101.068 22.82C101.404 22.6333 101.665 22.3627 101.852 22.008C102.048 21.6533 102.146 21.238 102.146 20.762C102.146 20.2767 102.048 19.8613 101.852 19.516C101.665 19.1613 101.404 18.8907 101.068 18.704C100.732 18.5173 100.354 18.424 99.9341 18.424C99.5048 18.424 99.1221 18.5173 98.7861 18.704C98.4594 18.8907 98.1981 19.1613 98.0021 19.516C97.8061 19.8613 97.7081 20.2767 97.7081 20.762C97.7081 21.238 97.8061 21.6533 98.0021 22.008C98.1981 22.3627 98.4594 22.6333 98.7861 22.82C99.1221 23.0067 99.5001 23.1 99.9201 23.1ZM110.094 24.5V22.988L109.996 22.666V20.02C109.996 19.5067 109.842 19.11 109.534 18.83C109.226 18.5407 108.759 18.396 108.134 18.396C107.714 18.396 107.299 18.4613 106.888 18.592C106.487 18.7227 106.146 18.9047 105.866 19.138L105.18 17.864C105.581 17.556 106.057 17.3273 106.608 17.178C107.168 17.0193 107.747 16.94 108.344 16.94C109.427 16.94 110.262 17.2013 110.85 17.724C111.447 18.2373 111.746 19.0353 111.746 20.118V24.5H110.094ZM107.742 24.598C107.182 24.598 106.692 24.5047 106.272 24.318C105.852 24.122 105.525 23.856 105.292 23.52C105.068 23.1747 104.956 22.7873 104.956 22.358C104.956 21.938 105.054 21.56 105.25 21.224C105.455 20.888 105.787 20.622 106.244 20.426C106.701 20.23 107.308 20.132 108.064 20.132H110.234V21.294H108.19C107.593 21.294 107.191 21.392 106.986 21.588C106.781 21.7747 106.678 22.008 106.678 22.288C106.678 22.6053 106.804 22.8573 107.056 23.044C107.308 23.2307 107.658 23.324 108.106 23.324C108.535 23.324 108.918 23.226 109.254 23.03C109.599 22.834 109.847 22.5447 109.996 22.162L110.29 23.212C110.122 23.6507 109.819 23.9913 109.38 24.234C108.951 24.4767 108.405 24.598 107.742 24.598ZM117.169 24.598C116.451 24.598 115.802 24.4393 115.223 24.122C114.654 23.7953 114.206 23.3473 113.879 22.778C113.553 22.2087 113.389 21.5367 113.389 20.762C113.389 19.9873 113.553 19.3153 113.879 18.746C114.206 18.1767 114.654 17.7333 115.223 17.416C115.802 17.0987 116.451 16.94 117.169 16.94C117.795 16.94 118.355 17.08 118.849 17.36C119.344 17.6307 119.736 18.046 120.025 18.606C120.315 19.166 120.459 19.8847 120.459 20.762C120.459 21.63 120.319 22.3487 120.039 22.918C119.759 23.478 119.372 23.898 118.877 24.178C118.383 24.458 117.813 24.598 117.169 24.598ZM117.379 23.1C117.799 23.1 118.173 23.0067 118.499 22.82C118.835 22.6333 119.101 22.3627 119.297 22.008C119.503 21.6533 119.605 21.238 119.605 20.762C119.605 20.2767 119.503 19.8613 119.297 19.516C119.101 19.1613 118.835 18.8907 118.499 18.704C118.173 18.5173 117.799 18.424 117.379 18.424C116.959 18.424 116.581 18.5173 116.245 18.704C115.919 18.8907 115.653 19.1613 115.447 19.516C115.251 19.8613 115.153 20.2767 115.153 20.762C115.153 21.238 115.251 21.6533 115.447 22.008C115.653 22.3627 115.919 22.6333 116.245 22.82C116.581 23.0067 116.959 23.1 117.379 23.1ZM119.647 24.5V22.736L119.717 20.748L119.577 18.76V14.112H121.313V24.5H119.647Z" fill="#FF1901" fill-opacity="0.4"/>
<ellipse cx="26.5" cy="19.7347" rx="12.5" ry="12.2653" fill="#FF1901" fill-opacity="0.4"/>
<path d="M32.5947 20.6223C32.3703 20.6223 32.1884 20.7681 32.1884 20.948V22.3844C32.1884 23.0847 31.5027 23.6543 30.6599 23.6543L22.3412 23.6547C21.4983 23.6547 20.8126 23.0851 20.8126 22.3848V20.9484C20.8126 20.7685 20.6308 20.6227 20.4063 20.6227C20.1818 20.6227 20 20.7685 20 20.9484V22.3848C20 23.4445 21.05 24.3061 22.3406 24.3061H30.6594C31.95 24.3061 33 23.4441 33 22.3848V20.9484C33 20.7685 32.8182 20.6227 32.5937 20.6227L32.5947 20.6223Z" fill="white" stroke="white" stroke-width="0.6"/>
<path d="M26.2411 21.1483C26.3774 21.2653 26.6228 21.2657 26.7591 21.1483L28.8294 19.4348C29.1587 19.145 28.663 18.7374 28.3113 19.0109L26.8653 20.2077V14.7832C26.8653 14.6171 26.7018 14.4825 26.5 14.4825C26.2983 14.4825 26.1348 14.6171 26.1348 14.7832V20.2077L24.6887 19.0109C24.338 18.7378 23.8408 19.1442 24.1707 19.4348L26.2411 21.1483Z" fill="white" stroke="white" stroke-width="0.6"/>
</svg>
