<svg width="12" height="10" viewBox="0 0 12 10" fill="none" xmlns="http://www.w3.org/2000/svg">
<path d="M8.98906 2.57121C8.82304 2.5382 8.68751 2.43468 8.618 2.28666C7.84186 0.650873 6.04605 -0.263786 4.24974 0.0672711C2.61345 0.367323 1.33073 1.67355 1.05718 3.31834C0.97617 3.80392 0.982171 4.29001 1.07369 4.76359C1.10369 4.91812 1.03718 5.09015 0.900657 5.21417C0.328057 5.73476 0 6.47639 0 7.24952C0 8.76578 1.23371 10 2.75048 10H8.25144C10.3198 10 12.0021 8.31771 12.0021 6.24935C12.0021 4.46654 10.7349 2.91977 8.98856 2.57171L8.98906 2.57121ZM7.56232 6.35286L6.20858 7.7066C6.01505 7.90013 5.7605 7.99765 5.50596 7.99865L5.50146 7.99965L5.49696 7.99865C5.24241 7.99765 4.98787 7.90013 4.79433 7.7066L3.4406 6.35286C3.24506 6.15733 3.24506 5.84128 3.4406 5.64574C3.63613 5.45021 3.95219 5.45021 4.14772 5.64574L5.00137 6.49939V3.99896C5.00137 3.72241 5.22541 3.49887 5.50146 3.49887C5.77751 3.49887 6.00154 3.72241 6.00154 3.99896V6.49939L6.85519 5.64574C7.05073 5.45021 7.36678 5.45021 7.56232 5.64574C7.75785 5.84128 7.75785 6.15733 7.56232 6.35286Z" fill="#FF1901"/>
</svg>
