<svg width="25" height="25" viewBox="0 0 25 25" fill="none" xmlns="http://www.w3.org/2000/svg">
<circle cx="12.5" cy="12.5" r="12.5" fill="#FF961B" fill-opacity="0.1"/>
<path fill-rule="evenodd" clip-rule="evenodd" d="M5.29346 16.6958C5.68475 17.0871 6.31915 17.0871 6.71044 16.6958L11.9872 11.4191L17.2564 16.6883C17.6476 17.0796 18.282 17.0796 18.6733 16.6883C19.0646 16.297 19.0646 15.6626 18.6733 15.2713L12.7033 9.30125C12.7008 9.29868 12.6982 9.29613 12.6957 9.29358C12.6261 9.22401 12.5489 9.16681 12.4666 9.12197C12.0865 8.91455 11.6003 8.97171 11.2785 9.29348C11.2738 9.2982 11.2692 9.30295 11.2645 9.30773L5.29346 15.2788C4.90218 15.6701 4.90218 16.3045 5.29346 16.6958Z" fill="#FF1901"/>
</svg>
