<svg width="25" height="25" viewBox="0 0 25 25" fill="none" xmlns="http://www.w3.org/2000/svg">
<circle cx="12.5" cy="12.5" r="12.5" fill="#FF961B" fill-opacity="0.1"/>
<path fill-rule="evenodd" clip-rule="evenodd" d="M18.6733 9.29347C18.282 8.90218 17.6476 8.90218 17.2564 9.29346L11.9796 14.5702L6.71044 9.30097C6.31915 8.90969 5.68475 8.90969 5.29347 9.30097C4.90218 9.69226 4.90218 10.3267 5.29347 10.7179L11.2635 16.688C11.266 16.6906 11.2686 16.6931 11.2711 16.6957C11.3407 16.7653 11.4179 16.8225 11.5002 16.8673C11.8803 17.0747 12.3665 17.0175 12.6883 16.6958C12.693 16.6911 12.6976 16.6863 12.7022 16.6815L18.6733 10.7104C19.0646 10.3192 19.0646 9.68475 18.6733 9.29347Z" fill="#FF1901"/>
</svg>
