<svg width="25" height="25" viewBox="0 0 25 25" fill="none" xmlns="http://www.w3.org/2000/svg">
<circle cx="12.5" cy="12.5" r="12.5" fill="#FF961B" fill-opacity="0.1"/>
<path d="M9.96094 5.51855C10.1191 5.19922 10.4443 5 10.7988 5H14.3262C14.6807 5 15.0059 5.19922 15.1641 5.51855L15.375 5.9375H18.1875C18.7061 5.9375 19.125 6.35645 19.125 6.875C19.125 7.39355 18.7061 7.8125 18.1875 7.8125H6.9375C6.41895 7.8125 6 7.39355 6 6.875C6 6.35645 6.41895 5.9375 6.9375 5.9375H9.75L9.96094 5.51855ZM6.9375 8.75H18.1875V18.125C18.1875 19.1592 17.3467 20 16.3125 20H8.8125C7.77832 20 6.9375 19.1592 6.9375 18.125V8.75ZM9.75 10.625C9.49219 10.625 9.28125 10.8359 9.28125 11.0938V17.6562C9.28125 17.9141 9.49219 18.125 9.75 18.125C10.0078 18.125 10.2188 17.9141 10.2188 17.6562V11.0938C10.2188 10.8359 10.0078 10.625 9.75 10.625ZM12.5625 10.625C12.3047 10.625 12.0938 10.8359 12.0938 11.0938V17.6562C12.0938 17.9141 12.3047 18.125 12.5625 18.125C12.8203 18.125 13.0312 17.9141 13.0312 17.6562V11.0938C13.0312 10.8359 12.8203 10.625 12.5625 10.625ZM15.375 10.625C15.1172 10.625 14.9062 10.8359 14.9062 11.0938V17.6562C14.9062 17.9141 15.1172 18.125 15.375 18.125C15.6328 18.125 15.8438 17.9141 15.8438 17.6562V11.0938C15.8438 10.8359 15.6328 10.625 15.375 10.625Z" fill="#FF1901"/>
</svg>
