<svg width="190" height="46" viewBox="0 0 190 46" fill="none" xmlns="http://www.w3.org/2000/svg">
<rect x="0.5" y="0.5" width="189" height="45" rx="11.5" fill="#FF1901"/>
<rect x="0.5" y="0.5" width="189" height="45" rx="11.5" stroke="#FF1901"/>
<path d="M37.1604 21.476H43.2264V23.744H37.1604V21.476ZM37.3764 26.66H44.2344V29H34.4784V16.4H44.0004V18.74H37.3764V26.66ZM50.4618 29.144C49.5498 29.144 48.7278 28.94 47.9958 28.532C47.2638 28.112 46.6818 27.53 46.2498 26.786C45.8298 26.042 45.6198 25.166 45.6198 24.158C45.6198 23.138 45.8298 22.256 46.2498 21.512C46.6818 20.768 47.2638 20.192 47.9958 19.784C48.7278 19.376 49.5498 19.172 50.4618 19.172C51.2778 19.172 51.9918 19.352 52.6038 19.712C53.2158 20.072 53.6898 20.618 54.0258 21.35C54.3618 22.082 54.5298 23.018 54.5298 24.158C54.5298 25.286 54.3678 26.222 54.0438 26.966C53.7198 27.698 53.2518 28.244 52.6398 28.604C52.0398 28.964 51.3138 29.144 50.4618 29.144ZM50.9478 26.84C51.4038 26.84 51.8178 26.732 52.1898 26.516C52.5618 26.3 52.8558 25.994 53.0718 25.598C53.2998 25.19 53.4138 24.71 53.4138 24.158C53.4138 23.594 53.2998 23.114 53.0718 22.718C52.8558 22.322 52.5618 22.016 52.1898 21.8C51.8178 21.584 51.4038 21.476 50.9478 21.476C50.4798 21.476 50.0598 21.584 49.6878 21.8C49.3158 22.016 49.0158 22.322 48.7878 22.718C48.5718 23.114 48.4638 23.594 48.4638 24.158C48.4638 24.71 48.5718 25.19 48.7878 25.598C49.0158 25.994 49.3158 26.3 49.6878 26.516C50.0598 26.732 50.4798 26.84 50.9478 26.84ZM53.4858 29V27.02L53.5398 24.14L53.3598 21.278V15.644H56.1678V29H53.4858ZM58.7667 29V19.316H61.5747V29H58.7667ZM60.1707 17.966C59.6547 17.966 59.2347 17.816 58.9107 17.516C58.5867 17.216 58.4247 16.844 58.4247 16.4C58.4247 15.956 58.5867 15.584 58.9107 15.284C59.2347 14.984 59.6547 14.834 60.1707 14.834C60.6867 14.834 61.1067 14.978 61.4307 15.266C61.7547 15.542 61.9167 15.902 61.9167 16.346C61.9167 16.814 61.7547 17.204 61.4307 17.516C61.1187 17.816 60.6987 17.966 60.1707 17.966ZM68.1408 29.144C67.0008 29.144 66.1128 28.856 65.4768 28.28C64.8408 27.692 64.5228 26.822 64.5228 25.67V17.174H67.3308V25.634C67.3308 26.042 67.4388 26.36 67.6548 26.588C67.8708 26.804 68.1648 26.912 68.5368 26.912C68.9808 26.912 69.3588 26.792 69.6708 26.552L70.4268 28.532C70.1388 28.736 69.7908 28.892 69.3828 29C68.9868 29.096 68.5728 29.144 68.1408 29.144ZM63.0288 21.692V19.532H69.7428V21.692H63.0288ZM75.2107 30.8L81.1507 13.844H83.6527L77.7127 30.8H75.2107ZM95.0432 29.216C93.2552 29.216 91.8572 28.718 90.8492 27.722C89.8412 26.726 89.3372 25.304 89.3372 23.456V16.4H92.2532V23.348C92.2532 24.548 92.4992 25.412 92.9912 25.94C93.4832 26.468 94.1732 26.732 95.0612 26.732C95.9492 26.732 96.6392 26.468 97.1312 25.94C97.6232 25.412 97.8692 24.548 97.8692 23.348V16.4H100.749V23.456C100.749 25.304 100.245 26.726 99.2372 27.722C98.2292 28.718 96.8312 29.216 95.0432 29.216ZM109.157 29.144C108.341 29.144 107.627 28.964 107.015 28.604C106.403 28.244 105.923 27.698 105.575 26.966C105.239 26.222 105.071 25.286 105.071 24.158C105.071 23.018 105.233 22.082 105.557 21.35C105.881 20.618 106.349 20.072 106.961 19.712C107.573 19.352 108.305 19.172 109.157 19.172C110.069 19.172 110.885 19.382 111.605 19.802C112.337 20.21 112.913 20.786 113.333 21.53C113.765 22.274 113.981 23.15 113.981 24.158C113.981 25.178 113.765 26.06 113.333 26.804C112.913 27.548 112.337 28.124 111.605 28.532C110.885 28.94 110.069 29.144 109.157 29.144ZM103.433 32.492V19.316H106.115V21.296L106.061 24.176L106.241 27.038V32.492H103.433ZM108.671 26.84C109.139 26.84 109.553 26.732 109.913 26.516C110.285 26.3 110.579 25.994 110.795 25.598C111.023 25.19 111.137 24.71 111.137 24.158C111.137 23.594 111.023 23.114 110.795 22.718C110.579 22.322 110.285 22.016 109.913 21.8C109.553 21.584 109.139 21.476 108.671 21.476C108.203 21.476 107.783 21.584 107.411 21.8C107.039 22.016 106.745 22.322 106.529 22.718C106.313 23.114 106.205 23.594 106.205 24.158C106.205 24.71 106.313 25.19 106.529 25.598C106.745 25.994 107.039 26.3 107.411 26.516C107.783 26.732 108.203 26.84 108.671 26.84ZM120.018 29.144C119.106 29.144 118.284 28.94 117.552 28.532C116.82 28.112 116.238 27.53 115.806 26.786C115.386 26.042 115.176 25.166 115.176 24.158C115.176 23.138 115.386 22.256 115.806 21.512C116.238 20.768 116.82 20.192 117.552 19.784C118.284 19.376 119.106 19.172 120.018 19.172C120.834 19.172 121.548 19.352 122.16 19.712C122.772 20.072 123.246 20.618 123.582 21.35C123.918 22.082 124.086 23.018 124.086 24.158C124.086 25.286 123.924 26.222 123.6 26.966C123.276 27.698 122.808 28.244 122.196 28.604C121.596 28.964 120.87 29.144 120.018 29.144ZM120.504 26.84C120.96 26.84 121.374 26.732 121.746 26.516C122.118 26.3 122.412 25.994 122.628 25.598C122.856 25.19 122.97 24.71 122.97 24.158C122.97 23.594 122.856 23.114 122.628 22.718C122.412 22.322 122.118 22.016 121.746 21.8C121.374 21.584 120.96 21.476 120.504 21.476C120.036 21.476 119.616 21.584 119.244 21.8C118.872 22.016 118.572 22.322 118.344 22.718C118.128 23.114 118.02 23.594 118.02 24.158C118.02 24.71 118.128 25.19 118.344 25.598C118.572 25.994 118.872 26.3 119.244 26.516C119.616 26.732 120.036 26.84 120.504 26.84ZM123.042 29V27.02L123.096 24.14L122.916 21.278V15.644H125.724V29H123.042ZM134.263 29V27.11L134.083 26.696V23.312C134.083 22.712 133.897 22.244 133.525 21.908C133.165 21.572 132.607 21.404 131.851 21.404C131.335 21.404 130.825 21.488 130.321 21.656C129.829 21.812 129.409 22.028 129.061 22.304L128.053 20.342C128.581 19.97 129.217 19.682 129.961 19.478C130.705 19.274 131.461 19.172 132.229 19.172C133.705 19.172 134.851 19.52 135.667 20.216C136.483 20.912 136.891 21.998 136.891 23.474V29H134.263ZM131.311 29.144C130.555 29.144 129.907 29.018 129.367 28.766C128.827 28.502 128.413 28.148 128.125 27.704C127.837 27.26 127.693 26.762 127.693 26.21C127.693 25.634 127.831 25.13 128.107 24.698C128.395 24.266 128.845 23.93 129.457 23.69C130.069 23.438 130.867 23.312 131.851 23.312H134.425V24.95H132.157C131.497 24.95 131.041 25.058 130.789 25.274C130.549 25.49 130.429 25.76 130.429 26.084C130.429 26.444 130.567 26.732 130.843 26.948C131.131 27.152 131.521 27.254 132.013 27.254C132.481 27.254 132.901 27.146 133.273 26.93C133.645 26.702 133.915 26.372 134.083 25.94L134.515 27.236C134.311 27.86 133.939 28.334 133.399 28.658C132.859 28.982 132.163 29.144 131.311 29.144ZM143.393 29.144C142.253 29.144 141.365 28.856 140.729 28.28C140.093 27.692 139.775 26.822 139.775 25.67V17.174H142.583V25.634C142.583 26.042 142.691 26.36 142.907 26.588C143.123 26.804 143.417 26.912 143.789 26.912C144.233 26.912 144.611 26.792 144.923 26.552L145.679 28.532C145.391 28.736 145.043 28.892 144.635 29C144.239 29.096 143.825 29.144 143.393 29.144ZM138.281 21.692V19.532H144.995V21.692H138.281ZM151.762 29.144C150.658 29.144 149.686 28.928 148.846 28.496C148.018 28.064 147.376 27.476 146.92 26.732C146.464 25.976 146.236 25.118 146.236 24.158C146.236 23.186 146.458 22.328 146.902 21.584C147.358 20.828 147.976 20.24 148.756 19.82C149.536 19.388 150.418 19.172 151.402 19.172C152.35 19.172 153.202 19.376 153.958 19.784C154.726 20.18 155.332 20.756 155.776 21.512C156.22 22.256 156.442 23.15 156.442 24.194C156.442 24.302 156.436 24.428 156.424 24.572C156.412 24.704 156.4 24.83 156.388 24.95H148.522V23.312H154.912L153.832 23.798C153.832 23.294 153.73 22.856 153.526 22.484C153.322 22.112 153.04 21.824 152.68 21.62C152.32 21.404 151.9 21.296 151.42 21.296C150.94 21.296 150.514 21.404 150.142 21.62C149.782 21.824 149.5 22.118 149.296 22.502C149.092 22.874 148.99 23.318 148.99 23.834V24.266C148.99 24.794 149.104 25.262 149.332 25.67C149.572 26.066 149.902 26.372 150.322 26.588C150.754 26.792 151.258 26.894 151.834 26.894C152.35 26.894 152.8 26.816 153.184 26.66C153.58 26.504 153.94 26.27 154.264 25.958L155.758 27.578C155.314 28.082 154.756 28.472 154.084 28.748C153.412 29.012 152.638 29.144 151.762 29.144Z" fill="white"/>
</svg>
