<svg width="15" height="14" viewBox="0 0 15 14" fill="none" xmlns="http://www.w3.org/2000/svg">
<path d="M10.8945 0.67734L9.36385 2.1623L12.8045 5.49415L14.3352 4.01185C14.937 3.42904 14.937 2.48697 14.3352 1.90416L13.071 0.67734C12.4692 0.0945324 11.4964 0.0945324 10.8945 0.67734ZM8.68507 2.70785L8.43225 2.78237L4.47224 3.93202C3.92536 4.09169 3.49116 4.4962 3.30979 5.02312L0.874974 12.0541C0.770547 12.3548 0.847493 12.6901 1.07559 12.9163L5.29667 8.83133C5.21422 8.66367 5.16751 8.47738 5.16751 8.28045C5.16751 7.57523 5.75835 7.00307 6.48659 7.00307C7.21484 7.00307 7.80568 7.57523 7.80568 8.28045C7.80568 8.98568 7.21484 9.55784 6.48659 9.55784C6.28323 9.55784 6.09087 9.5126 5.91774 9.43276L1.69666 13.5204C1.93299 13.7413 2.2765 13.8185 2.58704 13.7147L9.85027 11.3568C10.3916 11.1812 10.8121 10.7607 10.977 10.2311L12.1642 6.39631L12.2411 6.15148L8.68507 2.70785Z" fill="white"/>
</svg>
