<svg width="26" height="25" viewBox="0 0 26 25" fill="none" xmlns="http://www.w3.org/2000/svg">
<circle cx="12.5479" cy="12.5" r="12.5" fill="#FF961B" fill-opacity="0.1"/>
<path d="M15.4228 6.42029L13.9971 7.84814L17.2017 11.0518L18.6274 9.62656C19.188 9.06616 19.188 8.16032 18.6274 7.59993L17.45 6.42029C16.8895 5.8599 15.9834 5.8599 15.4228 6.42029ZM13.3649 8.37271L13.1294 8.44436L9.44106 9.54979C8.9317 9.70332 8.52728 10.0923 8.35835 10.5989L6.09055 17.3595C5.99328 17.6486 6.06495 17.971 6.2774 18.1885L10.2089 14.2607C10.1321 14.0995 10.0886 13.9203 10.0886 13.731C10.0886 13.0529 10.6389 12.5027 11.3172 12.5027C11.9955 12.5027 12.5458 13.0529 12.5458 13.731C12.5458 14.4091 11.9955 14.9592 11.3172 14.9592C11.1278 14.9592 10.9487 14.9157 10.7874 14.839L6.85587 18.7694C7.07599 18.9818 7.39594 19.056 7.68518 18.9562L14.4502 16.689C14.9544 16.5201 15.346 16.1158 15.4996 15.6066L16.6054 11.9193L16.677 11.6839L13.3649 8.37271Z" fill="#FF1901"/>
</svg>
