<svg width="21" height="21" viewBox="0 0 21 21" fill="none" xmlns="http://www.w3.org/2000/svg">
<g clip-path="url(#clip0_215_2338)">
<path d="M13.7061 2.25968C13.8214 2.3165 13.8987 2.39836 13.9897 2.48894C14.0101 2.50913 14.0305 2.52931 14.0516 2.55011C14.1201 2.61789 14.1881 2.68611 14.2561 2.75433C14.3051 2.80299 14.354 2.85163 14.4031 2.90024C14.5361 3.0324 14.6688 3.16495 14.8014 3.29761C14.912 3.40822 15.0228 3.51864 15.1335 3.62907C15.3947 3.88948 15.6556 4.15022 15.9162 4.41116C16.1855 4.68069 16.4554 4.9496 16.7255 5.21823C16.9572 5.44867 17.1885 5.6795 17.4195 5.91064C17.5576 6.0488 17.6958 6.18679 17.8344 6.32439C17.9646 6.45372 18.0944 6.58353 18.2237 6.71373C18.2714 6.76153 18.3192 6.80915 18.3672 6.85658C18.4326 6.92117 18.4972 6.98635 18.5618 7.05173C18.5982 7.08812 18.6346 7.12452 18.6721 7.16201C18.7441 7.25959 18.7441 7.25959 18.7401 7.33473C18.6876 7.46098 18.6074 7.5349 18.5108 7.63164C18.4906 7.65213 18.4703 7.67263 18.4494 7.69374C18.3809 7.76275 18.312 7.83132 18.2431 7.8999C18.1935 7.94961 18.1441 7.99935 18.0946 8.04912C17.9583 8.18613 17.8215 8.32274 17.6848 8.4593C17.5374 8.60651 17.3905 8.75407 17.2435 8.90158C16.9553 9.19061 16.6668 9.4793 16.3782 9.76787C16.1437 10.0023 15.9093 10.2368 15.675 10.4714C15.6076 10.5389 15.5402 10.6064 15.4728 10.6739C15.4393 10.7075 15.4057 10.7411 15.3712 10.7757C14.7364 11.4112 14.1012 12.0464 13.4659 12.6814C12.884 13.263 12.3027 13.8452 11.7217 14.4276C11.1256 15.025 10.5292 15.622 9.93243 16.2186C9.59713 16.5539 9.26199 16.8892 8.92724 17.225C8.64232 17.5108 8.35706 17.7962 8.07133 18.0811C7.92543 18.2267 7.7797 18.3723 7.63441 18.5185C7.50159 18.6521 7.36832 18.7852 7.23465 18.9179C7.18619 18.9662 7.13791 19.0146 7.08982 19.0633C7.02477 19.129 6.95913 19.1941 6.8933 19.2591C6.85688 19.2955 6.82045 19.3319 6.78293 19.3695C6.68554 19.4412 6.68554 19.4412 6.59664 19.4372C6.48128 19.3804 6.40402 19.2986 6.31306 19.208C6.29263 19.1878 6.27219 19.1676 6.25114 19.1468C6.18267 19.079 6.11465 19.0108 6.04662 18.9426C5.99766 18.8939 5.94868 18.8453 5.89967 18.7967C5.76659 18.6645 5.63392 18.532 5.50134 18.3993C5.39074 18.2887 5.27997 18.1783 5.16919 18.0679C4.908 17.8074 4.64714 17.5467 4.38647 17.2858C4.11722 17.0162 3.84736 16.7473 3.57721 16.4787C3.34552 16.2483 3.11422 16.0174 2.88324 15.7863C2.74517 15.6481 2.60695 15.5101 2.46834 15.3725C2.33811 15.2432 2.20837 15.1134 2.07901 14.9832C2.03135 14.9354 1.98352 14.8878 1.9355 14.8403C1.87017 14.7758 1.8055 14.7106 1.74096 14.6452C1.70454 14.6088 1.66812 14.5724 1.63059 14.5349C1.55859 14.4373 1.55859 14.4373 1.56258 14.3622C1.61514 14.2359 1.69531 14.162 1.79188 14.0653C1.81216 14.0448 1.83245 14.0243 1.85336 14.0032C1.92184 13.9342 1.99075 13.8656 2.05967 13.797C2.10918 13.7473 2.15867 13.6976 2.20813 13.6478C2.34446 13.5108 2.48118 13.3742 2.61796 13.2376C2.76528 13.0904 2.91224 12.9429 3.05925 12.7953C3.34742 12.5063 3.63593 12.2176 3.92456 11.9291C4.15905 11.6946 4.39342 11.4601 4.62772 11.2255C4.69512 11.158 4.76252 11.0905 4.82992 11.023C4.86346 10.9895 4.897 10.9559 4.93156 10.9213C5.56634 10.2857 6.20154 9.65055 6.83686 9.01551C7.4187 8.4339 8.00001 7.85174 8.58106 7.26933C9.17708 6.67192 9.77348 6.0749 10.3703 5.47828C10.7056 5.14307 11.0407 4.80771 11.3755 4.47194C11.6604 4.18617 11.9457 3.90075 12.2314 3.61579C12.3773 3.47027 12.523 3.32459 12.6683 3.17846C12.8011 3.04487 12.9344 2.91177 13.0681 2.77904C13.1165 2.73076 13.1648 2.6823 13.2129 2.63365C13.278 2.56791 13.3436 2.50282 13.4094 2.43787C13.4458 2.40143 13.4823 2.365 13.5198 2.32746C13.6172 2.25569 13.6172 2.25569 13.7061 2.25968Z" fill="#FF1901"/>
<path d="M17.8008 0.164039C17.8488 0.18561 17.8488 0.18561 17.8979 0.207618C18.3452 0.430491 18.6915 0.842261 19.0421 1.19055C19.0737 1.22186 19.0737 1.22186 19.1059 1.25379C19.2169 1.36398 19.3278 1.4743 19.4386 1.58472C19.552 1.69762 19.6658 1.81004 19.7798 1.92237C19.8685 2.00996 19.9568 2.09792 20.045 2.18598C20.0868 2.22757 20.1287 2.26902 20.1707 2.31032C20.482 2.6162 20.7344 2.92559 20.8898 3.33762C20.9086 3.38632 20.9086 3.38632 20.9277 3.436C21.1005 3.94088 21.0575 4.60657 20.8359 5.08591C20.5569 5.63118 20.0786 6.05584 19.6465 6.48044C19.4909 6.41594 19.3925 6.31862 19.2743 6.20014C19.2539 6.1798 19.2335 6.15947 19.2124 6.13851C19.1442 6.07038 19.0762 6.00195 19.0082 5.93352C18.9593 5.8846 18.9104 5.83569 18.8615 5.7868C18.7287 5.65403 18.5961 5.52101 18.4636 5.38794C18.3251 5.24892 18.1864 5.11013 18.0477 4.97131C17.785 4.70841 17.5226 4.4453 17.2602 4.18212C16.9615 3.8825 16.6626 3.58312 16.3636 3.28376C15.7487 2.66794 15.134 2.05183 14.5195 1.43552C14.6218 1.22063 14.7828 1.07674 14.9502 0.91001C14.9816 0.877944 15.013 0.845877 15.0454 0.812838C15.3292 0.528745 15.6314 0.276302 16.0089 0.12815C16.0683 0.104199 16.0683 0.104199 16.1289 0.0797643C16.6415 -0.0956752 17.3144 -0.0676997 17.8008 0.164039Z" fill="#FF1901"/>
<path d="M0.861331 15.4219C1.00961 15.4846 1.10456 15.5728 1.21796 15.6861C1.23669 15.7047 1.25542 15.7233 1.27472 15.7424C1.33733 15.8047 1.39963 15.8673 1.46195 15.9298C1.50681 15.9746 1.55168 16.0193 1.59658 16.064C1.71836 16.1855 1.83989 16.3071 1.96136 16.4289C2.0884 16.5561 2.21564 16.6831 2.34284 16.8102C2.55635 17.0236 2.76967 17.2371 2.98291 17.4507C3.22972 17.698 3.47683 17.9449 3.72409 18.1918C3.9362 18.4035 4.14815 18.6154 4.35996 18.8274C4.48656 18.9541 4.6132 19.0808 4.73999 19.2073C4.85909 19.3262 4.97798 19.4452 5.09671 19.5644C5.14042 19.6083 5.18421 19.652 5.22807 19.6957C5.2877 19.7551 5.34705 19.8148 5.40639 19.8745C5.43975 19.9079 5.47311 19.9413 5.50748 19.9757C5.57813 20.0566 5.57813 20.0566 5.57813 20.1387C4.9778 20.2516 4.37737 20.3639 3.77682 20.4756C3.49792 20.5275 3.21906 20.5795 2.94028 20.632C2.67096 20.6827 2.40155 20.7329 2.13208 20.7828C2.02958 20.8019 1.9271 20.8211 1.82466 20.8405C1.68055 20.8678 1.53634 20.8944 1.3921 20.9209C1.32939 20.933 1.32939 20.933 1.26542 20.9453C0.506224 21.0826 0.506224 21.0826 0.260987 20.9348C0.152564 20.8432 0.063787 20.7584 2.49827e-06 20.6309C-0.0220571 20.2816 0.0131279 19.9502 0.0790697 19.6079C0.0874708 19.5622 0.0958718 19.5165 0.104527 19.4695C0.132041 19.3205 0.160222 19.1716 0.188418 19.0228C0.207771 18.9187 0.227081 18.8146 0.246352 18.7105C0.291757 18.4659 0.337584 18.2213 0.383623 17.9767C0.436078 17.698 0.487983 17.4191 0.539846 17.1402C0.646404 16.5673 0.753639 15.9946 0.861331 15.4219Z" fill="#FF1901"/>
</g>
<defs>
<clipPath id="clip0_215_2338">
<rect width="21" height="21" fill="white"/>
</clipPath>
</defs>
</svg>
