<svg width="115" height="38" viewBox="0 0 115 38" fill="none" xmlns="http://www.w3.org/2000/svg">
<rect width="115" height="38" rx="8" fill="white"/>
<rect x="0.5" y="0.5" width="114" height="37" rx="7.5" stroke="#FF1901" stroke-opacity="0.4"/>
<path d="M60.086 17.774H64.958V19.272H60.086V17.774ZM60.226 21.974H65.756V23.5H58.406V13.7H65.56V15.226H60.226V21.974ZM77.0529 15.94C77.6502 15.94 78.1775 16.0567 78.6349 16.29C79.1015 16.5233 79.4655 16.8827 79.7269 17.368C79.9882 17.844 80.1189 18.46 80.1189 19.216V23.5H78.3689V19.44C78.3689 18.7773 78.2242 18.2827 77.9349 17.956C77.6455 17.6293 77.2302 17.466 76.6889 17.466C76.3062 17.466 75.9655 17.55 75.6669 17.718C75.3775 17.886 75.1489 18.1333 74.9809 18.46C74.8222 18.7867 74.7429 19.202 74.7429 19.706V23.5H72.9929V19.44C72.9929 18.7773 72.8482 18.2827 72.5589 17.956C72.2695 17.6293 71.8542 17.466 71.3129 17.466C70.9302 17.466 70.5895 17.55 70.2909 17.718C70.0015 17.886 69.7729 18.1333 69.6049 18.46C69.4462 18.7867 69.3669 19.202 69.3669 19.706V23.5H67.6169V16.024H69.2829V18.012L68.9889 17.424C69.2409 16.9387 69.6049 16.57 70.0809 16.318C70.5662 16.066 71.1169 15.94 71.7329 15.94C72.4329 15.94 73.0395 16.1127 73.5529 16.458C74.0755 16.8033 74.4209 17.326 74.5889 18.026L73.9029 17.788C74.1455 17.228 74.5469 16.78 75.1069 16.444C75.6669 16.108 76.3155 15.94 77.0529 15.94ZM86.9611 23.5V21.988L86.8631 21.666V19.02C86.8631 18.5067 86.7091 18.11 86.4011 17.83C86.0931 17.5407 85.6265 17.396 85.0011 17.396C84.5811 17.396 84.1658 17.4613 83.7551 17.592C83.3538 17.7227 83.0131 17.9047 82.7331 18.138L82.0471 16.864C82.4485 16.556 82.9245 16.3273 83.4751 16.178C84.0351 16.0193 84.6138 15.94 85.2111 15.94C86.2938 15.94 87.1291 16.2013 87.7171 16.724C88.3145 17.2373 88.6131 18.0353 88.6131 19.118V23.5H86.9611ZM84.6091 23.598C84.0491 23.598 83.5591 23.5047 83.1391 23.318C82.7191 23.122 82.3925 22.856 82.1591 22.52C81.9351 22.1747 81.8231 21.7873 81.8231 21.358C81.8231 20.938 81.9211 20.56 82.1171 20.224C82.3225 19.888 82.6538 19.622 83.1111 19.426C83.5685 19.23 84.1751 19.132 84.9311 19.132H87.1011V20.294H85.0571C84.4598 20.294 84.0585 20.392 83.8531 20.588C83.6478 20.7747 83.5451 21.008 83.5451 21.288C83.5451 21.6053 83.6711 21.8573 83.9231 22.044C84.1751 22.2307 84.5251 22.324 84.9731 22.324C85.4025 22.324 85.7851 22.226 86.1211 22.03C86.4665 21.834 86.7138 21.5447 86.8631 21.162L87.1571 22.212C86.9891 22.6507 86.6858 22.9913 86.2471 23.234C85.8178 23.4767 85.2718 23.598 84.6091 23.598ZM90.8591 23.5V16.024H92.6091V23.5H90.8591ZM91.7411 14.792C91.4144 14.792 91.1437 14.6893 90.9291 14.484C90.7237 14.2787 90.6211 14.0313 90.6211 13.742C90.6211 13.4433 90.7237 13.196 90.9291 13C91.1437 12.7947 91.4144 12.692 91.7411 12.692C92.0677 12.692 92.3337 12.79 92.5391 12.986C92.7537 13.1727 92.8611 13.4107 92.8611 13.7C92.8611 14.008 92.7584 14.2693 92.5531 14.484C92.3477 14.6893 92.0771 14.792 91.7411 14.792ZM94.9059 23.5V13.112H96.6559V23.5H94.9059Z" fill="#FF1901" fill-opacity="0.4"/>
<ellipse cx="28" cy="19" rx="14" ry="13" fill="#FF1901" fill-opacity="0.4"/>
<path d="M21.6672 13.6282C20.7124 13.6282 19.9473 14.3571 19.9473 15.2218V22.401C19.9473 23.2657 20.7124 23.9999 21.6672 23.9999H34.2801C35.2348 23.9999 36 23.2657 36 22.401V15.2218C36 14.3571 35.2348 13.6282 34.2801 13.6282H21.6672ZM21.7508 14.6654H34.2024L28.314 19.7216C28.0997 19.9056 27.86 19.9058 27.6452 19.7216L21.7508 14.6654ZM21.0939 15.5297L24.9996 18.8789L21.0939 22.401V15.5297ZM34.8534 15.5297V22.401L30.9596 18.8735L34.8534 15.5297ZM30.1355 19.5865L33.856 22.9628H22.0972L25.8297 19.5919L26.8569 20.4725C27.4795 21.0063 28.4798 21.0072 29.1023 20.4725L30.1355 19.5865Z" fill="white"/>
</svg>
