<svg width="106" height="84" viewBox="0 0 106 84" fill="none" xmlns="http://www.w3.org/2000/svg">
<path d="M3.86153 84H6.70461C7.5998 84.003 8.35364 83.6799 8.96614 83.0307C9.61532 82.4183 9.9384 81.6644 9.93537 80.7692C9.9384 79.8738 9.61532 79.0985 8.96614 78.443C8.35364 77.8368 7.5998 77.5352 6.70461 77.5384H3.86153C2.96617 77.5352 2.19079 77.8368 1.53538 78.443C0.929103 79.0985 0.627565 79.8738 0.630762 80.7692C0.627565 81.6644 0.929103 82.4183 1.53538 83.0307C2.19079 83.6799 2.96617 84.003 3.86153 84ZM9.48307 39.6738C8.87057 39.0676 8.11672 38.766 7.22153 38.7692H3.86153C2.96617 38.766 2.19079 39.0676 1.53538 39.6738C0.929103 40.3293 0.627565 41.1046 0.630762 42C0.627565 42.8952 0.929103 43.649 1.53538 44.2615C2.19079 44.9107 2.96617 45.2338 3.86153 45.2308H7.22153C8.11672 45.2338 8.87057 44.9107 9.48307 44.2615C10.1322 43.649 10.4553 42.8952 10.4523 42C10.4553 41.1046 10.1322 40.3293 9.48307 39.6738ZM0.759994 3.23079C0.756797 4.12598 1.05833 4.87983 1.66461 5.49233C2.32002 6.14151 3.0954 6.46459 3.99076 6.46156H6.83384C7.72903 6.46459 8.48287 6.14151 9.09537 5.49233C9.74456 4.87983 10.0676 4.12598 10.0646 3.23079C10.0676 2.33543 9.74456 1.56005 9.09537 0.904641C8.48287 0.298367 7.72903 -0.00317196 6.83384 2.51567e-05H3.99076C3.0954 -0.00317196 2.32002 0.298367 1.66461 0.904641C1.05833 1.56005 0.756797 2.33543 0.759994 3.23079ZM104.985 78.443C104.372 77.8368 103.618 77.5352 102.723 77.5384H38.1077C37.2123 77.5352 36.4369 77.8368 35.7815 78.443C35.1752 79.0985 34.8737 79.8738 34.8769 80.7692C34.8737 81.6644 35.1752 82.4183 35.7815 83.0307C36.4369 83.6799 37.2123 84.003 38.1077 84H102.723C103.618 84.003 104.372 83.6799 104.985 83.0307C105.634 82.4183 105.957 81.6644 105.954 80.7692C105.957 79.8738 105.634 79.0985 104.985 78.443ZM104.985 0.904641C104.372 0.298367 103.618 -0.00317196 102.723 2.51567e-05H38.1077C37.2123 -0.00317196 36.4369 0.298367 35.7815 0.904641C35.1752 1.56005 34.8737 2.33543 34.8769 3.23079C34.8737 4.12598 35.1752 4.87983 35.7815 5.49233C36.4369 6.14151 37.2123 6.46459 38.1077 6.46156H102.723C103.618 6.46459 104.372 6.14151 104.985 5.49233C105.634 4.87983 105.957 4.12598 105.954 3.23079C105.957 2.33543 105.634 1.56005 104.985 0.904641ZM104.985 39.6738C104.372 39.0676 103.618 38.766 102.723 38.7692H38.1077C37.2123 38.766 36.4369 39.0676 35.7815 39.6738C35.1752 40.3293 34.8737 41.1046 34.8769 42C34.8737 42.8952 35.1752 43.649 35.7815 44.2615C36.4369 44.9107 37.2123 45.2338 38.1077 45.2308H102.723C103.618 45.2338 104.372 44.9107 104.985 44.2615C105.634 43.649 105.957 42.8952 105.954 42C105.957 41.1046 105.634 40.3293 104.985 39.6738Z" fill="#007BFF" fill-opacity="0.33"/>
</svg>
