<svg width="23" height="18" viewBox="0 0 23 18" fill="none" xmlns="http://www.w3.org/2000/svg">
<g clip-path="url(#clip0_762_6275)">
<path d="M5.0625 16.875C2.26758 16.875 0 14.6074 0 11.8125C0 9.60469 1.41328 7.72734 3.38203 7.03477C3.37852 6.93984 3.375 6.84492 3.375 6.75C3.375 3.64219 5.89219 1.125 9 1.125C11.0848 1.125 12.9023 2.25703 13.8762 3.94453C14.4105 3.58594 15.0574 3.375 15.75 3.375C17.6133 3.375 19.125 4.88672 19.125 6.75C19.125 7.17891 19.0441 7.58672 18.9 7.96641C20.9531 8.38125 22.5 10.1988 22.5 12.375C22.5 14.8605 20.4855 16.875 18 16.875H5.0625ZM7.83984 11.0039L10.6523 13.8164C10.9828 14.1469 11.5172 14.1469 11.8441 13.8164L14.6566 11.0039C14.9871 10.6734 14.9871 10.1391 14.6566 9.81211C14.3262 9.48516 13.7918 9.48164 13.4648 9.81211L12.0938 11.1832V6.46875C12.0938 6.00117 11.7176 5.625 11.25 5.625C10.7824 5.625 10.4062 6.00117 10.4062 6.46875V11.1832L9.03516 9.81211C8.70469 9.48164 8.17031 9.48164 7.84336 9.81211C7.51641 10.1426 7.51289 10.677 7.84336 11.0039H7.83984Z" fill="black"/>
</g>
<defs>
<clipPath id="clip0_762_6275">
<rect width="22.5" height="18" fill="white"/>
</clipPath>
</defs>
</svg>
