<svg width="29" height="24" viewBox="0 0 29 24" fill="none" xmlns="http://www.w3.org/2000/svg">
<path d="M4.15036 4.56487H1.45036C1.20251 4.56487 1 4.37333 1 4.13888C1 3.90444 1.2025 3.71289 1.45036 3.71289H4.15036C4.39821 3.71289 4.60072 3.90443 4.60072 4.13888C4.60072 4.37332 4.39822 4.56487 4.15036 4.56487Z" fill="#8D91A0" stroke="#8D91A0"/>
<path d="M7.00308 7.19157C5.22384 7.19157 3.77686 5.82283 3.77686 4.13991C3.77686 2.45693 5.22389 1.08824 7.00308 1.08824C8.78227 1.08824 10.2293 2.45698 10.2293 4.13991C10.2293 5.82288 8.78227 7.19157 7.00308 7.19157ZM7.00308 1.9392C5.72058 1.9392 4.67644 2.92685 4.67644 4.13996C4.67644 5.35306 5.72058 6.34071 7.00308 6.34071C8.28558 6.34071 9.32973 5.35306 9.32973 4.13996C9.32973 2.92685 8.28558 1.9392 7.00308 1.9392Z" fill="#8D91A0" stroke="#8D91A0"/>
<path d="M4.15036 20.3741H1.45036C1.20251 20.3741 1 20.1826 1 19.9481C1 19.7137 1.2025 19.5221 1.45036 19.5221H4.15036C4.39821 19.5221 4.60072 19.7137 4.60072 19.9481C4.60072 20.1825 4.39822 20.3741 4.15036 20.3741Z" fill="#8D91A0" stroke="#8D91A0"/>
<path d="M7.00308 23C5.22384 23 3.77686 21.6313 3.77686 19.9483C3.77686 18.2654 5.22389 16.8967 7.00308 16.8967C8.78227 16.8967 10.2293 18.2654 10.2293 19.9483C10.2293 21.6313 8.78227 23 7.00308 23ZM7.00308 17.7456C5.72058 17.7456 4.67644 18.7332 4.67644 19.9463C4.67644 21.1594 5.72058 22.1471 7.00308 22.1471C8.28558 22.1471 9.32973 21.1594 9.32973 19.9463C9.32973 18.7332 8.28558 17.7456 7.00308 17.7456Z" fill="#8D91A0" stroke="#8D91A0"/>
<path d="M27.5495 12.47H24.8495C24.6017 12.47 24.3992 12.2785 24.3992 12.044C24.3992 11.8096 24.6017 11.618 24.8495 11.618H27.5495C27.7974 11.618 27.9999 11.8096 27.9999 12.044C27.9999 12.2784 27.7974 12.47 27.5495 12.47Z" fill="#8D91A0" stroke="#8D91A0"/>
<path d="M21.9967 15.0957C20.2175 15.0957 18.7705 13.7269 18.7705 12.044C18.7705 10.361 20.2175 8.99234 21.9967 8.99234C23.7759 8.99234 25.223 10.3611 25.223 12.044C25.223 13.727 23.7759 15.0957 21.9967 15.0957ZM21.9967 9.8433C20.7142 9.8433 19.6701 10.8309 19.6701 12.0441C19.6701 13.2572 20.7142 14.2448 21.9967 14.2448C23.2792 14.2448 24.3234 13.2572 24.3234 12.0441C24.3234 10.8309 23.2792 9.8433 21.9967 9.8433Z" fill="#8D91A0" stroke="#8D91A0"/>
<path d="M19.0004 12.47H1.45036C1.20251 12.47 1 12.2785 1 12.044C1 11.8096 1.2025 11.618 1.45036 11.618H19.0004C19.2482 11.618 19.4507 11.8096 19.4507 12.044C19.4507 12.2784 19.2482 12.47 19.0004 12.47Z" fill="#8D91A0" stroke="#8D91A0"/>
<path d="M27.5497 4.56487H9.99968C9.75182 4.56487 9.54932 4.37333 9.54932 4.13888C9.54932 3.90444 9.75182 3.71289 9.99968 3.71289H27.5497C27.7975 3.71289 28 3.90443 28 4.13888C28 4.37332 27.7975 4.56487 27.5497 4.56487Z" fill="#8D91A0" stroke="#8D91A0"/>
<path d="M27.5497 20.3741H9.99968C9.75182 20.3741 9.54932 20.1826 9.54932 19.9481C9.54932 19.7137 9.75182 19.5221 9.99968 19.5221H27.5497C27.7975 19.5221 28 19.7137 28 19.9481C28 20.1825 27.7975 20.3741 27.5497 20.3741Z" fill="#8D91A0" stroke="#8D91A0"/>
</svg>
