<svg width="112" height="29" viewBox="0 0 112 29" fill="none" xmlns="http://www.w3.org/2000/svg">
<rect x="0.5" y="0.5" width="111" height="28" rx="5.5" fill="white"/>
<rect x="0.5" y="0.5" width="111" height="28" rx="5.5" stroke="#FF1901"/>
<g clip-path="url(#clip0_3210_23990)">
<path d="M18 5C12.4858 5 8 9.48583 8 15C8 20.5142 12.4858 25 18 25C23.5142 25 28 20.5142 28 15C28 9.48583 23.5142 5 18 5ZM23.1667 13.76L19.4783 17.3808C18.8258 18.0208 17.9858 18.34 17.145 18.34C16.3133 18.34 15.4817 18.0267 14.8317 17.3992L13.2492 15.8433C12.9208 15.5208 12.9167 14.9933 13.2392 14.665C13.5608 14.3358 14.09 14.3317 14.4175 14.655L15.995 16.2058C16.6417 16.8308 17.6625 16.8275 18.3125 16.1908L22 12.5708C22.3275 12.2475 22.8533 12.2533 23.1783 12.5817C23.5008 12.91 23.4958 13.4375 23.1667 13.76Z" fill="#FF1901"/>
</g>
<path d="M39.0969 19.12C38.4409 19.12 37.8369 19.016 37.2849 18.808C36.7409 18.592 36.2649 18.292 35.8569 17.908C35.4489 17.516 35.1329 17.056 34.9089 16.528C34.6849 16 34.5729 15.424 34.5729 14.8C34.5729 14.176 34.6849 13.6 34.9089 13.072C35.1329 12.544 35.4489 12.088 35.8569 11.704C36.2729 11.312 36.7569 11.012 37.3089 10.804C37.8609 10.588 38.4649 10.48 39.1209 10.48C39.8329 10.48 40.4729 10.596 41.0409 10.828C41.6169 11.06 42.1009 11.4 42.4929 11.848L41.5089 12.808C41.1809 12.48 40.8249 12.24 40.4409 12.088C40.0649 11.928 39.6489 11.848 39.1929 11.848C38.7529 11.848 38.3449 11.92 37.9689 12.064C37.5929 12.208 37.2689 12.412 36.9969 12.676C36.7249 12.94 36.5129 13.252 36.3609 13.612C36.2169 13.972 36.1449 14.368 36.1449 14.8C36.1449 15.224 36.2169 15.616 36.3609 15.976C36.5129 16.336 36.7249 16.652 36.9969 16.924C37.2689 17.188 37.5889 17.392 37.9569 17.536C38.3249 17.68 38.7329 17.752 39.1809 17.752C39.5969 17.752 39.9969 17.688 40.3809 17.56C40.7729 17.424 41.1449 17.2 41.4969 16.888L42.3849 18.052C41.9449 18.404 41.4329 18.672 40.8489 18.856C40.2729 19.032 39.6889 19.12 39.0969 19.12ZM40.9089 17.848V14.704H42.3849V18.052L40.9089 17.848ZM47.1785 19.084C46.5225 19.084 45.9385 18.944 45.4265 18.664C44.9145 18.376 44.5105 17.984 44.2145 17.488C43.9185 16.992 43.7705 16.428 43.7705 15.796C43.7705 15.156 43.9185 14.592 44.2145 14.104C44.5105 13.608 44.9145 13.22 45.4265 12.94C45.9385 12.66 46.5225 12.52 47.1785 12.52C47.8425 12.52 48.4305 12.66 48.9425 12.94C49.4625 13.22 49.8665 13.604 50.1545 14.092C50.4505 14.58 50.5985 15.148 50.5985 15.796C50.5985 16.428 50.4505 16.992 50.1545 17.488C49.8665 17.984 49.4625 18.376 48.9425 18.664C48.4305 18.944 47.8425 19.084 47.1785 19.084ZM47.1785 17.8C47.5465 17.8 47.8745 17.72 48.1625 17.56C48.4505 17.4 48.6745 17.168 48.8345 16.864C49.0025 16.56 49.0865 16.204 49.0865 15.796C49.0865 15.38 49.0025 15.024 48.8345 14.728C48.6745 14.424 48.4505 14.192 48.1625 14.032C47.8745 13.872 47.5505 13.792 47.1905 13.792C46.8225 13.792 46.4945 13.872 46.2065 14.032C45.9265 14.192 45.7025 14.424 45.5345 14.728C45.3665 15.024 45.2825 15.38 45.2825 15.796C45.2825 16.204 45.3665 16.56 45.5345 16.864C45.7025 17.168 45.9265 17.4 46.2065 17.56C46.4945 17.72 46.8185 17.8 47.1785 17.8ZM54.9128 19.084C54.2568 19.084 53.6728 18.944 53.1608 18.664C52.6488 18.376 52.2448 17.984 51.9488 17.488C51.6528 16.992 51.5048 16.428 51.5048 15.796C51.5048 15.156 51.6528 14.592 51.9488 14.104C52.2448 13.608 52.6488 13.22 53.1608 12.94C53.6728 12.66 54.2568 12.52 54.9128 12.52C55.5768 12.52 56.1648 12.66 56.6768 12.94C57.1968 13.22 57.6008 13.604 57.8888 14.092C58.1848 14.58 58.3328 15.148 58.3328 15.796C58.3328 16.428 58.1848 16.992 57.8888 17.488C57.6008 17.984 57.1968 18.376 56.6768 18.664C56.1648 18.944 55.5768 19.084 54.9128 19.084ZM54.9128 17.8C55.2808 17.8 55.6088 17.72 55.8968 17.56C56.1848 17.4 56.4088 17.168 56.5688 16.864C56.7368 16.56 56.8208 16.204 56.8208 15.796C56.8208 15.38 56.7368 15.024 56.5688 14.728C56.4088 14.424 56.1848 14.192 55.8968 14.032C55.6088 13.872 55.2848 13.792 54.9248 13.792C54.5568 13.792 54.2288 13.872 53.9408 14.032C53.6608 14.192 53.4368 14.424 53.2688 14.728C53.1008 15.024 53.0168 15.38 53.0168 15.796C53.0168 16.204 53.1008 16.56 53.2688 16.864C53.4368 17.168 53.6608 17.4 53.9408 17.56C54.2288 17.72 54.5528 17.8 54.9128 17.8ZM62.4792 19.084C61.8632 19.084 61.3072 18.948 60.8112 18.676C60.3232 18.396 59.9392 18.012 59.6592 17.524C59.3792 17.036 59.2392 16.46 59.2392 15.796C59.2392 15.132 59.3792 14.556 59.6592 14.068C59.9392 13.58 60.3232 13.2 60.8112 12.928C61.3072 12.656 61.8632 12.52 62.4792 12.52C63.0152 12.52 63.4952 12.64 63.9192 12.88C64.3432 13.112 64.6792 13.468 64.9272 13.948C65.1752 14.428 65.2992 15.044 65.2992 15.796C65.2992 16.54 65.1792 17.156 64.9392 17.644C64.6992 18.124 64.3672 18.484 63.9432 18.724C63.5192 18.964 63.0312 19.084 62.4792 19.084ZM62.6592 17.8C63.0192 17.8 63.3392 17.72 63.6192 17.56C63.9072 17.4 64.1352 17.168 64.3032 16.864C64.4792 16.56 64.5672 16.204 64.5672 15.796C64.5672 15.38 64.4792 15.024 64.3032 14.728C64.1352 14.424 63.9072 14.192 63.6192 14.032C63.3392 13.872 63.0192 13.792 62.6592 13.792C62.2992 13.792 61.9752 13.872 61.6872 14.032C61.4072 14.192 61.1792 14.424 61.0032 14.728C60.8352 15.024 60.7512 15.38 60.7512 15.796C60.7512 16.204 60.8352 16.56 61.0032 16.864C61.1792 17.168 61.4072 17.4 61.6872 17.56C61.9752 17.72 62.2992 17.8 62.6592 17.8ZM64.6032 19V17.488L64.6632 15.784L64.5432 14.08V10.096H66.0312V19H64.6032ZM73.1699 19V11.92H70.3859V10.6H77.5139V11.92H74.7299V19H73.1699ZM80.7644 19.084C80.1084 19.084 79.5244 18.944 79.0124 18.664C78.5004 18.376 78.0964 17.984 77.8004 17.488C77.5044 16.992 77.3564 16.428 77.3564 15.796C77.3564 15.156 77.5044 14.592 77.8004 14.104C78.0964 13.608 78.5004 13.22 79.0124 12.94C79.5244 12.66 80.1084 12.52 80.7644 12.52C81.4284 12.52 82.0164 12.66 82.5284 12.94C83.0484 13.22 83.4524 13.604 83.7404 14.092C84.0364 14.58 84.1844 15.148 84.1844 15.796C84.1844 16.428 84.0364 16.992 83.7404 17.488C83.4524 17.984 83.0484 18.376 82.5284 18.664C82.0164 18.944 81.4284 19.084 80.7644 19.084ZM80.7644 17.8C81.1324 17.8 81.4604 17.72 81.7484 17.56C82.0364 17.4 82.2604 17.168 82.4204 16.864C82.5884 16.56 82.6724 16.204 82.6724 15.796C82.6724 15.38 82.5884 15.024 82.4204 14.728C82.2604 14.424 82.0364 14.192 81.7484 14.032C81.4604 13.872 81.1364 13.792 80.7764 13.792C80.4084 13.792 80.0804 13.872 79.7924 14.032C79.5124 14.192 79.2884 14.424 79.1204 14.728C78.9524 15.024 78.8684 15.38 78.8684 15.796C78.8684 16.204 78.9524 16.56 79.1204 16.864C79.2884 17.168 79.5124 17.4 79.7924 17.56C80.0804 17.72 80.4044 17.8 80.7644 17.8ZM93.0032 19.12C92.3472 19.12 91.7432 19.016 91.1912 18.808C90.6472 18.592 90.1712 18.292 89.7632 17.908C89.3552 17.516 89.0392 17.056 88.8152 16.528C88.5912 16 88.4792 15.424 88.4792 14.8C88.4792 14.176 88.5912 13.6 88.8152 13.072C89.0392 12.544 89.3552 12.088 89.7632 11.704C90.1792 11.312 90.6632 11.012 91.2152 10.804C91.7672 10.588 92.3712 10.48 93.0272 10.48C93.7392 10.48 94.3792 10.596 94.9472 10.828C95.5232 11.06 96.0072 11.4 96.3992 11.848L95.4152 12.808C95.0872 12.48 94.7312 12.24 94.3472 12.088C93.9712 11.928 93.5552 11.848 93.0992 11.848C92.6592 11.848 92.2512 11.92 91.8752 12.064C91.4992 12.208 91.1752 12.412 90.9032 12.676C90.6312 12.94 90.4192 13.252 90.2672 13.612C90.1232 13.972 90.0512 14.368 90.0512 14.8C90.0512 15.224 90.1232 15.616 90.2672 15.976C90.4192 16.336 90.6312 16.652 90.9032 16.924C91.1752 17.188 91.4952 17.392 91.8632 17.536C92.2312 17.68 92.6392 17.752 93.0872 17.752C93.5032 17.752 93.9032 17.688 94.2872 17.56C94.6792 17.424 95.0512 17.2 95.4032 16.888L96.2912 18.052C95.8512 18.404 95.3392 18.672 94.7552 18.856C94.1792 19.032 93.5952 19.12 93.0032 19.12ZM94.8152 17.848V14.704H96.2912V18.052L94.8152 17.848ZM101.085 19.084C100.429 19.084 99.8447 18.944 99.3327 18.664C98.8207 18.376 98.4167 17.984 98.1207 17.488C97.8247 16.992 97.6767 16.428 97.6767 15.796C97.6767 15.156 97.8247 14.592 98.1207 14.104C98.4167 13.608 98.8207 13.22 99.3327 12.94C99.8447 12.66 100.429 12.52 101.085 12.52C101.749 12.52 102.337 12.66 102.849 12.94C103.369 13.22 103.773 13.604 104.061 14.092C104.357 14.58 104.505 15.148 104.505 15.796C104.505 16.428 104.357 16.992 104.061 17.488C103.773 17.984 103.369 18.376 102.849 18.664C102.337 18.944 101.749 19.084 101.085 19.084ZM101.085 17.8C101.453 17.8 101.781 17.72 102.069 17.56C102.357 17.4 102.581 17.168 102.741 16.864C102.909 16.56 102.993 16.204 102.993 15.796C102.993 15.38 102.909 15.024 102.741 14.728C102.581 14.424 102.357 14.192 102.069 14.032C101.781 13.872 101.457 13.792 101.097 13.792C100.729 13.792 100.401 13.872 100.113 14.032C99.8327 14.192 99.6087 14.424 99.4407 14.728C99.2727 15.024 99.1887 15.38 99.1887 15.796C99.1887 16.204 99.2727 16.56 99.4407 16.864C99.6087 17.168 99.8327 17.4 100.113 17.56C100.401 17.72 100.725 17.8 101.085 17.8Z" fill="#FF1901"/>
<defs>
<clipPath id="clip0_3210_23990">
<rect width="20" height="20" fill="white" transform="translate(8 5)"/>
</clipPath>
</defs>
</svg>
