<svg width="25" height="25" viewBox="0 0 25 25" fill="none" xmlns="http://www.w3.org/2000/svg">
<circle cx="12.5" cy="12.5" r="12.5" fill="#FF961B" fill-opacity="0.3"/>
<g clip-path="url(#clip0_3216_24073)">
<path d="M7.78125 6.78125C7.34912 6.78125 7 7.13037 7 7.5625V9.90625C7 10.3384 7.34912 10.6875 7.78125 10.6875C8.21338 10.6875 8.5625 10.3384 8.5625 9.90625V8.34375H10.125C10.5571 8.34375 10.9062 7.99463 10.9062 7.5625C10.9062 7.13037 10.5571 6.78125 10.125 6.78125H7.78125ZM8.5625 14.5938C8.5625 14.1616 8.21338 13.8125 7.78125 13.8125C7.34912 13.8125 7 14.1616 7 14.5938V16.9375C7 17.3696 7.34912 17.7188 7.78125 17.7188H10.125C10.5571 17.7188 10.9062 17.3696 10.9062 16.9375C10.9062 16.5054 10.5571 16.1562 10.125 16.1562H8.5625V14.5938ZM14.8125 6.78125C14.3804 6.78125 14.0312 7.13037 14.0312 7.5625C14.0312 7.99463 14.3804 8.34375 14.8125 8.34375H16.375V9.90625C16.375 10.3384 16.7241 10.6875 17.1562 10.6875C17.5884 10.6875 17.9375 10.3384 17.9375 9.90625V7.5625C17.9375 7.13037 17.5884 6.78125 17.1562 6.78125H14.8125ZM17.9375 14.5938C17.9375 14.1616 17.5884 13.8125 17.1562 13.8125C16.7241 13.8125 16.375 14.1616 16.375 14.5938V16.1562H14.8125C14.3804 16.1562 14.0312 16.5054 14.0312 16.9375C14.0312 17.3696 14.3804 17.7188 14.8125 17.7188H17.1562C17.5884 17.7188 17.9375 17.3696 17.9375 16.9375V14.5938Z" fill="#FF1901"/>
</g>
<defs>
<clipPath id="clip0_3216_24073">
<rect width="10.9375" height="12.5" fill="white" transform="translate(7 6)"/>
</clipPath>
</defs>
</svg>
