<svg width="23" height="22" viewBox="0 0 23 22" fill="none" xmlns="http://www.w3.org/2000/svg">
<ellipse cx="11.1399" cy="11.2726" rx="11.1399" ry="10.7273" fill="#FF961B" fill-opacity="0.3"/>
<g clip-path="url(#clip0_1043_7083)">
<path d="M5.83517 5.49634C5.34614 5.49634 4.95105 5.86509 4.95105 6.32152V8.79706C4.95105 9.25349 5.34614 9.62224 5.83517 9.62224C6.3242 9.62224 6.71929 9.25349 6.71929 8.79706V7.1467H8.48754C8.97657 7.1467 9.37166 6.77795 9.37166 6.32152C9.37166 5.86509 8.97657 5.49634 8.48754 5.49634H5.83517ZM6.71929 13.7481C6.71929 13.2917 6.3242 12.923 5.83517 12.923C5.34614 12.923 4.95105 13.2917 4.95105 13.7481V16.2237C4.95105 16.6801 5.34614 17.0489 5.83517 17.0489H8.48754C8.97657 17.0489 9.37166 16.6801 9.37166 16.2237C9.37166 15.7673 8.97657 15.3985 8.48754 15.3985H6.71929V13.7481ZM13.7923 5.49634C13.3032 5.49634 12.9081 5.86509 12.9081 6.32152C12.9081 6.77795 13.3032 7.1467 13.7923 7.1467H15.5605V8.79706C15.5605 9.25349 15.9556 9.62224 16.4446 9.62224C16.9337 9.62224 17.3288 9.25349 17.3288 8.79706V6.32152C17.3288 5.86509 16.9337 5.49634 16.4446 5.49634H13.7923ZM17.3288 13.7481C17.3288 13.2917 16.9337 12.923 16.4446 12.923C15.9556 12.923 15.5605 13.2917 15.5605 13.7481V15.3985H13.7923C13.3032 15.3985 12.9081 15.7673 12.9081 16.2237C12.9081 16.6801 13.3032 17.0489 13.7923 17.0489H16.4446C16.9337 17.0489 17.3288 16.6801 17.3288 16.2237V13.7481Z" fill="#FF1901"/>
</g>
<defs>
<clipPath id="clip0_1043_7083">
<rect width="12.3777" height="13.2029" fill="white" transform="translate(4.95105 4.67114)"/>
</clipPath>
</defs>
</svg>
