<svg width="74" height="29" viewBox="0 0 74 29" fill="none" xmlns="http://www.w3.org/2000/svg">
<rect x="0.5" y="0.5" width="73" height="28" rx="5.5" fill="white"/>
<rect x="0.5" y="0.5" width="73" height="28" rx="5.5" stroke="#FF1901"/>
<path d="M43.4539 10.6H45.0139V19H43.4539V10.6ZM39.1099 19H37.5499V10.6H39.1099V19ZM43.5739 15.4H38.9779V14.068H43.5739V15.4ZM50.0007 19.084C49.3447 19.084 48.7607 18.944 48.2487 18.664C47.7367 18.376 47.3327 17.984 47.0367 17.488C46.7407 16.992 46.5927 16.428 46.5927 15.796C46.5927 15.156 46.7407 14.592 47.0367 14.104C47.3327 13.608 47.7367 13.22 48.2487 12.94C48.7607 12.66 49.3447 12.52 50.0007 12.52C50.6647 12.52 51.2527 12.66 51.7647 12.94C52.2847 13.22 52.6887 13.604 52.9767 14.092C53.2727 14.58 53.4207 15.148 53.4207 15.796C53.4207 16.428 53.2727 16.992 52.9767 17.488C52.6887 17.984 52.2847 18.376 51.7647 18.664C51.2527 18.944 50.6647 19.084 50.0007 19.084ZM50.0007 17.8C50.3687 17.8 50.6967 17.72 50.9847 17.56C51.2727 17.4 51.4967 17.168 51.6567 16.864C51.8247 16.56 51.9087 16.204 51.9087 15.796C51.9087 15.38 51.8247 15.024 51.6567 14.728C51.4967 14.424 51.2727 14.192 50.9847 14.032C50.6967 13.872 50.3727 13.792 50.0127 13.792C49.6447 13.792 49.3167 13.872 49.0287 14.032C48.7487 14.192 48.5247 14.424 48.3567 14.728C48.1887 15.024 48.1047 15.38 48.1047 15.796C48.1047 16.204 48.1887 16.56 48.3567 16.864C48.5247 17.168 48.7487 17.4 49.0287 17.56C49.3167 17.72 49.6407 17.8 50.0007 17.8ZM54.8551 19V10.096H56.3551V19H54.8551ZM61.0358 19.084C60.4198 19.084 59.8638 18.948 59.3678 18.676C58.8798 18.396 58.4958 18.012 58.2158 17.524C57.9358 17.036 57.7958 16.46 57.7958 15.796C57.7958 15.132 57.9358 14.556 58.2158 14.068C58.4958 13.58 58.8798 13.2 59.3678 12.928C59.8638 12.656 60.4198 12.52 61.0358 12.52C61.5718 12.52 62.0518 12.64 62.4758 12.88C62.8998 13.112 63.2358 13.468 63.4838 13.948C63.7318 14.428 63.8558 15.044 63.8558 15.796C63.8558 16.54 63.7358 17.156 63.4958 17.644C63.2558 18.124 62.9238 18.484 62.4998 18.724C62.0758 18.964 61.5878 19.084 61.0358 19.084ZM61.2158 17.8C61.5758 17.8 61.8958 17.72 62.1758 17.56C62.4638 17.4 62.6918 17.168 62.8598 16.864C63.0358 16.56 63.1238 16.204 63.1238 15.796C63.1238 15.38 63.0358 15.024 62.8598 14.728C62.6918 14.424 62.4638 14.192 62.1758 14.032C61.8958 13.872 61.5758 13.792 61.2158 13.792C60.8558 13.792 60.5318 13.872 60.2438 14.032C59.9638 14.192 59.7358 14.424 59.5598 14.728C59.3918 15.024 59.3078 15.38 59.3078 15.796C59.3078 16.204 59.3918 16.56 59.5598 16.864C59.7358 17.168 59.9638 17.4 60.2438 17.56C60.5318 17.72 60.8558 17.8 61.2158 17.8ZM63.1598 19V17.488L63.2198 15.784L63.0998 14.08V10.096H64.5878V19H63.1598Z" fill="#FF1901"/>
<circle cx="19.75" cy="13.75" r="9.75" fill="#FF1901"/>
<g clip-path="url(#clip0_3210_23999)">
<path d="M19.7499 7.89999C16.5241 7.89999 13.8999 10.5242 13.8999 13.75C13.8999 16.9758 16.5241 19.6 19.7499 19.6C22.9757 19.6 25.5999 16.9758 25.5999 13.75C25.5999 10.5242 22.9757 7.89999 19.7499 7.89999ZM19.2624 15.2125C19.2624 15.4816 19.044 15.7 18.7749 15.7C18.5058 15.7 18.2874 15.4816 18.2874 15.2125V12.2875C18.2874 12.0184 18.5058 11.8 18.7749 11.8C19.044 11.8 19.2624 12.0184 19.2624 12.2875V15.2125ZM21.2124 15.2125C21.2124 15.4816 20.994 15.7 20.7249 15.7C20.4558 15.7 20.2374 15.4816 20.2374 15.2125V12.2875C20.2374 12.0184 20.4558 11.8 20.7249 11.8C20.994 11.8 21.2124 12.0184 21.2124 12.2875V15.2125Z" fill="white"/>
</g>
<defs>
<clipPath id="clip0_3210_23999">
<rect width="11.7" height="11.7" fill="white" transform="translate(13.8999 7.89999)"/>
</clipPath>
</defs>
</svg>
