<svg width="20" height="21" viewBox="0 0 20 21" fill="none" xmlns="http://www.w3.org/2000/svg">
<g clip-path="url(#clip0_1560_21614)">
<path d="M10 0.465088C4.48583 0.465088 0 4.95092 0 10.4651C0 15.9793 4.48583 20.4651 10 20.4651C15.5142 20.4651 20 15.9793 20 10.4651C20 4.95092 15.5142 0.465088 10 0.465088ZM15.1667 9.22509L11.4783 12.8459C10.8258 13.4859 9.98583 13.8051 9.145 13.8051C8.31333 13.8051 7.48167 13.4918 6.83167 12.8643L5.24917 11.3084C4.92083 10.9859 4.91667 10.4584 5.23917 10.1301C5.56083 9.80092 6.09 9.79675 6.4175 10.1201L7.995 11.6709C8.64167 12.2959 9.6625 12.2926 10.3125 11.6559L14 8.03592C14.3275 7.71259 14.8533 7.71842 15.1783 8.04675C15.5008 8.37509 15.4958 8.90259 15.1667 9.22509Z" fill="#FF1901"/>
</g>
<defs>
<clipPath id="clip0_1560_21614">
<rect width="20" height="20" fill="white" transform="translate(0 0.465088)"/>
</clipPath>
</defs>
</svg>
