<svg width="22" height="22" viewBox="0 0 22 22" fill="none" xmlns="http://www.w3.org/2000/svg">
<ellipse cx="11" cy="11.4825" rx="11" ry="10.5175" fill="#FF1901"/>
<g clip-path="url(#clip0_1560_21620)">
<path d="M10.9999 5.17206C7.36055 5.17206 4.3999 8.00283 4.3999 11.4825C4.3999 14.9622 7.36055 17.793 10.9999 17.793C14.6393 17.793 17.5999 14.9622 17.5999 11.4825C17.5999 8.00283 14.6393 5.17206 10.9999 5.17206ZM10.4499 13.0601C10.4499 13.3504 10.2035 13.586 9.8999 13.586C9.5963 13.586 9.3499 13.3504 9.3499 13.0601V9.90491C9.3499 9.61463 9.5963 9.37904 9.8999 9.37904C10.2035 9.37904 10.4499 9.61463 10.4499 9.90491V13.0601ZM12.6499 13.0601C12.6499 13.3504 12.4035 13.586 12.0999 13.586C11.7963 13.586 11.5499 13.3504 11.5499 13.0601V9.90491C11.5499 9.61463 11.7963 9.37904 12.0999 9.37904C12.4035 9.37904 12.6499 9.61463 12.6499 9.90491V13.0601Z" fill="white"/>
</g>
<defs>
<clipPath id="clip0_1560_21620">
<rect width="13.2" height="12.6209" fill="white" transform="translate(4.3999 5.17206)"/>
</clipPath>
</defs>
</svg>
