<svg width="15" height="16" viewBox="0 0 15 16" fill="none" xmlns="http://www.w3.org/2000/svg">
<g clip-path="url(#clip0_762_5581)">
<path d="M7.5 9.87035C6.46447 9.87035 5.625 10.7098 5.625 11.7453V15.4953H9.375V11.7453C9.375 10.7098 8.53553 9.87035 7.5 9.87035Z" fill="white"/>
<path d="M10.625 11.7453V15.4953H13.125C14.1605 15.4953 15 14.6559 15 13.6203V7.91973C15.0001 7.59503 14.874 7.28302 14.6481 7.04973L9.33688 1.30783C8.39974 0.29387 6.81806 0.231614 5.80409 1.16876C5.75593 1.21329 5.70952 1.25967 5.66502 1.30783L0.363135 7.04785C0.130459 7.28211 -8.78463e-05 7.59893 4.43505e-08 7.9291V13.6203C4.43505e-08 14.6559 0.839473 15.4953 1.875 15.4953H4.37499V11.7453C4.38668 10.0411 5.76267 8.64937 7.424 8.60929C9.14092 8.56786 10.6119 9.98328 10.625 11.7453Z" fill="white"/>
<path d="M7.5 9.87035C6.46447 9.87035 5.625 10.7098 5.625 11.7453V15.4953H9.375V11.7453C9.375 10.7098 8.53553 9.87035 7.5 9.87035Z" fill="white"/>
</g>
<defs>
<clipPath id="clip0_762_5581">
<rect width="15" height="15" fill="white" transform="translate(0 0.5)"/>
</clipPath>
</defs>
</svg>
