<svg width="12" height="15" viewBox="0 0 12 15" fill="none" xmlns="http://www.w3.org/2000/svg">
<path d="M5.24169 0.31386C5.66017 -0.10462 6.33978 -0.10462 6.75826 0.31386L11.0435 4.5991C11.3515 4.9071 11.4419 5.36575 11.2745 5.76749C11.1071 6.16923 10.7188 6.43037 10.2835 6.43037L1.71307 6.42702C1.28119 6.42702 0.889497 6.16588 0.722104 5.76414C0.554712 5.3624 0.648452 4.90375 0.953105 4.59575L5.23834 0.310512L5.24169 0.31386ZM5.24169 14.6861L0.956453 10.4009C0.648452 10.0929 0.55806 9.63425 0.725452 9.23251C0.892844 8.83077 1.28119 8.56964 1.71641 8.56964H10.2869C10.7188 8.56964 11.1105 8.83077 11.2778 9.23251C11.4452 9.63425 11.3515 10.0929 11.0468 10.4009L6.76161 14.6861C6.34313 15.1046 5.66352 15.1046 5.24504 14.6861H5.24169Z" fill="#8D91A0"/>
</svg>
