<svg width="14" height="12" viewBox="0 0 14 12" fill="none" xmlns="http://www.w3.org/2000/svg">
<path d="M10.7381 0.550781H3.07144C1.56165 0.550781 0.333344 1.77909 0.333344 3.28888V8.76507C0.333344 10.2749 1.56165 11.5032 3.07144 11.5032H10.7381C12.2479 11.5032 13.4762 10.2749 13.4762 8.76507V3.28888C13.4762 1.77909 12.2479 0.550781 10.7381 0.550781ZM5.80953 8.78588H2.52382C2.22099 8.78588 1.9762 8.54054 1.9762 8.23826C1.9762 7.93597 2.22099 7.69064 2.52382 7.69064H5.80953C6.11237 7.69064 6.35715 7.93597 6.35715 8.23826C6.35715 8.54054 6.11237 8.78588 5.80953 8.78588ZM5.80953 6.5954H2.52382C2.22099 6.5954 1.9762 6.35007 1.9762 6.04778C1.9762 5.74549 2.22099 5.50016 2.52382 5.50016H5.80953C6.11237 5.50016 6.35715 5.74549 6.35715 6.04778C6.35715 6.35007 6.11237 6.5954 5.80953 6.5954ZM5.80953 4.40492H2.52382C2.22099 4.40492 1.9762 4.15959 1.9762 3.8573C1.9762 3.55502 2.22099 3.30969 2.52382 3.30969H5.80953C6.11237 3.30969 6.35715 3.55502 6.35715 3.8573C6.35715 4.15959 6.11237 4.40492 5.80953 4.40492ZM10.1905 8.78588C10.1905 9.08816 9.9457 9.33349 9.64287 9.33349C9.34003 9.33349 9.09525 9.08816 9.09525 8.78588H8.94849C8.36418 8.78588 7.81875 8.47154 7.52577 7.96499C7.37408 7.70323 7.46389 7.36864 7.72511 7.21695C7.98741 7.06526 8.32201 7.15507 8.47315 7.41683C8.57118 7.58549 8.75299 7.69064 8.94794 7.69064H10.1899C10.4922 7.69064 10.7376 7.44476 10.7376 7.14302C10.7376 6.93602 10.5892 6.76078 10.3849 6.72683L8.71958 6.44919C7.98468 6.32707 7.45184 5.6973 7.45184 4.95254C7.45184 4.04678 8.18894 3.30969 9.0947 3.30969C9.0947 3.0074 9.33949 2.76207 9.64232 2.76207C9.94515 2.76207 10.1899 3.0074 10.1899 3.30969H10.3367C10.921 3.30969 11.4664 3.62402 11.7594 4.13057C11.9111 4.39233 11.8213 4.72692 11.5601 4.87861C11.2967 5.02976 10.9621 4.93995 10.812 4.67873C10.714 4.51007 10.5322 4.40492 10.3372 4.40492H9.09525C8.79296 4.40492 8.54763 4.65026 8.54763 4.95254C8.54763 5.15954 8.69603 5.33478 8.9003 5.36873L10.5656 5.64638C11.3005 5.7685 11.8333 6.39826 11.8333 7.14302C11.8333 8.04878 11.0962 8.78588 10.1905 8.78588Z" fill="black"/>
</svg>
