<svg width="14" height="13" viewBox="0 0 14 13" fill="none" xmlns="http://www.w3.org/2000/svg">
<path fill-rule="evenodd" clip-rule="evenodd" d="M2.23793 5.07835V4.08573C3.27603 3.81351 4.09669 3.00676 4.38793 1.97656H9.53699C9.82832 3.00676 10.6489 3.81356 11.687 4.08573V5.07835C11.687 7.33313 10.4498 9.40602 8.4652 10.4771L6.96243 11.2878L5.45965 10.4771C3.47501 9.40607 2.23793 7.33313 2.23793 5.07835ZM5.88881 4.67958C5.75699 4.54776 5.54343 4.54776 5.41162 4.67958C5.2798 4.81141 5.27979 5.02496 5.41162 5.15678L6.24671 5.99253C6.30998 6.0558 6.34558 6.14149 6.34558 6.23114C6.34558 6.32012 6.30998 6.40647 6.24671 6.46974L5.41162 7.30484C5.27979 7.43666 5.27979 7.65021 5.41162 7.78203C5.54344 7.91384 5.757 7.91385 5.88881 7.78203L6.7239 6.94694C6.85573 6.81511 7.06928 6.81511 7.2011 6.94694L8.03619 7.78203C8.16802 7.91385 8.38157 7.91385 8.51339 7.78203C8.6452 7.65021 8.64521 7.43665 8.51339 7.30484L7.67829 6.46974C7.54647 6.33792 7.54647 6.1237 7.67829 5.99255L8.51339 5.15679C8.64521 5.02497 8.64521 4.81141 8.51339 4.6796C8.38156 4.54779 8.16801 4.54778 8.03619 4.6796L7.2011 5.51469C7.13782 5.57797 7.05214 5.61356 6.96249 5.61356C6.87285 5.61356 6.78716 5.57797 6.72389 5.51469L5.88881 4.67958Z" fill="black"/>
<path fill-rule="evenodd" clip-rule="evenodd" d="M3.95504 11.12C4.22792 11.3198 4.5166 11.5023 4.81914 11.6651L6.80243 12.7355C6.90262 12.7889 7.02258 12.7889 7.12275 12.7355L9.10604 11.6651C11.5277 10.3588 13.037 7.82983 13.037 5.07864V3.36094C13.037 3.07026 12.8017 2.83496 12.511 2.83496H12.459C12.1156 2.83496 11.7966 2.73214 11.5303 2.55616C11.4406 2.49684 11.3569 2.42961 11.2798 2.35448C10.9667 2.04799 10.7723 1.62088 10.7723 1.1483C10.7723 0.860277 10.539 0.626953 10.2509 0.626953H3.67424C3.38621 0.626953 3.15289 0.860277 3.15289 1.1483C3.15289 2.07963 2.39754 2.83498 1.46621 2.83498H1.41414C1.12347 2.83498 0.888168 3.07028 0.888168 3.36095V5.07866C0.888168 7.4858 2.04358 9.72327 3.95504 11.12ZM10.1027 1.3018H3.82259C3.82061 1.33146 3.81863 1.36046 3.81534 1.38946C3.69801 2.54885 2.74164 3.46033 1.56309 3.50791V5.07858C1.56309 7.58123 2.93667 9.88292 5.13939 11.0713L6.96255 12.0547L8.78571 11.0713C10.9885 9.88292 12.362 7.58123 12.362 5.07858V3.50791C12.3132 3.50593 12.2651 3.50264 12.2177 3.49736C11.0767 3.38202 10.1764 2.45398 10.1027 1.3018Z" fill="black"/>
</svg>
