<svg width="16" height="17" viewBox="0 0 16 17" fill="none" xmlns="http://www.w3.org/2000/svg">
<g clip-path="url(#clip0_309_875)">
<path d="M13.0005 1.34201C13.0841 1.41419 13.1621 1.49101 13.24 1.56934C13.2733 1.6024 13.2733 1.6024 13.3074 1.63612C13.3801 1.70834 13.4526 1.78089 13.525 1.85347C13.5758 1.9042 13.6267 1.95493 13.6776 2.00565C13.784 2.11173 13.8902 2.21798 13.9962 2.32434C14.1317 2.46017 14.2676 2.59551 14.4037 2.73072C14.5089 2.83529 14.6137 2.94013 14.7184 3.04506C14.7684 3.09505 14.8185 3.14496 14.8687 3.19477C14.939 3.26462 15.0089 3.33484 15.0787 3.40517C15.0992 3.42538 15.1197 3.44558 15.1408 3.4664C15.3926 3.722 15.5428 3.98826 15.5555 4.34803C15.5453 4.73582 15.3608 5.01135 15.0865 5.27624C15.0713 5.29062 15.0561 5.305 15.0405 5.31982C15.0253 5.33427 15.0101 5.34872 14.9944 5.36361C14.9315 5.42289 14.8685 5.48188 14.8045 5.53993C14.6162 5.69372 14.6162 5.69372 14.5207 5.9013C14.5371 5.96302 14.5608 6.01603 14.5878 6.07378C14.6084 6.31379 14.5901 6.53457 14.5391 6.7682C14.4682 7.10242 14.5303 7.37175 14.7076 7.66102C14.7606 7.73853 14.815 7.81484 14.8699 7.89101C15.0459 8.1497 15.0737 8.45332 15.0242 8.75763C14.964 8.98894 14.831 9.17692 14.6938 9.36957C14.5129 9.63428 14.4703 9.92445 14.5279 10.2365C14.5384 10.2736 14.5489 10.3107 14.5597 10.3488C14.6551 10.7034 14.5891 11.0439 14.41 11.3558C14.263 11.5429 14.0925 11.6806 13.8877 11.7995C13.6274 11.9641 13.4727 12.1869 13.3899 12.4826C13.3754 12.5618 13.3617 12.6409 13.3487 12.7203C13.2897 13.0723 13.1329 13.3366 12.8452 13.5493C12.6404 13.6779 12.4324 13.7148 12.1984 13.7565C12.0133 13.7906 11.8645 13.8346 11.7128 13.9501C11.695 13.9619 11.6773 13.9737 11.659 13.9859C11.503 14.1011 11.4157 14.2607 11.3203 14.4256C11.1573 14.6942 10.9336 14.8488 10.6368 14.9476C10.3768 15.0061 10.1242 14.9787 9.86723 14.9196C9.53227 14.8461 9.24681 14.9083 8.95756 15.0881C8.88008 15.1412 8.80369 15.1956 8.72745 15.2505C8.46222 15.4312 8.14493 15.4532 7.83451 15.3988C7.64483 15.3514 7.48895 15.2391 7.32984 15.1294C7.08604 14.9614 6.86317 14.8703 6.56173 14.8785C6.45784 14.8978 6.35588 14.9224 6.25312 14.947C6.03128 14.9897 5.79269 15.0038 5.57774 14.9284C5.51527 14.9105 5.51527 14.9105 5.45365 14.9084C5.37766 14.9575 5.33601 14.9931 5.27806 15.059C5.25481 15.0833 5.25482 15.0833 5.2311 15.1081C5.18161 15.16 5.13324 15.2129 5.08492 15.2659C5.02123 15.3346 4.95709 15.4029 4.89248 15.4708C4.87683 15.4872 4.86119 15.5037 4.84507 15.5206C4.59449 15.7774 4.33281 15.923 3.97498 15.936C3.55971 15.9263 3.27886 15.7121 2.99533 15.428C2.9728 15.4058 2.95026 15.3835 2.92704 15.3606C2.8533 15.2877 2.77989 15.2145 2.70652 15.1412C2.65497 15.09 2.60341 15.0387 2.55185 14.9875C2.44408 14.8802 2.3365 14.7728 2.22903 14.6653C2.09183 14.5281 1.95404 14.3915 1.81607 14.2551C1.70947 14.1495 1.60328 14.0435 1.49721 13.9374C1.4466 13.8869 1.39584 13.8365 1.34494 13.7863C0.691853 13.1413 0.691854 13.1413 0.684448 12.6736C0.688584 12.3332 0.806012 12.0662 1.04723 11.8256C1.07965 11.7943 1.11221 11.763 1.1449 11.732C1.16149 11.7161 1.17809 11.7003 1.19519 11.684C1.26457 11.6182 1.33414 11.5526 1.40468 11.4881C1.45665 11.4403 1.50763 11.3916 1.55855 11.3426C1.57468 11.3283 1.5908 11.314 1.60741 11.2993C1.65856 11.2524 1.65856 11.2524 1.71016 11.1649C1.70604 11.0984 1.69164 11.0445 1.66958 10.9817C1.58999 10.7493 1.64776 10.4655 1.69893 10.2309C1.76987 9.89671 1.70774 9.62738 1.53048 9.33811C1.47745 9.2606 1.42302 9.18429 1.3681 9.10812C1.19216 8.84943 1.16429 8.54581 1.2138 8.2415C1.26806 8.03311 1.38029 7.86724 1.50053 7.69097C1.67512 7.42703 1.78155 7.16645 1.72186 6.84354C1.71368 6.80941 1.70549 6.77529 1.69706 6.74012C1.60288 6.34203 1.62362 5.99944 1.82808 5.64328C1.97504 5.45625 2.14553 5.3185 2.3503 5.19968C2.61059 5.03503 2.76539 4.8122 2.84819 4.51649C2.86266 4.4373 2.87636 4.35821 2.88936 4.27878C2.9483 3.92678 3.10515 3.66253 3.39286 3.44983C3.5976 3.32123 3.80569 3.2843 4.03965 3.24262C4.22471 3.2085 4.37354 3.16455 4.52527 3.04904C4.54303 3.03723 4.56079 3.02542 4.57908 3.01325C4.735 2.89803 4.82236 2.73845 4.91775 2.5735C5.08077 2.30494 5.30442 2.15034 5.60129 2.05152C5.86123 1.99298 6.11384 2.0204 6.37081 2.07948C6.70577 2.15298 6.99123 2.09086 7.28048 1.91102C7.35794 1.85794 7.4343 1.80357 7.51047 1.74865C7.76844 1.57319 8.07691 1.54118 8.38024 1.59645C8.58074 1.6513 8.73549 1.74956 8.9041 1.86762C9.14923 2.03649 9.37333 2.12884 9.67631 2.12066C9.7802 2.10129 9.88216 2.07672 9.98491 2.05211C10.2066 2.00946 10.4453 1.9949 10.6598 2.07121C10.7224 2.08925 10.7224 2.08925 10.7844 2.09071C10.8626 2.03924 10.9073 2.00066 10.9676 1.93255C10.9838 1.91561 11 1.89867 11.0168 1.88121C11.0686 1.82692 11.1193 1.77174 11.17 1.71636C11.2368 1.64449 11.3041 1.57307 11.3719 1.50205C11.3882 1.48498 11.4044 1.4679 11.4212 1.45032C11.8797 0.980708 12.4799 0.953262 13.0005 1.34201Z" fill="black"/>
<path d="M8.90412 1.86777C9.14925 2.03664 9.37336 2.12899 9.67633 2.12081C9.7802 2.10144 9.88217 2.07688 9.98494 2.05238C10.2593 1.9993 10.531 1.99668 10.7844 2.12081C10.6181 2.3234 10.4331 2.50621 10.2477 2.69105C10.2111 2.72767 10.1745 2.76429 10.1379 2.80092C10.0377 2.90124 9.93732 3.00147 9.83696 3.10168C9.72863 3.20988 9.62038 3.31817 9.51213 3.42645C9.32466 3.61393 9.13714 3.80136 8.94958 3.98875C8.67841 4.25968 8.40731 4.5307 8.13624 4.80174C7.69642 5.24149 7.25653 5.68118 6.8166 6.12082C6.38929 6.54786 5.96201 6.97493 5.53478 7.40203C5.50844 7.42837 5.48209 7.4547 5.45495 7.48183C5.3228 7.61395 5.19065 7.74606 5.0585 7.87817C3.96246 8.9739 2.86631 10.0695 1.77008 11.1651C1.71019 11.1351 1.71019 11.1351 1.67708 11.0414C1.61398 10.7684 1.63994 10.5013 1.69896 10.2311C1.7699 9.89687 1.70776 9.62753 1.5305 9.33826C1.47747 9.26076 1.42305 9.18444 1.36813 9.10827C1.19218 8.84958 1.16432 8.54596 1.21383 8.24165C1.26809 8.03326 1.38031 7.86739 1.50055 7.69112C1.67515 7.42718 1.78157 7.16661 1.72189 6.84369C1.70961 6.7925 1.70961 6.7925 1.69709 6.74028C1.6029 6.34218 1.62365 5.99959 1.82811 5.64344C1.97506 5.4564 2.14555 5.31865 2.35033 5.19983C2.61061 5.03518 2.76541 4.81235 2.84821 4.51664C2.86268 4.43745 2.87638 4.35836 2.88939 4.27893C2.94833 3.92693 3.10518 3.66268 3.39289 3.44998C3.59762 3.32138 3.80571 3.28445 4.03968 3.24277C4.22473 3.20866 4.37357 3.1647 4.52529 3.0492C4.54305 3.03738 4.56081 3.02557 4.57911 3.0134C4.73503 2.89818 4.82238 2.73861 4.91777 2.57366C5.0808 2.30509 5.30444 2.15049 5.60131 2.05167C5.86126 1.99314 6.11386 2.02056 6.37083 2.07963C6.70579 2.15314 6.99125 2.09102 7.2805 1.91118C7.35796 1.8581 7.43432 1.80372 7.51049 1.7488C7.9679 1.4377 8.48505 1.57435 8.90412 1.86777Z" fill="black"/>
<path d="M14.468 5.83447C14.5279 5.86442 14.5279 5.86442 14.561 5.95812C14.6241 6.2312 14.5981 6.49822 14.5391 6.76847C14.4682 7.10268 14.5303 7.37203 14.7076 7.6613C14.7606 7.7388 14.815 7.81512 14.87 7.89129C15.0459 8.14997 15.0738 8.45359 15.0243 8.7579C14.964 8.98922 14.831 9.17719 14.6938 9.36985C14.5129 9.63456 14.4704 9.92472 14.5279 10.2368C14.5384 10.2739 14.5489 10.3109 14.5597 10.3491C14.6551 10.7037 14.5891 11.0441 14.41 11.3561C14.263 11.5432 14.0925 11.6809 13.8878 11.7997C13.6275 11.9644 13.4727 12.1872 13.3899 12.4829C13.3754 12.5621 13.3617 12.6412 13.3487 12.7206C13.2898 13.0726 13.1329 13.3369 12.8452 13.5496C12.6405 13.6782 12.4324 13.7151 12.1984 13.7568C12.0133 13.7909 11.8645 13.8349 11.7128 13.9504C11.695 13.9622 11.6773 13.974 11.659 13.9862C11.5031 14.1014 11.4157 14.2609 11.3203 14.4259C11.1573 14.6945 10.9336 14.8491 10.6368 14.9479C10.3768 15.0064 10.1242 14.979 9.86725 14.9199C9.53229 14.8464 9.24683 14.9085 8.95758 15.0884C8.8801 15.1415 8.8037 15.1959 8.72747 15.2508C8.46224 15.4314 8.14495 15.4535 7.83453 15.3991C7.64485 15.3517 7.48897 15.2394 7.32986 15.1297C7.08606 14.9617 6.86319 14.8706 6.56175 14.8787C6.45788 14.8981 6.35591 14.9227 6.25314 14.9472C5.97877 15.0003 5.70711 15.0029 5.45367 14.8787C5.61995 14.6762 5.80503 14.4933 5.99037 14.3085C6.02697 14.2719 6.06357 14.2353 6.10016 14.1986C6.20041 14.0983 6.30076 13.9981 6.40112 13.8979C6.50945 13.7897 6.6177 13.6814 6.72595 13.5731C6.91342 13.3856 7.10094 13.1982 7.2885 13.0108C7.55968 12.7399 7.83077 12.4689 8.10185 12.1978C8.54167 11.7581 8.98155 11.3184 9.42148 10.8787C9.84879 10.4517 10.2761 10.0246 10.7033 9.59752C10.7296 9.57119 10.756 9.54485 10.7831 9.51772C10.9153 9.38561 11.0474 9.2535 11.1796 9.12138C12.2756 8.02565 13.3718 6.93003 14.468 5.83447Z" fill="black"/>
<path d="M9.37685 3.52827C9.24109 3.69098 9.09724 3.84206 8.94723 3.99164C8.92251 4.0164 8.8978 4.04116 8.87234 4.06667C8.80422 4.13488 8.73604 4.20303 8.66783 4.27115C8.59411 4.34481 8.52046 4.41855 8.44681 4.49229C8.30276 4.63647 8.15863 4.78058 8.01447 4.92465C7.89737 5.04168 7.7803 5.15874 7.66326 5.27581C7.63825 5.30083 7.63825 5.30083 7.61273 5.32635C7.57886 5.36023 7.54499 5.39411 7.51112 5.428C7.19389 5.74531 6.87656 6.06254 6.55921 6.37973C6.28668 6.65213 6.01423 6.9246 5.74184 7.19713C5.42548 7.51365 5.10907 7.83012 4.79259 8.14651C4.75889 8.1802 4.72519 8.21389 4.69149 8.24758C4.67491 8.26416 4.65833 8.28074 4.64124 8.29781C4.52417 8.41487 4.40712 8.53195 4.29009 8.64905C4.1477 8.79153 4.00525 8.93396 3.86272 9.07632C3.78996 9.14901 3.71722 9.22172 3.64454 9.29449C3.56595 9.37317 3.48726 9.45176 3.40854 9.53032C3.37373 9.56524 3.37373 9.56524 3.33821 9.60086C3.31729 9.6217 3.29637 9.64254 3.27482 9.66401C3.25664 9.68219 3.23847 9.70036 3.21974 9.71908C3.17763 9.75744 3.17763 9.75744 3.14768 9.75744C3.1205 9.62807 3.09438 9.49856 3.06949 9.36874C3.05945 9.31658 3.04903 9.26448 3.03853 9.21241C2.93277 8.60596 2.98929 7.98911 3.11773 7.39155C3.12302 7.36636 3.12831 7.34117 3.13376 7.31522C3.41687 6.00767 4.27066 4.90485 5.37132 4.17418C5.56167 4.05158 5.76081 3.94958 5.96593 3.85416C6.01849 3.8297 6.07073 3.80454 6.12294 3.77932C7.13891 3.3119 8.30018 3.27376 9.37685 3.52827Z" fill="#969696"/>
<path d="M13.0604 7.2417C13.4639 8.02609 13.254 9.27008 13.001 10.0617C12.5544 11.387 11.6312 12.4758 10.3772 13.1071C9.281 13.6293 8.03851 13.7687 6.86121 13.4709C6.99699 13.3081 7.1409 13.157 7.29103 13.0075C7.31576 12.9827 7.3405 12.958 7.36598 12.9325C7.43415 12.8643 7.50239 12.7961 7.57066 12.728C7.64445 12.6543 7.71815 12.5806 7.79186 12.5068C7.91942 12.3793 8.04703 12.2518 8.17468 12.1243C8.35924 11.94 8.54372 11.7556 8.72818 11.5711C9.02748 11.2719 9.32686 10.9727 9.62627 10.6736C9.91704 10.3831 10.2078 10.0926 10.4985 9.802C10.5164 9.78408 10.5343 9.76615 10.5528 9.74769C10.6428 9.65776 10.7328 9.56783 10.8227 9.47789C11.5685 8.7324 12.3144 7.98701 13.0604 7.2417Z" fill="#969696"/>
<path d="M9.51621 6.03907C9.69331 6.15315 9.83636 6.3004 9.98242 6.45113C10.036 6.50633 10.0902 6.56077 10.1446 6.61514C10.1795 6.65044 10.2143 6.68579 10.2491 6.72118C10.273 6.74524 10.273 6.74524 10.2974 6.76979C10.5196 7.00054 10.5881 7.21329 10.5849 7.5313C10.5622 7.75384 10.4419 7.90284 10.2735 8.04158C10.0564 8.18575 9.87196 8.19529 9.61642 8.17003C9.4183 8.12033 9.27205 7.96914 9.12905 7.8306C9.09004 7.79295 9.05073 7.7556 9.01128 7.71841C8.93543 7.64676 8.86035 7.57437 8.78537 7.50182C8.76092 7.47877 8.73647 7.45572 8.71128 7.43197C8.50087 7.22526 8.32869 6.9864 8.30807 6.68386C8.32332 6.44871 8.42306 6.26455 8.59445 6.10549C8.89592 5.86746 9.18369 5.86582 9.51621 6.03907Z" fill="#FBFEFC"/>
<path d="M3.74662 11.8237C3.99086 12.0079 4.19577 12.2438 4.40252 12.4679C4.50179 12.5753 4.60206 12.6798 4.70893 12.7797C4.73818 12.8074 4.73818 12.8074 4.76803 12.8356C4.80476 12.87 4.84197 12.904 4.87972 12.9373C4.94901 13.0027 4.99788 13.0489 5.01701 13.1442C5.01926 13.2436 5.01096 13.3103 4.95951 13.396C4.8753 13.4465 4.80783 13.4633 4.70928 13.4584C4.58046 13.4234 4.49765 13.3231 4.40548 13.2313C4.36585 13.1966 4.32594 13.1623 4.28569 13.1284C4.25604 13.103 4.22639 13.0777 4.19584 13.0516C4.09701 13.1504 3.99819 13.2493 3.89636 13.3511C3.94968 13.4577 3.99253 13.5087 4.07875 13.5864C4.30897 13.7953 4.30897 13.7953 4.31751 13.9313C4.27632 14.0718 4.23323 14.1179 4.106 14.1896C3.98701 14.1956 3.92827 14.1835 3.83235 14.1119C3.75838 14.0445 3.68803 13.9747 3.61806 13.9031C3.59205 13.8772 3.56604 13.8512 3.53924 13.8244C3.48439 13.7694 3.42975 13.7142 3.37532 13.6588C3.29229 13.5743 3.2085 13.4907 3.12456 13.4072C3.07127 13.3536 3.01802 13.2999 2.96482 13.2462C2.93989 13.2213 2.91496 13.1964 2.88928 13.1708C2.69426 12.971 2.54828 12.7696 2.53748 12.4807C2.54033 12.2646 2.61056 12.1029 2.75331 11.9413C3.04832 11.6638 3.39112 11.6333 3.74662 11.8237Z" fill="#FCFEFC"/>
<path d="M8.0292 7.45168C8.22215 7.57684 8.34552 7.7425 8.41852 7.9608C8.42227 8.04479 8.42227 8.04479 8.41852 8.11054C8.45373 8.11301 8.48894 8.11548 8.52521 8.11802C8.77506 8.13556 8.95273 8.32809 9.12043 8.49424C9.14234 8.5148 9.16424 8.53536 9.18682 8.55654C9.34259 8.71028 9.34259 8.71028 9.36387 8.85409C9.34277 8.97224 9.32014 9.02208 9.22712 9.09882C9.10081 9.12408 9.03473 9.12947 8.92612 9.05893C8.8634 9.00498 8.80551 8.94858 8.74795 8.88918C8.7283 8.86953 8.70865 8.84988 8.68841 8.82964C8.65249 8.79372 8.61685 8.75752 8.5816 8.72096C8.51496 8.6572 8.47613 8.64929 8.38296 8.6365C8.23084 8.65395 8.16346 8.72276 8.05915 8.82929C8.10165 8.92635 8.15298 8.98976 8.22866 9.06349C8.24995 9.08445 8.27124 9.10541 8.29317 9.12701C8.31539 9.14859 8.33761 9.17017 8.3605 9.19241C8.40459 9.23547 8.44862 9.27859 8.49257 9.32179C8.51211 9.34079 8.53165 9.35979 8.55178 9.37936C8.61454 9.44544 8.62723 9.48114 8.63939 9.57237C8.62816 9.66783 8.62816 9.66783 8.56826 9.75393C8.47178 9.82227 8.41622 9.83185 8.29937 9.8283C8.19599 9.80997 8.14407 9.75168 8.07191 9.67831C8.05702 9.66351 8.04214 9.64871 8.0268 9.63346C7.97807 9.58471 7.93024 9.53517 7.88239 9.48557C7.84861 9.45142 7.81478 9.41732 7.7809 9.38327C7.69209 9.29372 7.60404 9.20346 7.51611 9.11304C7.44408 9.0392 7.37154 8.96587 7.29896 8.89257C7.14921 8.7413 6.9998 8.58971 6.8513 8.43723C6.82495 8.41023 6.79861 8.38323 6.77146 8.35541C6.6999 8.27762 6.68402 8.24312 6.66388 8.13896C6.6911 7.9567 6.80453 7.86952 6.93423 7.74555C6.96941 7.7099 6.96941 7.7099 7.0053 7.67354C7.3046 7.38015 7.6353 7.25578 8.0292 7.45168Z" fill="#FCFEFD"/>
<path d="M6.65159 8.919C6.81964 9.0389 6.92746 9.19916 6.98101 9.39816C7.01217 9.62045 6.98129 9.80675 6.86122 9.99712C6.80969 10.0627 6.75625 10.1243 6.69908 10.185C6.6459 10.2402 6.6459 10.2402 6.59169 10.3265C6.60877 10.3427 6.62585 10.3588 6.64345 10.3755C6.72088 10.4491 6.7976 10.5235 6.87432 10.598C6.90121 10.6233 6.9281 10.6487 6.9558 10.6749C7.17513 10.8892 7.17513 10.8892 7.19697 11.0136C7.18894 11.13 7.15357 11.1746 7.07086 11.2549C6.98563 11.2975 6.92578 11.294 6.83127 11.2849C6.75888 11.2364 6.75888 11.2364 6.68926 11.1688C6.66342 11.1441 6.63759 11.1194 6.61096 11.0939C6.57178 11.055 6.57178 11.055 6.53179 11.0153C6.50715 10.9914 6.4825 10.9675 6.45711 10.9428C6.3803 10.8678 6.3043 10.792 6.22845 10.716C6.20103 10.6886 6.17361 10.6612 6.14535 10.633C6.088 10.5757 6.03071 10.5183 5.97345 10.4609C5.90004 10.3873 5.8265 10.3139 5.75292 10.2405C5.68238 10.1701 5.61196 10.0996 5.54152 10.0291C5.51511 10.0027 5.48869 9.97634 5.46147 9.94918C5.43725 9.92488 5.41304 9.90057 5.38809 9.87552C5.36672 9.85412 5.34534 9.83272 5.32332 9.81068C5.24277 9.72392 5.22557 9.64557 5.22732 9.52667C5.26339 9.37861 5.38954 9.2824 5.49672 9.18104C5.52017 9.15741 5.54362 9.13379 5.56779 9.10945C5.89921 8.78648 6.2298 8.70332 6.65159 8.919Z" fill="#FCFEFC"/>
<path d="M5.17735 10.3675C5.334 10.4818 5.45551 10.6186 5.51356 10.8054C5.53885 11.0407 5.54531 11.2628 5.41108 11.4661C5.33234 11.5629 5.2471 11.6506 5.15419 11.7338C5.2842 11.8927 5.42522 12.037 5.57191 12.1804C5.67915 12.2859 5.7197 12.3267 5.73443 12.4788C5.7328 12.5781 5.72789 12.5966 5.66143 12.6772C5.55103 12.7336 5.48686 12.735 5.36382 12.7221C5.27969 12.6644 5.27969 12.6644 5.19754 12.5825C5.18237 12.5676 5.1672 12.5528 5.15157 12.5375C5.10176 12.4884 5.05275 12.4387 5.00374 12.3888C4.96923 12.3544 4.93469 12.32 4.90011 12.2856C4.82784 12.2135 4.75594 12.141 4.6843 12.0683C4.59262 11.9752 4.50009 11.8831 4.40726 11.7912C4.33581 11.7203 4.26481 11.6489 4.19393 11.5774C4.15998 11.5433 4.1259 11.5093 4.09169 11.4754C4.04386 11.4279 3.99665 11.3798 3.94956 11.3316C3.92259 11.3044 3.89562 11.2772 3.86784 11.2492C3.79469 11.1485 3.78169 11.0785 3.77658 10.9552C3.80793 10.8939 3.80793 10.8939 3.85894 10.8429C3.87828 10.8231 3.89762 10.8033 3.91755 10.783C3.95154 10.7496 3.95154 10.7496 3.98622 10.7156C4.0253 10.6739 4.0253 10.6739 4.06518 10.6314C4.38016 10.2975 4.73168 10.112 5.17735 10.3675Z" fill="#FCFEFD"/>
<path d="M12.132 2.83965C12.2069 2.90329 12.2069 2.90329 12.2518 2.98939C12.2597 3.12907 12.2237 3.20779 12.1358 3.31133C12.0952 3.35434 12.0539 3.39669 12.0122 3.43861C11.9983 3.45272 11.9844 3.46683 11.9701 3.48136C11.8751 3.57773 11.7793 3.67315 11.6828 3.76803C11.7248 3.86431 11.7748 3.92494 11.8513 3.99639C11.9086 4.04997 11.9086 4.04997 11.9524 4.09746C11.9524 4.11723 11.9524 4.13699 11.9524 4.15736C11.9917 4.12305 12.031 4.08874 12.0703 4.05441C12.1031 4.02575 12.1031 4.02575 12.1366 3.9965C12.1656 3.97092 12.1945 3.94513 12.2219 3.91777C12.3119 3.90727 12.3744 3.90078 12.4615 3.91777C12.5532 3.99451 12.5532 3.99451 12.6112 4.09746C12.6171 4.20792 12.6087 4.27276 12.5387 4.36032C12.495 4.40455 12.4484 4.44591 12.4016 4.48678C12.4458 4.59016 12.5045 4.65598 12.585 4.73385C12.6067 4.75501 12.6284 4.77616 12.6507 4.79796C12.6673 4.81387 12.6839 4.82977 12.701 4.84616C12.86 4.71614 13.0043 4.57512 13.1476 4.42844C13.2922 4.28142 13.2922 4.28142 13.4292 4.26592C13.5396 4.27715 13.5396 4.27715 13.6276 4.34079C13.6893 4.42689 13.6893 4.42689 13.7118 4.51112C13.6577 4.74103 13.3991 4.93298 13.2364 5.09697C13.2157 5.11824 13.1951 5.13951 13.1738 5.16143C13.1435 5.19195 13.1435 5.19195 13.1126 5.22308C13.0946 5.24132 13.0767 5.25955 13.0582 5.27834C12.9509 5.36573 12.8412 5.39427 12.7048 5.39645C12.6808 5.3973 12.6568 5.39815 12.632 5.39903C12.3997 5.3593 12.2418 5.17872 12.083 5.01871C12.059 4.99478 12.035 4.97085 12.0103 4.9462C11.9597 4.89574 11.9093 4.84517 11.859 4.79449C11.7823 4.71726 11.7051 4.64052 11.6278 4.56382C11.5786 4.51458 11.5294 4.46531 11.4803 4.41601C11.4574 4.39323 11.4344 4.37045 11.4107 4.34698C11.2716 4.20603 11.1379 4.0686 11.0979 3.86806C11.0982 3.84431 11.0985 3.82057 11.0988 3.79611C11.0985 3.77229 11.0982 3.74847 11.0979 3.72393C11.1333 3.55561 11.2623 3.43237 11.3808 3.31449C11.4085 3.28683 11.4362 3.25917 11.4648 3.23067C11.479 3.21657 11.4933 3.20247 11.508 3.18795C11.5521 3.14449 11.5958 3.1008 11.6395 3.05706C11.9118 2.78649 11.9118 2.78649 12.132 2.83965Z" fill="#FBFEFB"/>
<path d="M10.6347 4.27714C10.7557 4.35815 10.821 4.44345 10.8925 4.56914C10.9022 4.58599 10.9119 4.60284 10.9219 4.6202C10.9428 4.6565 10.9636 4.69289 10.9843 4.72934C11.0395 4.82688 11.0958 4.92386 11.1519 5.02093C11.1634 5.04096 11.1749 5.061 11.1868 5.08164C11.3133 5.30086 11.4444 5.51723 11.5762 5.73336C11.5982 5.76955 11.6202 5.80573 11.6422 5.84192C11.75 6.01938 11.75 6.01938 11.8625 6.19381C11.8786 6.28564 11.8786 6.3715 11.8625 6.46334C11.7878 6.55343 11.745 6.57987 11.6287 6.59167C11.5148 6.5815 11.4529 6.54843 11.3551 6.48966C11.3383 6.47974 11.3215 6.46982 11.3043 6.45959C11.2493 6.4269 11.1947 6.39366 11.14 6.3604C11.1017 6.3374 11.0633 6.31444 11.0249 6.29151C10.945 6.24368 10.8652 6.1956 10.7856 6.14731C10.6864 6.08712 10.5869 6.02738 10.4873 5.96782C10.4116 5.92252 10.3359 5.87706 10.2603 5.83155C10.2246 5.81002 10.1888 5.78851 10.153 5.76703C9.60646 5.43847 9.60646 5.43847 9.54718 5.2804C9.55979 5.13922 9.59914 5.0874 9.70628 4.99589C9.87622 4.97537 9.98432 5.01915 10.1253 5.10726C10.1442 5.11856 10.1631 5.12986 10.1826 5.14151C10.2425 5.17739 10.3019 5.2139 10.3614 5.25045C10.4216 5.28686 10.4818 5.32315 10.5421 5.3594C10.5795 5.38193 10.6168 5.40459 10.654 5.42739C10.729 5.48165 10.729 5.48165 10.8144 5.50501C10.7989 5.47995 10.7835 5.4549 10.7676 5.42909C10.7102 5.33541 10.6534 5.24133 10.5968 5.14711C10.5723 5.10651 10.5476 5.06602 10.5228 5.02565C10.4869 4.96736 10.4517 4.90868 10.4166 4.8499C10.4055 4.83214 10.3943 4.81438 10.3829 4.79608C10.2996 4.65427 10.291 4.55652 10.3052 4.39693C10.3904 4.26063 10.4814 4.25564 10.6347 4.27714Z" fill="#FCFEFC"/>
<path d="M9.16807 6.44284C9.3906 6.52036 9.58494 6.78675 9.74744 6.95005C9.78363 6.98607 9.78363 6.98607 9.82055 7.02281C9.8436 7.0459 9.86665 7.06899 9.89039 7.09277C9.91114 7.11355 9.93188 7.13433 9.95326 7.15574C10.0305 7.23872 10.064 7.28923 10.0787 7.40301C10.0656 7.51157 10.0656 7.51157 10.0039 7.59955C9.89142 7.6785 9.84177 7.6793 9.70626 7.66131C9.62802 7.61297 9.56725 7.55102 9.50341 7.48525C9.48516 7.46714 9.46692 7.44902 9.44812 7.43036C9.40977 7.39201 9.37167 7.35341 9.33382 7.31457C9.27599 7.25538 9.21718 7.1973 9.15819 7.13927C9.12096 7.1018 9.0838 7.06427 9.0467 7.02667C9.02041 7.00078 9.02041 7.00078 8.99358 6.97437C8.88375 6.86002 8.83844 6.77836 8.83777 6.61314C8.92871 6.46888 8.99516 6.41437 9.16807 6.44284Z" fill="black"/>
<path d="M3.44715 12.2431C3.5256 12.3003 3.5894 12.3682 3.65492 12.4396C3.67254 12.458 3.69016 12.4765 3.70832 12.4955C3.75146 12.5407 3.79403 12.5865 3.83648 12.6324C3.79046 12.7426 3.72323 12.8117 3.63807 12.8944C3.6136 12.9184 3.58912 12.9423 3.5639 12.967C3.54514 12.985 3.52638 13.0031 3.50705 13.0217C3.12142 12.7069 3.12142 12.7069 3.05222 12.492C3.05912 12.3701 3.09111 12.3271 3.17762 12.2431C3.27632 12.1937 3.34177 12.2161 3.44715 12.2431Z" fill="black"/>
<path d="M6.19675 9.32324C6.27117 9.325 6.3102 9.32968 6.37117 9.37319C6.43177 9.44074 6.46909 9.49992 6.48312 9.58997C6.46802 9.6944 6.42434 9.73614 6.3521 9.81177C6.32987 9.83543 6.30763 9.8591 6.28472 9.88348C6.26742 9.9012 6.25013 9.91892 6.23231 9.93717C6.12208 9.89116 6.05299 9.82393 5.97027 9.73877C5.94633 9.71429 5.9224 9.68982 5.89774 9.6646C5.87967 9.64584 5.8616 9.62708 5.84299 9.60775C5.87166 9.57403 5.90036 9.54034 5.92909 9.50667C5.94507 9.48791 5.96105 9.46915 5.97752 9.44982C6.074 9.33934 6.074 9.33934 6.19675 9.32324Z" fill="black"/>
<path d="M7.69039 7.86523C7.81044 7.90827 7.85129 7.93677 7.90938 8.05054C7.91575 8.18209 7.91232 8.24862 7.8303 8.35212C7.77861 8.40402 7.726 8.4528 7.6698 8.49976C7.54449 8.39467 7.42435 8.28771 7.31042 8.17033C7.3863 8.00045 7.49897 7.87497 7.69039 7.86523Z" fill="black"/>
<path d="M4.74427 10.7646C4.87433 10.7779 4.92126 10.7948 5.00445 10.8957C5.02488 10.9978 5.03272 11.0394 5.00445 11.1353C4.94314 11.2245 4.87283 11.3 4.79481 11.3748C4.68458 11.3288 4.61549 11.2616 4.53277 11.1764C4.50883 11.152 4.4849 11.1275 4.46024 11.1023C4.44217 11.0835 4.4241 11.0647 4.40549 11.0454C4.43416 11.0117 4.46286 10.978 4.49159 10.9443C4.50757 10.9256 4.52355 10.9068 4.54002 10.8875C4.63665 10.7768 4.63665 10.7768 4.74427 10.7646Z" fill="black"/>
</g>
<defs>
<clipPath id="clip0_309_875">
<rect width="15.3333" height="15.3333" fill="white" transform="translate(0.452362 0.833008)"/>
</clipPath>
</defs>
</svg>
