<svg width="16" height="17" viewBox="0 0 16 17" fill="none" xmlns="http://www.w3.org/2000/svg">
<g clip-path="url(#clip0_309_833)">
<path d="M8.58474 1.73312C8.77733 1.86272 8.94255 2.01969 9.10882 2.18047C9.14397 2.2133 9.14397 2.2133 9.17983 2.2468C9.31592 2.37707 9.43237 2.51619 9.54681 2.66525C9.71797 2.88795 9.88633 3.07614 10.1664 3.15939C10.3932 3.18577 10.6179 3.16139 10.8439 3.1388C11.4984 3.07853 12.2837 3.0219 12.8224 3.46823C13.0731 3.69411 13.1909 4.00825 13.2416 4.33672C13.245 4.35791 13.2483 4.37911 13.2517 4.40094C13.3028 4.8066 13.2735 5.21779 13.233 5.62281C13.1977 5.98064 13.1841 6.28297 13.4195 6.57778C13.544 6.70873 13.6855 6.82108 13.8253 6.93518C14.2644 7.29403 14.7482 7.73675 14.8588 8.31979C14.8969 8.72094 14.7701 9.0503 14.5294 9.36797C14.4238 9.49223 14.3134 9.61024 14.2 9.72734C14.177 9.75147 14.1541 9.7756 14.1305 9.80046C13.9481 9.9884 13.7488 10.1564 13.5388 10.3127C13.36 10.4511 13.2586 10.645 13.2117 10.8654C13.1987 11.0597 13.2212 11.2526 13.2416 11.4456C13.3031 12.0797 13.3549 12.8365 12.963 13.3801C12.6814 13.7174 12.3301 13.8277 11.9033 13.8807C11.5196 13.9103 11.1398 13.8898 10.7576 13.8515C10.4131 13.8175 10.0941 13.7984 9.80699 14.0286C9.70502 14.125 9.62097 14.2354 9.535 14.346C9.41079 14.5007 9.27468 14.6442 9.13877 14.7885C9.11658 14.8127 9.09438 14.8369 9.07151 14.8618C8.78685 15.1616 8.40758 15.4455 7.98297 15.4845C7.49328 15.497 7.13053 15.2706 6.78313 14.9438C6.73963 14.9022 6.69636 14.8603 6.6531 14.8185C6.62966 14.7966 6.60623 14.7747 6.58209 14.7522C6.44599 14.6219 6.32961 14.4827 6.21511 14.3337C6.01719 14.0779 5.84398 13.9021 5.51507 13.8302C5.31466 13.8166 5.11536 13.8403 4.91612 13.8602C4.26426 13.92 3.47631 13.9754 2.93955 13.5307C2.68881 13.3048 2.57109 12.9907 2.52028 12.6622C2.51696 12.6414 2.51364 12.6205 2.51022 12.5991C2.45804 12.1901 2.48573 11.7722 2.52892 11.364C2.56577 11.0111 2.5754 10.7066 2.3406 10.4161C2.20687 10.2855 2.06192 10.1693 1.91571 10.053C1.48314 9.70077 1.01142 9.25033 0.903096 8.67917C0.865025 8.27796 0.991868 7.94874 1.23252 7.63099C1.3251 7.52181 1.4211 7.41713 1.52065 7.31431C1.55912 7.27454 1.59706 7.23426 1.63495 7.19394C1.77384 7.04957 1.91955 6.92467 2.07855 6.80368C2.31333 6.62373 2.49763 6.43672 2.55023 6.13359C2.56019 5.94448 2.54141 5.75975 2.52028 5.57207C2.45495 4.93504 2.40348 4.16463 2.79929 3.61879C3.0398 3.32918 3.34935 3.1898 3.7182 3.1388C3.73974 3.13548 3.76128 3.13216 3.78348 3.12874C4.19174 3.07647 4.60894 3.10433 5.01646 3.14744C5.3567 3.18296 5.67177 3.19739 5.95493 2.97035C6.05828 2.87264 6.14391 2.76075 6.23113 2.64876C6.33568 2.51686 6.44837 2.39323 6.56325 2.27031C6.58854 2.24306 6.61382 2.2158 6.63988 2.18772C7.1838 1.62091 7.84954 1.29433 8.58474 1.73312Z" fill="black"/>
<path d="M10.2469 6.40322C10.4087 6.5422 10.533 6.71362 10.5593 6.92883C10.5598 7.34734 10.4445 7.54028 10.157 7.84072C10.1119 7.89047 10.067 7.94038 10.0222 7.99046C8.13552 10.0868 8.13552 10.0868 8.06826 10.1611C8.02234 10.2124 7.97705 10.2643 7.93232 10.3167C7.74418 10.5345 7.54843 10.7159 7.25148 10.7533C7.02121 10.7658 6.83579 10.7037 6.65868 10.5552C6.62805 10.5268 6.59762 10.4982 6.56735 10.4695C6.5423 10.446 6.5423 10.446 6.51674 10.422C6.32493 10.2412 6.13694 10.0564 5.95027 9.87034C5.89083 9.8112 5.83109 9.75239 5.77133 9.69357C5.22374 9.15048 5.22374 9.15048 5.2025 8.76162C5.20761 8.52654 5.30603 8.3455 5.46267 8.17389C5.6475 8.0054 5.84178 7.93792 6.09134 7.9494C6.38613 7.98906 6.56751 8.14535 6.77289 8.34983C6.78878 8.36551 6.80467 8.38119 6.82103 8.39734C6.92557 8.50052 7.02921 8.60455 7.13227 8.70921C7.22999 8.67663 7.24842 8.65678 7.31196 8.58006C7.40436 8.47102 7.49949 8.36496 7.59646 8.25999C7.68749 8.16117 7.77799 8.06205 7.86599 7.96051C7.96802 7.84279 8.07353 7.72835 8.17904 7.61377C8.25548 7.53061 8.33108 7.44691 8.40506 7.36155C8.49306 7.26001 8.58358 7.16091 8.67459 7.06207C8.76912 6.95933 8.86326 6.85632 8.95535 6.75136C8.97176 6.73268 8.98816 6.71399 9.00507 6.69474C9.04471 6.6478 9.08164 6.5986 9.11819 6.54921C9.44256 6.20222 9.84454 6.17101 10.2469 6.40322Z" fill="#F0F1F2"/>
</g>
<defs>
<clipPath id="clip0_309_833">
<rect width="15.3333" height="15.3333" fill="white" transform="translate(0.214294 0.833008)"/>
</clipPath>
</defs>
</svg>
