<svg width="15" height="15" viewBox="0 0 15 15" fill="none" xmlns="http://www.w3.org/2000/svg">
<path d="M7.75142 0.522922C7.96871 0.522922 8.16569 0.646087 8.33961 0.875811C8.42865 0.991596 8.51261 1.13875 8.59241 1.31404C8.71513 1.1655 8.83461 1.04511 8.94948 0.955615C9.17599 0.77894 9.39881 0.71113 9.60917 0.767869C9.81907 0.824146 9.9773 0.993902 10.0866 1.26099C10.1425 1.39615 10.1858 1.55991 10.2177 1.74904C10.375 1.63694 10.5212 1.5516 10.6554 1.49533L10.6753 1.48795C10.9318 1.38416 11.1569 1.37954 11.341 1.48518L11.3567 1.49533C11.5352 1.6065 11.6394 1.80762 11.6745 2.08394C11.693 2.22924 11.6925 2.399 11.6745 2.58951C11.8544 2.52263 12.0182 2.47788 12.163 2.45804C12.4481 2.4193 12.6742 2.47142 12.8278 2.62503C12.9814 2.77864 13.034 3.00468 12.9948 3.28976C12.975 3.4346 12.9307 3.59836 12.8633 3.77826C13.0548 3.75981 13.2241 3.75935 13.368 3.77734L13.3892 3.78103C13.6633 3.81932 13.8607 3.92818 13.9673 4.11178C14.0766 4.29999 14.0688 4.53202 13.9571 4.79772C13.9004 4.93242 13.8155 5.07865 13.7043 5.23503C13.8935 5.26686 14.0577 5.31022 14.1924 5.36511L14.2127 5.37434C14.4678 5.48274 14.6307 5.63866 14.6851 5.84347C14.7414 6.05336 14.674 6.27524 14.4978 6.50266C14.4088 6.61798 14.2884 6.73746 14.1389 6.86016C14.3133 6.93996 14.4609 7.02438 14.5771 7.11295C14.8064 7.28686 14.9301 7.48429 14.9301 7.7011C14.9301 7.91837 14.8069 8.11534 14.5771 8.28971C14.4614 8.37874 14.3142 8.46269 14.1394 8.54249C14.2884 8.6652 14.4088 8.78467 14.4978 8.89907C14.674 9.12603 14.7418 9.34837 14.6851 9.55872C14.6288 9.76907 14.4586 9.92822 14.1919 10.0371C14.0568 10.092 13.893 10.1353 13.7034 10.1676C13.8146 10.324 13.8999 10.4702 13.9567 10.6049C14.0683 10.8697 14.0762 11.1022 13.9673 11.2904C13.8589 11.4786 13.654 11.5875 13.3689 11.6235C13.2236 11.6424 13.0543 11.6415 12.8629 11.6235C12.9302 11.8034 12.9745 11.9676 12.9944 12.112C13.0336 12.3971 12.981 12.6231 12.8274 12.7767L12.8103 12.7919C12.6567 12.9335 12.4366 12.9815 12.1621 12.9441C12.0173 12.9243 11.8535 12.88 11.6736 12.8131C11.692 13.0046 11.6925 13.1734 11.6745 13.3178L11.6708 13.339C11.6325 13.613 11.5237 13.8105 11.3401 13.917C11.1518 14.0263 10.9198 14.018 10.6545 13.9069C10.5198 13.8501 10.3736 13.7652 10.2172 13.6541C10.1854 13.8437 10.142 14.0074 10.0871 14.1426L10.0779 14.1629C9.96946 14.418 9.81353 14.5808 9.60871 14.6352C9.39881 14.6915 9.17691 14.6242 8.94948 14.448C8.83415 14.3589 8.71467 14.2385 8.59149 14.0891C8.51168 14.2634 8.42726 14.4106 8.33915 14.5273C8.16569 14.757 7.96871 14.8802 7.75096 14.8802C7.53368 14.8802 7.3367 14.757 7.16278 14.5273C7.07374 14.4115 6.98978 14.2644 6.90997 14.0891C6.78726 14.2376 6.66778 14.358 6.55291 14.4475C6.3264 14.6242 6.10358 14.692 5.89322 14.6352C5.68378 14.579 5.52508 14.4092 5.41575 14.1421C5.35993 14.007 5.31657 13.8432 5.28473 13.6541C5.12742 13.7662 4.98118 13.8515 4.84694 13.9078L4.8271 13.9152C4.57061 14.019 4.34548 14.024 4.16141 13.9179L4.14573 13.9078C3.9672 13.7966 3.86294 13.5955 3.82788 13.3192C3.80943 13.1739 3.80989 13.0041 3.82788 12.8131C3.64796 12.8805 3.48419 12.9248 3.33934 12.9446C3.05424 12.9834 2.82819 12.9312 2.67457 12.7776C2.52095 12.624 2.46836 12.398 2.50757 12.1129C2.52741 11.9681 2.5717 11.8043 2.63905 11.6244C2.4476 11.6428 2.2783 11.6433 2.13436 11.6253L2.11314 11.6216C1.83912 11.5833 1.64167 11.4745 1.53511 11.2909C1.42577 11.1027 1.43362 10.8702 1.54526 10.6049C1.602 10.4702 1.68688 10.324 1.79806 10.1676C1.60892 10.1358 1.44469 10.0924 1.30998 10.0375L1.28968 10.0283C1.03457 9.91992 0.871725 9.76354 0.817289 9.55918C0.761008 9.3493 0.828361 9.12741 1.00459 8.9C1.09362 8.78467 1.21403 8.6652 1.36349 8.54249C1.18911 8.46269 1.04149 8.37827 0.925238 8.28971C0.6955 8.1158 0.572327 7.91837 0.572327 7.70156C0.572327 7.48429 0.6955 7.28732 0.925238 7.11295C1.04103 7.02392 1.18819 6.93996 1.36303 6.86016C1.21403 6.73746 1.09362 6.61798 1.00459 6.50358C0.828361 6.27663 0.760546 6.05382 0.817289 5.84393C0.87357 5.63312 1.0438 5.47444 1.31044 5.36557C1.44561 5.31068 1.60938 5.26732 1.79898 5.23503C1.6878 5.07865 1.60246 4.93242 1.54572 4.79772C1.43408 4.53294 1.42623 4.30045 1.53511 4.11224C1.64352 3.92403 1.84881 3.81517 2.13344 3.77919C2.27876 3.76027 2.44806 3.7612 2.63951 3.77919C2.57216 3.59928 2.52787 3.43506 2.50803 3.29068C2.46882 3.0056 2.52141 2.77957 2.67503 2.62596L2.6921 2.61073C2.84572 2.46912 3.06577 2.42114 3.34026 2.45851C3.48512 2.47834 3.64888 2.52263 3.8288 2.58951C3.81035 2.39808 3.80989 2.22924 3.82788 2.08486L3.83157 2.06364C3.86986 1.78963 3.97873 1.5922 4.16234 1.48564C4.35056 1.37631 4.5826 1.38462 4.84786 1.49579C4.98257 1.55253 5.12881 1.63741 5.28519 1.74858C5.31703 1.55899 5.36039 1.39523 5.41529 1.26007L5.42451 1.23977C5.53293 0.984676 5.68885 0.82184 5.89368 0.767407C6.10358 0.71113 6.32548 0.778478 6.55291 0.954692C6.66824 1.04372 6.78772 1.16412 6.91089 1.31358C6.9907 1.13921 7.07513 0.992057 7.16324 0.87535C7.3367 0.645626 7.53368 0.522461 7.75142 0.522461V0.522922ZM4.42898 8.25373L5.9089 10.0066C6.01408 10.1316 6.13956 10.2267 6.27934 10.2899C6.41913 10.3526 6.57275 10.3835 6.73605 10.3798C6.89982 10.3766 7.05252 10.3388 7.18907 10.27C7.32655 10.2008 7.44741 10.1003 7.54706 9.97112L11.0799 5.39417C11.1574 5.29361 11.1389 5.14923 11.0383 5.07173C10.9378 4.99423 10.7934 5.01268 10.7159 5.11325L7.18308 9.69019C7.12587 9.76446 7.05806 9.82166 6.98194 9.85949C6.90582 9.89777 6.82001 9.91899 6.72683 9.92084C6.63318 9.92268 6.54599 9.90561 6.46849 9.87102C6.39098 9.83596 6.32086 9.78199 6.25997 9.71049L4.78005 7.95758C4.69793 7.8607 4.55262 7.84871 4.45574 7.93036C4.35886 8.01247 4.34687 8.15778 4.42852 8.25465L4.42898 8.25373Z" fill="black"/>
</svg>
