<svg width="14" height="15" viewBox="0 0 14 15" fill="none" xmlns="http://www.w3.org/2000/svg">
<path d="M13.9154 14.0494L11.2642 9.40125C11.7448 9.105 12.2057 8.75937 12.6362 8.355C12.8783 8.1275 12.9022 7.7325 12.6898 7.47312C12.4763 7.21312 12.1088 7.18875 11.8662 7.41562C11.487 7.77187 11.0804 8.075 10.6558 8.33438L8.8795 5.22C9.16242 4.80625 9.3345 4.30125 9.3345 3.75062C9.3345 2.58938 8.58842 1.61875 7.5845 1.33937V0.625C7.5845 0.28 7.32375 0 7.00117 0C6.67858 0 6.41783 0.28 6.41783 0.625V1.33875C5.41392 1.61812 4.66783 2.58875 4.66783 3.75C4.66783 4.30062 4.83992 4.80562 5.12283 5.21937L3.34658 8.33313C2.92192 8.07438 2.51533 7.77125 2.13616 7.41437C1.8935 7.18687 1.526 7.21187 1.3125 7.47188C1.10016 7.73125 1.12408 8.12562 1.36616 8.35437C1.79608 8.75875 2.25691 9.105 2.73816 9.40063L0.085747 14.0494C-0.082253 14.3444 0.00408034 14.7288 0.279414 14.9088C0.374497 14.9713 0.479497 15 0.583331 15C0.779914 15 0.971831 14.8938 1.0815 14.7006L3.79283 9.94687C4.8195 10.3906 5.90858 10.62 7 10.62C8.09142 10.62 9.1805 10.3906 10.2072 9.94687L12.9185 14.7006C13.0282 14.8938 13.2207 15 13.4167 15C13.5205 15 13.6249 14.9706 13.7206 14.9088C13.9959 14.7288 14.0823 14.3444 13.9143 14.0494H13.9154ZM7.00058 2.5C7.644 2.5 8.16725 3.06063 8.16725 3.75C8.16725 4.43937 7.644 5 7.00058 5C6.35717 5 5.83392 4.43937 5.83392 3.75C5.83392 3.06063 6.35717 2.5 7.00058 2.5ZM4.40767 8.86938L6.03342 6.01875C6.32858 6.16375 6.65408 6.25 7 6.25C7.34592 6.25 7.67142 6.16375 7.96658 6.01875L9.59292 8.87C7.92517 9.53688 6.07542 9.53688 4.40767 8.87V8.86938Z" fill="white"/>
</svg>
