<svg width="13" height="15" viewBox="0 0 13 15" fill="none" xmlns="http://www.w3.org/2000/svg">
<path d="M10.1018 9.01241V7.63062L8.98195 8.88562L7.1405 9.54993C7.03848 9.58557 6.93242 9.56512 6.85289 9.49151C6.78084 9.42548 6.74799 9.33317 6.76124 9.23735L2.4747 9.23677C2.3479 9.23677 2.24588 9.13335 2.24588 9.00656C2.24588 8.87802 2.3479 8.7746 2.4747 8.7746H6.87191L7.23329 7.28473L10.1019 4.07071V2.21272C10.1019 1.88961 9.87303 1.61734 9.57217 1.55484V2.09002C9.57217 2.60301 9.15891 3.02193 8.65285 3.02193C8.14679 3.02193 7.73352 2.60301 7.73352 2.09002V1.53964H7.41306V2.08886C7.41306 2.60184 6.99979 3.02077 6.49373 3.02077C5.98767 3.02077 5.57613 2.60184 5.57613 2.08886L5.57671 1.53964H5.25624V2.08886C5.25624 2.60184 4.84298 3.02077 4.33864 3.02077C3.83258 3.02077 3.41932 2.60184 3.41932 2.08886V1.53964H3.0977V2.08886C3.0977 2.60184 2.68616 3.02077 2.1801 3.02077C1.67404 3.02077 1.26078 2.60184 1.26078 2.08886V1.55425C0.959904 1.61735 0.731094 1.88904 0.731094 2.21213V13.2326C0.731094 13.6037 1.02908 13.9057 1.39508 13.9057H7.48338C7.16291 13.4091 6.97732 12.8155 6.97732 12.178C6.97847 10.4298 8.37557 9.01241 10.1018 9.01241ZM2.47472 3.84872H8.35777C8.48458 3.84872 8.5866 3.95213 8.5866 4.07892C8.5866 4.20746 8.48458 4.31088 8.35777 4.31088H2.47472C2.34791 4.31088 2.24589 4.20746 2.24589 4.07892C2.24647 3.95389 2.34791 3.84872 2.47472 3.84872ZM2.47472 4.76427H6.13814C6.26495 4.76427 6.36697 4.86768 6.36697 4.99622C6.36697 5.12359 6.26495 5.22643 6.13814 5.22643H2.47472C2.34791 5.22643 2.24589 5.12301 2.24589 4.99622C2.24647 4.86885 2.34791 4.76427 2.47472 4.76427ZM2.47472 6.31085H7.28625C7.41305 6.31085 7.51507 6.41426 7.51507 6.5428C7.51507 6.67017 7.41305 6.77301 7.28625 6.77301H2.47472C2.34791 6.77301 2.24589 6.66959 2.24589 6.5428C2.24647 6.41426 2.34791 6.31085 2.47472 6.31085ZM2.47472 7.2264H6.13814C6.26495 7.2264 6.36697 7.32981 6.36697 7.45835C6.36697 7.58572 6.26495 7.69031 6.13814 7.69031H2.47472C2.34791 7.69031 2.24589 7.58573 2.24589 7.45835C2.24647 7.32981 2.34791 7.2264 2.47472 7.2264ZM2.47472 9.68672H6.13814C6.26495 9.68672 6.36697 9.79013 6.36697 9.91867C6.36697 10.0472 6.26495 10.1506 6.13814 10.1506H2.47472C2.34791 10.1506 2.24589 10.0472 2.24589 9.91867C2.24647 9.79014 2.34791 9.68672 2.47472 9.68672ZM6.13873 12.6122H2.47472C2.34791 12.6122 2.24589 12.5088 2.24589 12.382C2.24589 12.2535 2.34791 12.15 2.47472 12.15H6.13814C6.26495 12.15 6.36697 12.2535 6.36697 12.382C6.36754 12.5094 6.26554 12.6122 6.13873 12.6122ZM6.6373 11.6972H2.4747C2.3479 11.6972 2.24588 11.5938 2.24588 11.4653C2.24588 11.3379 2.3479 11.2351 2.4747 11.2351H6.6373C6.76295 11.2351 6.86612 11.3385 6.86612 11.4653C6.86612 11.5938 6.76295 11.6972 6.6373 11.6972ZM11.1422 3.5934L11.5082 3.92818C10.3958 5.17559 9.28343 6.42306 8.16926 7.67049L7.80326 7.3357L11.1422 3.5934ZM12.8166 3.89371L12.5158 4.232L11.8829 3.65182L11.8137 3.58755L11.4477 3.25276L11.7486 2.91447C11.8385 2.81398 11.9918 2.80697 12.091 2.89636L12.8005 3.54724C12.8996 3.6378 12.9071 3.79379 12.8166 3.89371ZM8.10249 8.23131L8.20163 8.32246L8.47599 8.5737L8.00221 8.7443L7.2852 9.00314L7.46791 8.25352L7.58722 7.75981L8.10249 8.23131ZM8.87137 8.31662L8.50537 7.98008L11.8443 4.23777L12.2103 4.57256L8.87137 8.31662ZM10.1019 9.47464C8.63218 9.47464 7.43566 10.6893 7.43566 12.1774C7.43566 13.6655 8.63395 14.8802 10.1019 14.8802C11.57 14.8802 12.7682 13.6655 12.7682 12.1774C12.7682 10.6887 11.5699 9.47464 10.1019 9.47464ZM10.1019 14.0798C9.06906 14.0798 8.22639 13.2256 8.22639 12.1786C8.22639 11.1316 9.06905 10.2774 10.1019 10.2774C11.1348 10.2774 11.9775 11.1316 11.9775 12.1786C11.9775 13.2256 11.1348 14.0798 10.1019 14.0798ZM3.87655 2.08829V0.990459C3.87655 0.733373 4.08463 0.522461 4.33823 0.522461C4.59242 0.522461 4.79875 0.733388 4.79875 0.990459V2.09006C4.79875 2.34714 4.59068 2.55805 4.33708 2.55805C4.08463 2.55689 3.87655 2.34711 3.87655 2.08829ZM1.71801 2.08829V0.990459C1.71801 0.733373 1.92609 0.522461 2.17969 0.522461C2.43328 0.522461 2.64136 0.733388 2.64136 0.990459V2.09006C2.64136 2.34714 2.43328 2.55805 2.17969 2.55805C1.92607 2.55689 1.71801 2.34711 1.71801 2.08829ZM6.03391 2.08829V0.990459C6.03391 0.733373 6.24199 0.522461 6.49559 0.522461C6.74919 0.522461 6.95727 0.733388 6.95727 0.990459V2.09006C6.95727 2.34714 6.74919 2.55805 6.49559 2.55805C6.24198 2.55689 6.03391 2.34711 6.03391 2.08829ZM8.19128 2.08829V0.990459C8.19128 0.733373 8.39935 0.522461 8.65295 0.522461C8.90655 0.522461 9.11463 0.733388 9.11463 0.990459V2.09006C9.11463 2.34714 8.90655 2.55805 8.65295 2.55805C8.39934 2.55689 8.19128 2.34711 8.19128 2.08829ZM11.4478 12.1786C11.4478 12.3072 11.3457 12.4106 11.2189 12.4106H10.1019C9.97511 12.4106 9.87309 12.3072 9.87309 12.1786V10.9803C9.87309 10.8529 9.97511 10.7483 10.1019 10.7483C10.2276 10.7483 10.3307 10.8529 10.3307 10.9803V11.9467H11.2189C11.3446 11.9467 11.4478 12.0501 11.4478 12.1786Z" fill="white"/>
</svg>
