<svg width="18" height="18" viewBox="0 0 18 18" fill="none" xmlns="http://www.w3.org/2000/svg">
<path d="M5.45231 14.4495H12.715C12.6765 14.6352 12.5094 14.7758 12.3096 14.7758H4.72214C4.49418 14.7758 4.30836 14.5926 4.30836 14.3679V3.7547C4.30836 3.52997 4.49417 3.34679 4.72214 3.34679H5.88904L4.87777 4.34371C4.72214 4.49713 4.63991 4.69364 4.63991 4.91016V13.6479C4.63939 14.0897 5.00418 14.4495 5.45231 14.4495ZM15.3528 11.6957C15.3528 12.7296 14.5028 13.5675 13.4541 13.5675C12.4053 13.5675 11.5554 12.7296 11.5554 11.6957C11.5554 10.6619 12.4053 9.82399 13.4541 9.82399C14.5023 9.82399 15.3528 10.6619 15.3528 11.6957ZM14.5419 10.8938C14.4086 10.7634 14.1937 10.764 14.0615 10.8953L13.1631 11.7891L12.8425 11.4813C12.7083 11.3525 12.4928 11.355 12.3621 11.4879C12.2315 11.6203 12.2341 11.8327 12.3689 11.9615L12.9305 12.5008C13.0637 12.6285 13.2771 12.627 13.4083 12.4967L14.5429 11.3673C14.6751 11.2365 14.6746 11.0241 14.5419 10.8938ZM13.3104 13.9569C13.2381 14.0184 13.1434 14.0564 13.0403 14.0564L5.45239 14.0559C5.22442 14.0559 5.03861 13.8727 5.03861 13.648V5.13492H6.80978C7.23552 5.13492 7.58268 4.7932 7.58268 4.37299V2.62695H13.0398C13.2678 2.62695 13.4536 2.81012 13.4536 3.03486L13.4541 9.43042C13.1241 9.43042 12.8108 9.49917 12.5272 9.62231C12.5813 9.58742 12.6172 9.52636 12.6172 9.45761C12.6172 9.34883 12.5277 9.26109 12.4179 9.26109H7.30422C7.19388 9.26109 7.10488 9.34935 7.10488 9.45761C7.10488 9.56638 7.1944 9.65412 7.30422 9.65412H12.4179C12.4366 9.65412 12.4548 9.65155 12.472 9.64694C12.1066 9.81728 11.7949 10.08 11.5659 10.4042L7.30375 10.4048C7.19341 10.4048 7.10441 10.493 7.10441 10.6013C7.10441 10.71 7.19393 10.7978 7.30375 10.7978H11.3431C11.2411 11.0302 11.1776 11.2827 11.1604 11.5479L7.30373 11.5484C7.19339 11.5484 7.10439 11.6367 7.10439 11.7449C7.10439 11.8537 7.19391 11.9415 7.30373 11.9415H11.1693C11.1985 12.2082 11.2745 12.4607 11.3895 12.6916H7.30377C7.19343 12.6916 7.10443 12.7798 7.10443 12.8881C7.10443 12.9969 7.19395 13.0846 7.30377 13.0846H11.6388C12.0317 13.5833 12.6312 13.9153 13.3104 13.9569ZM6.64373 12.8886C6.64373 12.7798 6.55421 12.6921 6.44439 12.6921H6.07538C5.96504 12.6921 5.87604 12.7803 5.87604 12.8886C5.87604 12.9974 5.96556 13.0851 6.07538 13.0851H6.44439C6.55473 13.0856 6.64373 12.9974 6.64373 12.8886ZM6.64373 11.7449C6.64373 11.6362 6.55421 11.5484 6.44439 11.5484H6.07538C5.96504 11.5484 5.87604 11.6367 5.87604 11.7449C5.87604 11.8537 5.96556 11.9415 6.07538 11.9415H6.44439C6.55473 11.942 6.64373 11.8537 6.64373 11.7449ZM6.64373 10.6018C6.64373 10.493 6.55421 10.4053 6.44439 10.4053H6.07538C5.96504 10.4053 5.87604 10.4935 5.87604 10.6018C5.87604 10.7106 5.96556 10.7983 6.07538 10.7983H6.44439C6.55473 10.7983 6.64373 10.7101 6.64373 10.6018ZM6.64373 9.45813C6.64373 9.34936 6.55421 9.26162 6.44439 9.26162H6.07538C5.96504 9.26162 5.87604 9.34987 5.87604 9.45813C5.87604 9.56691 5.96556 9.65464 6.07538 9.65464H6.44439C6.55473 9.65464 6.64373 9.56691 6.64373 9.45813ZM8.00999 4.66846C8.00999 5.34163 8.56324 5.88703 9.2461 5.88703C9.92896 5.88703 10.4822 5.34163 10.4822 4.66846C10.4822 3.99529 9.92896 3.44989 9.2461 3.44989C8.56376 3.44989 8.00999 3.99529 8.00999 4.66846ZM7.12467 8.38724H11.3676C11.4608 8.38724 11.5336 8.31027 11.5269 8.21843C11.4384 7.05628 10.4464 6.13272 9.24617 6.13272C8.04596 6.13272 7.05396 7.05627 6.96548 8.21843C6.95872 8.31027 7.0315 8.38724 7.12467 8.38724ZM5.07449 4.74123H6.81022C7.01581 4.74123 7.18392 4.57601 7.18392 4.37283L7.1834 2.66226C7.13968 2.68227 7.09908 2.70998 7.06213 2.7464L5.15985 4.62169C5.12289 4.65812 5.09479 4.69761 5.07449 4.74123Z" fill="black"/>
</svg>
