<svg width="13" height="14" viewBox="0 0 13 14" fill="none" xmlns="http://www.w3.org/2000/svg">
<path d="M9.9537 6.71476V1.32577C9.9537 0.949486 9.6446 0.626953 9.25487 0.626953H1.21843C0.84214 0.626953 0.519608 0.936047 0.519608 1.32577V11.9828C0.519608 12.2247 0.667435 12.4532 0.895896 12.5338C0.96309 12.5607 1.03028 12.5741 1.09748 12.5741C1.25875 12.5741 1.42001 12.5069 1.54096 12.3725L3.01924 10.6658H5.98923C6.28488 12.2247 7.65565 13.3939 9.29519 13.3939C11.1498 13.3939 12.6683 11.8753 12.6683 10.0207C12.6818 8.38118 11.4992 7.01042 9.9537 6.71476ZM2.522 2.61591C2.522 2.60247 2.53544 2.58903 2.54888 2.58903H7.93786C7.9513 2.58903 7.96474 2.60247 7.96474 2.61591V3.47599C7.96474 3.48943 7.9513 3.50287 7.93786 3.50287H2.54888C2.53544 3.50287 2.522 3.48943 2.522 3.47599V2.61591ZM2.522 5.20961C2.522 5.19617 2.53544 5.18273 2.54888 5.18273H7.93786C7.9513 5.18273 7.96474 5.19617 7.96474 5.20961V6.0697C7.96474 6.08313 7.9513 6.09657 7.93786 6.09657H2.54888C2.53544 6.09657 2.522 6.08313 2.522 6.0697V5.20961ZM2.54888 8.70371C2.53544 8.70371 2.522 8.69028 2.522 8.67684V7.81675C2.522 7.80331 2.53544 7.78987 2.54888 7.78987H6.809C6.5671 8.05865 6.36552 8.36774 6.21769 8.70371H2.54888ZM9.30863 12.4532C7.96474 12.4532 6.87619 11.3646 6.87619 10.0207C6.87619 8.67684 7.96474 7.58829 9.30863 7.58829C10.6525 7.58829 11.7411 8.67684 11.7411 10.0207C11.7411 11.3646 10.6525 12.4532 9.30863 12.4532Z" fill="black"/>
<path d="M9.95372 9.02593L8.99956 10.1145L8.55608 9.671C8.36793 9.48285 8.07228 9.48285 7.89757 9.671C7.70943 9.85914 7.70943 10.1548 7.89757 10.3295L8.69046 11.1224C8.78454 11.2165 8.89205 11.2568 9.02644 11.2568H9.03987C9.17426 11.2568 9.29521 11.1896 9.37585 11.0955L10.666 9.63068C10.8407 9.4291 10.8138 9.13344 10.6257 8.97218C10.4241 8.81091 10.1284 8.82435 9.95372 9.02593Z" fill="black"/>
</svg>
