<svg width="12" height="12" viewBox="0 0 12 12" fill="none" xmlns="http://www.w3.org/2000/svg">
<path d="M10.8608 0.495438C10.8257 0.574886 10.7843 0.628482 10.723 0.689745C10.6957 0.717148 10.6957 0.717148 10.6679 0.745105C10.638 0.774795 10.638 0.774795 10.6075 0.805086C10.5865 0.826129 10.5655 0.847173 10.5439 0.868854C10.4863 0.926497 10.4287 0.984027 10.3709 1.0415C10.3104 1.10184 10.2499 1.16231 10.1895 1.22276C10.0879 1.32437 9.98613 1.42589 9.88433 1.52734C9.76704 1.64424 9.64988 1.76127 9.5328 1.87837C9.40776 2.00342 9.28263 2.12837 9.15748 2.2533C9.12163 2.28909 9.08581 2.3249 9.04999 2.36071C8.98279 2.42785 8.91552 2.4949 8.84822 2.56194C8.82859 2.58158 8.80896 2.60122 8.78873 2.62146C8.76085 2.64918 8.76085 2.64918 8.7324 2.67746C8.71654 2.69328 8.70068 2.7091 8.68434 2.7254C8.63372 2.77323 8.5821 2.81889 8.52943 2.86443C8.43216 2.9491 8.34042 3.03789 8.2498 3.12959C8.23341 3.14606 8.21702 3.16254 8.20013 3.17951C8.1458 3.23415 8.09157 3.28887 8.03733 3.3436C7.99817 3.38302 7.959 3.42242 7.91983 3.46183C7.83578 3.54638 7.75177 3.63096 7.66778 3.71556C7.53503 3.84925 7.40212 3.98278 7.26916 4.11626C7.2467 4.13882 7.22424 4.16137 7.20109 4.18461C7.15518 4.23071 7.10927 4.2768 7.06336 4.3229C6.94568 4.44106 6.82801 4.55923 6.71036 4.67741C6.69857 4.68926 6.68677 4.70111 6.67462 4.71332C6.48298 4.90584 6.29157 5.0986 6.10024 5.29142C5.90358 5.48959 5.70663 5.68748 5.50943 5.88511C5.3988 5.99601 5.28831 6.10705 5.17815 6.21841C5.07472 6.32296 4.97094 6.42715 4.86689 6.53108C4.8287 6.56936 4.79064 6.60776 4.75272 6.64629C4.7011 6.69872 4.64903 6.75067 4.59683 6.80252C4.58179 6.81801 4.56676 6.8335 4.55127 6.84946C4.50873 6.89113 4.50873 6.89113 4.43148 6.94991C4.3352 6.94781 4.27359 6.91076 4.19397 6.85868C4.17256 6.84484 4.15115 6.831 4.1291 6.81675C4.09463 6.79409 4.09463 6.79409 4.05947 6.77097C4.00948 6.73864 3.95948 6.70633 3.90947 6.67404C3.88366 6.65732 3.85785 6.6406 3.83126 6.62337C3.70767 6.54374 3.58304 6.46579 3.45829 6.38797C3.43349 6.37248 3.40869 6.35699 3.38314 6.34103C3.16704 6.20627 2.95005 6.07296 2.73301 5.93971C2.55239 5.8287 2.37272 5.71633 2.19371 5.60276C2.05126 5.51246 1.9081 5.42336 1.76461 5.33472C1.56775 5.21302 1.37093 5.09125 1.17442 4.96899C1.14982 4.95377 1.12523 4.93854 1.09989 4.92285C0.607434 4.616 0.607434 4.616 0.519867 4.38978C0.495334 4.18739 0.526384 4.04373 0.628174 3.86865C0.81506 3.69135 1.09378 3.62804 1.33333 3.54898C1.37295 3.53575 1.41256 3.52251 1.45217 3.50924C1.56045 3.47304 1.66881 3.43707 1.77718 3.40114C1.89426 3.36228 2.01126 3.3232 2.12827 3.28415C2.35723 3.20777 2.58626 3.13159 2.81531 3.05548C3.082 2.96685 3.34863 2.87801 3.61525 2.78916C4.09084 2.63068 4.56648 2.47238 5.04215 2.31418C5.50389 2.16062 5.9656 2.00695 6.42726 1.85316C6.45572 1.84368 6.48418 1.8342 6.5135 1.82444C6.62789 1.78633 6.74227 1.74823 6.85666 1.71012C7.34959 1.54592 7.84255 1.3818 8.33552 1.21769C8.41538 1.1911 8.49525 1.16451 8.57512 1.13792C8.85457 1.04487 9.13404 0.951855 9.41352 0.858907C9.52911 0.820468 9.64469 0.782018 9.76025 0.743536C9.86595 0.708342 9.97166 0.673184 10.0774 0.638054C10.1157 0.62531 10.154 0.612553 10.1923 0.599783C10.2443 0.582484 10.2962 0.565231 10.3481 0.54799C10.377 0.538379 10.4059 0.528767 10.4357 0.518864C10.581 0.472581 10.7114 0.445614 10.8608 0.495438Z" fill="black"/>
<path d="M11.1873 0.896973C11.2039 0.896973 11.2205 0.896973 11.2375 0.896973C11.2998 1.14042 11.2084 1.35173 11.1297 1.57923C11.114 1.62586 11.0984 1.67252 11.0828 1.71919C11.0467 1.82695 11.0103 1.93461 10.9738 2.04223C10.9044 2.2473 10.8364 2.45283 10.7684 2.65839C10.7424 2.73713 10.7164 2.81587 10.6904 2.89461C10.6837 2.91473 10.6771 2.93484 10.6702 2.95557C10.5919 3.19234 10.5134 3.429 10.4347 3.66566C10.4236 3.69925 10.4236 3.69925 10.4122 3.73352C10.1951 4.38714 9.97773 5.04069 9.76027 5.69419C9.72646 5.7958 9.69265 5.8974 9.65884 5.99901C9.65044 6.02425 9.64204 6.04949 9.63339 6.0755C9.49648 6.48699 9.35983 6.89856 9.22328 7.31017C9.08236 7.73493 8.94119 8.15962 8.79976 8.58422C8.72065 8.82178 8.64164 9.05938 8.56293 9.29708C8.49617 9.49872 8.42917 9.70028 8.36187 9.90175C8.3276 10.0044 8.29344 10.107 8.25957 10.2098C8.22855 10.3039 8.19721 10.3979 8.16562 10.4919C8.15429 10.5258 8.14307 10.5597 8.13198 10.5936C8.06249 10.8062 7.99034 11.0238 7.81047 11.1682C7.62753 11.2528 7.48167 11.278 7.28826 11.2128C7.08833 11.1359 7.00163 10.9735 6.89585 10.7984C6.86224 10.7437 6.82862 10.689 6.795 10.6343C6.77789 10.6063 6.76078 10.5783 6.74315 10.5494C6.66312 10.4189 6.58165 10.2893 6.50029 10.1596C6.37021 9.95162 6.24084 9.74323 6.11187 9.53457C6.00949 9.36904 5.90655 9.20387 5.80336 9.03884C5.78761 9.01365 5.77185 8.98846 5.75562 8.9625C5.67659 8.83615 5.5975 8.70983 5.51836 8.58354C5.33135 8.28491 5.14568 7.9855 4.96143 7.68516C4.94541 7.65905 4.92938 7.63293 4.91287 7.60603C4.89869 7.5829 4.88452 7.55978 4.86991 7.53595C4.84179 7.49067 4.81264 7.44603 4.78307 7.40168C4.78933 7.30478 4.84273 7.25733 4.90926 7.19094C4.94212 7.15788 4.94212 7.15788 4.97565 7.12415C5.00023 7.0998 5.02481 7.07546 5.0494 7.05111C5.07532 7.02518 5.10122 6.99923 5.12711 6.97326C5.19842 6.90183 5.26997 6.83064 5.34155 6.75948C5.41866 6.68274 5.49555 6.6058 5.57247 6.52887C5.70581 6.39558 5.83929 6.26242 5.97286 6.12935C6.16602 5.93691 6.35896 5.74425 6.55185 5.55153C6.86484 5.23883 7.17799 4.92629 7.49124 4.61386C7.79548 4.31041 8.09969 4.00692 8.40381 3.70335C8.42254 3.68465 8.44127 3.66596 8.46057 3.64669C8.66496 3.44267 8.86932 3.23864 9.07367 3.03458C9.09161 3.01667 9.10956 2.99875 9.12804 2.98029C9.19976 2.90867 9.27148 2.83705 9.3432 2.76544C9.55345 2.55547 9.76375 2.34556 9.97416 2.13574C10.1061 2.0042 10.238 1.87261 10.3698 1.74099C10.446 1.66496 10.5221 1.58895 10.5984 1.513C10.6681 1.44356 10.7377 1.37406 10.8073 1.30452C10.8326 1.27929 10.8579 1.25407 10.8832 1.22888C10.9175 1.19481 10.9516 1.16066 10.9858 1.1265C11.0144 1.098 11.0144 1.098 11.0435 1.06893C11.0885 1.02517 11.0885 1.02517 11.112 0.972317C11.1285 0.972317 11.1451 0.972317 11.1622 0.972317C11.1705 0.947453 11.1788 0.92259 11.1873 0.896973Z" fill="black"/>
</svg>
