<svg width="13" height="14" viewBox="0 0 13 14" fill="none" xmlns="http://www.w3.org/2000/svg">
<path d="M11.8794 0.522461H2.898L0.360992 2.78361V13.1981C0.360992 13.5117 0.657286 13.7758 1.00913 13.7758H11.8609C12.2127 13.7758 12.509 13.5117 12.509 13.1981V1.11663C12.5275 0.803042 12.2312 0.522461 11.8794 0.522461ZM3.06467 2.99817H0.860987L3.06467 1.03411V2.99817ZM3.6017 5.57291C3.6017 5.50689 3.63874 5.45737 3.65726 5.42436V5.40786C3.65726 5.39135 3.69429 5.35835 3.71281 5.34184L5.02761 4.17001C5.17576 4.03797 5.37946 4.03797 5.52761 4.17001C5.60168 4.21952 5.63872 4.30205 5.63872 4.38457C5.63872 4.45059 5.58316 4.54961 5.52761 4.59913L4.80539 5.24281H8.67573C8.87943 5.24281 9.02757 5.37485 9.02757 5.5564V6.53018C9.02757 6.71173 8.87943 6.84377 8.67573 6.84377C8.47202 6.84377 8.32388 6.71173 8.32388 6.53018V5.86999H4.80539L5.52761 6.51368C5.60168 6.56319 5.63872 6.66222 5.63872 6.72824C5.63872 6.79426 5.58316 6.89329 5.52761 6.9428C5.47205 7.00882 5.36094 7.04183 5.28687 7.04183C5.2128 7.04183 5.10169 6.99232 5.04613 6.9428L3.73133 5.77097C3.67577 5.73796 3.63874 5.65543 3.6017 5.57291ZM9.21276 9.22045V9.23696C9.21276 9.26997 9.19424 9.28647 9.1572 9.30297L7.8424 10.4748C7.78685 10.5243 7.67574 10.5738 7.60166 10.5738C7.52759 10.5738 7.41648 10.5408 7.36092 10.4748C7.28685 10.4088 7.24981 10.3263 7.24981 10.2602C7.24981 10.1777 7.28685 10.0952 7.36092 10.0457L8.08314 9.402H4.21281C4.0091 9.402 3.86096 9.26997 3.86096 9.08841V8.11463C3.86096 7.93308 4.0091 7.80104 4.21281 7.80104C4.41651 7.80104 4.56465 7.93308 4.56465 8.11463V8.77482H8.08314L7.36092 8.13114C7.30537 8.08162 7.24981 7.9826 7.24981 7.91658C7.24981 7.85056 7.28685 7.75153 7.36092 7.70201C7.49055 7.58648 7.71277 7.56998 7.8424 7.68551L9.1572 8.85734C9.21276 8.90686 9.26831 9.00589 9.26831 9.07191C9.26831 9.13793 9.23128 9.18744 9.21276 9.22045Z" fill="black"/>
</svg>
