<svg width="36" height="30" viewBox="0 0 36 30" fill="none" xmlns="http://www.w3.org/2000/svg">
<path fill-rule="evenodd" clip-rule="evenodd" d="M13.0015 0.0109856C15.0407 -0.0641479 17.0704 0.323987 18.9381 1.14621C20.8057 1.96843 22.4626 3.20335 23.7843 4.75811C24.8515 6.0135 25.6777 7.45104 26.2252 8.99814H27.0065C29.0061 8.99946 30.9493 9.66663 32.5275 10.8943C34.1058 12.1221 35.2303 13.8404 35.7235 15.7782C36.2167 17.716 36.0506 19.7628 35.2513 21.5957C34.452 23.4285 33.0651 24.943 31.3095 25.9001C30.5822 26.2967 29.6711 26.0285 29.2745 25.3011C28.878 24.5738 29.1462 23.6627 29.8735 23.2661C31.044 22.6281 31.9685 21.6184 32.5014 20.3965C33.0342 19.1746 33.145 17.81 32.8162 16.5182C32.4874 15.2263 31.7377 14.0808 30.6855 13.2623C29.6334 12.4438 28.3386 11.999 27.0055 11.9981H25.1165C24.4327 11.9981 23.8354 11.5357 23.6643 10.8736C23.267 9.33699 22.5266 7.91042 21.4986 6.70116C20.4706 5.4919 19.1819 4.53141 17.7293 3.8919C16.2767 3.2524 14.698 2.95051 13.1119 3.00895C11.5259 3.06739 9.97368 3.48462 8.57208 4.22929C7.17047 4.97396 5.95592 6.02668 5.01972 7.30831C4.08353 8.58994 3.45006 10.0671 3.16694 11.6288C2.88382 13.1905 2.95842 14.7961 3.38513 16.3248C3.81183 17.8535 4.57954 19.2656 5.63053 20.4549C6.17911 21.0756 6.12059 22.0236 5.49982 22.5721C4.87905 23.1207 3.93111 23.0622 3.38253 22.4414C2.03125 20.9123 1.0442 19.0968 0.495579 17.1313C-0.0530406 15.1658 -0.148951 13.1015 0.21506 11.0937C0.579071 9.08578 1.39353 7.18654 2.59721 5.53873C3.80088 3.89092 5.36245 2.53742 7.16452 1.57999C8.96658 0.622566 10.9622 0.0861191 13.0015 0.0109856ZM16.9459 13.9375C17.5317 13.3517 18.4814 13.3517 19.0672 13.9375L25.0672 19.9375C25.653 20.5233 25.653 21.473 25.0672 22.0588C24.4814 22.6446 23.5317 22.6446 22.9459 22.0588L19.5065 18.6195V28.4982C19.5065 29.3266 18.835 29.9982 18.0065 29.9982C17.1781 29.9982 16.5065 29.3266 16.5065 28.4982V18.6195L13.0672 22.0588C12.4814 22.6446 11.5316 22.6446 10.9459 22.0588C10.3601 21.473 10.3601 20.5233 10.9459 19.9375L16.9459 13.9375Z" fill="#5D6C87"/>
</svg>
