<svg width="26" height="18" viewBox="0 0 26 18" fill="none" xmlns="http://www.w3.org/2000/svg">
<path d="M5.78571 18C2.59152 18 0 15.4085 0 12.2143C0 9.69107 1.61518 7.54554 3.86518 6.75402C3.86116 6.64554 3.85714 6.53705 3.85714 6.42857C3.85714 2.87679 6.73393 0 10.2857 0C12.6683 0 14.7455 1.29375 15.8585 3.22232C16.4692 2.8125 17.2085 2.57143 18 2.57143C20.1295 2.57143 21.8571 4.29911 21.8571 6.42857C21.8571 6.91875 21.7647 7.38482 21.6 7.81875C23.9464 8.29286 25.7143 10.3701 25.7143 12.8571C25.7143 15.6978 23.4121 18 20.5714 18H5.78571ZM8.95982 9.28125C8.58214 9.65893 8.58214 10.2696 8.95982 10.6433C9.3375 11.017 9.94821 11.021 10.3219 10.6433L11.8888 9.07634V14.4643C11.8888 14.9987 12.3187 15.4286 12.8531 15.4286C13.3875 15.4286 13.8174 14.9987 13.8174 14.4643V9.07634L15.3844 10.6433C15.7621 11.021 16.3728 11.021 16.7464 10.6433C17.1201 10.2656 17.1241 9.65491 16.7464 9.28125L13.5321 6.06696C13.1545 5.68929 12.5437 5.68929 12.1701 6.06696L8.9558 9.28125H8.95982Z" fill="black"/>
</svg>
