<svg width="81" height="106" viewBox="0 0 81 106" fill="none" xmlns="http://www.w3.org/2000/svg">
<path d="M79.6622 13.3999C79.2748 13.1006 78.8237 12.8943 78.3438 12.7969C77.8638 12.6995 77.3679 12.7137 76.8943 12.8384C74.213 13.5366 71.4533 13.889 68.6824 13.8869C63.8414 13.8961 59.0603 12.8176 54.6931 10.7313C50.3258 8.64499 46.4842 5.60428 43.4524 1.83424C43.1635 1.46432 42.7965 1.16261 42.3775 0.950604C41.9585 0.738597 41.4979 0.621517 41.0284 0.607706C40.5589 0.593895 40.0922 0.683693 39.6614 0.870701C39.2307 1.05771 38.8465 1.33732 38.5363 1.68962C38.498 1.73215 38.4512 1.78745 38.3958 1.85764C35.3642 5.62019 31.5252 8.65451 27.1624 10.7366C22.7996 12.8186 18.0244 13.8952 13.1893 13.8869C10.3448 13.8888 7.51228 13.5177 4.76444 12.7831C4.29113 12.6562 3.79493 12.6397 3.31425 12.7351C2.83356 12.8304 2.38129 13.035 1.99244 13.3329C1.6036 13.6309 1.28861 14.0142 1.07187 14.4533C0.85513 14.8923 0.74245 15.3753 0.742554 15.8649V65.2496C0.742554 87.326 18.7229 105.287 40.823 105.287C62.9231 105.287 80.9034 87.326 80.9034 65.2496V15.9244C80.9034 15.4369 80.7915 14.9558 80.5763 14.5181C80.3612 14.0805 80.0484 13.698 79.6622 13.3999ZM55.4393 63.0122C55.7439 63.3069 55.9867 63.6593 56.1535 64.0488C56.3203 64.4382 56.4078 64.8569 56.4108 65.2805C56.4139 65.7041 56.3325 66.1241 56.1714 66.5159C56.0102 66.9077 55.7726 67.2636 55.4723 67.5627C55.1721 67.8618 54.8152 68.0981 54.4225 68.258C54.0298 68.4179 53.6091 68.498 53.1851 68.4937C52.7611 68.4894 52.3421 68.4009 51.9527 68.2331C51.5633 68.0654 51.2113 67.8219 50.9171 67.5168L40.9529 57.5357L30.961 67.4892C30.6659 67.7934 30.3132 68.0359 29.9233 68.2026C29.5334 68.3692 29.1143 68.4566 28.6902 68.4597C28.2662 68.4627 27.8458 68.3814 27.4535 68.2204C27.0613 68.0595 26.7051 67.8221 26.4056 67.5221C26.1062 67.2222 25.8696 66.8657 25.7095 66.4734C25.5495 66.0811 25.4693 65.6609 25.4736 65.2374C25.4779 64.8138 25.5665 64.3953 25.7344 64.0063C25.9023 63.6174 26.1461 63.2657 26.4515 62.9718L36.4434 53.0183L26.3664 42.9287C26.0618 42.6339 25.819 42.2816 25.6522 41.8921C25.4854 41.5027 25.3979 41.0839 25.3948 40.6603C25.3918 40.2368 25.4732 39.8168 25.6343 39.425C25.7954 39.0332 26.0331 38.6773 26.3334 38.3782C26.6336 38.0791 26.9905 37.8427 27.3832 37.6829C27.7759 37.523 28.1966 37.4429 28.6206 37.4472C29.0446 37.4514 29.4636 37.54 29.8529 37.7077C30.2423 37.8755 30.5944 38.119 30.8886 38.424L40.9635 48.5137L51.064 38.4496C51.6671 37.8692 52.4743 37.5488 53.3117 37.5572C54.1491 37.5656 54.9497 37.9023 55.541 38.4946C56.1323 39.087 56.4671 39.8876 56.4731 40.7242C56.4792 41.5607 56.1561 42.3661 55.5735 42.9669L45.4751 53.031L55.4393 63.0122Z" fill="#FF8403" fill-opacity="0.13"/>
</svg>
