<svg width="15" height="16" viewBox="0 0 15 16" fill="none" xmlns="http://www.w3.org/2000/svg">
<g clip-path="url(#clip0_762_5806)">
<path d="M8.02252 0.51756C6.95099 0.442586 5.87586 0.598651 4.86988 0.975196C3.86389 1.35174 2.95053 1.93998 2.19159 2.70011C1.43264 3.46023 0.845832 4.37452 0.470858 5.38109C0.0958833 6.38766 -0.0585041 7.46303 0.0181422 8.53444C0.293767 12.5051 3.80127 15.5001 8.17689 15.5001H11.875C12.7035 15.4991 13.4978 15.1695 14.0836 14.5837C14.6695 13.9978 14.999 13.2036 15 12.3751V8.21256C15.0233 6.28596 14.317 4.42187 13.0227 2.99454C11.7285 1.56722 9.9422 0.682334 8.02252 0.51756ZM7.50002 3.62506C7.74866 3.62506 7.98711 3.72383 8.16293 3.89965C8.33875 4.07546 8.43752 4.31392 8.43752 4.56256C8.43752 4.8112 8.33875 5.04966 8.16293 5.22547C7.98711 5.40129 7.74866 5.50006 7.50002 5.50006C7.25138 5.50006 7.01292 5.40129 6.8371 5.22547C6.66129 5.04966 6.56252 4.8112 6.56252 4.56256C6.56252 4.31392 6.66129 4.07546 6.8371 3.89965C7.01292 3.72383 7.25138 3.62506 7.50002 3.62506ZM8.75002 11.7501C8.75002 11.9158 8.68417 12.0748 8.56696 12.192C8.44975 12.3092 8.29078 12.3751 8.12502 12.3751C7.95926 12.3751 7.80029 12.3092 7.68308 12.192C7.56587 12.0748 7.50002 11.9158 7.50002 11.7501V8.00006H6.87502C6.70926 8.00006 6.55029 7.93421 6.43308 7.817C6.31587 7.69979 6.25002 7.54082 6.25002 7.37506C6.25002 7.2093 6.31587 7.05033 6.43308 6.93312C6.55029 6.81591 6.70926 6.75006 6.87502 6.75006H7.50002C7.83154 6.75006 8.14948 6.88176 8.3839 7.11618C8.61832 7.3506 8.75002 7.66854 8.75002 8.00006V11.7501Z" fill="#828282"/>
</g>
<defs>
<clipPath id="clip0_762_5806">
<rect width="15" height="15" fill="white" transform="translate(0 0.5)"/>
</clipPath>
</defs>
</svg>
