<svg width="14" height="18" viewBox="0 0 14 18" fill="none" xmlns="http://www.w3.org/2000/svg">
<path d="M0.103 17.1702H13.4359C13.4921 17.1702 13.5391 17.1249 13.5391 17.0671L13.5382 3.77772H10.3767C10.0271 3.77772 9.74125 3.49267 9.74125 3.14474L9.74209 0H0.103122C0.0469497 0 0 0.0452737 0 0.103123V17.0671C0 17.125 0.0451515 17.1702 0.103 17.1702ZM6.29696 5.16604H12.2529C12.4013 5.16604 12.5187 5.28425 12.5187 5.43181C12.5187 5.58021 12.4005 5.69759 12.2529 5.69759H6.29696C6.15108 5.69759 6.03119 5.57937 6.03119 5.43181C6.03119 5.28342 6.1494 5.16604 6.29696 5.16604ZM6.29696 6.42782H12.2529C12.4013 6.42782 12.5187 6.54603 12.5187 6.69359C12.5187 6.84199 12.4005 6.95937 12.2529 6.95937H6.29696C6.15108 6.95937 6.03119 6.84115 6.03119 6.69359C6.03119 6.5452 6.1494 6.42782 6.29696 6.42782ZM3.4188 4.62528L2.97864 4.51378L2.67597 4.43664C2.15616 4.30334 1.79397 3.83802 1.79397 3.30145C1.79397 2.69613 2.25761 2.19392 2.84784 2.13608V1.31446C2.84784 1.16858 2.96605 1.04869 3.11362 1.04869C3.26201 1.04869 3.37939 1.1669 3.37939 1.31446V2.13022H4.16916C4.31504 2.13022 4.43493 2.24844 4.43493 2.396C4.43493 2.54439 4.31672 2.66177 4.16916 2.66177H2.9669C2.6131 2.66177 2.32552 2.94933 2.32552 3.30315C2.32552 3.59742 2.52338 3.85229 2.80844 3.92355L3.2486 4.03506L3.55126 4.11219C4.07107 4.24549 4.43326 4.71081 4.43326 5.24738C4.43326 5.85437 3.96962 6.35238 3.37939 6.41275V7.23437C3.37939 7.38025 3.26118 7.50014 3.11362 7.50014C2.96522 7.50014 2.84784 7.38193 2.84784 7.23437V6.41861H2.05807C1.91219 6.41861 1.7923 6.3004 1.7923 6.15284C1.7923 6.00444 1.91051 5.88706 2.05807 5.88706H3.26034C3.61413 5.88706 3.90171 5.5995 3.90171 5.24736C3.90171 4.95308 3.70385 4.69821 3.4188 4.62696V4.62528ZM1.01925 8.74593C1.01925 8.43069 1.27496 8.17498 1.5902 8.17498H11.946C12.2613 8.17498 12.517 8.43069 12.517 8.74593V15.5477C12.517 15.863 12.2613 16.1187 11.946 16.1187H1.59192C1.27667 16.1187 1.02097 15.8613 1.02097 15.5477V8.74593H1.01925Z" fill="#FF1901"/>
<path d="M10.3767 3.24532H13.1626L10.2734 0.356201V3.14208C10.2734 3.19993 10.3188 3.24532 10.3767 3.24532Z" fill="#FF1901"/>
<path d="M3.68351 8.7074H1.59089C1.56741 8.7074 1.5498 8.72417 1.5498 8.74848V9.99517H3.68351L3.68351 8.7074Z" fill="#FF1901"/>
<path d="M11.987 8.7486C11.987 8.7268 11.9702 8.70752 11.9459 8.70752H4.21582V9.99529H11.9877V8.7486L11.987 8.7486Z" fill="#FF1901"/>
<path d="M1.55176 10.5277H3.68547V11.8842H1.55176V10.5277Z" fill="#FF1901"/>
<path d="M1.55176 12.414H3.68547V13.7705H1.55176V12.414Z" fill="#FF1901"/>
<path d="M1.59186 15.5907H3.68449V14.303H1.55078V15.5497C1.55078 15.5715 1.56755 15.5907 1.59186 15.5907Z" fill="#FF1901"/>
<path d="M11.9869 15.5495V14.3029H4.21582V15.5906H11.9467C11.9702 15.5906 11.9878 15.5739 11.9878 15.5495L11.9869 15.5495Z" fill="#FF1901"/>
<path d="M4.21582 12.414H11.9877V13.7705H4.21582V12.414Z" fill="#FF1901"/>
<path d="M4.21582 10.5277H11.9877V11.8842H4.21582V10.5277Z" fill="#FF1901"/>
</svg>
