<svg width="85" height="86" viewBox="0 0 85 86" fill="none" xmlns="http://www.w3.org/2000/svg">
<path d="M43.8867 73.7694L37.534 83.6206C37.313 83.6608 37.092 83.6849 36.871 83.6969C34.8257 83.6929 33.0336 82.3304 32.4752 80.3609L38.8199 70.5218C39.9168 70.357 41.0338 70.5902 41.9701 71.189C42.8983 71.7919 43.5773 72.7084 43.8867 73.7694ZM27.8141 79.0306V79.0346C28.5575 79.5129 29.4174 79.7661 30.3014 79.7742C30.5224 79.7661 30.7474 79.738 30.9644 79.6978L37.3934 69.6537C37.1041 68.5886 36.429 67.6642 35.4968 67.0614C34.5646 66.4625 33.4435 66.2254 32.3466 66.3861L25.9175 76.4382C26.2229 77.5074 26.906 78.4278 27.8382 79.0346L27.8141 79.0306ZM25.4676 74.1553L31.0729 65.5179C30.7715 64.4488 30.0964 63.5284 29.1642 62.9256C27.0266 61.547 24.1736 62.1579 22.7914 64.2961L20.9713 67.1136H20.9672C20.0511 68.5324 19.9788 70.337 20.7824 71.8201C21.586 73.3032 23.1371 74.2276 24.8247 74.2317C25.0497 74.2237 25.2707 74.1995 25.4917 74.1553L25.4676 74.1553ZM50.3597 78.2267V78.2307C50.1066 77.033 49.3833 75.988 48.3547 75.3248C47.4225 74.726 46.3014 74.4888 45.2045 74.6617L40.0412 82.668C40.5836 84.6414 42.3837 86.012 44.433 85.9999C44.7665 85.9999 45.096 85.9638 45.4215 85.8914C46.6189 85.6462 47.6676 84.9228 48.3225 83.8898L49.749 81.6833V81.6793C50.4079 80.6584 50.6329 79.4165 50.3798 78.2307L50.3597 78.2267ZM49.5681 44.6261V44.6301C49.2588 44.5015 48.9333 44.405 48.6038 44.3488L32.5312 55.988C35.8703 58.5844 40.2501 59.4285 44.3164 58.2628L51.5169 56.1206V56.1166C51.746 56.0563 51.9911 56.0965 52.192 56.2251L67.7708 66.5905L73.7498 62.7763V62.7723C74.1194 62.5512 74.248 62.0809 74.0511 61.7031L65.9385 44.34C65.8421 44.135 65.6653 43.9782 65.4483 43.9099C65.2233 43.8456 64.9822 43.8778 64.7813 43.9943L59.0595 47.5956C58.4125 47.9894 57.617 48.0497 56.9178 47.7563L49.5681 44.6261ZM48.7002 70.1682C48.3426 69.9029 48.2703 69.4005 48.5395 69.0427C48.8047 68.689 49.307 68.6167 49.6646 68.882L59.5974 76.3859C61.1926 75.8915 62.2776 74.4124 62.2735 72.7404L52.3608 65.2365L52.3648 65.2405C52.0072 64.9712 51.9349 64.4688 52.2041 64.115C52.4693 63.7975 52.9274 63.7252 53.273 63.9543L63.1937 71.4582L63.1978 71.4542C63.9652 71.2291 64.6402 70.7629 65.1265 70.1278C65.7292 69.3119 65.9944 68.291 65.8537 67.2862L51.6574 57.7807L44.8106 59.8065C39.8562 61.2373 34.5118 59.9954 30.6986 56.5268C30.5218 56.366 30.4254 56.1329 30.4414 55.8917C30.4535 55.6506 30.574 55.4255 30.7709 55.2808L42.1621 47.0414L39.1847 45.0036C38.0637 44.2319 36.6292 44.0912 35.3796 44.6298L28.1027 47.7608V47.7568C27.4036 48.0502 26.608 47.9899 25.9611 47.596L20.2393 43.9948C20.0384 43.8782 19.7973 43.8461 19.5763 43.9104C19.3593 43.9787 19.1785 44.1354 19.082 44.3404L10.9172 61.7684C10.7203 62.1462 10.8489 62.6164 11.2185 62.8375L18.9093 67.6606C19.074 67.1462 19.3031 66.6558 19.5964 66.2056L21.4166 63.3881V63.3841C22.7024 61.3705 25.0289 60.2732 27.3996 60.5626C29.7743 60.856 31.7633 62.4878 32.5187 64.7586H33.1094C34.2907 64.7506 35.4479 65.0922 36.4405 65.7313C37.6057 66.4949 38.4777 67.6284 38.9156 68.9467C39.1165 68.9387 39.3174 68.9387 39.5143 68.9467C42.1261 68.9266 44.4606 70.5624 45.3325 73.0222C45.5254 73.0101 45.7182 73.0101 45.9111 73.0222C48.8322 73.0181 51.3517 75.064 51.9544 77.9176C52.1151 78.7375 52.1151 79.5776 51.9544 80.3934L52.4245 80.7591H52.4285C53.0955 81.2575 53.9072 81.5228 54.743 81.5188H55.3015H55.2975C57.19 81.2374 58.5923 79.6176 58.6004 77.7046L48.7002 70.1682ZM73.2992 37.3187H11.6691C10.2747 37.3187 8.9126 36.8926 7.76741 36.0968L2.83712 32.7085V68.1859C2.84515 71.0999 5.20783 73.4632 8.12095 73.4712H19.9822C19.3916 72.7277 18.9777 71.8555 18.7728 70.931C18.6562 70.3924 18.608 69.8418 18.6321 69.2911C18.4312 69.2429 18.2424 69.1705 18.0656 69.066L10.3387 64.1344C9.32613 63.4833 8.94839 62.1851 9.4507 61.0919L17.5633 43.6639H17.5593C17.8486 43.0329 18.3951 42.5586 19.062 42.3657C19.283 42.3014 19.5161 42.2692 19.7451 42.2692C20.1951 42.2692 20.6371 42.3978 21.0229 42.635L26.7648 46.2242C26.8853 46.2965 27.0219 46.3327 27.1626 46.3327C27.263 46.3488 27.3675 46.3488 27.472 46.3327L34.7368 43.2017C35.4319 42.8962 36.1833 42.7395 36.9427 42.7395C38.0678 42.7395 39.1688 43.0771 40.0929 43.7161L43.0703 45.7539H43.0744C43.223 45.8625 43.3556 45.9911 43.4681 46.1398L47.6792 43.0088C47.9524 42.8038 48.2819 42.6953 48.6235 42.6993H48.8605C49.3266 42.7676 49.7847 42.9043 50.2186 43.0932L57.4834 46.2885C57.5839 46.3126 57.6843 46.3126 57.7848 46.2885C57.9254 46.2925 58.0621 46.2523 58.1826 46.18L63.9125 42.635C64.4991 42.2693 65.2143 42.1728 65.8733 42.3657C66.5403 42.5586 67.0868 43.0329 67.376 43.6639L75.4886 61.0919H75.4846C75.9949 62.1771 75.6292 63.4713 74.6287 64.1344L68.6497 67.9486C68.3926 68.1174 68.0912 68.2059 67.7818 68.2059H67.5689C67.5005 69.2549 67.1309 70.2637 66.496 71.0997C65.845 71.9719 64.945 72.619 63.9123 72.9566C63.9244 73.1254 63.9244 73.2983 63.9123 73.4711H76.8465C79.7596 73.4631 82.1223 71.0997 82.1303 68.1858V32.7084L77.2001 36.0967C76.0549 36.8925 74.6936 37.3187 73.2992 37.3187ZM18.6525 8.59308C18.6525 6.82055 20.095 5.37768 21.867 5.37768H23.1207C23.5145 7.58422 25.4272 9.19192 27.6653 9.20406H57.3468C59.5849 9.192 61.4976 7.58432 61.8873 5.37768H63.1411C64.9171 5.37768 66.3556 6.82055 66.3556 8.59308V12.8816H67.9628V8.59308C67.9628 5.95244 65.8252 3.81423 63.1853 3.81423H61.8874C61.4937 1.61171 59.581 0.00401281 57.3469 0H27.6212C25.387 0.00401899 23.4745 1.61171 23.0806 3.81423H21.8269C19.187 3.81423 17.0454 5.95244 17.0454 8.59308V12.8816H18.6526L18.6525 8.59308ZM77.4663 14.4451H7.4979C3.35525 14.4451 1.41573e-05 17.8052 1.41573e-05 21.9491V25.9804C-0.00400475 27.7167 0.847844 29.3445 2.28237 30.3293L8.71139 34.7545V34.7585C9.58734 35.3654 10.6321 35.691 11.7008 35.691H73.2991C74.368 35.691 75.4127 35.3654 76.2886 34.7585L82.7176 30.3333V30.3293C84.152 29.3445 85.004 27.7167 84.9999 25.9804V21.9692C85.008 19.9717 84.2164 18.0545 82.802 16.6397C81.3877 15.2289 79.467 14.4372 77.47 14.4452L77.4663 14.4451Z" fill="#C5DDA7"/>
</svg>
