<svg width="20" height="20" viewBox="0 0 20 20" fill="none" xmlns="http://www.w3.org/2000/svg">
<g clip-path="url(#clip0_260_8610)">
<path d="M19.9642 1.21417L1.21417 19.9642L0.0358333 18.7858L18.7858 0.0358333L19.9642 1.21417ZM19.7975 8.71083C18.9525 7.83417 17.8683 7.195 16.6533 6.8825L8.54917 14.9867C9.28583 17.8675 11.8908 20 15.0008 20C16.8858 20 18.585 19.2142 19.7983 17.9558C17.7567 17.4075 16.2508 15.5483 16.2508 13.3333C16.2508 11.1183 17.755 9.25917 19.7975 8.71083ZM3.31917 10.5742L1.79083 12.1025L2.96917 13.2808L13.2817 2.96917L12.1033 1.79083L10.575 3.31917C9.92 2.845 9.16833 2.535 8.37 2.40667V0H6.70333V2.41167C5.90583 2.54 5.15667 2.85 4.5025 3.32333L2.56917 1.39083L1.39083 2.56917L3.32333 4.50167C2.8575 5.14583 2.54833 5.8825 2.41667 6.66667H0V8.33333H2.40167C2.52583 9.145 2.83833 9.91 3.31917 10.5742Z" fill="black"/>
</g>
<defs>
<clipPath id="clip0_260_8610">
<rect width="20" height="20" fill="white"/>
</clipPath>
</defs>
</svg>
