<svg width="15" height="21" viewBox="0 0 15 21" fill="none" xmlns="http://www.w3.org/2000/svg">
<path d="M10.4666 7.00378C10.4666 7.55723 10.2925 8.09825 9.96621 8.55842C9.63996 9.0186 9.17623 9.37726 8.63369 9.58905C8.09114 9.80085 7.49414 9.85626 6.91817 9.74829C6.34221 9.64032 5.81315 9.37381 5.39791 8.98246C4.98266 8.59112 4.69987 8.09251 4.58531 7.5497C4.47074 7.00689 4.52954 6.44425 4.75427 5.93293C4.979 5.42161 5.35957 4.98458 5.84785 4.6771C6.33612 4.36963 6.91018 4.20551 7.49743 4.20551C8.28449 4.20679 9.03892 4.50202 9.59546 5.02652C10.152 5.55102 10.4653 6.26203 10.4666 7.00378ZM15 7.06914C14.9942 8.36448 14.6132 9.63374 13.898 10.7399C13.1828 11.8461 12.1606 12.7472 10.9418 13.3459L7.49743 21L4.05308 13.3459C2.87079 12.7693 1.87265 11.9065 1.16114 10.8462C0.449636 9.78582 0.0504138 8.5661 0.00446914 7.31226C-0.0414755 6.05842 0.267513 4.81565 0.899707 3.71156C1.5319 2.60748 2.46451 1.68186 3.60178 1.02978C4.73905 0.377689 6.03999 0.0226252 7.371 0.00104592C8.70201 -0.0205333 10.0151 0.29215 11.1755 0.906986C12.3359 1.52182 13.3018 2.41665 13.9739 3.49959C14.646 4.58253 15.0002 5.81456 15 7.06914ZM11.7509 7.00378C11.7509 6.21096 11.5014 5.43594 11.034 4.77672C10.5667 4.11751 9.90236 3.60372 9.12515 3.30032C8.34794 2.99692 7.49271 2.91753 6.66763 3.07221C5.84255 3.22688 5.08466 3.60866 4.48981 4.16927C3.89495 4.72989 3.48986 5.44415 3.32574 6.22175C3.16162 6.99934 3.24585 7.80533 3.56778 8.53781C3.88971 9.27029 4.43488 9.89634 5.13436 10.3368C5.83383 10.7773 6.65618 11.0124 7.49743 11.0124C8.62509 11.0111 9.70618 10.5884 10.5036 9.83688C11.3009 9.0854 11.7495 8.06654 11.7509 7.00378Z" fill="#FF1901"/>
</svg>
