<svg width="25" height="26" viewBox="0 0 25 26" fill="none" xmlns="http://www.w3.org/2000/svg">
<ellipse cx="12.5" cy="13" rx="12.5" ry="13" fill="#FF1901"/>
<path d="M6.65 8.02176C5.73407 8.02176 5 8.79326 5 9.70853V17.3075C5 18.2228 5.73407 19 6.65 19H18.75C19.6659 19 20.4 18.2228 20.4 17.3075V9.70853C20.4 8.79326 19.6659 8.02176 18.75 8.02176H6.65ZM6.73021 9.11958H18.6755L13.0266 14.4715C12.821 14.6663 12.591 14.6665 12.3849 14.4715L6.73021 9.11958ZM6.1 10.0344L9.84687 13.5795L6.1 17.3075V10.0344ZM19.3 10.0344V17.3075L15.5646 13.5738L19.3 10.0344ZM14.774 14.3285L18.3432 17.9022H7.0625L10.6432 14.3342L11.6286 15.2663C12.226 15.8313 13.1856 15.8322 13.7828 15.2663L14.774 14.3285Z" fill="white"/>
</svg>
