<svg width="13" height="13" viewBox="0 0 13 13" fill="none" xmlns="http://www.w3.org/2000/svg">
<g clip-path="url(#clip0_1560_21672)">
<path d="M5.54844 2.74994H3.875H3.02656H2.75V2.95619V3.87494V4.82181V6.90775L0.504688 5.24603C0.542188 4.82181 0.760156 4.42806 1.10703 4.1726L1.625 3.78822V2.74994C1.625 2.12885 2.12891 1.62494 2.75 1.62494H4.54531L5.71484 0.760095C5.94219 0.591345 6.21641 0.499939 6.5 0.499939C6.78359 0.499939 7.05781 0.591345 7.28516 0.757751L8.45469 1.62494H10.25C10.8711 1.62494 11.375 2.12885 11.375 2.74994V3.78822L11.893 4.1726C12.2398 4.42806 12.4578 4.82181 12.4953 5.24603L10.25 6.90775V4.82181V3.87494V2.95619V2.74994H9.97344H9.125H7.45156H5.54844ZM0.5 10.9999V6.17416L5.6 9.95228C5.86016 10.1445 6.17656 10.2499 6.5 10.2499C6.82344 10.2499 7.13984 10.1468 7.4 9.95228L12.5 6.17416V10.9999C12.5 11.8273 11.8273 12.4999 11 12.4999H2C1.17266 12.4999 0.5 11.8273 0.5 10.9999ZM4.625 4.24994H8.375C8.58125 4.24994 8.75 4.41869 8.75 4.62494C8.75 4.83119 8.58125 4.99994 8.375 4.99994H4.625C4.41875 4.99994 4.25 4.83119 4.25 4.62494C4.25 4.41869 4.41875 4.24994 4.625 4.24994ZM4.625 5.74994H8.375C8.58125 5.74994 8.75 5.91869 8.75 6.12494C8.75 6.33119 8.58125 6.49994 8.375 6.49994H4.625C4.41875 6.49994 4.25 6.33119 4.25 6.12494C4.25 5.91869 4.41875 5.74994 4.625 5.74994Z" fill="#FF1901"/>
</g>
<defs>
<clipPath id="clip0_1560_21672">
<rect width="12" height="12" fill="white" transform="translate(0.5 0.499939)"/>
</clipPath>
</defs>
</svg>
