<svg width="7" height="27" viewBox="0 0 7 27" fill="none" xmlns="http://www.w3.org/2000/svg">
<path fill-rule="evenodd" clip-rule="evenodd" d="M3.5 5.86224C4.77543 5.86224 5.81039 4.8181 5.81039 3.53141C5.81039 2.24353 4.7754 1.20059 3.5 1.20059C2.22341 1.20059 1.18961 2.24356 1.18961 3.53141C1.18961 4.81813 2.22344 5.86224 3.5 5.86224ZM3.5 15.8311C4.77543 15.8311 5.81039 14.787 5.81039 13.5003C5.81039 12.2136 4.7754 11.1695 3.5 11.1695C2.22341 11.1695 1.18961 12.2136 1.18961 13.5003C1.18961 14.787 2.22344 15.8311 3.5 15.8311ZM3.5 25.8C4.77543 25.8 5.81039 24.757 5.81039 23.4692C5.81039 22.1825 4.7754 21.1384 3.5 21.1384C2.22341 21.1384 1.18961 22.1825 1.18961 23.4692C1.18961 24.7571 2.22344 25.8 3.5 25.8ZM3.5 7.06192C5.43288 7.06192 7 5.48109 7 3.53096C7 1.58083 5.43303 0 3.5 0C1.56697 0 0 1.58083 0 3.53096C0 5.48109 1.56697 7.06192 3.5 7.06192ZM3.5 17.0308C5.43288 17.0308 7 15.45 7 13.4999C7 11.5497 5.43303 9.96889 3.5 9.96889C1.56697 9.96889 0 11.5497 0 13.4999C0 15.45 1.56697 17.0308 3.5 17.0308ZM7 23.469C7 25.419 5.43303 27 3.5 27C1.56697 27 0 25.4192 0 23.469C0 21.5189 1.56697 19.9381 3.5 19.9381C5.43303 19.9381 7 21.5189 7 23.469Z" fill="black"/>
</svg>
