<svg width="20" height="23" viewBox="0 0 20 23" fill="none" xmlns="http://www.w3.org/2000/svg">
<path d="M15.2408 2.56047V0.831321C15.2408 0.376866 14.864 0 14.4095 0C13.9551 0 13.5782 0.376866 13.5782 0.831321V2.49396H6.37345V0.831321C6.37345 0.376866 5.99658 0 5.54213 0C5.08767 0 4.71081 0.376866 4.71081 0.831321V2.56047C1.71805 2.83758 0.266009 4.62215 0.044323 7.27129C0.0221544 7.59273 0.288177 7.85876 0.598537 7.85876H19.3531C19.6746 7.85876 19.9406 7.58165 19.9073 7.27129C19.6856 4.62215 18.2336 2.83758 15.2408 2.56047Z" fill="#5A5A5A"/>
<path opacity="0.4" d="M18.8433 9.52148C19.4529 9.52148 19.9517 10.0203 19.9517 10.6299V17.4578C19.9517 20.7831 18.2891 23 14.4096 23H5.54214C1.66264 23 0 20.7831 0 17.4578V10.6299C0 10.0203 0.498793 9.52148 1.10843 9.52148H18.8433Z" fill="#5A5A5A"/>
<path d="M6.09628 15.2405C5.80809 15.2405 5.5199 15.1186 5.3093 14.9191C5.10978 14.7085 4.98785 14.4203 4.98785 14.1321C4.98785 13.8439 5.10978 13.5557 5.3093 13.3451C5.61966 13.0348 6.10737 12.935 6.51749 13.1123C6.66158 13.1678 6.78351 13.2454 6.88327 13.3451C7.08278 13.5557 7.20471 13.8439 7.20471 14.1321C7.20471 14.4203 7.08278 14.7085 6.88327 14.9191C6.67267 15.1186 6.38447 15.2405 6.09628 15.2405Z" fill="#5A5A5A"/>
<path d="M9.97586 15.241C9.68767 15.241 9.39948 15.1191 9.18888 14.9196C8.98936 14.709 8.86743 14.4208 8.86743 14.1326C8.86743 13.8444 8.98936 13.5562 9.18888 13.3456C9.28863 13.2458 9.41056 13.1683 9.55466 13.1128C9.96478 12.9355 10.4525 13.0352 10.7628 13.3456C10.9624 13.5562 11.0843 13.8444 11.0843 14.1326C11.0843 14.4208 10.9624 14.709 10.7628 14.9196C10.7074 14.9639 10.652 15.0082 10.5966 15.0526C10.5301 15.0969 10.4636 15.1302 10.3971 15.1523C10.3306 15.1856 10.2641 15.2078 10.1975 15.2188C10.12 15.2299 10.0535 15.241 9.97586 15.241Z" fill="#5A5A5A"/>
<path d="M13.8551 15.2408C13.5669 15.2408 13.2787 15.1189 13.0681 14.9193C12.8686 14.7087 12.7466 14.4205 12.7466 14.1324C12.7466 13.8442 12.8686 13.556 13.0681 13.3454C13.1789 13.2456 13.2898 13.168 13.4339 13.1126C13.6334 13.0239 13.8551 13.0018 14.0768 13.0461C14.1433 13.0572 14.2098 13.0793 14.2763 13.1126C14.3428 13.1348 14.4093 13.168 14.4758 13.2124C14.5312 13.2567 14.5866 13.301 14.6421 13.3454C14.8416 13.556 14.9635 13.8442 14.9635 14.1324C14.9635 14.4205 14.8416 14.7087 14.6421 14.9193C14.5866 14.9637 14.5312 15.008 14.4758 15.0523C14.4093 15.0967 14.3428 15.1299 14.2763 15.1521C14.2098 15.1854 14.1433 15.2075 14.0768 15.2186C13.9992 15.2297 13.9216 15.2408 13.8551 15.2408Z" fill="#5A5A5A"/>
<path d="M6.09628 19.1202C5.95219 19.1202 5.80809 19.0869 5.67508 19.0315C5.53098 18.9761 5.42014 18.8985 5.3093 18.7987C5.10978 18.5881 4.98785 18.2999 4.98785 18.0117C4.98785 17.7236 5.10978 17.4354 5.3093 17.2248C5.42014 17.125 5.53098 17.0474 5.67508 16.992C5.8746 16.9033 6.09628 16.8812 6.31797 16.9255C6.38447 16.9366 6.45098 16.9587 6.51749 16.992C6.58399 17.0142 6.6505 17.0474 6.717 17.0918L6.88327 17.2248C7.08278 17.4354 7.20471 17.7236 7.20471 18.0117C7.20471 18.2999 7.08278 18.5881 6.88327 18.7987C6.82785 18.8431 6.77242 18.8985 6.717 18.9317C6.6505 18.9761 6.58399 19.0093 6.51749 19.0315C6.45098 19.0648 6.38447 19.0869 6.31797 19.098C6.24038 19.1091 6.17387 19.1202 6.09628 19.1202Z" fill="#5A5A5A"/>
<path d="M9.97586 19.1204C9.68767 19.1204 9.39948 18.9984 9.18888 18.7989C8.98936 18.5883 8.86743 18.3001 8.86743 18.0119C8.86743 17.7238 8.98936 17.4357 9.18888 17.2251C9.59899 16.815 10.3527 16.815 10.7628 17.2251C10.9624 17.4357 11.0843 17.7238 11.0843 18.0119C11.0843 18.3001 10.9624 18.5883 10.7628 18.7989C10.5522 18.9984 10.2641 19.1204 9.97586 19.1204Z" fill="#5A5A5A"/>
<path d="M13.8551 19.1204C13.5669 19.1204 13.2787 18.9984 13.0681 18.7989C12.8686 18.5883 12.7466 18.3001 12.7466 18.0119C12.7466 17.7238 12.8686 17.4357 13.0681 17.2251C13.4782 16.815 14.2319 16.815 14.6421 17.2251C14.8416 17.4357 14.9635 17.7238 14.9635 18.0119C14.9635 18.3001 14.8416 18.5883 14.6421 18.7989C14.4315 18.9984 14.1433 19.1204 13.8551 19.1204Z" fill="#5A5A5A"/>
</svg>
