<svg width="103" height="106" viewBox="0 0 103 106" fill="none" xmlns="http://www.w3.org/2000/svg">
<path d="M100.928 54.9539C100.604 53.6492 100.604 52.3444 100.928 51.0461L102.719 44.6942C103.367 42.4158 102.719 39.8062 101.258 38.0113L96.8689 33.1233C96.0559 32.1431 95.408 31.0038 95.2428 29.6991L94.1058 23.1817C93.6167 20.7377 92.1558 18.7837 89.8754 17.8035L83.8601 15.194C82.7231 14.7039 81.5861 13.8892 80.7731 12.75L77.0318 7.37181C75.5708 5.41789 73.2904 4.27866 70.8513 4.43768L64.3469 4.76228C63.0447 4.76228 61.7425 4.5968 60.6055 3.94761L54.9142 0.854453C52.7989 -0.284818 50.2011 -0.284818 48.0858 0.854453L42.3945 3.94761C41.2575 4.5968 39.9553 4.92775 38.6531 4.76228L32.1487 4.43768C29.7096 4.43768 27.4356 5.41783 25.9682 7.37181L22.2269 12.75C21.4139 13.8892 20.4356 14.7039 19.1399 15.194L13.1246 17.8035C10.8507 18.7837 9.38331 20.7377 8.89418 23.1817L7.75717 29.6991C7.59203 31.0038 6.94412 32.1431 6.13107 33.1233L1.7419 38.0113C0.115795 39.8062 -0.373335 42.2502 0.280943 44.6942L2.07225 51.0461C2.39621 52.3508 2.39621 53.6557 2.07225 54.9539L0.280943 61.3058C-0.366961 63.5842 0.280942 66.1938 1.7419 67.9887L6.13107 72.8767C6.94412 73.8569 7.59203 74.9962 7.75717 76.3009L8.89418 82.8183C9.38328 85.2624 10.8442 87.2163 13.1246 88.1965L19.1399 90.806C20.2769 91.2961 21.4139 92.1108 22.2269 93.2501L25.9682 98.6282C27.4292 100.582 29.7096 101.721 32.1487 101.562L38.6531 101.238C39.9553 101.238 41.2575 101.403 42.3945 102.052L48.0858 105.146C50.2011 106.285 52.7989 106.285 54.9142 105.146L60.6055 102.052C61.7425 101.403 63.0447 101.072 64.3469 101.238L70.8513 101.562C73.2904 101.562 75.5644 100.582 77.0318 98.6282L80.7731 93.2501C81.5861 92.1108 82.5644 91.2962 83.8601 90.806L89.8754 88.1965C92.1493 87.2163 93.6167 85.2624 94.1058 82.8183L95.2428 76.3009C95.408 74.9962 96.0559 73.8569 96.8689 72.8767L101.258 67.9887C102.884 66.1938 103.373 63.7498 102.719 61.3058L100.928 54.9539ZM42.2287 67.3395H41.2505C39.1353 55.285 29.7026 45.8338 17.672 43.714V42.7339C29.7026 40.6144 39.135 31.1629 41.2505 19.1084H42.2287C44.3439 31.1629 53.7766 40.6141 65.8072 42.7339V43.714C53.7766 45.8335 44.3443 55.285 42.2287 67.3395ZM85.1545 70.4327C78.161 71.7374 72.4697 77.2746 71.3327 84.2821H70.8436C69.5414 77.2746 64.0153 71.5719 57.0217 70.4327V69.9426C64.0153 68.6379 69.7066 63.1007 70.8436 56.0932H71.3327C72.6348 63.1007 78.161 68.8034 85.1545 69.9426V70.4327Z" fill="#1F9254" fill-opacity="0.34"/>
</svg>
