<svg width="27" height="29" viewBox="0 0 27 29" fill="none" xmlns="http://www.w3.org/2000/svg">
<g clip-path="url(#clip0_649_3934)">
<path d="M12.1004 1.34375C11.1443 1.34375 10.3718 2.11623 10.3718 3.07237V4.10955C6.42839 4.90904 3.45731 8.3987 3.45731 12.5798V13.5954C3.45731 16.1343 2.52278 18.5868 0.837367 20.4883L0.437623 20.9366C-0.0161412 21.4444 -0.12418 22.1737 0.151319 22.7949C0.426819 23.4161 1.04804 23.8159 1.72869 23.8159H22.4722C23.1528 23.8159 23.7687 23.4161 24.0496 22.7949C24.3305 22.1737 24.217 21.4444 23.7633 20.9366L23.3635 20.4883C21.6781 18.5868 20.7436 16.1397 20.7436 13.5954V12.5798C20.7436 8.3987 17.7725 4.90904 13.8291 4.10955V3.07237C13.8291 2.11623 13.0566 1.34375 12.1004 1.34375ZM14.5475 27.9916C15.1958 27.3433 15.5577 26.4628 15.5577 25.5445H12.1004H8.64319C8.64319 26.4628 9.00512 27.3433 9.65335 27.9916C10.3016 28.6398 11.1821 29.0017 12.1004 29.0017C13.0188 29.0017 13.8993 28.6398 14.5475 27.9916Z" fill="#FF1901"/>
</g>
<circle cx="20.855" cy="5.85502" r="5.85502" fill="#FF8403"/>
<path d="M20.992 10V2.08L21.508 2.644H19.096V1.6H22.18V10H20.992Z" fill="black"/>
<defs>
<clipPath id="clip0_649_3934">
<rect width="24.2007" height="27.658" fill="white" transform="translate(0 1.34375)"/>
</clipPath>
</defs>
</svg>
