<svg width="23" height="23" viewBox="0 0 23 23" fill="none" xmlns="http://www.w3.org/2000/svg">
<circle cx="11.5" cy="11.5" r="11" fill="white"/>
<path d="M17.5939 17H8.0333C7.92553 17 7.82222 16.9602 7.74604 16.8895C7.66987 16.8187 7.62704 16.7228 7.62704 16.6227C7.62834 15.7659 7.87514 14.9249 8.34205 14.1858C8.8089 13.4468 9.47917 12.8365 10.284 12.4175C10.4131 12.3505 10.5709 12.3527 10.698 12.4231C10.825 12.4935 10.9019 12.6215 10.8997 12.7589C10.8976 12.8962 10.8167 13.022 10.6875 13.089C10.0683 13.4106 9.54251 13.8671 9.1551 14.419C8.76782 14.971 8.53061 15.6021 8.4639 16.258H17.1712C17.0792 15.3277 16.6428 14.4558 15.9362 13.7907C15.8342 13.6946 15.7951 13.5551 15.8337 13.425C15.8723 13.2948 15.9828 13.1936 16.1234 13.1596C16.2642 13.1256 16.4138 13.1639 16.5158 13.26C17.4659 14.157 17.9988 15.3645 18 16.6227C18 16.7228 17.9572 16.8187 17.881 16.8895C17.8048 16.9602 17.7015 17 17.5937 17L17.5939 17ZM7.03128 15.7097H5.40626C5.29849 15.7097 5.19518 15.67 5.119 15.5992C5.04283 15.5285 5 15.4325 5 15.3325C5.00085 14.5899 5.21453 13.861 5.61908 13.2205C6.02365 12.58 6.60459 12.0511 7.30217 11.6881C7.42889 11.6207 7.58473 11.6212 7.71102 11.6894C7.83724 11.7577 7.91466 11.8833 7.91414 12.0189C7.91358 12.1546 7.83514 12.2796 7.70842 12.347C7.19688 12.6128 6.761 12.9882 6.43696 13.4417C6.11286 13.8953 5.90997 14.4142 5.84507 14.9552H7.04758C7.1927 14.9552 7.32682 15.0271 7.39938 15.1438C7.47199 15.2606 7.47199 15.4043 7.39938 15.5211C7.32682 15.6378 7.19269 15.7097 7.04758 15.7097L7.03128 15.7097ZM15.2592 13.1946C15.1866 13.1956 15.1152 13.1773 15.0534 13.1418L14.9477 13.089C14.8242 13.0219 14.7479 12.8994 14.7467 12.7665C14.7455 12.6336 14.8197 12.51 14.942 12.441C15.0644 12.3719 15.2167 12.3678 15.3432 12.4301L15.4732 12.498C15.5761 12.5547 15.6468 12.6507 15.6665 12.7602C15.6863 12.8698 15.653 12.982 15.5755 13.0666C15.4981 13.1514 15.3843 13.2 15.2646 13.1997L15.2592 13.1946ZM12.8217 12.5784C12.0825 12.5784 11.3736 12.3058 10.851 11.8204C10.3283 11.3351 10.0347 10.6768 10.0347 9.99036C10.0347 9.3039 10.3283 8.64563 10.851 8.16032C11.3736 7.67495 12.0825 7.40228 12.8217 7.40228C12.9668 7.40228 13.1009 7.47417 13.1735 7.5909C13.2461 7.70764 13.2461 7.85142 13.1735 7.96816C13.1009 8.08491 12.9668 8.15679 12.8217 8.15679C12.3556 8.15747 11.9048 8.31126 11.5491 8.5909C11.1934 8.87055 10.9557 9.25797 10.878 9.68475C10.8004 10.1115 10.8878 10.55 11.1248 10.9226C11.3618 11.2953 11.7331 11.5781 12.173 11.721C12.6129 11.8639 13.0931 11.8576 13.5286 11.7034C13.964 11.5491 14.3266 11.2568 14.5523 10.8781C14.6005 10.7842 14.6884 10.713 14.795 10.6812C14.9017 10.6495 15.0178 10.66 15.1158 10.7103C15.2138 10.7607 15.285 10.8465 15.3127 10.9473C15.3404 11.048 15.322 11.155 15.2619 11.2428C15.0187 11.647 14.6633 11.9833 14.2327 12.2168C13.8022 12.4503 13.3122 12.5725 12.8136 12.5708L12.8217 12.5784ZM9.49047 11.922C9.05148 11.9099 8.62418 11.7879 8.25377 11.5688C7.88329 11.3498 7.58345 11.0419 7.38591 10.6777C7.1883 10.3134 7.10039 9.90636 7.13143 9.49955C7.16247 9.09279 7.31126 8.70127 7.56206 8.36655C7.81292 8.03179 8.15648 7.76618 8.55648 7.59778C8.95647 7.42943 9.39799 7.3645 9.83444 7.40994C9.97956 7.4288 10.1028 7.51814 10.1578 7.64432C10.2128 7.77049 10.1911 7.91427 10.1009 8.02158C10.0108 8.12889 9.86582 8.18333 9.72069 8.16446C9.14015 8.12626 8.58171 8.37861 8.25587 8.82641C7.93001 9.27425 7.88611 9.84948 8.14076 10.3355C8.39546 10.8214 8.90999 11.1444 9.49054 11.1826C9.63566 11.1826 9.76978 11.2545 9.84233 11.3712C9.91495 11.4879 9.91495 11.6317 9.84233 11.7485C9.76977 11.8652 9.63565 11.9371 9.49054 11.9371L9.49047 11.922ZM15.2647 10.2445C15.1569 10.2445 15.0536 10.2047 14.9774 10.134C14.9013 10.0632 14.8584 9.96729 14.8584 9.8672V8.99949H13.9376C13.7925 8.99949 13.6584 8.9276 13.5858 8.81087C13.5132 8.69413 13.5132 8.55035 13.5858 8.43361C13.6584 8.31686 13.7925 8.24498 13.9376 8.24498H14.8584V7.37727C14.8584 7.2425 14.9359 7.11795 15.0616 7.05058C15.1873 6.98314 15.3421 6.98314 15.4678 7.05058C15.5935 7.11796 15.6709 7.24251 15.6709 7.37727V8.24498H16.6053C16.7504 8.24498 16.8846 8.31687 16.9571 8.43361C17.0297 8.55035 17.0297 8.69413 16.9571 8.81087C16.8846 8.92761 16.7504 8.99949 16.6053 8.99949H15.6709V9.8672C15.6709 9.96728 15.6281 10.0632 15.5519 10.134C15.4758 10.2047 15.3724 10.2445 15.2647 10.2445H15.2647Z" fill="#FF1901"/>
</svg>
