<svg width="99" height="97" viewBox="0 0 99 97" fill="none" xmlns="http://www.w3.org/2000/svg">
<path d="M49.5 0.348145C22.1618 0.348145 0 21.9843 0 48.6741C0 75.3638 22.1618 97 49.5 97C76.8382 97 99 75.3638 99 48.6741C99 21.9843 76.8382 0.348145 49.5 0.348145ZM83.5913 30.0021L50.9909 61.8291C49.7098 63.0799 47.5464 63.0103 46.3527 61.6801L32.5773 46.3373L37.3583 42.2459L48.8958 55.0963L79.0955 25.6129L83.5913 30.0021ZM49.5 82.3692C30.4692 82.3692 14.9862 67.2535 14.9862 48.6741C14.9862 30.0946 30.4692 14.9789 49.5 14.9789C57.4555 14.9789 65.2247 17.6959 71.3767 22.6293L67.3412 27.4257C62.3235 23.4019 55.9872 21.1859 49.4998 21.1859C33.9746 21.1859 21.3438 33.5171 21.3438 48.6741C21.3438 63.8311 33.9748 76.1622 49.5 76.1622C65.0252 76.1622 77.656 63.8311 77.656 48.6741C77.656 46.5205 77.399 44.3758 76.8921 42.2994L83.0767 40.8606C83.6984 43.4078 84.0136 46.0366 84.0136 48.6741C84.0138 67.2535 68.5308 82.3692 49.5 82.3692Z" fill="#28A745" fill-opacity="0.11"/>
</svg>
