<svg width="127" height="92" viewBox="0 0 127 92" fill="none" xmlns="http://www.w3.org/2000/svg">
<path d="M86.0247 8.93731L84.784 0.669922H78.9343L77.6937 8.93731H20.1177L18.8815 0.669922H13.0273L11.7911 8.93731H0V17.8391H97.8202V8.93731H86.0247Z" fill="#FF8403" fill-opacity="0.34"/>
<path d="M52.9551 71.0204C48.3416 63.8221 50.4487 54.2046 57.6515 49.597C60.1608 47.9882 63.0487 47.1439 66.015 47.1439C71.3309 47.1439 76.215 49.8203 79.0852 54.2934L81.8488 58.6141L93.6947 45.816V23.5202H4.12561V83.7105H61.0806L52.9551 71.0204Z" fill="#FF8403" fill-opacity="0.34"/>
<path d="M79.6056 92C79.3676 92 79.1295 91.9837 78.8855 91.9645C76.3821 91.7486 74.1226 90.3705 72.7593 88.2559L59.173 67.0396C56.7568 63.26 57.8599 58.2325 61.635 55.8148C65.4146 53.3971 70.4421 54.4929 72.8613 58.2739L80.7812 70.6387L112.912 35.9189C115.956 32.6274 121.098 32.4322 124.395 35.4798C127.687 38.5229 127.887 43.6673 124.836 46.9648L85.5648 89.3945C84.021 91.061 81.8547 92 79.6056 92Z" fill="#FF8403" fill-opacity="0.34"/>
</svg>
