<svg width="106" height="114" viewBox="0 0 106 114" fill="none" xmlns="http://www.w3.org/2000/svg">
<path d="M8.35395 28.3693C12.8508 25.3967 18.5723 24.8835 23.8828 25.1173C24.4926 25.1173 24.9804 24.6295 24.9804 24.0197C24.7416 18.715 25.2649 13.0088 28.2324 8.51166C29.6094 6.03208 33.1256 2.68851 35.021 0.564575C26.3219 1.68245 18.1314 5.72717 11.8304 12.0075C5.55002 18.3286 1.50532 26.54 0.367126 35.2189C2.51136 33.2982 5.88959 29.7565 8.35395 28.3693Z" fill="#A6A9B5" fill-opacity="0.36"/>
<path d="M42.9264 81.7227L42.0727 91.2755C42.0321 91.6973 42.4132 92.1038 42.8451 92.0885C42.9467 92.0885 43.0483 92.0682 43.1296 92.0275L51.971 88.2878C53.6885 87.5713 55.1113 86.2553 56.1376 84.6903C55.7159 84.3956 45.0605 76.6416 45.0605 76.6416C43.8766 78.0949 43.0687 79.8427 42.9264 81.7227Z" fill="#A6A9B5" fill-opacity="0.36"/>
<path d="M64.6537 83.3487C61.8642 87.0376 58.9475 92.2612 54.3489 93.8973L45.528 97.6574C41.2598 99.4156 35.6654 95.3557 35.9956 90.7672L36.8493 81.1739C37.0017 76.3365 41.0209 71.8854 43.6987 68.1256C48.0026 62.211 78.0371 20.8755 81.5636 16.0534V7.35436C81.5636 3.39096 78.3522 0.179688 74.3889 0.179688H43.7188L37.9465 6.37876C34.0847 10.1084 30.9446 14.4122 31.0767 20.0371V24.0208C31.0767 27.9842 27.845 31.2158 23.8818 31.2158H19.8778C11.4836 30.8296 5.81358 38.9443 0.0406499 43.8579L0 106.215C0 110.504 3.49589 114 7.78448 114H74.3891C78.3525 114 81.5638 110.768 81.5638 106.805V60.0986C77.8139 65.2408 68.4999 78.0561 64.6535 83.3504L64.6537 83.3487Z" fill="#A6A9B5" fill-opacity="0.36"/>
<path d="M103.84 32.0024L97.6866 27.5309C103.937 20.1377 93.205 11.1903 87.1481 18.7201C80.6187 27.7241 56.1072 61.4174 48.6328 71.7067C48.9885 71.9608 59.7099 79.7757 59.7099 79.7757C69.349 66.5193 84.4965 45.6753 94.1003 32.4644L99.5778 36.4431L87.6726 52.8201C85.3759 56.0569 90.1929 59.634 92.6014 56.4023L105 39.345C106.702 37.0025 106.178 33.7049 103.836 32.0027L103.84 32.0024Z" fill="#A6A9B5" fill-opacity="0.36"/>
</svg>
