<svg width="23" height="22" viewBox="0 0 23 22" fill="none" xmlns="http://www.w3.org/2000/svg">
<ellipse cx="11.9255" cy="11.2726" rx="11.0744" ry="10.7273" fill="#F5230C"/>
<path d="M14.4725 6.05515L13.2094 7.28051L16.0486 10.0299L17.3117 8.80672C17.8083 8.3258 17.8083 7.54842 17.3117 7.0675L16.2685 6.05515C15.7719 5.57423 14.9692 5.57423 14.4725 6.05515ZM12.6493 7.73069L12.4407 7.79218L9.17297 8.74084C8.7217 8.8726 8.36341 9.20639 8.21374 9.6412L6.20458 15.443C6.1184 15.6911 6.1819 15.9678 6.37012 16.1545L9.85327 12.7837C9.78524 12.6453 9.74669 12.4916 9.74669 12.3291C9.74669 11.7472 10.2342 11.275 10.8352 11.275C11.4361 11.275 11.9237 11.7472 11.9237 12.3291C11.9237 12.911 11.4361 13.3832 10.8352 13.3832C10.6674 13.3832 10.5086 13.3458 10.3658 13.28L6.88261 16.653C7.07763 16.8353 7.36109 16.8989 7.61734 16.8133L13.6108 14.8677C14.0575 14.7227 14.4045 14.3758 14.5406 13.9388L15.5202 10.7743L15.5837 10.5723L12.6493 7.73069Z" fill="white"/>
</svg>
