<svg width="25" height="25" viewBox="0 0 25 25" fill="none" xmlns="http://www.w3.org/2000/svg">
<circle cx="12.5" cy="12.5" r="12.5" fill="#FF961B" fill-opacity="0.1"/>
<path d="M15.375 6.42029L13.9493 7.84814L17.1539 11.0518L18.5796 9.62656C19.1401 9.06616 19.1401 8.16032 18.5796 7.59993L17.4022 6.42029C16.8416 5.8599 15.9355 5.8599 15.375 6.42029ZM13.3171 8.37271L13.0816 8.44436L9.39321 9.54979C8.88385 9.70332 8.47943 10.0923 8.3105 10.5989L6.0427 17.3595C5.94543 17.6486 6.0171 17.971 6.22955 18.1885L10.1611 14.2607C10.0843 14.0995 10.0408 13.9203 10.0408 13.731C10.0408 13.0529 10.5911 12.5027 11.2694 12.5027C11.9477 12.5027 12.498 13.0529 12.498 13.731C12.498 14.4091 11.9477 14.9592 11.2694 14.9592C11.08 14.9592 10.9008 14.9157 10.7396 14.839L6.80802 18.7694C7.02814 18.9818 7.34809 19.056 7.63732 18.9562L14.4023 16.689C14.9066 16.5201 15.2982 16.1158 15.4518 15.6066L16.5575 11.9193L16.6292 11.6839L13.3171 8.37271Z" fill="#FF1901"/>
</svg>
