<svg width="28" height="21" viewBox="0 0 28 21" fill="none" xmlns="http://www.w3.org/2000/svg">
<path d="M26.4472 21H6.36992C6.14361 21 5.92666 20.9164 5.76668 20.7679C5.60672 20.6194 5.51678 20.4179 5.51678 20.2077C5.51951 18.4084 6.03779 16.6424 7.0183 15.0902C7.99868 13.5383 9.40625 12.2567 11.0964 11.3767C11.3676 11.2361 11.699 11.2406 11.9657 11.3885C12.2326 11.5364 12.3941 11.8052 12.3894 12.0936C12.3849 12.3821 12.215 12.6463 11.9438 12.7869C10.6435 13.4623 9.53927 14.4208 8.72572 15.5799C7.91241 16.7391 7.41427 18.0644 7.27419 19.4419H25.5596C25.3664 17.4882 24.4498 15.6571 22.9661 14.2605C22.7517 14.0586 22.6696 13.7658 22.7507 13.4924C22.8318 13.2191 23.0638 13.0066 23.3592 12.9352C23.6547 12.8638 23.9689 12.9441 24.1832 13.1461C26.1783 15.0297 27.2976 17.5655 27.3 20.2077C27.3 20.4179 27.2101 20.6194 27.0501 20.7679C26.8901 20.9165 26.6732 21 26.4469 21L26.4472 21ZM4.26568 18.2904H0.853143C0.626826 18.2904 0.409877 18.2069 0.249898 18.0584C0.0899362 17.9098 0 17.7084 0 17.4982C0.00177737 15.9389 0.450515 14.408 1.30007 13.063C2.14965 11.718 3.36964 10.6073 4.83455 9.84496C5.10068 9.70345 5.42793 9.70455 5.69314 9.84782C5.95821 9.99119 6.12079 10.2549 6.11969 10.5397C6.11851 10.8246 5.9538 11.0873 5.68768 11.2287C4.61344 11.7869 3.6981 12.5751 3.01762 13.5276C2.337 14.4801 1.91093 15.5697 1.77464 16.7059H4.29992C4.60468 16.7059 4.88633 16.8569 5.03869 17.102C5.19119 17.3472 5.19119 17.6491 5.03869 17.8943C4.88631 18.1394 4.60465 18.2904 4.29992 18.2904L4.26568 18.2904ZM21.5443 13.0088C21.3918 13.0107 21.2418 12.9722 21.1121 12.8978L20.8903 12.7869C20.6309 12.646 20.4706 12.3887 20.4681 12.1097C20.4656 11.8306 20.6214 11.5709 20.8783 11.426C21.1352 11.2811 21.4551 11.2724 21.7206 11.4031L21.9937 11.5457C22.2098 11.6648 22.3584 11.8664 22.3997 12.0965C22.4412 12.3266 22.3713 12.5621 22.2086 12.7399C22.0459 12.9179 21.807 13.02 21.5557 13.0193L21.5443 13.0088ZM16.4255 11.7147C14.8733 11.7147 13.3846 11.1421 12.2871 10.1229C11.1895 9.1037 10.5729 7.72133 10.5729 6.27976C10.5729 4.83818 11.1895 3.45582 12.2871 2.43667C13.3846 1.4174 14.8732 0.844781 16.4255 0.844781C16.7303 0.844781 17.0119 0.995749 17.1643 1.24089C17.3168 1.48605 17.3168 1.78799 17.1643 2.03314C17.0119 2.2783 16.7303 2.42926 16.4255 2.42926C15.4468 2.43069 14.5002 2.75365 13.7532 3.34089C13.0062 3.92816 12.507 4.74173 12.3439 5.63798C12.1808 6.5341 12.3644 7.455 12.862 8.23756C13.3597 9.02012 14.1395 9.61398 15.0633 9.91406C15.9871 10.2141 16.9954 10.201 17.91 9.87709C18.8244 9.55315 19.5859 8.93926 20.0599 8.14405C20.1611 7.94687 20.3455 7.79724 20.5695 7.73053C20.7936 7.66385 21.0373 7.68597 21.2431 7.79171C21.4489 7.89756 21.5986 8.07757 21.6567 8.28929C21.7148 8.50088 21.6762 8.72546 21.55 8.90988C21.0392 9.75869 20.293 10.465 19.3887 10.9553C18.4847 11.4457 17.4556 11.7024 16.4085 11.6986L16.4255 11.7147ZM9.42998 10.3362C8.50811 10.3108 7.61078 10.0545 6.83291 9.59457C6.05491 9.13463 5.42524 8.48795 5.0104 7.72308C4.59544 6.95824 4.41083 6.10336 4.47601 5.24906C4.54118 4.39486 4.85364 3.57266 5.38032 2.86976C5.90712 2.16675 6.62861 1.60898 7.46861 1.25534C8.30858 0.901794 9.23579 0.765457 10.1523 0.860865C10.4571 0.900476 10.716 1.08809 10.8314 1.35306C10.9469 1.61803 10.9013 1.91996 10.712 2.14531C10.5226 2.37067 10.2182 2.485 9.91346 2.44537C8.69432 2.36515 7.52159 2.89509 6.83732 3.83545C6.15302 4.77593 6.06084 5.9839 6.5956 7.00446C7.13047 8.02502 8.21099 8.70319 9.43013 8.78339C9.73489 8.78339 10.0165 8.93436 10.1689 9.1795C10.3214 9.42466 10.3214 9.7266 10.1689 9.97175C10.0165 10.2169 9.73486 10.3679 9.43013 10.3679L9.42998 10.3362ZM21.5559 6.81339C21.3295 6.81339 21.1126 6.72988 20.9526 6.58133C20.7927 6.43278 20.7027 6.2313 20.7027 6.02113V4.19894H18.7689C18.4642 4.19894 18.1825 4.04797 18.0302 3.80282C17.8777 3.55767 17.8777 3.25573 18.0302 3.01057C18.1826 2.76541 18.4642 2.61446 18.7689 2.61446H20.7027V0.792265C20.7027 0.509251 20.8653 0.247703 21.1293 0.10621C21.3933 -0.0354035 21.7184 -0.0354035 21.9824 0.10621C22.2464 0.247714 22.409 0.50928 22.409 0.792265V2.61446H24.3712C24.6759 2.61446 24.9576 2.76543 25.11 3.01057C25.2625 3.25573 25.2625 3.55767 25.11 3.80282C24.9576 4.04798 24.6759 4.19894 24.3712 4.19894H22.409V6.02113C22.409 6.2313 22.319 6.43276 22.1591 6.58133C21.9991 6.72987 21.7821 6.81339 21.5558 6.81339H21.5559Z" fill="white"/>
</svg>
