<svg width="10" height="10" viewBox="0 0 10 10" fill="none" xmlns="http://www.w3.org/2000/svg">
<g clip-path="url(#clip0_1560_21666)">
<path d="M7.29121 9.99939C3.8958 10.0948 -2.11504 4.07731 0.77538 0.80689C0.785797 0.79689 1.23038 0.40939 1.23038 0.40939C1.50941 0.15145 1.87629 0.00961421 2.25626 0.0127884C2.63624 0.0159626 3.0007 0.163907 3.27538 0.426473L4.17205 1.39231C4.43617 1.66834 4.58224 2.03649 4.57921 2.41852C4.57617 2.80055 4.42427 3.16634 4.1558 3.43814L3.99413 3.60231C4.4756 4.66851 5.32744 5.5239 6.39163 6.00981L6.56288 5.84314C6.84063 5.57859 7.20951 5.43104 7.59309 5.43104C7.97667 5.43104 8.34554 5.57859 8.6233 5.84314L9.55538 6.70772C9.83147 6.97743 9.98994 7.34521 9.99634 7.73111C10.0027 8.11702 9.85655 8.48985 9.58955 8.76856C9.58955 8.76856 9.20205 9.21272 9.19205 9.22314C8.94236 9.4719 8.64577 9.66861 8.31947 9.80187C7.99317 9.93512 7.64366 10.0023 7.29121 9.99939ZM1.64538 1.70772C-0.379203 4.21522 6.10121 10.3215 8.2933 8.35356C8.2933 8.35356 8.6783 7.91231 8.68871 7.90231C8.72777 7.86324 8.74971 7.81026 8.74971 7.75502C8.74971 7.69977 8.72777 7.64679 8.68871 7.60772L7.75621 6.74356C7.63121 6.63939 7.5608 6.63814 7.44496 6.72689L6.97163 7.19272C6.88625 7.27671 6.77854 7.33441 6.66131 7.35893C6.54408 7.38345 6.42227 7.37378 6.31038 7.33106C5.47897 7.02167 4.7238 6.53715 4.09606 5.91034C3.46831 5.28353 2.98267 4.52908 2.67205 3.69814C2.62684 3.58534 2.61549 3.46182 2.63939 3.34267C2.66329 3.22353 2.72141 3.11393 2.80663 3.02731L3.2683 2.55814C3.28932 2.53946 3.30622 2.51661 3.3179 2.49103C3.32959 2.46545 3.3358 2.43771 3.33616 2.40959C3.33651 2.38147 3.33099 2.35359 3.31995 2.32773C3.30891 2.30186 3.2926 2.27859 3.27205 2.25939L2.37455 1.29356C2.33483 1.26037 2.28394 1.24361 2.23228 1.24671C2.18062 1.24981 2.13209 1.27253 2.09663 1.31022C2.08663 1.32064 1.64538 1.70772 1.64538 1.70772ZM9.99955 3.95772C9.99833 2.90828 9.58091 1.90217 8.83884 1.1601C8.09677 0.41803 7.09066 0.000602687 6.04121 -0.000610352C5.87545 -0.000610352 5.71648 0.0652377 5.59927 0.182448C5.48206 0.299658 5.41621 0.458629 5.41621 0.62439C5.41621 0.79015 5.48206 0.949121 5.59927 1.06633C5.71648 1.18354 5.87545 1.24939 6.04121 1.24939C6.75924 1.25027 7.4476 1.5359 7.95532 2.04362C8.46304 2.55134 8.74866 3.2397 8.74955 3.95772C8.74955 4.12348 8.8154 4.28245 8.93261 4.39966C9.04982 4.51688 9.20879 4.58272 9.37455 4.58272C9.54031 4.58272 9.69928 4.51688 9.81649 4.39966C9.9337 4.28245 9.99955 4.12348 9.99955 3.95772ZM7.91621 3.95772C7.91566 3.46061 7.71794 2.98402 7.36643 2.63251C7.01492 2.281 6.53833 2.08327 6.04121 2.08272C5.87545 2.08272 5.71648 2.14857 5.59927 2.26578C5.48206 2.38299 5.41621 2.54196 5.41621 2.70772C5.41621 2.87348 5.48206 3.03245 5.59927 3.14966C5.71648 3.26688 5.87545 3.33272 6.04121 3.33272C6.20697 3.33272 6.36595 3.39857 6.48316 3.51578C6.60037 3.63299 6.66621 3.79196 6.66621 3.95772C6.66621 4.12348 6.73206 4.28245 6.84927 4.39966C6.96648 4.51688 7.12545 4.58272 7.29121 4.58272C7.45697 4.58272 7.61594 4.51688 7.73315 4.39966C7.85037 4.28245 7.91621 4.12348 7.91621 3.95772Z" fill="#FF1901"/>
</g>
<defs>
<clipPath id="clip0_1560_21666">
<rect width="10" height="10" fill="white" transform="translate(-0.000488281 -0.000610352)"/>
</clipPath>
</defs>
</svg>
