<svg width="33" height="33" viewBox="0 0 33 33" fill="none" xmlns="http://www.w3.org/2000/svg">
<path d="M16.1648 0C7.25127 0 0 7.25126 0 16.1635C0 25.0764 7.25127 32.3283 16.1648 32.3283C25.0777 32.3283 32.329 25.0764 32.329 16.1635C32.329 7.25126 25.0777 0 16.1648 0ZM16.1648 6.2385C19.06 6.2385 21.4066 8.58579 21.4066 11.4803C21.4066 14.3754 19.0593 16.7234 16.1648 16.7234C13.269 16.7234 10.9224 14.3754 10.9224 11.4803C10.9224 8.58512 13.269 6.2385 16.1648 6.2385ZM16.1648 30.6807C11.7258 30.6807 7.74828 28.6753 5.08324 25.5259C5.83044 22.02 8.93966 19.3409 12.6643 19.3409H19.664C23.4061 19.3409 26.524 21.9913 27.2538 25.5152C24.5894 28.6713 20.6086 30.6807 16.1648 30.6807Z" fill="#FF1901"/>
<path d="M27.32 25.8772L27.3187 25.8799L27.32 25.8772Z" fill="#FF1901"/>
</svg>
