<svg width="10" height="13" viewBox="0 0 10 13" fill="none" xmlns="http://www.w3.org/2000/svg">
<path d="M3.01786 0.449414C3.13839 0.172656 3.38616 0 3.65625 0H6.34375C6.61384 0 6.86161 0.172656 6.98214 0.449414L7.14286 0.8125H9.28571C9.6808 0.8125 10 1.17559 10 1.625C10 2.07441 9.6808 2.4375 9.28571 2.4375H0.714286C0.319196 2.4375 0 2.07441 0 1.625C0 1.17559 0.319196 0.8125 0.714286 0.8125H2.85714L3.01786 0.449414ZM0.714286 3.25H9.28571V11.375C9.28571 12.2713 8.64509 13 7.85714 13H2.14286C1.35491 13 0.714286 12.2713 0.714286 11.375V3.25ZM2.85714 4.875C2.66071 4.875 2.5 5.05781 2.5 5.28125V10.9688C2.5 11.1922 2.66071 11.375 2.85714 11.375C3.05357 11.375 3.21429 11.1922 3.21429 10.9688V5.28125C3.21429 5.05781 3.05357 4.875 2.85714 4.875ZM5 4.875C4.80357 4.875 4.64286 5.05781 4.64286 5.28125V10.9688C4.64286 11.1922 4.80357 11.375 5 11.375C5.19643 11.375 5.35714 11.1922 5.35714 10.9688V5.28125C5.35714 5.05781 5.19643 4.875 5 4.875ZM7.14286 4.875C6.94643 4.875 6.78571 5.05781 6.78571 5.28125V10.9688C6.78571 11.1922 6.94643 11.375 7.14286 11.375C7.33929 11.375 7.5 11.1922 7.5 10.9688V5.28125C7.5 5.05781 7.33929 4.875 7.14286 4.875Z" fill="#FF1901"/>
</svg>
