<svg width="19" height="23" viewBox="0 0 19 23" fill="none" xmlns="http://www.w3.org/2000/svg">
<mask id="path-1-inside-1_1043_7395" fill="white">
<path d="M14.334 2.56047V0.831321C14.334 0.376866 13.9851 0 13.5643 0C13.1435 0 12.7945 0.376866 12.7945 0.831321V2.49396H6.12346V0.831321C6.12346 0.376866 5.77451 0 5.35372 0C4.93293 0 4.58398 0.376866 4.58398 0.831321V2.56047C1.81291 2.83758 0.468425 4.62215 0.26316 7.27129C0.242634 7.59273 0.488951 7.85876 0.776322 7.85876H18.1417C18.4393 7.85876 18.6856 7.58165 18.6548 7.27129C18.4496 4.62215 17.1051 2.83758 14.334 2.56047Z"/>
</mask>
<path d="M14.334 2.56047V0.831321C14.334 0.376866 13.9851 0 13.5643 0C13.1435 0 12.7945 0.376866 12.7945 0.831321V2.49396H6.12346V0.831321C6.12346 0.376866 5.77451 0 5.35372 0C4.93293 0 4.58398 0.376866 4.58398 0.831321V2.56047C1.81291 2.83758 0.468425 4.62215 0.26316 7.27129C0.242634 7.59273 0.488951 7.85876 0.776322 7.85876H18.1417C18.4393 7.85876 18.6856 7.58165 18.6548 7.27129C18.4496 4.62215 17.1051 2.83758 14.334 2.56047Z" fill="white"/>
<path d="M14.334 2.56047H6.39016V9.74955L13.5436 10.4649L14.334 2.56047ZM12.7945 2.49396V10.4378H20.7384V2.49396H12.7945ZM6.12346 2.49396H-1.82039V10.4378H6.12346V2.49396ZM4.58398 2.56047L5.37442 10.4649L12.5278 9.74955V2.56047H4.58398ZM0.26316 7.27129L-7.65695 6.65761L-7.66111 6.71131L-7.66454 6.76505L0.26316 7.27129ZM18.6548 7.27129L10.7347 7.88497L10.7413 7.97032L10.7498 8.05552L18.6548 7.27129ZM22.2779 2.56047V0.831321H6.39016V2.56047H22.2779ZM22.2779 0.831321C22.2779 -3.42364 18.937 -7.94385 13.5643 -7.94385V7.94385C9.03317 7.94385 6.39016 4.17737 6.39016 0.831321H22.2779ZM13.5643 -7.94385C8.19159 -7.94385 4.85068 -3.42364 4.85068 0.831321H20.7384C20.7384 4.17737 18.0954 7.94385 13.5643 7.94385V-7.94385ZM4.85068 0.831321V2.49396H20.7384V0.831321H4.85068ZM12.7945 -5.44988H6.12346V10.4378H12.7945V-5.44988ZM14.0673 2.49396V0.831321H-1.82039V2.49396H14.0673ZM14.0673 0.831321C14.0673 -3.42364 10.7264 -7.94385 5.35372 -7.94385V7.94385C0.822622 7.94385 -1.82039 4.17737 -1.82039 0.831321H14.0673ZM5.35372 -7.94385C-0.018963 -7.94385 -3.35987 -3.42364 -3.35987 0.831321H12.5278C12.5278 4.17737 9.88482 7.94385 5.35372 7.94385V-7.94385ZM-3.35987 0.831321V2.56047H12.5278V0.831321H-3.35987ZM3.79354 -5.34395C0.76684 -5.04129 -2.26395 -3.78784 -4.52525 -1.1952C-6.6831 1.27882 -7.46662 4.2013 -7.65695 6.65761L8.18327 7.88497C8.19821 7.69213 8.18956 8.39776 7.44804 9.24794C7.07604 9.67443 6.63233 9.99913 6.19022 10.2101C5.76595 10.4126 5.45827 10.4565 5.37442 10.4649L3.79354 -5.34395ZM-7.66454 6.76505C-7.95105 11.2518 -4.50005 15.8026 0.776322 15.8026V-0.0850904C5.47796 -0.0850904 8.43632 3.93367 8.19086 7.77753L-7.66454 6.76505ZM0.776322 15.8026H18.1417V-0.0850904H0.776322V15.8026ZM18.1417 15.8026C23.3744 15.8026 27.0306 11.2318 26.5599 6.48706L10.7498 8.05552C10.3407 3.93154 13.5042 -0.0850904 18.1417 -0.0850904V15.8026ZM26.5749 6.65761C26.3846 4.2013 25.6011 1.27882 23.4432 -1.19521C21.1819 -3.78784 18.1511 -5.04129 15.1245 -5.34395L13.5436 10.4649C13.4597 10.4565 13.152 10.4126 12.7278 10.2101C12.2857 9.99913 11.8419 9.67443 11.47 9.24794C10.7284 8.39776 10.7198 7.69214 10.7347 7.88497L26.5749 6.65761Z" fill="#FF1901" mask="url(#path-1-inside-1_1043_7395)"/>
<path opacity="0.4" d="M14.7244 13.4932V17.458C14.7244 17.993 14.661 18.3626 14.5916 18.5967C14.5579 18.7101 14.5254 18.7839 14.5027 18.8271C14.4845 18.8618 14.4709 18.8783 14.4666 18.8838C14.4644 18.8852 14.4614 18.8886 14.4558 18.8916C14.4467 18.8965 14.4309 18.9045 14.407 18.9141C14.3128 18.9517 14.0589 19.0283 13.5642 19.0283H5.35425C4.8596 19.0283 4.60562 18.9517 4.51147 18.9141C4.48766 18.9045 4.47172 18.8965 4.46265 18.8916L4.4519 18.8848L4.45288 18.8867C4.45209 18.8858 4.43787 18.8693 4.41577 18.8271C4.39308 18.7839 4.36056 18.7101 4.3269 18.5967C4.25743 18.3626 4.1941 17.993 4.19409 17.458V13.4932H14.7244Z" fill="white" stroke="#FF1901" stroke-width="7.94385"/>
<path d="M5.86707 15.2407L5.76746 15.2349C5.61667 15.218 5.46967 15.1623 5.33777 15.0786M5.86707 15.2407V14.2798M5.86707 15.2407C6.10064 15.2407 6.33402 15.1469 6.51941 14.9897L6.59558 14.9194M5.86707 15.2407V14.2798M5.33777 15.0786L5.60339 14.5112M5.33777 15.0786C5.29516 15.0516 5.25354 15.0226 5.21472 14.9897L5.13855 14.9194M5.33777 15.0786L5.60339 14.5112M5.60339 14.5112L5.86707 14.2798M5.60339 14.5112L5.13855 14.9194M5.86707 14.2798L6.59558 14.9194M6.59558 14.9194C6.63183 14.8781 6.6638 14.8324 6.69421 14.7856L6.01062 14.1528L5.90613 14.2456L6.59558 14.9194ZM5.13855 14.9194L5.82703 14.2456L5.72253 14.1528L5.03894 14.7856C5.06942 14.8325 5.10219 14.878 5.13855 14.9194ZM5.78308 14.1255L5.86707 14.2065L5.96472 14.1108L5.86707 14.019L5.80652 14.0747M5.78308 14.1255L5.80652 14.0747M5.78308 14.1255L5.76843 14.1108L5.80652 14.0747M5.78308 14.1255L5.80652 14.0747M5.13855 13.3452L5.84265 13.9976M5.13855 13.3452C5.11488 13.3722 5.09142 13.3998 5.07019 13.4292L5.74597 14.0894L5.83679 14.0093M5.13855 13.3452C5.4259 13.0349 5.87701 12.9355 6.25671 13.1128M5.13855 13.3452L5.85437 13.9731L5.86707 13.9839L5.91003 13.9458M5.84265 13.9976L5.83679 14.0093M5.84265 13.9976L5.83679 14.0093M5.84265 13.9976L5.84656 14.0015L5.83679 14.0093M6.59558 13.3452C6.61897 13.3719 6.64196 13.3992 6.66296 13.4282L5.98718 14.0894L5.8866 14.0015L5.88757 13.9995L6.59558 13.3452ZM6.59558 13.3452C6.50321 13.2455 6.39013 13.1682 6.25671 13.1128M6.59558 13.3452L5.91003 13.9458M6.25671 13.1128L5.91003 13.9458M6.25671 13.1128L5.91003 13.9458M6.88855 14.2397C6.87171 14.4154 6.81365 14.5872 6.72546 14.7378L6.03503 14.1323L6.72546 13.5259C6.83175 13.7073 6.89343 13.9198 6.89343 14.1323L6.88855 14.2397ZM5.00769 14.7378C4.91963 14.5873 4.8624 14.4153 4.84558 14.2397L4.8407 14.1323C4.8407 13.92 4.90154 13.7072 5.00769 13.5259L5.69812 14.1323L5.00769 14.7378Z" fill="white" stroke="#FF1901" stroke-width="7.94385"/>
<path d="M9.66394 15.2185L9.5282 14.4685L9.40613 14.3259L8.73035 14.9197M9.66394 15.2185L9.5614 15.2341C9.52809 15.2383 9.49474 15.241 9.45886 15.241L9.35925 15.2351C9.15976 15.2128 8.96553 15.1247 8.80652 14.99L8.73035 14.9197M9.66394 15.2185C9.69476 15.213 9.72589 15.2052 9.75671 15.1941L9.84851 15.1521C9.89544 15.1352 9.94123 15.1096 9.98816 15.0798L10.0331 15.0525M9.66394 15.2185L9.55164 14.4958L10.0331 15.0525M8.73035 14.9197L9.3739 14.2898L9.2821 14.1833L8.63074 14.7859C8.66122 14.8328 8.69399 14.8782 8.73035 14.9197ZM10.0331 15.0525L10.1874 14.9197M10.0331 15.0525L9.59167 14.4402M9.56921 14.3777L10.1874 14.9197M9.56921 14.3777L9.59167 14.4402M9.56921 14.3777L9.59167 14.4402M9.56921 14.3777L9.5282 14.3416L9.53015 14.3542L9.59167 14.4402M10.1874 14.9197C10.2236 14.8783 10.2556 14.8326 10.286 14.7859L9.60242 14.1531L9.55847 14.1921L10.1874 14.9197ZM10.1874 13.3455C10.2108 13.3721 10.2338 13.3995 10.2548 13.4285L9.57898 14.0896L9.47839 14.0017L10.1874 13.3455ZM10.1874 13.3455C9.96309 13.1032 9.63914 12.9909 9.32703 13.0369L9.47156 13.9724L10.1874 13.3455ZM8.4325 14.1326C8.4325 13.9202 8.49334 13.7074 8.59949 13.5261L9.07605 13.9441L9.26062 14.158L8.59949 14.738C8.51143 14.5875 8.4542 14.4155 8.43738 14.24L8.4325 14.1326ZM9.51941 14.1472L9.49402 14.1169L9.4823 14.0417L9.55652 14.1111L9.51941 14.1472ZM10.4803 14.24C10.4635 14.4157 10.4055 14.5874 10.3173 14.738L9.62683 14.1326L10.3173 13.5261C10.4235 13.7075 10.4852 13.9201 10.4852 14.1326L10.4803 14.24ZM9.45007 14.03L9.45789 14.075L9.43152 14.0447L9.4491 14.0281L9.45007 14.03ZM9.21472 13.7947L9.43835 14.0017L9.41296 14.0232L9.21472 13.7947ZM9.27332 13.0476L9.43835 13.9666L9.13074 13.697L8.78308 13.2937C8.83983 13.2416 8.90252 13.1958 8.97253 13.158L9.06921 13.113C9.13537 13.0822 9.20405 13.062 9.27332 13.0476Z" fill="white" stroke="#FF1901" stroke-width="7.94385"/>
<path d="M13.2563 15.2183L13.1206 14.4683L12.9985 14.3257L12.7231 14.5669L12.5415 14.7778M13.2563 15.2183L13.0513 15.2407L12.9517 15.2349C12.7601 15.2135 12.5738 15.1311 12.4185 15.0054M13.2563 15.2183C13.2872 15.2127 13.3183 15.205 13.3491 15.1938L13.4409 15.1519C13.4943 15.1327 13.5468 15.1037 13.6001 15.0679L13.6255 15.0522M13.2563 15.2183L13.144 14.4956L13.6255 15.0522M12.4185 15.0054L12.5415 14.7778M12.4185 15.0054C12.4039 14.9936 12.3894 14.9818 12.3755 14.9692L12.5415 14.7778M12.4185 15.0054L12.5415 14.7778M13.6255 15.0522L13.7798 14.9194M13.6255 15.0522L13.1841 14.4399M13.1616 14.3774L13.7798 14.9194M13.1616 14.3774L13.1841 14.4399M13.1616 14.3774L13.1841 14.4399M13.1616 14.3774L13.1206 14.3413L13.1226 14.354L13.1841 14.4399M13.7798 14.9194C13.7914 14.9062 13.801 14.8912 13.812 14.8774L13.1958 14.2437L13.7798 14.9194ZM13.7798 13.3452C13.8032 13.3719 13.8252 13.4002 13.8462 13.4292L13.1714 14.0894L13.1509 14.0718L13.7798 13.3452ZM13.7798 13.3452C13.7285 13.3009 13.6768 13.2567 13.6255 13.2124M13.7798 13.3452L13.1616 13.8862M13.1616 13.8862L13.1011 13.9399L13.1841 13.8237M13.1616 13.8862L13.1841 13.8237M13.1616 13.8862L13.1841 13.8237M13.1841 13.8237L13.6255 13.2124M13.6255 13.2124C13.564 13.1682 13.5024 13.1349 13.4409 13.1128C13.3794 13.0796 13.3179 13.0575 13.2563 13.0464C13.1428 13.0219 13.0295 13.0194 12.9194 13.0356L13.0493 13.8784L13.6255 13.2124ZM12.9663 14.2896L12.9468 14.3081L12.9644 14.2876L12.9663 14.2896ZM14.0728 14.2407C14.0558 14.4161 13.9977 14.5874 13.9097 14.7378L13.2192 14.1323L13.9097 13.5259C14.016 13.7073 14.0776 13.9198 14.0776 14.1323L14.0728 14.2407ZM12.6685 14.3198L12.1919 14.7378C12.104 14.5875 12.0467 14.4159 12.0298 14.2407L12.0249 14.1323C12.0249 13.9199 12.0857 13.7072 12.1919 13.5259L12.6685 13.9438L12.8306 14.1323L12.6685 14.3198ZM12.8647 13.0454L13.021 13.9116L12.9985 13.938L12.7231 13.6968L12.3765 13.2954C12.4362 13.2424 12.4977 13.197 12.5669 13.1587L12.6616 13.1128C12.727 13.0814 12.7952 13.0601 12.8647 13.0454Z" fill="white" stroke="#FF1901" stroke-width="7.94385"/>
<path d="M6.07214 19.0977L5.91003 18.1973L5.86707 18.1592L5.82312 18.1973L5.81824 18.209L5.82214 18.1982L5.53894 18.4463L5.19226 18.8477C5.27794 18.9239 5.36701 18.9854 5.47742 19.0312L5.51648 19.0469C5.5974 19.0796 5.68163 19.104 5.76746 19.1143L5.86707 19.1201C5.90295 19.1201 5.93628 19.1174 5.9696 19.1133L6.07214 19.0977ZM6.07214 19.0977C6.10299 19.0921 6.13407 19.0844 6.16492 19.0732L6.25671 19.0312C6.31005 19.012 6.36256 18.9831 6.41589 18.9473L6.44128 18.9316L6.59558 18.7988M6.07214 19.0977L5.93835 18.2334M5.99988 18.3193L5.97742 18.2568M5.99988 18.3193L5.93835 18.2334M5.99988 18.3193L5.97742 18.2568M5.99988 18.3193L5.93835 18.2334M5.97742 18.2568L6.59558 18.7988M5.97742 18.2568L5.9364 18.2207L5.93835 18.2334M6.59558 18.7988C6.60716 18.7856 6.61681 18.7706 6.62781 18.7568L6.0116 18.123L6.59558 18.7988ZM6.59558 17.2246C6.60698 17.2376 6.61697 17.2521 6.62781 17.2656L6.0116 17.8994L6.59558 17.2246ZM6.59558 17.2246L6.44128 17.0918M6.59558 17.2246L6.0907 17.667M5.97742 17.7656L5.91687 17.8193L5.99988 17.7031M5.97742 17.7656L5.99988 17.7031M5.97742 17.7656L6.01648 17.7314M5.97742 17.7656L5.99988 17.7031M5.99988 17.7031L6.06628 17.6113M6.01648 17.7314L6.06628 17.6113M6.01648 17.7314L6.0907 17.667M6.01648 17.7314L6.06628 17.6113M6.06628 17.6113L6.19812 17.4287M6.31335 17.0166C6.29442 17.0077 6.27565 16.999 6.25671 16.9922C6.19519 16.959 6.13367 16.9369 6.07214 16.9258C5.95856 16.9013 5.84534 16.8988 5.73523 16.915L5.86511 17.7578L6.13562 17.4443M6.31335 17.0166L6.13562 17.4443M6.31335 17.0166C6.3559 17.0366 6.39874 17.0612 6.44128 17.0918M6.31335 17.0166L6.13562 17.4443M6.13562 17.4443L6.44128 17.0918M6.0907 17.667L6.19812 17.4287M6.0907 17.667L6.19812 17.4287M6.19812 17.4287L6.44128 17.0918M6.88855 18.1201C6.87163 18.2955 6.81347 18.4668 6.72546 18.6172L6.03503 18.0117L6.72546 17.4053C6.83182 17.5867 6.89343 17.7992 6.89343 18.0117L6.88855 18.1201ZM5.48425 18.1992L5.00769 18.6172C4.91981 18.4669 4.86248 18.2953 4.84558 18.1201L4.8407 18.0117C4.8407 17.7993 4.90148 17.5866 5.00769 17.4053L5.66882 17.9854L5.48425 18.1992ZM5.68054 16.9248L5.83679 17.791L5.81433 17.8174L5.53894 17.5762L5.19226 17.1748C5.25195 17.1218 5.31355 17.0764 5.38269 17.0381L5.47742 16.9922C5.54277 16.9608 5.61096 16.9395 5.68054 16.9248Z" fill="white" stroke="#FF1901" stroke-width="7.94385"/>
<path d="M9.45886 19.1206L9.35925 19.1147C9.15976 19.0925 8.96552 19.0044 8.80652 18.8696L8.73035 18.7993M9.45886 19.1206V18.1597M9.45886 19.1206C9.69243 19.1206 9.92582 19.0267 10.1112 18.8696L10.1874 18.7993M9.45886 19.1206V18.1597M8.73035 18.7993L9.45886 18.1597M8.73035 18.7993L9.41882 18.1255L9.31433 18.0327L8.63074 18.6655C8.66121 18.7124 8.69399 18.7579 8.73035 18.7993ZM9.45886 18.1597L10.1874 18.7993M10.1874 18.7993C10.2236 18.758 10.2556 18.7122 10.286 18.6655L9.60242 18.0327L9.49792 18.1255L10.1874 18.7993ZM8.73035 17.2251L9.43835 17.8813L9.33777 17.9692L8.66199 17.3091C8.68321 17.2797 8.70668 17.2521 8.73035 17.2251ZM8.73035 17.2251C9.11009 16.8151 9.80766 16.8151 10.1874 17.2251M8.73035 17.2251L9.45886 17.8638L10.1874 17.2251M10.1874 17.2251C10.2108 17.2517 10.2338 17.2791 10.2548 17.3081L9.57898 17.9692L9.47839 17.8813L10.1874 17.2251ZM10.4803 18.1196C10.4635 18.2953 10.4055 18.4671 10.3173 18.6177L9.62683 18.0122L10.3173 17.4058C10.4236 17.5871 10.4852 17.7997 10.4852 18.0122L10.4803 18.1196ZM9.45886 18.0864L9.36023 17.9907L9.45886 17.8989L9.55652 17.9907L9.45886 18.0864ZM8.59949 18.6177C8.51142 18.4671 8.45421 18.2951 8.43738 18.1196L8.4325 18.0122C8.4325 17.7999 8.49333 17.587 8.59949 17.4058L9.28992 18.0122L8.59949 18.6177Z" fill="white" stroke="#FF1901" stroke-width="7.94385"/>
<path d="M13.0513 19.1206L12.9517 19.1147C12.7522 19.0925 12.5579 19.0044 12.3989 18.8696L12.3228 18.7993M13.0513 19.1206V18.1597M13.0513 19.1206C13.2848 19.1206 13.5182 19.0267 13.7036 18.8696L13.7798 18.7993M13.0513 19.1206V18.1597M12.3228 18.7993L13.0513 18.1597M12.3228 18.7993L13.0112 18.1255L12.9067 18.0327L12.2231 18.6655C12.2536 18.7124 12.2864 18.7579 12.3228 18.7993ZM13.0513 18.1597L13.7798 18.7993M13.7798 18.7993C13.816 18.758 13.848 18.7122 13.8784 18.6655L13.1948 18.0327L13.0903 18.1255L13.7798 18.7993ZM12.3228 17.2251L13.0308 17.8813L12.9302 17.9692L12.2544 17.3091C12.2756 17.2797 12.2991 17.2521 12.3228 17.2251ZM12.3228 17.2251C12.7025 16.8151 13.4001 16.8151 13.7798 17.2251M12.3228 17.2251L13.0513 17.8638L13.7798 17.2251M13.7798 17.2251C13.8032 17.2517 13.8262 17.2791 13.8472 17.3081L13.1714 17.9692L13.0708 17.8813L13.7798 17.2251ZM14.0728 18.1196C14.0559 18.2953 13.9979 18.4671 13.9097 18.6177L13.2192 18.0122L13.9097 17.4058C14.016 17.5871 14.0776 17.7997 14.0776 18.0122L14.0728 18.1196ZM13.0513 18.0864L12.9526 17.9907L13.0513 17.8989L13.1489 17.9907L13.0513 18.0864ZM12.1919 18.6177C12.1038 18.4671 12.0466 18.2951 12.0298 18.1196L12.0249 18.0122C12.0249 17.7999 12.0857 17.587 12.1919 17.4058L12.8823 18.0122L12.1919 18.6177Z" fill="white" stroke="#FF1901" stroke-width="7.94385"/>
</svg>
