<svg width="84" height="29" viewBox="0 0 84 29" fill="none" xmlns="http://www.w3.org/2000/svg">
<rect x="0.5" y="0.5" width="83" height="28" rx="5.5" fill="white"/>
<rect x="0.5" y="0.5" width="83" height="28" rx="5.5" stroke="#FF1901"/>
<path d="M38.4346 19V10.6H41.8906C42.6346 10.6 43.2706 10.72 43.7986 10.96C44.3346 11.2 44.7466 11.544 45.0346 11.992C45.3226 12.44 45.4666 12.972 45.4666 13.588C45.4666 14.204 45.3226 14.736 45.0346 15.184C44.7466 15.624 44.3346 15.964 43.7986 16.204C43.2706 16.436 42.6346 16.552 41.8906 16.552H39.2986L39.9946 15.844V19H38.4346ZM43.9306 19L41.8066 15.952H43.4746L45.6106 19H43.9306ZM39.9946 16.012L39.2986 15.268H41.8186C42.5066 15.268 43.0226 15.12 43.3666 14.824C43.7186 14.528 43.8946 14.116 43.8946 13.588C43.8946 13.052 43.7186 12.64 43.3666 12.352C43.0226 12.064 42.5066 11.92 41.8186 11.92H39.2986L39.9946 11.152V16.012ZM50.08 19.084C49.368 19.084 48.744 18.944 48.208 18.664C47.68 18.376 47.268 17.984 46.972 17.488C46.684 16.992 46.54 16.428 46.54 15.796C46.54 15.156 46.68 14.592 46.96 14.104C47.248 13.608 47.64 13.22 48.136 12.94C48.64 12.66 49.212 12.52 49.852 12.52C50.476 12.52 51.032 12.656 51.52 12.928C52.008 13.2 52.392 13.584 52.672 14.08C52.952 14.576 53.092 15.16 53.092 15.832C53.092 15.896 53.088 15.968 53.08 16.048C53.08 16.128 53.076 16.204 53.068 16.276H47.728V15.28H52.276L51.688 15.592C51.696 15.224 51.62 14.9 51.46 14.62C51.3 14.34 51.08 14.12 50.8 13.96C50.528 13.8 50.212 13.72 49.852 13.72C49.484 13.72 49.16 13.8 48.88 13.96C48.608 14.12 48.392 14.344 48.232 14.632C48.08 14.912 48.004 15.244 48.004 15.628V15.868C48.004 16.252 48.092 16.592 48.268 16.888C48.444 17.184 48.692 17.412 49.012 17.572C49.332 17.732 49.7 17.812 50.116 17.812C50.476 17.812 50.8 17.756 51.088 17.644C51.376 17.532 51.632 17.356 51.856 17.116L52.66 18.04C52.372 18.376 52.008 18.636 51.568 18.82C51.136 18.996 50.64 19.084 50.08 19.084ZM53.8728 21.412C53.5928 21.412 53.3288 21.38 53.0808 21.316C52.8248 21.26 52.6088 21.168 52.4328 21.04L52.8648 19.924C53.0968 20.092 53.3888 20.176 53.7408 20.176C54.0128 20.176 54.2248 20.088 54.3768 19.912C54.5288 19.744 54.6048 19.492 54.6048 19.156V12.592H56.1048V19.12C56.1048 19.824 55.9088 20.38 55.5168 20.788C55.1328 21.204 54.5848 21.412 53.8728 21.412ZM55.3488 11.536C55.0688 11.536 54.8368 11.448 54.6528 11.272C54.4768 11.096 54.3888 10.884 54.3888 10.636C54.3888 10.38 54.4768 10.168 54.6528 10C54.8368 9.824 55.0688 9.736 55.3488 9.736C55.6288 9.736 55.8568 9.82 56.0328 9.988C56.2168 10.148 56.3088 10.352 56.3088 10.6C56.3088 10.864 56.2208 11.088 56.0448 11.272C55.8688 11.448 55.6368 11.536 55.3488 11.536ZM61.0839 19.084C60.3719 19.084 59.7479 18.944 59.2119 18.664C58.6839 18.376 58.2719 17.984 57.9759 17.488C57.6879 16.992 57.5439 16.428 57.5439 15.796C57.5439 15.156 57.6839 14.592 57.9639 14.104C58.2519 13.608 58.6439 13.22 59.1399 12.94C59.6439 12.66 60.2159 12.52 60.8559 12.52C61.4799 12.52 62.0359 12.656 62.5239 12.928C63.0119 13.2 63.3959 13.584 63.6759 14.08C63.9559 14.576 64.0959 15.16 64.0959 15.832C64.0959 15.896 64.0919 15.968 64.0839 16.048C64.0839 16.128 64.0799 16.204 64.0719 16.276H58.7319V15.28H63.2799L62.6919 15.592C62.6999 15.224 62.6239 14.9 62.4639 14.62C62.3039 14.34 62.0839 14.12 61.8039 13.96C61.5319 13.8 61.2159 13.72 60.8559 13.72C60.4879 13.72 60.1639 13.8 59.8839 13.96C59.6119 14.12 59.3959 14.344 59.2359 14.632C59.0839 14.912 59.0079 15.244 59.0079 15.628V15.868C59.0079 16.252 59.0959 16.592 59.2719 16.888C59.4479 17.184 59.6959 17.412 60.0159 17.572C60.3359 17.732 60.7039 17.812 61.1199 17.812C61.4799 17.812 61.8039 17.756 62.0919 17.644C62.3799 17.532 62.6359 17.356 62.8599 17.116L63.6639 18.04C63.3759 18.376 63.0119 18.636 62.5719 18.82C62.1399 18.996 61.6439 19.084 61.0839 19.084ZM68.4767 19.084C67.8047 19.084 67.2047 18.944 66.6767 18.664C66.1567 18.376 65.7487 17.984 65.4527 17.488C65.1567 16.992 65.0087 16.428 65.0087 15.796C65.0087 15.156 65.1567 14.592 65.4527 14.104C65.7487 13.608 66.1567 13.22 66.6767 12.94C67.2047 12.66 67.8047 12.52 68.4767 12.52C69.1007 12.52 69.6487 12.648 70.1207 12.904C70.6007 13.152 70.9647 13.52 71.2127 14.008L70.0607 14.68C69.8687 14.376 69.6327 14.152 69.3527 14.008C69.0807 13.864 68.7847 13.792 68.4647 13.792C68.0967 13.792 67.7647 13.872 67.4687 14.032C67.1727 14.192 66.9407 14.424 66.7727 14.728C66.6047 15.024 66.5207 15.38 66.5207 15.796C66.5207 16.212 66.6047 16.572 66.7727 16.876C66.9407 17.172 67.1727 17.4 67.4687 17.56C67.7647 17.72 68.0967 17.8 68.4647 17.8C68.7847 17.8 69.0807 17.728 69.3527 17.584C69.6327 17.44 69.8687 17.216 70.0607 16.912L71.2127 17.584C70.9647 18.064 70.6007 18.436 70.1207 18.7C69.6487 18.956 69.1007 19.084 68.4767 19.084ZM75.0034 19.084C74.2994 19.084 73.7554 18.904 73.3714 18.544C72.9874 18.176 72.7954 17.636 72.7954 16.924V11.176H74.2954V16.888C74.2954 17.192 74.3714 17.428 74.5234 17.596C74.6834 17.764 74.9034 17.848 75.1834 17.848C75.5194 17.848 75.7994 17.76 76.0234 17.584L76.4434 18.652C76.2674 18.796 76.0514 18.904 75.7954 18.976C75.5394 19.048 75.2754 19.084 75.0034 19.084ZM71.7394 13.84V12.64H76.0114V13.84H71.7394Z" fill="#FF1901"/>
<g clip-path="url(#clip0_3210_23995)">
<rect x="9.5" y="4" width="20" height="20" rx="5" fill="#FF1901"/>
<path d="M25.3333 4H13.6667C11.3658 4 9.5 5.86583 9.5 8.16667V19.8333C9.5 22.1342 11.3658 24 13.6667 24H25.3333C27.6342 24 29.5 22.1342 29.5 19.8333V8.16667C29.5 5.86583 27.6342 4 25.3333 4ZM19.5 20.6667C16.9817 20.6667 14.8 19.2525 13.6667 17.1858V19C13.6667 19.46 13.2933 19.8333 12.8333 19.8333C12.3733 19.8333 12 19.46 12 19V16.5C12 15.5792 12.7458 14.8333 13.6667 14.8333H16.1667C16.6267 14.8333 17 15.2067 17 15.6667C17 16.1267 16.6267 16.5 16.1667 16.5H15.1925C16.0583 17.9892 17.6567 19 19.5 19C21.7683 19 23.6833 17.4808 24.2925 15.4067C24.3942 15.0617 24.7217 14.8333 25.0817 14.8333C25.6258 14.8333 26.045 15.3517 25.8917 15.8742C25.0808 18.64 22.5242 20.6667 19.4992 20.6667H19.5ZM27 11.5C27 12.4208 26.2542 13.1667 25.3333 13.1667H22.8333C22.3733 13.1667 22 12.7933 22 12.3333C22 11.8733 22.3733 11.5 22.8333 11.5H23.8208C22.9567 10.0075 21.3458 9 19.5 9C17.2317 9 15.3167 10.5192 14.7075 12.5933C14.6058 12.9383 14.2783 13.1667 13.9183 13.1667C13.3742 13.1667 12.955 12.6483 13.1083 12.1258C13.9192 9.36 16.4758 7.33333 19.5008 7.33333C22.0133 7.33333 24.2 8.7325 25.3342 10.7917V9C25.3342 8.54 25.7075 8.16667 26.1675 8.16667C26.6275 8.16667 27.0008 8.54 27.0008 9L27 11.5Z" fill="#FF1901"/>
</g>
<path fill-rule="evenodd" clip-rule="evenodd" d="M13 9.94643C13 8.31921 14.3191 7 15.9464 7H17.2557C17.4368 7 17.5835 7.14671 17.5835 7.32717C17.5835 7.50825 17.4368 7.65496 17.2557 7.65496H15.9464C14.6807 7.65496 13.655 8.68067 13.655 9.94641V17.8036C13.655 19.0693 14.6807 20.095 15.9464 20.095H23.8036C25.0693 20.095 26.095 19.0693 26.095 17.8036V9.94641C26.095 8.68067 25.0693 7.65496 23.8036 7.65496H19.5478C19.3668 7.65496 19.22 7.50825 19.22 7.32717C19.22 7.14671 19.3668 7 19.5478 7H23.8036C25.4308 7 26.75 8.31914 26.75 9.94643V17.8036C26.75 19.4308 25.4309 20.75 23.8036 20.75H15.9464C14.3192 20.75 13 19.4309 13 17.8036V9.94643Z" fill="white" stroke="white" stroke-width="0.5"/>
<path fill-rule="evenodd" clip-rule="evenodd" d="M21.7437 12.0064C21.8714 12.1341 21.8714 12.3416 21.7437 12.4693L18.4695 15.7435C18.3418 15.8712 18.1343 15.8712 18.0066 15.7435C17.879 15.6158 17.879 15.4083 18.0066 15.28L21.2802 12.0064C21.4085 11.8788 21.616 11.8787 21.7437 12.0064Z" fill="white" stroke="white" stroke-width="0.5"/>
<path fill-rule="evenodd" clip-rule="evenodd" d="M18.0064 12.0064C17.8787 12.1341 17.8787 12.3416 18.0064 12.4693L19.6432 14.1064L21.28 15.7435C21.4083 15.8712 21.6158 15.8712 21.7434 15.7435C21.8711 15.6158 21.8711 15.4083 21.7434 15.28L18.4692 12.0064C18.3415 11.8788 18.1341 11.8787 18.0064 12.0064Z" fill="white" stroke="white" stroke-width="0.5"/>
<defs>
<clipPath id="clip0_3210_23995">
<rect x="9.5" y="4" width="20" height="20" rx="5" fill="white"/>
</clipPath>
</defs>
</svg>
