<svg width="87" height="87" viewBox="0 0 87 87" fill="none" xmlns="http://www.w3.org/2000/svg">
<path d="M9.03412 22.9558C13.4448 22.9558 17.0203 19.3803 17.0203 14.9696C17.0203 10.5589 13.4448 6.9834 9.03412 6.9834C4.62346 6.9834 1.04791 10.5589 1.04791 14.9696C1.04791 19.3803 4.62346 22.9558 9.03412 22.9558Z" fill="#FF8403" fill-opacity="0.41"/>
<path d="M23.004 59.6372L17.1489 56.8796V48.3251H25.8233V41.6295H18.4681V35.5534C18.4681 30.4867 14.3608 26.3794 9.29414 26.3794H6.056C2.71136 26.3794 0 29.0908 0 32.4354V52.2825C0 55.5804 1.89879 58.5785 4.87684 59.9976L17.9684 66.2135V82.8527C17.9684 85.1432 19.8252 86.9999 22.1156 86.9999C24.4061 86.9999 26.263 85.1431 26.263 82.8526V64.7744C26.263 62.5754 24.9934 60.5741 23.004 59.6372Z" fill="#FF8403" fill-opacity="0.41"/>
<path d="M1.51901 62.6763V83.243C1.51901 85.3216 3.19798 87.0004 5.27658 87.0004C7.35531 87.0004 9.03415 85.3216 9.03415 83.243V66.3938L3.15796 63.6157C2.57838 63.3359 2.03869 63.016 1.51901 62.6763Z" fill="#FF8403" fill-opacity="0.41"/>
<path d="M34.2978 44.9874C34.2978 46.8262 32.7988 48.3252 30.94 48.3252H25.8233V56.38H50.7671V31.2363H25.8233V41.6296H30.94C32.7988 41.6296 34.2978 43.1286 34.2978 44.9874Z" fill="#FF8403" fill-opacity="0.41"/>
<path d="M71.2539 0.976074H43.8517H35.8568V7.63679V28.818H43.8517V7.63679H74.9095L75.2513 74.838L43.8517 80.4944V58.8185H35.8568V86.0008H86.544V7.63679V0.976074H71.2539Z" fill="#FF8403" fill-opacity="0.41"/>
<path d="M69.2135 43.9882L62.4367 38.0996V41.2816H53.5153V46.6949H62.4367V49.8769L69.2135 43.9882Z" fill="#FF8403" fill-opacity="0.41"/>
</svg>
