<svg width="19" height="18" viewBox="0 0 19 18" fill="none" xmlns="http://www.w3.org/2000/svg">
<g clip-path="url(#clip0_1560_21629)">
<path d="M14.3818 0.465088H4.15311C2.13586 0.465088 0.5 2.10095 0.5 4.11819V14.3469C0.5 16.3641 2.13586 18 4.15311 18H14.3818C16.3991 18 18.0349 16.3641 18.0349 14.3469V4.11819C18.0349 2.10095 16.3991 0.465088 14.3818 0.465088ZM9.26746 15.0775C7.05952 15.0775 5.14675 13.8377 4.15311 12.0257V13.6163C4.15311 14.0196 3.82579 14.3469 3.42249 14.3469C3.01918 14.3469 2.69186 14.0196 2.69186 13.6163V11.4244C2.69186 10.6171 3.34577 9.96317 4.15311 9.96317H6.34497C6.74827 9.96317 7.07559 10.2905 7.07559 10.6938C7.07559 11.0971 6.74827 11.4244 6.34497 11.4244H5.49087C6.24999 12.73 7.65132 13.6163 9.26746 13.6163C11.2562 13.6163 12.9352 12.2843 13.4693 10.4658C13.5584 10.1634 13.8455 9.96317 14.1612 9.96317C14.6383 9.96317 15.0058 10.4176 14.8713 10.8757C14.1604 13.3006 11.9189 15.0775 9.26673 15.0775H9.26746ZM15.843 7.04068C15.843 7.84802 15.1891 8.50192 14.3818 8.50192H12.1899C11.7866 8.50192 11.4593 8.1746 11.4593 7.7713C11.4593 7.368 11.7866 7.04068 12.1899 7.04068H13.0557C12.2981 5.73214 10.8858 4.84882 9.26746 4.84882C7.2787 4.84882 5.59974 6.18074 5.06565 7.99926C4.97652 8.30173 4.68938 8.50192 4.37375 8.50192C3.89666 8.50192 3.52916 8.04748 3.66359 7.58938C4.37448 5.16444 6.61603 3.38757 9.26819 3.38757C11.471 3.38757 13.3882 4.61429 14.3825 6.41965V4.84882C14.3825 4.44551 14.7099 4.11819 15.1132 4.11819C15.5165 4.11819 15.8438 4.44551 15.8438 4.84882L15.843 7.04068Z" fill="#FF1901"/>
</g>
<defs>
<clipPath id="clip0_1560_21629">
<rect width="17.5349" height="17.5349" fill="white" transform="translate(0.5 0.465088)"/>
</clipPath>
</defs>
</svg>
