<svg width="104" height="46" viewBox="0 0 104 46" fill="none" xmlns="http://www.w3.org/2000/svg">
<rect x="0.5" y="0.5" width="103" height="45" rx="11.5" fill="#FF1901"/>
<rect x="0.5" y="0.5" width="103" height="45" rx="11.5" stroke="#FF1901"/>
<circle cx="25.5" cy="23" r="12.5" fill="white"/>
<g clip-path="url(#clip0_3226_28121)">
<path d="M26 24.5C26.5523 24.5 27 24.0523 27 23.5C27 22.9477 26.5523 22.5 26 22.5C25.4477 22.5 25 22.9477 25 23.5C25 24.0523 25.4477 24.5 26 24.5Z" fill="#FF1901"/>
<path d="M31.268 18.561L29.939 17.232C29.806 17.1011 29.6588 16.9856 29.5 16.8875V18C29.4983 19.38 28.38 20.4983 27 20.5H25C23.62 20.4983 22.5016 19.38 22.5 18V16.5C21.12 16.5017 20.0017 17.62 20 19V26C20.0017 27.38 21.12 28.4984 22.5 28.5H29.5C30.88 28.4984 31.9984 27.38 32 26V20.3285C32.0019 19.6652 31.7383 19.0287 31.268 18.561ZM26 25.5C24.8954 25.5 24 24.6046 24 23.5C24 22.3954 24.8954 21.5 26 21.5C27.1046 21.5 28 22.3954 28 23.5C28 24.6046 27.1046 25.5 26 25.5Z" fill="#FF1901"/>
<path d="M25 19.5H27C27.8284 19.5 28.5 18.8284 28.5 18V16.532C28.3913 16.5143 28.2816 16.5036 28.1715 16.5H23.5V18C23.5 18.8284 24.1716 19.5 25 19.5Z" fill="#FF1901"/>
</g>
<path d="M53.7749 29.144C52.8149 29.144 51.8969 29 51.0209 28.712C50.1449 28.412 49.4549 28.028 48.9509 27.56L49.6169 26.156C50.0969 26.576 50.7089 26.924 51.4529 27.2C52.1969 27.476 52.9709 27.614 53.7749 27.614C54.5069 27.614 55.1009 27.53 55.5569 27.362C56.0129 27.194 56.3489 26.966 56.5649 26.678C56.7809 26.378 56.8889 26.042 56.8889 25.67C56.8889 25.238 56.7449 24.89 56.4569 24.626C56.1809 24.362 55.8149 24.152 55.3589 23.996C54.9149 23.828 54.4229 23.684 53.8829 23.564C53.3429 23.444 52.7969 23.306 52.2449 23.15C51.7049 22.982 51.2069 22.772 50.7509 22.52C50.3069 22.268 49.9469 21.932 49.6709 21.512C49.3949 21.08 49.2569 20.528 49.2569 19.856C49.2569 19.208 49.4249 18.614 49.7609 18.074C50.1089 17.522 50.6369 17.084 51.3449 16.76C52.0649 16.424 52.9769 16.256 54.0809 16.256C54.8129 16.256 55.5389 16.352 56.2589 16.544C56.9789 16.736 57.6029 17.012 58.1309 17.372L57.5369 18.812C56.9969 18.452 56.4269 18.194 55.8269 18.038C55.2269 17.87 54.6449 17.786 54.0809 17.786C53.3729 17.786 52.7909 17.876 52.3349 18.056C51.8789 18.236 51.5429 18.476 51.3269 18.776C51.1229 19.076 51.0209 19.412 51.0209 19.784C51.0209 20.228 51.1589 20.582 51.4349 20.846C51.7229 21.11 52.0889 21.32 52.5329 21.476C52.9889 21.632 53.4869 21.776 54.0269 21.908C54.5669 22.028 55.1069 22.166 55.6469 22.322C56.1989 22.478 56.6969 22.682 57.1409 22.934C57.5969 23.186 57.9629 23.522 58.2389 23.942C58.5149 24.362 58.6529 24.902 58.6529 25.562C58.6529 26.198 58.4789 26.792 58.1309 27.344C57.7829 27.884 57.2429 28.322 56.5109 28.658C55.7909 28.982 54.8789 29.144 53.7749 29.144ZM66.9526 29V26.984L66.8626 26.606V23.168C66.8626 22.436 66.6466 21.872 66.2146 21.476C65.7946 21.068 65.1586 20.864 64.3066 20.864C63.7426 20.864 63.1906 20.96 62.6506 21.152C62.1106 21.332 61.6546 21.578 61.2826 21.89L60.5626 20.594C61.0546 20.198 61.6426 19.898 62.3266 19.694C63.0226 19.478 63.7486 19.37 64.5046 19.37C65.8126 19.37 66.8206 19.688 67.5286 20.324C68.2366 20.96 68.5906 21.932 68.5906 23.24V29H66.9526ZM63.8206 29.108C63.1126 29.108 62.4886 28.988 61.9486 28.748C61.4206 28.508 61.0126 28.178 60.7246 27.758C60.4366 27.326 60.2926 26.84 60.2926 26.3C60.2926 25.784 60.4126 25.316 60.6526 24.896C60.9046 24.476 61.3066 24.14 61.8586 23.888C62.4226 23.636 63.1786 23.51 64.1266 23.51H67.1506V24.752H64.1986C63.3346 24.752 62.7526 24.896 62.4526 25.184C62.1526 25.472 62.0026 25.82 62.0026 26.228C62.0026 26.696 62.1886 27.074 62.5606 27.362C62.9326 27.638 63.4486 27.776 64.1086 27.776C64.7566 27.776 65.3206 27.632 65.8006 27.344C66.2926 27.056 66.6466 26.636 66.8626 26.084L67.2046 27.272C66.9766 27.836 66.5746 28.286 65.9986 28.622C65.4226 28.946 64.6966 29.108 63.8206 29.108ZM74.1146 29L69.9386 19.46H71.7386L75.4466 28.1H74.5826L78.3626 19.46H80.0546L75.8786 29H74.1146ZM85.6516 29.108C84.6316 29.108 83.7316 28.898 82.9516 28.478C82.1836 28.058 81.5836 27.482 81.1516 26.75C80.7316 26.018 80.5216 25.178 80.5216 24.23C80.5216 23.282 80.7256 22.442 81.1336 21.71C81.5536 20.978 82.1236 20.408 82.8436 20C83.5756 19.58 84.3976 19.37 85.3096 19.37C86.2336 19.37 87.0496 19.574 87.7576 19.982C88.4656 20.39 89.0176 20.966 89.4136 21.71C89.8216 22.442 90.0256 23.3 90.0256 24.284C90.0256 24.356 90.0196 24.44 90.0076 24.536C90.0076 24.632 90.0016 24.722 89.9896 24.806H81.8716V23.564H89.0896L88.3876 23.996C88.3996 23.384 88.2736 22.838 88.0096 22.358C87.7456 21.878 87.3796 21.506 86.9116 21.242C86.4556 20.966 85.9216 20.828 85.3096 20.828C84.7096 20.828 84.1756 20.966 83.7076 21.242C83.2396 21.506 82.8736 21.884 82.6096 22.376C82.3456 22.856 82.2136 23.408 82.2136 24.032V24.32C82.2136 24.956 82.3576 25.526 82.6456 26.03C82.9456 26.522 83.3596 26.906 83.8876 27.182C84.4156 27.458 85.0216 27.596 85.7056 27.596C86.2696 27.596 86.7796 27.5 87.2356 27.308C87.7036 27.116 88.1116 26.828 88.4596 26.444L89.4136 27.56C88.9816 28.064 88.4416 28.448 87.7936 28.712C87.1576 28.976 86.4436 29.108 85.6516 29.108Z" fill="white"/>
<defs>
<clipPath id="clip0_3226_28121">
<rect width="12" height="12" fill="white" transform="translate(20 16.5)"/>
</clipPath>
</defs>
</svg>
