<svg width="25" height="26" viewBox="0 0 25 26" fill="none" xmlns="http://www.w3.org/2000/svg">
<circle cx="12.5" cy="13" r="12.5" fill="#FF1901"/>
<g clip-path="url(#clip0_215_2330)">
<path d="M13 14.5C13.5523 14.5 14 14.0523 14 13.5C14 12.9477 13.5523 12.5 13 12.5C12.4477 12.5 12 12.9477 12 13.5C12 14.0523 12.4477 14.5 13 14.5Z" fill="white"/>
<path d="M18.268 8.561L16.939 7.232C16.806 7.1011 16.6588 6.98555 16.5 6.88749V8C16.4983 9.38002 15.38 10.4983 14 10.5H12C10.62 10.4983 9.50165 9.38002 9.50001 8V6.5C8.11998 6.50166 7.00166 7.61998 7 9.00001V16C7.00166 17.38 8.11998 18.4984 9.50001 18.5H16.5C17.88 18.4984 18.9984 17.38 19 16V10.3285C19.0019 9.66521 18.7383 9.02874 18.268 8.561ZM13 15.5C11.8954 15.5 11 14.6046 11 13.5C11 12.3954 11.8954 11.5 13 11.5C14.1046 11.5 15 12.3954 15 13.5C15 14.6046 14.1046 15.5 13 15.5Z" fill="white"/>
<path d="M12 9.49998H14C14.8284 9.49998 15.5 8.8284 15.5 7.99998V6.53199C15.3913 6.51427 15.2815 6.50359 15.1715 6.5H10.5V8C10.5 8.8284 11.1716 9.49998 12 9.49998Z" fill="white"/>
</g>
<defs>
<clipPath id="clip0_215_2330">
<rect width="12" height="12" fill="white" transform="translate(7 6.5)"/>
</clipPath>
</defs>
</svg>
