<svg width="200" height="46" viewBox="0 0 200 46" fill="none" xmlns="http://www.w3.org/2000/svg">
<rect x="0.5" y="0.5" width="199" height="45" rx="11.5" fill="#FF1901"/>
<rect x="0.5" y="0.5" width="199" height="45" rx="11.5" stroke="#DC143C"/>
<circle cx="37.5" cy="23" r="12.5" fill="white"/>
<g clip-path="url(#clip0_3226_30134)">
<path d="M38 24.5C38.5523 24.5 39 24.0523 39 23.5C39 22.9477 38.5523 22.5 38 22.5C37.4477 22.5 37 22.9477 37 23.5C37 24.0523 37.4477 24.5 38 24.5Z" fill="#FF1901"/>
<path d="M43.268 18.561L41.939 17.232C41.806 17.1011 41.6588 16.9856 41.5 16.8875V18C41.4983 19.38 40.38 20.4983 39 20.5H37C35.62 20.4983 34.5016 19.38 34.5 18V16.5C33.12 16.5017 32.0017 17.62 32 19V26C32.0017 27.38 33.12 28.4984 34.5 28.5H41.5C42.88 28.4984 43.9984 27.38 44 26V20.3285C44.0019 19.6652 43.7383 19.0287 43.268 18.561ZM38 25.5C36.8954 25.5 36 24.6046 36 23.5C36 22.3954 36.8954 21.5 38 21.5C39.1046 21.5 40 22.3954 40 23.5C40 24.6046 39.1046 25.5 38 25.5Z" fill="#FF1901"/>
<path d="M37 19.5H39C39.8284 19.5 40.5 18.8284 40.5 18V16.532C40.3913 16.5143 40.2816 16.5036 40.1715 16.5H35.5V18C35.5 18.8284 36.1716 19.5 37 19.5Z" fill="#FF1901"/>
</g>
<path d="M66.021 29.144C65.061 29.144 64.143 29 63.267 28.712C62.391 28.412 61.701 28.028 61.197 27.56L61.863 26.156C62.343 26.576 62.955 26.924 63.699 27.2C64.443 27.476 65.217 27.614 66.021 27.614C66.753 27.614 67.347 27.53 67.803 27.362C68.259 27.194 68.595 26.966 68.811 26.678C69.027 26.378 69.135 26.042 69.135 25.67C69.135 25.238 68.991 24.89 68.703 24.626C68.427 24.362 68.061 24.152 67.605 23.996C67.161 23.828 66.669 23.684 66.129 23.564C65.589 23.444 65.043 23.306 64.491 23.15C63.951 22.982 63.453 22.772 62.997 22.52C62.553 22.268 62.193 21.932 61.917 21.512C61.641 21.08 61.503 20.528 61.503 19.856C61.503 19.208 61.671 18.614 62.007 18.074C62.355 17.522 62.883 17.084 63.591 16.76C64.311 16.424 65.223 16.256 66.327 16.256C67.059 16.256 67.785 16.352 68.505 16.544C69.225 16.736 69.849 17.012 70.377 17.372L69.783 18.812C69.243 18.452 68.673 18.194 68.073 18.038C67.473 17.87 66.891 17.786 66.327 17.786C65.619 17.786 65.037 17.876 64.581 18.056C64.125 18.236 63.789 18.476 63.573 18.776C63.369 19.076 63.267 19.412 63.267 19.784C63.267 20.228 63.405 20.582 63.681 20.846C63.969 21.11 64.335 21.32 64.779 21.476C65.235 21.632 65.733 21.776 66.273 21.908C66.813 22.028 67.353 22.166 67.893 22.322C68.445 22.478 68.943 22.682 69.387 22.934C69.843 23.186 70.209 23.522 70.485 23.942C70.761 24.362 70.899 24.902 70.899 25.562C70.899 26.198 70.725 26.792 70.377 27.344C70.029 27.884 69.489 28.322 68.757 28.658C68.037 28.982 67.125 29.144 66.021 29.144ZM79.1987 29V26.984L79.1087 26.606V23.168C79.1087 22.436 78.8927 21.872 78.4607 21.476C78.0407 21.068 77.4047 20.864 76.5527 20.864C75.9887 20.864 75.4367 20.96 74.8967 21.152C74.3567 21.332 73.9007 21.578 73.5287 21.89L72.8087 20.594C73.3007 20.198 73.8887 19.898 74.5727 19.694C75.2687 19.478 75.9947 19.37 76.7507 19.37C78.0587 19.37 79.0667 19.688 79.7747 20.324C80.4827 20.96 80.8367 21.932 80.8367 23.24V29H79.1987ZM76.0667 29.108C75.3587 29.108 74.7347 28.988 74.1947 28.748C73.6667 28.508 73.2587 28.178 72.9707 27.758C72.6827 27.326 72.5387 26.84 72.5387 26.3C72.5387 25.784 72.6587 25.316 72.8987 24.896C73.1507 24.476 73.5527 24.14 74.1047 23.888C74.6687 23.636 75.4247 23.51 76.3727 23.51H79.3967V24.752H76.4447C75.5807 24.752 74.9987 24.896 74.6987 25.184C74.3987 25.472 74.2487 25.82 74.2487 26.228C74.2487 26.696 74.4347 27.074 74.8067 27.362C75.1787 27.638 75.6947 27.776 76.3547 27.776C77.0027 27.776 77.5667 27.632 78.0467 27.344C78.5387 27.056 78.8927 26.636 79.1087 26.084L79.4507 27.272C79.2227 27.836 78.8207 28.286 78.2447 28.622C77.6687 28.946 76.9427 29.108 76.0667 29.108ZM86.3607 29L82.1847 19.46H83.9847L87.6927 28.1H86.8287L90.6087 19.46H92.3007L88.1247 29H86.3607ZM97.8977 29.108C96.8777 29.108 95.9777 28.898 95.1977 28.478C94.4297 28.058 93.8297 27.482 93.3977 26.75C92.9777 26.018 92.7677 25.178 92.7677 24.23C92.7677 23.282 92.9717 22.442 93.3797 21.71C93.7997 20.978 94.3697 20.408 95.0897 20C95.8217 19.58 96.6437 19.37 97.5557 19.37C98.4797 19.37 99.2957 19.574 100.004 19.982C100.712 20.39 101.264 20.966 101.66 21.71C102.068 22.442 102.272 23.3 102.272 24.284C102.272 24.356 102.266 24.44 102.254 24.536C102.254 24.632 102.248 24.722 102.236 24.806H94.1177V23.564H101.336L100.634 23.996C100.646 23.384 100.52 22.838 100.256 22.358C99.9917 21.878 99.6257 21.506 99.1577 21.242C98.7017 20.966 98.1677 20.828 97.5557 20.828C96.9557 20.828 96.4217 20.966 95.9537 21.242C95.4857 21.506 95.1197 21.884 94.8557 22.376C94.5917 22.856 94.4597 23.408 94.4597 24.032V24.32C94.4597 24.956 94.6037 25.526 94.8917 26.03C95.1917 26.522 95.6057 26.906 96.1337 27.182C96.6617 27.458 97.2677 27.596 97.9517 27.596C98.5157 27.596 99.0257 27.5 99.4817 27.308C99.9497 27.116 100.358 26.828 100.706 26.444L101.66 27.56C101.228 28.064 100.688 28.448 100.04 28.712C99.4037 28.976 98.6897 29.108 97.8977 29.108ZM113.087 29.144C112.235 29.144 111.479 29.006 110.819 28.73C110.159 28.454 109.637 28.07 109.253 27.578C108.869 27.086 108.677 26.516 108.677 25.868C108.677 25.304 108.803 24.788 109.055 24.32C109.307 23.852 109.709 23.402 110.261 22.97C110.813 22.526 111.539 22.07 112.439 21.602C113.171 21.218 113.741 20.882 114.149 20.594C114.569 20.306 114.863 20.036 115.031 19.784C115.211 19.52 115.301 19.238 115.301 18.938C115.301 18.53 115.157 18.2 114.869 17.948C114.581 17.684 114.167 17.552 113.627 17.552C113.063 17.552 112.619 17.696 112.295 17.984C111.983 18.26 111.827 18.626 111.827 19.082C111.827 19.31 111.863 19.532 111.935 19.748C112.019 19.952 112.163 20.186 112.367 20.45C112.583 20.702 112.889 21.026 113.285 21.422L119.945 28.046L118.973 29.198L111.899 22.16C111.479 21.74 111.149 21.368 110.909 21.044C110.669 20.708 110.495 20.384 110.387 20.072C110.279 19.76 110.225 19.442 110.225 19.118C110.225 18.554 110.363 18.062 110.639 17.642C110.927 17.21 111.323 16.88 111.827 16.652C112.343 16.412 112.943 16.292 113.627 16.292C114.263 16.292 114.815 16.4 115.283 16.616C115.751 16.82 116.111 17.12 116.363 17.516C116.627 17.9 116.759 18.368 116.759 18.92C116.759 19.4 116.639 19.844 116.399 20.252C116.171 20.66 115.799 21.056 115.283 21.44C114.767 21.824 114.071 22.238 113.195 22.682C112.475 23.054 111.911 23.402 111.503 23.726C111.095 24.038 110.801 24.35 110.621 24.662C110.453 24.974 110.369 25.316 110.369 25.688C110.369 26.084 110.483 26.438 110.711 26.75C110.951 27.05 111.281 27.284 111.701 27.452C112.133 27.62 112.631 27.704 113.195 27.704C113.999 27.704 114.725 27.53 115.373 27.182C116.021 26.834 116.561 26.312 116.993 25.616C117.437 24.92 117.761 24.056 117.965 23.024L119.351 23.474C119.111 24.686 118.697 25.712 118.109 26.552C117.533 27.392 116.819 28.034 115.967 28.478C115.115 28.922 114.155 29.144 113.087 29.144ZM132.565 29.144C131.605 29.144 130.717 28.988 129.901 28.676C129.097 28.352 128.395 27.902 127.795 27.326C127.207 26.738 126.745 26.054 126.409 25.274C126.073 24.494 125.905 23.636 125.905 22.7C125.905 21.764 126.073 20.906 126.409 20.126C126.745 19.346 127.213 18.668 127.813 18.092C128.413 17.504 129.115 17.054 129.919 16.742C130.735 16.418 131.623 16.256 132.583 16.256C133.555 16.256 134.449 16.424 135.265 16.76C136.093 17.084 136.795 17.57 137.371 18.218L136.201 19.352C135.721 18.848 135.181 18.476 134.581 18.236C133.981 17.984 133.339 17.858 132.655 17.858C131.947 17.858 131.287 17.978 130.675 18.218C130.075 18.458 129.553 18.794 129.109 19.226C128.665 19.658 128.317 20.174 128.065 20.774C127.825 21.362 127.705 22.004 127.705 22.7C127.705 23.396 127.825 24.044 128.065 24.644C128.317 25.232 128.665 25.742 129.109 26.174C129.553 26.606 130.075 26.942 130.675 27.182C131.287 27.422 131.947 27.542 132.655 27.542C133.339 27.542 133.981 27.422 134.581 27.182C135.181 26.93 135.721 26.546 136.201 26.03L137.371 27.164C136.795 27.812 136.093 28.304 135.265 28.64C134.449 28.976 133.549 29.144 132.565 29.144ZM139.687 29V15.644H141.415V29H139.687ZM148.8 29.108C147.84 29.108 146.988 28.898 146.244 28.478C145.5 28.058 144.912 27.482 144.48 26.75C144.048 26.006 143.832 25.166 143.832 24.23C143.832 23.282 144.048 22.442 144.48 21.71C144.912 20.978 145.5 20.408 146.244 20C146.988 19.58 147.84 19.37 148.8 19.37C149.748 19.37 150.594 19.58 151.338 20C152.094 20.408 152.682 20.978 153.102 21.71C153.534 22.43 153.75 23.27 153.75 24.23C153.75 25.178 153.534 26.018 153.102 26.75C152.682 27.482 152.094 28.058 151.338 28.478C150.594 28.898 149.748 29.108 148.8 29.108ZM148.8 27.596C149.412 27.596 149.958 27.458 150.438 27.182C150.93 26.906 151.314 26.516 151.59 26.012C151.866 25.496 152.004 24.902 152.004 24.23C152.004 23.546 151.866 22.958 151.59 22.466C151.314 21.962 150.93 21.572 150.438 21.296C149.958 21.02 149.412 20.882 148.8 20.882C148.188 20.882 147.642 21.02 147.162 21.296C146.682 21.572 146.298 21.962 146.01 22.466C145.722 22.958 145.578 23.546 145.578 24.23C145.578 24.902 145.722 25.496 146.01 26.012C146.298 26.516 146.682 26.906 147.162 27.182C147.642 27.458 148.188 27.596 148.8 27.596ZM158.876 29.108C158.084 29.108 157.328 29 156.608 28.784C155.9 28.568 155.342 28.304 154.934 27.992L155.654 26.624C156.062 26.9 156.566 27.134 157.166 27.326C157.766 27.518 158.378 27.614 159.002 27.614C159.806 27.614 160.382 27.5 160.73 27.272C161.09 27.044 161.27 26.726 161.27 26.318C161.27 26.018 161.162 25.784 160.946 25.616C160.73 25.448 160.442 25.322 160.082 25.238C159.734 25.154 159.344 25.082 158.912 25.022C158.48 24.95 158.048 24.866 157.616 24.77C157.184 24.662 156.788 24.518 156.428 24.338C156.068 24.146 155.78 23.888 155.564 23.564C155.348 23.228 155.24 22.784 155.24 22.232C155.24 21.656 155.402 21.152 155.726 20.72C156.05 20.288 156.506 19.958 157.094 19.73C157.694 19.49 158.402 19.37 159.218 19.37C159.842 19.37 160.472 19.448 161.108 19.604C161.756 19.748 162.284 19.958 162.692 20.234L161.954 21.602C161.522 21.314 161.072 21.116 160.604 21.008C160.136 20.9 159.668 20.846 159.2 20.846C158.444 20.846 157.88 20.972 157.508 21.224C157.136 21.464 156.95 21.776 156.95 22.16C156.95 22.484 157.058 22.736 157.274 22.916C157.502 23.084 157.79 23.216 158.138 23.312C158.498 23.408 158.894 23.492 159.326 23.564C159.758 23.624 160.19 23.708 160.622 23.816C161.054 23.912 161.444 24.05 161.792 24.23C162.152 24.41 162.44 24.662 162.656 24.986C162.884 25.31 162.998 25.742 162.998 26.282C162.998 26.858 162.83 27.356 162.494 27.776C162.158 28.196 161.684 28.526 161.072 28.766C160.46 28.994 159.728 29.108 158.876 29.108ZM169.406 29.108C168.386 29.108 167.486 28.898 166.706 28.478C165.938 28.058 165.338 27.482 164.906 26.75C164.486 26.018 164.276 25.178 164.276 24.23C164.276 23.282 164.48 22.442 164.888 21.71C165.308 20.978 165.878 20.408 166.598 20C167.33 19.58 168.152 19.37 169.064 19.37C169.988 19.37 170.804 19.574 171.512 19.982C172.22 20.39 172.772 20.966 173.168 21.71C173.576 22.442 173.78 23.3 173.78 24.284C173.78 24.356 173.774 24.44 173.762 24.536C173.762 24.632 173.756 24.722 173.744 24.806H165.626V23.564H172.844L172.142 23.996C172.154 23.384 172.028 22.838 171.764 22.358C171.5 21.878 171.134 21.506 170.666 21.242C170.21 20.966 169.676 20.828 169.064 20.828C168.464 20.828 167.93 20.966 167.462 21.242C166.994 21.506 166.628 21.884 166.364 22.376C166.1 22.856 165.968 23.408 165.968 24.032V24.32C165.968 24.956 166.112 25.526 166.4 26.03C166.7 26.522 167.114 26.906 167.642 27.182C168.17 27.458 168.776 27.596 169.46 27.596C170.024 27.596 170.534 27.5 170.99 27.308C171.458 27.116 171.866 26.828 172.214 26.444L173.168 27.56C172.736 28.064 172.196 28.448 171.548 28.712C170.912 28.976 170.198 29.108 169.406 29.108Z" fill="white"/>
<defs>
<clipPath id="clip0_3226_30134">
<rect width="12" height="12" fill="white" transform="translate(32 16.5)"/>
</clipPath>
</defs>
</svg>
