<svg width="109" height="38" viewBox="0 0 109 38" fill="none" xmlns="http://www.w3.org/2000/svg">
<rect x="0.5" y="0.5" width="108" height="37" rx="7.5" fill="white" stroke="#FF1901"/>
<path d="M25.8169 24.8331C25.0516 24.8331 24.3189 24.7258 23.6189 24.5111C22.9189 24.2871 22.3636 24.0024 21.9529 23.6571L22.5829 22.2431C22.9749 22.5511 23.4602 22.8078 24.0389 23.0131C24.6176 23.2184 25.2102 23.3211 25.8169 23.3211C26.3302 23.3211 26.7456 23.2651 27.0629 23.1531C27.3802 23.0411 27.6136 22.8918 27.7629 22.7051C27.9122 22.5091 27.9869 22.2898 27.9869 22.0471C27.9869 21.7484 27.8796 21.5104 27.6649 21.3331C27.4502 21.1464 27.1702 21.0018 26.8249 20.8991C26.4889 20.7871 26.1109 20.6844 25.6909 20.5911C25.2802 20.4978 24.8649 20.3904 24.4449 20.2691C24.0342 20.1384 23.6562 19.9751 23.3109 19.7791C22.9749 19.5738 22.6996 19.3031 22.4849 18.9671C22.2702 18.6311 22.1629 18.2018 22.1629 17.6791C22.1629 17.1471 22.3029 16.6618 22.5829 16.2231C22.8722 15.7751 23.3062 15.4204 23.8849 15.1591C24.4729 14.8884 25.2149 14.7531 26.1109 14.7531C26.6989 14.7531 27.2822 14.8278 27.8609 14.9771C28.4396 15.1264 28.9436 15.3411 29.3729 15.6211L28.7989 17.0351C28.3602 16.7738 27.9076 16.5824 27.4409 16.4611C26.9742 16.3304 26.5262 16.2651 26.0969 16.2651C25.5929 16.2651 25.1822 16.3258 24.8649 16.4471C24.5569 16.5684 24.3282 16.7271 24.1789 16.9231C24.0389 17.1191 23.9689 17.3431 23.9689 17.5951C23.9689 17.8938 24.0716 18.1364 24.2769 18.3231C24.4916 18.5004 24.7669 18.6404 25.1029 18.7431C25.4482 18.8458 25.8309 18.9484 26.2509 19.0511C26.6709 19.1444 27.0862 19.2518 27.4969 19.3731C27.9169 19.4944 28.2949 19.6531 28.6309 19.8491C28.9762 20.0451 29.2516 20.3111 29.4569 20.6471C29.6716 20.9831 29.7789 21.4078 29.7789 21.9211C29.7789 22.4438 29.6342 22.9291 29.3449 23.3771C29.0649 23.8158 28.6309 24.1704 28.0429 24.4411C27.4549 24.7024 26.7129 24.8331 25.8169 24.8331ZM34.8456 24.7911C34.0616 24.7911 33.3616 24.6278 32.7456 24.3011C32.1389 23.9651 31.6629 23.5078 31.3176 22.9291C30.9722 22.3504 30.7996 21.6924 30.7996 20.9551C30.7996 20.2084 30.9722 19.5504 31.3176 18.9811C31.6629 18.4024 32.1389 17.9498 32.7456 17.6231C33.3616 17.2964 34.0616 17.1331 34.8456 17.1331C35.5736 17.1331 36.2129 17.2824 36.7636 17.5811C37.3236 17.8704 37.7482 18.2998 38.0376 18.8691L36.6936 19.6531C36.4696 19.2984 36.1942 19.0371 35.8676 18.8691C35.5502 18.7011 35.2049 18.6171 34.8316 18.6171C34.4022 18.6171 34.0149 18.7104 33.6696 18.8971C33.3242 19.0838 33.0536 19.3544 32.8576 19.7091C32.6616 20.0544 32.5636 20.4698 32.5636 20.9551C32.5636 21.4404 32.6616 21.8604 32.8576 22.2151C33.0536 22.5604 33.3242 22.8264 33.6696 23.0131C34.0149 23.1998 34.4022 23.2931 34.8316 23.2931C35.2049 23.2931 35.5502 23.2091 35.8676 23.0411C36.1942 22.8731 36.4696 22.6118 36.6936 22.2571L38.0376 23.0411C37.7482 23.6011 37.3236 24.0351 36.7636 24.3431C36.2129 24.6418 35.5736 24.7911 34.8456 24.7911ZM43.724 17.1331C44.3213 17.1331 44.8533 17.2498 45.32 17.4831C45.796 17.7164 46.1693 18.0758 46.44 18.5611C46.7107 19.0371 46.846 19.6531 46.846 20.4091V24.6931H45.096V20.6331C45.096 19.9704 44.9373 19.4758 44.62 19.1491C44.312 18.8224 43.878 18.6591 43.318 18.6591C42.9073 18.6591 42.5433 18.7431 42.226 18.9111C41.9087 19.0791 41.6613 19.3311 41.484 19.6671C41.316 19.9938 41.232 20.4091 41.232 20.9131V24.6931H39.482V14.3051H41.232V19.2331L40.854 18.6171C41.1153 18.1411 41.4933 17.7771 41.988 17.5251C42.492 17.2638 43.0707 17.1331 43.724 17.1331ZM52.5936 24.7911C51.763 24.7911 51.035 24.6278 50.4096 24.3011C49.7936 23.9651 49.313 23.5078 48.9676 22.9291C48.6316 22.3504 48.4636 21.6924 48.4636 20.9551C48.4636 20.2084 48.627 19.5504 48.9536 18.9811C49.2896 18.4024 49.747 17.9498 50.3256 17.6231C50.9136 17.2964 51.581 17.1331 52.3276 17.1331C53.0556 17.1331 53.7043 17.2918 54.2736 17.6091C54.843 17.9264 55.291 18.3744 55.6176 18.9531C55.9443 19.5318 56.1076 20.2131 56.1076 20.9971C56.1076 21.0718 56.103 21.1558 56.0936 21.2491C56.0936 21.3424 56.089 21.4311 56.0796 21.5151H49.8496V20.3531H55.1556L54.4696 20.7171C54.479 20.2878 54.3903 19.9098 54.2036 19.5831C54.017 19.2564 53.7603 18.9998 53.4336 18.8131C53.1163 18.6264 52.7476 18.5331 52.3276 18.5331C51.8983 18.5331 51.5203 18.6264 51.1936 18.8131C50.8763 18.9998 50.6243 19.2611 50.4376 19.5971C50.2603 19.9238 50.1716 20.3111 50.1716 20.7591V21.0391C50.1716 21.4871 50.2743 21.8838 50.4796 22.2291C50.685 22.5744 50.9743 22.8404 51.3476 23.0271C51.721 23.2138 52.1503 23.3071 52.6356 23.3071C53.0556 23.3071 53.4336 23.2418 53.7696 23.1111C54.1056 22.9804 54.4043 22.7751 54.6656 22.4951L55.6036 23.5731C55.2676 23.9651 54.843 24.2684 54.3296 24.4831C53.8256 24.6884 53.247 24.7911 52.5936 24.7911ZM60.9526 24.7911C60.234 24.7911 59.5853 24.6324 59.0066 24.3151C58.4373 23.9884 57.9893 23.5404 57.6626 22.9711C57.336 22.4018 57.1726 21.7298 57.1726 20.9551C57.1726 20.1804 57.336 19.5084 57.6626 18.9391C57.9893 18.3698 58.4373 17.9264 59.0066 17.6091C59.5853 17.2918 60.234 17.1331 60.9526 17.1331C61.578 17.1331 62.138 17.2731 62.6326 17.5531C63.1273 17.8238 63.5193 18.2391 63.8086 18.7991C64.098 19.3591 64.2426 20.0778 64.2426 20.9551C64.2426 21.8231 64.1026 22.5418 63.8226 23.1111C63.5426 23.6711 63.1553 24.0911 62.6606 24.3711C62.166 24.6511 61.5966 24.7911 60.9526 24.7911ZM61.1626 23.2931C61.5826 23.2931 61.956 23.1998 62.2826 23.0131C62.6186 22.8264 62.8846 22.5558 63.0806 22.2011C63.286 21.8464 63.3886 21.4311 63.3886 20.9551C63.3886 20.4698 63.286 20.0544 63.0806 19.7091C62.8846 19.3544 62.6186 19.0838 62.2826 18.8971C61.956 18.7104 61.5826 18.6171 61.1626 18.6171C60.7426 18.6171 60.3646 18.7104 60.0286 18.8971C59.702 19.0838 59.436 19.3544 59.2306 19.7091C59.0346 20.0544 58.9366 20.4698 58.9366 20.9551C58.9366 21.4311 59.0346 21.8464 59.2306 22.2011C59.436 22.5558 59.702 22.8264 60.0286 23.0131C60.3646 23.1998 60.7426 23.2931 61.1626 23.2931ZM63.4306 24.6931V22.9291L63.5006 20.9411L63.3606 18.9531V14.3051H65.0966V24.6931H63.4306ZM70.564 24.7911C69.9293 24.7911 69.3693 24.6744 68.884 24.4411C68.3986 24.1984 68.0206 23.8344 67.75 23.3491C67.4793 22.8544 67.344 22.2338 67.344 21.4871V17.2171H69.094V21.2491C69.094 21.9211 69.2433 22.4251 69.542 22.7611C69.85 23.0878 70.284 23.2511 70.844 23.2511C71.2546 23.2511 71.6093 23.1671 71.908 22.9991C72.216 22.8311 72.454 22.5791 72.622 22.2431C72.7993 21.9071 72.888 21.4918 72.888 20.9971V17.2171H74.638V24.6931H72.972V22.6771L73.266 23.2931C73.014 23.7784 72.6453 24.1518 72.16 24.4131C71.6746 24.6651 71.1426 24.7911 70.564 24.7911ZM76.9293 24.6931V14.3051H78.6793V24.6931H76.9293ZM84.4901 24.7911C83.6595 24.7911 82.9315 24.6278 82.3061 24.3011C81.6901 23.9651 81.2095 23.5078 80.8641 22.9291C80.5281 22.3504 80.3601 21.6924 80.3601 20.9551C80.3601 20.2084 80.5235 19.5504 80.8501 18.9811C81.1861 18.4024 81.6435 17.9498 82.2221 17.6231C82.8101 17.2964 83.4775 17.1331 84.2241 17.1331C84.9521 17.1331 85.6008 17.2918 86.1701 17.6091C86.7395 17.9264 87.1875 18.3744 87.5141 18.9531C87.8408 19.5318 88.0041 20.2131 88.0041 20.9971C88.0041 21.0718 87.9995 21.1558 87.9901 21.2491C87.9901 21.3424 87.9855 21.4311 87.9761 21.5151H81.7461V20.3531H87.0521L86.3661 20.7171C86.3755 20.2878 86.2868 19.9098 86.1001 19.5831C85.9135 19.2564 85.6568 18.9998 85.3301 18.8131C85.0128 18.6264 84.6441 18.5331 84.2241 18.5331C83.7948 18.5331 83.4168 18.6264 83.0901 18.8131C82.7728 18.9998 82.5208 19.2611 82.3341 19.5971C82.1568 19.9238 82.0681 20.3111 82.0681 20.7591V21.0391C82.0681 21.4871 82.1708 21.8838 82.3761 22.2291C82.5815 22.5744 82.8708 22.8404 83.2441 23.0271C83.6175 23.2138 84.0468 23.3071 84.5321 23.3071C84.9521 23.3071 85.3301 23.2418 85.6661 23.1111C86.0021 22.9804 86.3008 22.7751 86.5621 22.4951L87.5001 23.5731C87.1641 23.9651 86.7395 24.2684 86.2261 24.4831C85.7221 24.6884 85.1435 24.7911 84.4901 24.7911Z" fill="#FF1901"/>
</svg>
