<svg width="20" height="19" viewBox="0 0 20 19" fill="none" xmlns="http://www.w3.org/2000/svg">
<path fill-rule="evenodd" clip-rule="evenodd" d="M9 1.9C5.13401 1.9 2 4.87731 2 8.55C2 12.2227 5.13401 15.2 9 15.2C10.8859 15.2 12.5977 14.4915 13.8564 13.3393C13.8827 13.3068 13.9115 13.2755 13.9429 13.2457C13.9742 13.216 14.0072 13.1886 14.0414 13.1636C15.2542 11.9678 16 10.3416 16 8.55C16 4.87731 12.866 1.9 9 1.9ZM16.0319 13.8868C17.2635 12.4241 18 10.5688 18 8.55C18 3.82797 13.9706 0 9 0C4.02944 0 0 3.82797 0 8.55C0 13.272 4.02944 17.1 9 17.1C11.125 17.1 13.078 16.4004 14.6177 15.2303L18.2929 18.7218C18.6834 19.0928 19.3166 19.0928 19.7071 18.7218C20.0976 18.3508 20.0976 17.7492 19.7071 17.3782L16.0319 13.8868Z" fill="#8D91A0"/>
</svg>
