<svg width="15" height="15" viewBox="0 0 15 15" fill="none" xmlns="http://www.w3.org/2000/svg">
<path d="M14.7256 13.4033L11.8224 10.4988C13.9947 7.59583 13.4024 3.48146 10.4994 1.30914C7.59645 -0.86319 3.48207 -0.270867 1.30975 2.63212C-0.862579 5.5351 -0.270257 9.64947 2.63273 11.8218C4.96464 13.5668 8.16748 13.5668 10.4994 11.8218L13.4039 14.7262C13.7689 15.0912 14.3606 15.0912 14.7256 14.7262C15.0906 14.3612 15.0906 13.7695 14.7256 13.4045L14.7256 13.4033ZM6.59028 11.2612C4.01025 11.2612 1.91874 9.16971 1.91874 6.58967C1.91874 4.00964 4.01025 1.91813 6.59028 1.91813C9.17032 1.91813 11.2618 4.00964 11.2618 6.58967C11.2591 9.16854 9.16918 11.2585 6.59028 11.2612Z" fill="#8D91A0"/>
</svg>
