<svg width="20" height="18" viewBox="0 0 20 18" fill="none" xmlns="http://www.w3.org/2000/svg">
<path d="M3.49445 4.46967H18.2315V3.27548C18.2315 2.81487 17.8526 2.436 17.392 2.436H13.583C13.754 2.78715 14.1142 3.02906 14.531 3.02906C15.1371 3.02906 15.1371 3.95053 14.531 3.95053C13.5988 3.95053 12.8174 3.30463 12.6098 2.436H6.247C6.41783 2.78715 6.77822 3.02906 7.195 3.02906C7.80086 3.02906 7.80086 3.95053 7.195 3.95053C6.26264 3.95053 5.48144 3.30463 5.27388 2.436H4.33393C3.87308 2.436 3.49445 2.81487 3.49445 3.27548V4.46967ZM5.01419 7.89988C4.40762 7.89988 4.40762 6.97865 5.01419 6.97865H6.22094C6.82751 6.97865 6.82751 7.89988 6.22094 7.89988H5.01419ZM5.01419 13.2747C4.40762 13.2747 4.40762 12.3532 5.01419 12.3532H6.22094C6.82751 12.3532 6.82751 13.2747 6.22094 13.2747H5.01419ZM15.505 13.2747C14.8985 13.2747 14.8985 12.3532 15.505 12.3532H16.7118C17.3183 12.3532 17.3183 13.2747 16.7118 13.2747H15.505ZM12.008 13.2747C11.4014 13.2747 11.4014 12.3532 12.008 12.3532H13.2147C13.8213 12.3532 13.8213 13.2747 13.2147 13.2747H12.008ZM8.51122 13.2747C7.90464 13.2747 7.90464 12.3532 8.51122 12.3532H9.71772C10.3243 12.3532 10.3243 13.2747 9.71772 13.2747H8.51122ZM5.01419 11.4832C4.40762 11.4832 4.40762 10.5617 5.01419 10.5617H6.22094C6.82751 10.5617 6.82751 11.4832 6.22094 11.4832H5.01419ZM15.505 11.4832C14.8985 11.4832 14.8985 10.5617 15.505 10.5617H16.7118C17.3183 10.5617 17.3183 11.4832 16.7118 11.4832H15.505ZM12.008 11.4832C11.4014 11.4832 11.4014 10.5617 12.008 10.5617H13.2147C13.8213 10.5617 13.8213 11.4832 13.2147 11.4832H12.008ZM8.51122 11.4832C7.90464 11.4832 7.90464 10.5617 8.51122 10.5617H9.71772C10.3243 10.5617 10.3243 11.4832 9.71772 11.4832H8.51122ZM5.01419 9.69163C4.40762 9.69163 4.40762 8.77017 5.01419 8.77017H6.22094C6.82751 8.77017 6.82751 9.69163 6.22094 9.69163H5.01419ZM15.505 9.69163C14.8985 9.69163 14.8985 8.77017 15.505 8.77017H16.7118C17.3183 8.77017 17.3183 9.69163 16.7118 9.69163H15.505ZM12.008 9.69163C11.4014 9.69163 11.4014 8.77017 12.008 8.77017H13.2147C13.8213 8.77017 13.8213 9.69163 13.2147 9.69163H12.008ZM8.51122 9.69163C7.90464 9.69163 7.90464 8.77017 8.51122 8.77017H9.71772C10.3243 8.77017 10.3243 9.69163 9.71772 9.69163H8.51122ZM15.505 7.89988C14.8985 7.89988 14.8985 6.97865 15.505 6.97865H16.7118C17.3183 6.97865 17.3183 7.89988 16.7118 7.89988H15.505ZM12.008 7.89988C11.4014 7.89988 11.4014 6.97865 12.008 6.97865H13.2147C13.8213 6.97865 13.8213 7.89988 13.2147 7.89988H12.008ZM8.51122 7.89988C7.90464 7.89988 7.90464 6.97865 8.51122 6.97865H9.71772C10.3243 6.97865 10.3243 7.89988 9.71772 7.89988H8.51122ZM5.27388 1.51453C5.48144 0.645904 6.26264 0 7.195 0C8.12713 0 8.90857 0.645904 9.11613 1.51453H12.6098C12.8174 0.645904 13.5988 0 14.531 0C15.4631 0 16.2445 0.645904 16.4521 1.51453H17.392C18.3616 1.51453 19.153 2.30592 19.153 3.27548V16.239C19.153 17.2084 18.3616 18 17.392 18H2.11544C1.14588 18 0.354492 17.2084 0.354492 16.239V15.3228C0.354492 15.0683 0.560869 14.8619 0.815344 14.8619H2.57298V3.27548C2.57298 2.30592 3.36436 1.51453 4.33393 1.51453H5.27388ZM8.14301 1.51453C7.97194 1.16338 7.61178 0.921467 7.195 0.921467C6.77822 0.921467 6.41783 1.16338 6.247 1.51453H8.14301ZM15.479 1.51453C15.3079 1.16338 14.9477 0.921467 14.531 0.921467C14.1142 0.921467 13.754 1.16338 13.583 1.51453H15.479ZM3.49445 14.8619H16.0917C16.3462 14.8619 16.5525 15.0683 16.5525 15.3228V16.239C16.5525 16.6997 16.9312 17.0785 17.392 17.0785C17.8526 17.0785 18.2315 16.6997 18.2315 16.239V5.39114H3.49445V14.8619ZM2.11544 17.0785H15.845C15.7088 16.8286 15.6311 16.5426 15.6311 16.239V15.7834H1.27596V16.239C1.27596 16.6997 1.65483 17.0785 2.11544 17.0785Z" fill="#8D91A0"/>
</svg>
