<svg width="18" height="19" viewBox="0 0 18 19" fill="none" xmlns="http://www.w3.org/2000/svg">
<circle cx="9" cy="9.5" r="9" fill="#FF1901"/>
<g clip-path="url(#clip0_1462_12024)">
<path d="M9.36014 10.5801C9.75779 10.5801 10.0801 10.2578 10.0801 9.86014C10.0801 9.46249 9.75779 9.14014 9.36014 9.14014C8.96249 9.14014 8.64014 9.46249 8.64014 9.86014C8.64014 10.2578 8.96249 10.5801 9.36014 10.5801Z" fill="white"/>
<path d="M13.153 6.30399L12.1961 5.34711C12.1004 5.25286 11.9943 5.16967 11.88 5.09906V5.90007C11.8788 6.89369 11.0736 7.69888 10.08 7.70007H8.64003C7.64642 7.69888 6.84123 6.89369 6.84004 5.90007V4.82007C5.84643 4.82127 5.04124 5.62646 5.04004 6.62007V11.6601C5.04124 12.6537 5.84643 13.4589 6.84004 13.4601H11.8801C12.8737 13.4589 13.6789 12.6537 13.68 11.6601V7.5766C13.6814 7.09902 13.4916 6.64076 13.153 6.30399ZM9.36004 11.3001C8.56475 11.3001 7.92004 10.6554 7.92004 9.86007C7.92004 9.06479 8.56475 8.42008 9.36004 8.42008C10.1553 8.42008 10.8 9.06479 10.8 9.86007C10.8 10.6554 10.1553 11.3001 9.36004 11.3001Z" fill="white"/>
<path d="M8.64006 6.98005H10.0801C10.6765 6.98005 11.1601 6.49652 11.1601 5.90005V4.8431C11.0818 4.83035 11.0028 4.82265 10.9235 4.82007H7.56006V5.90007C7.56006 6.49652 8.04359 6.98005 8.64006 6.98005Z" fill="white"/>
</g>
<defs>
<clipPath id="clip0_1462_12024">
<rect width="8.64" height="8.64" fill="white" transform="translate(5.04004 4.82007)"/>
</clipPath>
</defs>
</svg>
