<svg width="31" height="30" viewBox="0 0 31 30" fill="none" xmlns="http://www.w3.org/2000/svg">
<path d="M20.4536 18.1368H18.2518V14.8038C18.2518 14.0841 17.7344 13.4277 17.0188 13.3561C16.1959 13.2736 15.4995 13.919 15.4995 14.7254V20.8905C15.4995 21.1932 15.2573 21.441 14.9546 21.441C14.6463 21.441 14.3986 21.1932 14.4041 20.8905L14.3986 18.1933C13.1491 18.441 12.2023 19.5584 12.2023 20.8905L12.1968 23.8079C12.1968 24.6336 12.472 25.4538 12.9674 26.1198L13.2977 26.5602C13.6555 27.0363 13.8481 27.6157 13.8481 28.2116V29.3125H22.1052V28.3051C22.1052 27.8813 22.2043 27.4574 22.3969 27.0776L22.8042 26.256C23.0684 25.7249 23.2061 25.1386 23.2061 24.5455V20.8905C23.2061 19.3698 21.9744 18.1382 20.4538 18.1382L20.4536 18.1368Z" fill="white"/>
<path d="M28.7107 0.6875H2.28874C1.07499 0.6875 0.0869141 1.67557 0.0869141 2.88933V3.99024H19.6751C20.3232 3.99024 20.9342 4.24345 21.3925 4.70169C21.6429 4.95215 21.9774 5.09115 22.3324 5.09115H30.9114V2.88933C30.9114 1.67557 29.9233 0.6875 28.7096 0.6875H28.7107ZM23.4812 3.43978C23.1771 3.43978 22.9308 3.19345 22.9308 2.88933C22.9308 2.5852 23.1771 2.33887 23.4812 2.33887C23.7854 2.33887 24.0317 2.5852 24.0317 2.88933C24.0317 3.19345 23.7854 3.43978 23.4812 3.43978ZM25.6831 3.43978C25.3789 3.43978 25.1326 3.19345 25.1326 2.88933C25.1326 2.5852 25.3789 2.33887 25.6831 2.33887C25.9872 2.33887 26.2335 2.5852 26.2335 2.88933C26.2335 3.19345 25.9872 3.43978 25.6831 3.43978ZM27.8849 3.43978C27.5808 3.43978 27.3344 3.19345 27.3344 2.88933C27.3344 2.5852 27.5808 2.33887 27.8849 2.33887C28.189 2.33887 28.4353 2.5852 28.4353 2.88933C28.4353 3.19345 28.189 3.43978 27.8849 3.43978Z" fill="white"/>
<path d="M16.8755 12.2473C16.9581 12.2473 17.0406 12.2528 17.1287 12.2583C18.2571 12.3739 19.1709 13.3042 19.325 14.4491H21.5544C22.4626 14.4491 23.2057 13.706 23.2057 12.7977C23.2057 11.8895 22.4626 11.1464 21.5544 11.1464H12.7471C11.8388 11.1464 11.0957 11.8895 11.0957 12.7977C11.0957 13.706 11.8388 14.4491 12.7471 14.4491H14.415C14.5526 13.2106 15.6039 12.2473 16.8755 12.2473Z" fill="white"/>
<path d="M20.6138 5.4819C20.3661 5.22869 20.0303 5.09106 19.678 5.09106H0.0874023V21.0541C0.0874023 22.2706 1.07273 23.256 2.28923 23.256H11.0965L11.102 20.889C11.058 19.0339 12.5552 17.3111 14.3993 17.08V15.5497H12.7479C11.2287 15.5497 9.99563 14.3167 9.99563 12.7974C9.99563 11.2782 11.2287 10.0451 12.7479 10.0451H21.5552C23.0745 10.0451 24.3075 11.2782 24.3075 12.7974C24.3075 14.3167 23.0745 15.5497 21.5552 15.5497H19.3534V17.036H20.4543C22.579 17.036 24.3077 18.7644 24.3077 20.8893V23.2563H28.7113C29.9278 23.2563 30.9132 22.271 30.9132 21.0545V6.19198H22.3317C21.6876 6.19198 21.0766 5.93877 20.6142 5.4819H20.6138ZM5.04141 12.247H6.14232C7.05331 12.247 7.79369 12.9873 7.79369 13.8983C7.79369 14.8093 7.05331 15.5497 6.14232 15.5497V16.1002C6.14232 16.4043 5.89599 16.6506 5.59186 16.6506C5.28773 16.6506 5.04141 16.4043 5.04141 16.1002V15.5497H3.94049C3.63637 15.5497 3.39004 15.3034 3.39004 14.9992C3.39004 14.6951 3.63637 14.4488 3.94049 14.4488H6.14232C6.44644 14.4488 6.69277 14.2025 6.69277 13.8983C6.69277 13.5942 6.44644 13.3479 6.14232 13.3479H5.04141C4.13041 13.3479 3.39004 12.6075 3.39004 11.6965C3.39004 10.7855 4.13041 10.0451 5.04141 10.0451V9.49468C5.04141 9.19056 5.28773 8.94423 5.59186 8.94423C5.89599 8.94423 6.14232 9.19056 6.14232 9.49468V10.0451H7.24323C7.54736 10.0451 7.79369 10.2915 7.79369 10.5956C7.79369 10.8997 7.54736 11.1461 7.24323 11.1461H5.04141C4.73728 11.1461 4.49095 11.3924 4.49095 11.6965C4.49095 12.0006 4.73728 12.247 5.04141 12.247Z" fill="white"/>
</svg>
