<svg width="50" height="50" viewBox="0 0 50 50" fill="none" xmlns="http://www.w3.org/2000/svg">
<path d="M34.3028 18.6056C25.6474 18.6056 18.6056 25.6474 18.6056 34.3028C18.6056 42.9582 25.6474 50 34.3028 50C42.9582 50 50 42.9582 50 34.3028C50 25.6474 42.9582 18.6056 34.3028 18.6056ZM29.6743 27.3262H29.6961C30.9824 27.3262 32.0223 28.3662 32.0223 29.6525C32.0223 30.9388 30.9824 31.9788 29.6961 31.9788C28.4119 31.9788 27.3589 30.9388 27.3589 29.6525C27.3589 28.3662 28.3902 27.3262 29.6721 27.3262H29.6743ZM30.8843 40.1871C30.5442 40.5272 30.0994 40.6972 29.6503 40.6972C29.2034 40.6972 28.7586 40.5272 28.4164 40.1871C27.7339 39.5047 27.7339 38.4015 28.4164 37.7213L37.7192 28.4185C38.4016 27.7361 39.5047 27.7361 40.185 28.4185C40.8674 29.1009 40.8674 30.204 40.185 30.8843L30.8822 40.1871H30.8843ZM38.9988 41.2793C37.7147 41.2793 36.6617 40.2394 36.6617 38.9531C36.6617 37.6668 37.6929 36.6268 38.9748 36.6268H38.9966C40.2829 36.6268 41.3229 37.6668 41.3229 38.9531C41.3229 40.2394 40.2829 41.2793 38.9966 41.2793H38.9988ZM5.81448 2.90833V22.0938H4.65247C2.0842 22.0938 0.0021807 20.0117 0.0021807 17.4435L0 2.90833C0 1.30372 1.30154 0.0021807 2.90615 0.0021807C4.51075 0.0021807 5.8123 1.30372 5.8123 2.90833H5.81448ZM38.9531 0.0021807L8.5811 0C9.02367 0.882951 9.30275 1.85967 9.30275 2.90615V43.6034C9.30275 47.1374 12.1631 49.9978 15.6972 49.9978H23.2776C18.3483 46.5096 15.1151 40.7888 15.1151 34.3006C15.1151 23.7202 23.7202 15.1151 34.3005 15.1151C38.4167 15.1151 42.2298 16.4166 45.3475 18.6274V6.39442C45.3475 2.86038 42.4871 0 38.9531 0V0.0021807ZM36.6268 12.7933H18.0234C17.0707 12.7933 16.2793 12.0018 16.2793 11.0491C16.2793 10.0964 17.0707 9.30498 18.0234 9.30498H36.6268C37.5795 9.30498 38.3709 10.0964 38.3709 11.0491C38.3709 12.0018 37.5795 12.7933 36.6268 12.7933Z" fill="#A7A7A7"/>
</svg>
