<svg width="50" height="50" viewBox="0 0 50 50" fill="none" xmlns="http://www.w3.org/2000/svg">
<path d="M36.7423 24.999C36.7423 27.7755 35.7717 30.325 34.1595 32.3394C33.6575 29.7378 31.36 27.7674 28.6086 27.7674H28.3815C29.8083 26.7239 30.7394 25.0408 30.7394 23.1433C30.7394 19.9731 28.167 17.3925 25.003 17.3925C21.8411 17.3925 19.2665 19.9732 19.2665 23.1433C19.2665 25.0408 20.1976 26.7238 21.6244 27.7674L21.3953 27.7653C18.6437 27.7653 16.3505 29.7461 15.8567 32.3561C14.2361 30.3398 13.2593 27.782 13.2593 24.9991C13.2593 18.5253 18.5269 13.2575 25.0009 13.2575C31.4769 13.2575 36.7423 18.525 36.7423 24.999ZM28.6063 28.8773H21.3955C18.8981 28.8773 16.8652 30.9103 16.8652 33.4077V33.4577C18.9772 35.4948 21.8433 36.757 25.0011 36.757C28.1672 36.757 31.0394 35.4906 33.1536 33.4431V33.4077C33.1536 30.9082 31.1141 28.8773 28.6063 28.8773ZM29.6249 23.1409C29.6249 20.5831 27.5503 18.5002 25.0008 18.5002C22.4513 18.5002 20.3767 20.581 20.3767 23.1409C20.3767 25.6904 22.4513 27.765 25.0008 27.765C27.5503 27.765 29.6249 25.6904 29.6249 23.1409ZM50 22.1266V27.8838L47.2464 28.7691L45.83 29.2419C45.6467 29.3023 45.5072 29.4564 45.4655 29.646C44.9302 31.983 44.0179 34.1888 42.7494 36.1966C42.6452 36.3633 42.6348 36.5715 42.7244 36.7465L44.7136 40.6395L40.6394 44.7136L38.0732 43.418L36.7339 42.7244C36.559 42.6349 36.3486 42.6432 36.1799 42.7494C34.1553 44.0367 31.9578 44.951 29.65 45.4634C29.4584 45.5051 29.3042 45.6446 29.2438 45.8321L27.8878 50L22.114 49.9958L20.7747 45.8321C20.7143 45.6446 20.5581 45.5009 20.3644 45.4593C18.0503 44.9489 15.8465 44.0366 13.8201 42.7452C13.6535 42.639 13.4431 42.6307 13.2661 42.7202L9.36268 44.7094L5.28644 40.6353L7.27564 36.7444C7.3652 36.5694 7.35479 36.3611 7.25064 36.1945C5.98423 34.1866 5.06985 31.9829 4.53449 29.6439C4.49075 29.4543 4.35328 29.3023 4.16999 29.2398L0 27.8817L0.00416608 22.1266L4.16791 20.7727C4.35538 20.7123 4.49493 20.5582 4.53867 20.3665C5.07398 18.0128 5.98627 15.8112 7.25268 13.818C7.35683 13.6534 7.36724 13.4451 7.27976 13.2702L5.29056 9.36268L9.36473 5.28852L13.2723 7.27772C13.4472 7.3652 13.6534 7.35687 13.818 7.25272C15.8488 5.97799 18.0525 5.06357 20.3686 4.53658C20.5603 4.49284 20.7144 4.3512 20.7748 4.16582L22.1141 0H27.8858L28.771 2.75363L29.2438 4.16998C29.3042 4.35328 29.4584 4.49283 29.6479 4.53449C31.9558 5.06355 34.1533 5.97585 36.1821 7.25063C36.3466 7.35477 36.5549 7.36311 36.7278 7.27562L40.6374 5.28643L44.7095 9.36059L42.7203 13.2702C42.6328 13.4452 42.6411 13.6535 42.7474 13.818C44.0138 15.8093 44.9261 18.013 45.4614 20.3665C45.5051 20.5581 45.6468 20.7123 45.8321 20.7727L50 22.1266ZM42.6079 24.9989C42.6079 15.2905 34.7097 7.39178 25.0008 7.39178C15.2918 7.39178 7.39365 15.2899 7.39365 24.9989C7.39365 34.7078 15.2918 42.606 25.0008 42.606C34.7097 42.606 42.6079 34.7078 42.6079 24.9989ZM41.4977 24.9989C41.4977 34.0952 34.0971 41.4958 25.0008 41.4958C15.9045 41.4958 8.50382 34.0952 8.50382 24.9989C8.50382 15.9026 15.9045 8.50196 25.0008 8.50196C34.0971 8.50196 41.4977 15.9026 41.4977 24.9989ZM37.8526 24.9989C37.8526 17.9129 32.0874 12.1471 25.0008 12.1471C17.9142 12.1471 12.149 17.9123 12.149 24.9989C12.149 28.5398 13.5862 31.7516 15.9066 34.0824C15.917 34.0928 15.9253 34.1011 15.9358 34.1115C18.2624 36.4319 21.468 37.867 25.0027 37.867C28.5187 37.867 31.7075 36.4465 34.0303 34.1469C34.0782 34.1115 34.1198 34.072 34.1531 34.022C36.4381 31.6995 37.8526 28.5128 37.8526 24.9989Z" fill="#1F9254" fill-opacity="0.18"/>
</svg>
