<svg width="50" height="50" viewBox="0 0 50 50" fill="none" xmlns="http://www.w3.org/2000/svg">
<path d="M49.3425 23.3939L26.6111 0.665264C25.724 -0.221755 24.2839 -0.221755 23.3967 0.665264L0.665343 23.3939C-0.221781 24.281 -0.221781 25.7208 0.665343 26.6079C1.55247 27.4949 2.99252 27.4949 3.8797 26.6079L6.81754 23.6704V47.7284C6.81754 48.9832 7.83446 50 9.08945 50H40.9106C42.1679 50 43.1825 48.9832 43.1825 47.7284V23.6704L46.1203 26.6079C47.0074 27.4949 48.4475 27.4949 49.3347 26.6079C50.2218 25.7209 50.2218 24.281 49.3347 23.3939H49.3425ZM34.0975 43.1823H15.9126C14.6552 43.1823 13.6406 42.1655 13.6406 40.9107C13.6406 39.6558 14.6576 38.639 15.9126 38.639H34.0975C35.3549 38.639 36.3694 39.6558 36.3694 40.9107C36.3694 42.1655 35.3525 43.1823 34.0975 43.1823ZM36.3694 29.5454C36.3694 30.8002 35.3525 31.817 34.0975 31.817C32.8402 31.817 31.8256 30.8002 31.8256 29.5454V28.2136L26.6134 33.4252C25.7263 34.3122 24.2863 34.3122 23.3991 33.4252L20.4612 30.4877L17.5234 33.4252C16.6363 34.3122 15.1962 34.3122 14.309 33.4252C13.4219 32.5382 13.4219 31.0983 14.309 30.2112L18.8553 25.6655C19.7424 24.7785 21.1824 24.7785 22.0696 25.6655L25.0074 28.603L28.6113 24.9996H27.2794C26.022 24.9996 25.0074 23.9828 25.0074 22.728C25.0074 21.4731 26.0244 20.4563 27.2794 20.4563H34.0974C35.3379 20.4563 36.3693 21.4731 36.3693 22.728L36.3694 29.5454Z" fill="#FF8403" fill-opacity="0.25"/>
</svg>
