<svg width="44" height="44" viewBox="0 0 44 44" fill="none" xmlns="http://www.w3.org/2000/svg">
<path d="M0 1.69231V41.9574L1.69231 43.6497L3.63254 41.7095C3.79122 41.5508 4.0064 41.4617 4.23077 41.4617C4.45514 41.4617 4.67032 41.5508 4.829 41.7095L6.76923 43.6497L8.70946 41.7095C8.86814 41.5508 9.08332 41.4617 9.30769 41.4617C9.53206 41.4617 9.74725 41.5508 9.90592 41.7095L11.8462 43.6497L13.7864 41.7095C13.9451 41.5508 14.1602 41.4617 14.3846 41.4617C14.609 41.4617 14.8242 41.5508 14.9828 41.7095L16.9231 43.6497L18.8633 41.7095C19.022 41.5508 19.2372 41.4617 19.4615 41.4617C19.6859 41.4617 19.9011 41.5508 20.0598 41.7095L22 43.6497L23.9402 41.7095C24.0989 41.5508 24.3141 41.4617 24.5385 41.4617C24.7628 41.4617 24.978 41.5508 25.1367 41.7095L27.0769 43.6497L28.7692 41.9574V1.69231C28.7683 1.09794 28.9251 0.51397 29.2236 0H1.69231C1.24348 0 0.813035 0.178296 0.495666 0.495665C0.178297 0.813035 0 1.24348 0 1.69231ZM22.8462 38.0769H5.92308V36.3846H22.8462V38.0769ZM26.2308 34.6923H5.92308V33H26.2308V34.6923ZM5.92308 30.4615V28.7692H22.8462V30.4615H5.92308ZM26.2308 27.0769H5.92308V25.3846H26.2308V27.0769ZM5.92308 22.8462V21.1538H22.8462V22.8462H5.92308ZM26.2308 19.4615H5.92308V17.7692H26.2308V19.4615ZM23.6923 4.23077H25.3846V5.92308H23.6923V4.23077ZM20.3077 4.23077H22V5.92308H20.3077V4.23077ZM14.3846 9.30769H25.3846V11H14.3846V9.30769ZM14.3846 12.6923H25.3846V14.3846H14.3846V12.6923ZM5.07692 11H6.76923V11.1235C6.76968 11.3151 6.84595 11.4986 6.98137 11.634C7.11679 11.7694 7.30033 11.8457 7.49185 11.8462H7.73892C7.90169 11.846 8.05965 11.791 8.18722 11.6899C8.31478 11.5888 8.40449 11.4476 8.44179 11.2892C8.4791 11.1307 8.46183 10.9643 8.39277 10.817C8.32371 10.6696 8.20692 10.5498 8.06131 10.4771L6.41215 9.65208C5.98194 9.43806 5.62564 9.10015 5.38915 8.68187C5.15265 8.26359 5.0468 7.78408 5.08521 7.30511C5.12362 6.82614 5.30455 6.36963 5.60468 5.99438C5.90481 5.61914 6.3104 5.34233 6.76923 5.19962V4.23077H8.46154V5.19962C8.95059 5.35229 9.37828 5.65679 9.68258 6.06896C9.98688 6.48113 10.1519 6.97952 10.1538 7.49185V7.61538H8.46154V7.49185C8.46109 7.30033 8.38482 7.11679 8.2494 6.98137C8.11398 6.84595 7.93044 6.76968 7.73892 6.76923H7.49185C7.32908 6.76935 7.17112 6.82441 7.04355 6.9255C6.91599 7.02659 6.82628 7.16779 6.78898 7.32622C6.75167 7.48465 6.76894 7.65104 6.838 7.79843C6.90706 7.94582 7.02385 8.06558 7.16946 8.13831L8.81862 8.96331C9.24883 9.17732 9.60513 9.51523 9.84162 9.93352C10.0781 10.3518 10.184 10.8313 10.1456 11.3103C10.1071 11.7892 9.92622 12.2458 9.62609 12.621C9.32596 12.9962 8.92037 13.2731 8.46154 13.4158V14.3846H6.76923V13.4158C6.28018 13.2631 5.85249 12.9586 5.54819 12.5464C5.24389 12.1343 5.07882 11.6359 5.07692 11.1235V11ZM2.53846 17.7692H4.23077V19.4615H2.53846V17.7692ZM2.53846 25.3846H4.23077V27.0769H2.53846V25.3846ZM2.53846 33H4.23077V34.6923H2.53846V33Z" fill="#007BFF" fill-opacity="0.22"/>
<path d="M33.846 1.69231C33.846 1.24348 33.6677 0.813035 33.3504 0.495665C33.033 0.178296 32.6026 0 32.1537 0C31.7049 0 31.2745 0.178296 30.9571 0.495665C30.6397 0.813035 30.4614 1.24348 30.4614 1.69231V33.8462H34.3165C34.012 33.3339 33.8495 32.7498 33.846 32.1538V1.69231Z" fill="#007BFF" fill-opacity="0.22"/>
<path d="M42.3075 10.1538C41.8587 10.1538 41.4283 10.3321 41.1109 10.6495C40.7935 10.9669 40.6152 11.3973 40.6152 11.8461V22.8461H43.9998V11.8461C43.9998 11.3973 43.8216 10.9669 43.5042 10.6495C43.1868 10.3321 42.7564 10.1538 42.3075 10.1538Z" fill="#007BFF" fill-opacity="0.22"/>
<path d="M35.5386 32.1538C35.5386 32.6027 35.7169 33.0331 36.0342 33.3505C36.3516 33.6679 36.7821 33.8461 37.2309 33.8461C37.6797 33.8461 38.1102 33.6679 38.4275 33.3505C38.7449 33.0331 38.9232 32.6027 38.9232 32.1538V11.8461C38.9267 11.2502 39.0891 10.6661 39.3937 10.1538H35.5386V32.1538Z" fill="#007BFF" fill-opacity="0.22"/>
</svg>
