<svg width="16" height="22" viewBox="0 0 16 22" fill="none" xmlns="http://www.w3.org/2000/svg">
<path d="M13.0174 0.399902H3.98263C2.90347 0.399902 2 1.28374 2 2.39485V10.9302C2 12.0161 2.87838 12.9252 3.98263 12.9252H5.26255L2.87838 15.905C2.82819 15.9807 2.80309 16.0817 2.85328 16.1827C2.90347 16.2585 2.97876 16.3342 3.07915 16.3342H6.39189V20.1474C6.39189 20.2989 6.49228 20.3999 6.64286 20.3999H10.4073C10.5579 20.3999 10.6583 20.2989 10.6583 20.1474V16.309H13.971C14.1216 16.309 14.222 16.208 14.222 16.0565C14.222 15.9807 14.1969 15.905 14.1467 15.8544L11.7876 12.8999H13.0174C14.0965 12.8999 15 12.0161 15 10.905V2.3696C15 1.28374 14.0965 0.399902 13.0174 0.399902ZM13.4189 15.8039H10.3822C10.2317 15.8039 10.1313 15.905 10.1313 16.0565V19.8696H6.86873V16.0565C6.86873 15.905 6.76834 15.8039 6.61776 15.8039H3.58108L5.88996 12.8999L6.29151 12.3949L7.47104 10.905L7.87259 10.3999L8.5 9.61707L9.12741 10.3999L9.52896 10.905L10.7085 12.3949L11.11 12.8999L13.4189 15.8039ZM7.24517 10.3999H4.10811V8.17768L5.81467 6.81404L8.85135 9.16253C8.95174 9.23829 9.05212 9.23829 9.15251 9.16253L10.5328 8.15243L12.8417 9.64233V10.3999H9.77992L8.70077 9.03627C8.60039 8.91 8.39961 8.91 8.29923 9.03627L7.24517 10.3999ZM14.4981 10.9302C14.4981 11.7383 13.8456 12.4201 13.0174 12.4201H11.3861L10.2066 10.9302H13.0927C13.2432 10.9302 13.3436 10.8292 13.3436 10.6777V9.54132C13.3436 9.46556 13.2934 9.36455 13.2181 9.3393L10.6583 7.64738C10.583 7.59687 10.4575 7.59687 10.3822 7.64738L9.02703 8.63223L5.99035 6.25849C5.88996 6.18273 5.76448 6.18273 5.68919 6.25849L3.73166 7.82415C3.68147 7.87465 3.63127 7.95041 3.63127 8.02617V10.6272C3.63127 10.7787 3.73166 10.8797 3.88224 10.8797H6.86873L5.639 12.3949H3.95753C3.15444 12.3949 2.47683 11.7383 2.47683 10.905V2.3696C2.47683 1.56152 3.12934 0.8797 3.95753 0.8797H12.9923C13.7954 0.8797 14.473 1.53627 14.473 2.3696V10.9302H14.4981Z" fill="#F5230C"/>
<path d="M10.5 5.3999C9.67742 5.3999 9 4.72248 9 3.8999C9 3.07732 9.67742 2.3999 10.5 2.3999C11.3226 2.3999 12 3.07732 12 3.8999C12 4.72248 11.3226 5.3999 10.5 5.3999ZM10.5 2.88377C9.94355 2.88377 9.48387 3.34345 9.48387 3.8999C9.48387 4.45635 9.94355 4.91603 10.5 4.91603C11.0565 4.91603 11.5161 4.45635 11.5161 3.8999C11.5161 3.34345 11.0565 2.88377 10.5 2.88377Z" fill="#FF1901"/>
</svg>
