<svg width="10" height="10" viewBox="0 0 10 10" fill="none" xmlns="http://www.w3.org/2000/svg">
<path d="M8.33333 4.58333V7.91667C8.33333 9.06542 7.39875 10 6.25 10H2.08333C0.934583 10 0 9.06542 0 7.91667V3.75C0 2.60125 0.934583 1.66667 2.08333 1.66667H5.41667C5.64667 1.66667 5.83333 1.85333 5.83333 2.08333C5.83333 2.31333 5.64667 2.5 5.41667 2.5H2.08333C1.39417 2.5 0.833333 3.06083 0.833333 3.75V7.91667C0.833333 8.60583 1.39417 9.16667 2.08333 9.16667H6.25C6.93917 9.16667 7.5 8.60583 7.5 7.91667V4.58333C7.5 4.35333 7.68667 4.16667 7.91667 4.16667C8.14667 4.16667 8.33333 4.35333 8.33333 4.58333ZM8.75 0H5.83333C5.60333 0 5.41667 0.186667 5.41667 0.416667C5.41667 0.646667 5.60333 0.833333 5.83333 0.833333H8.5775L3.45542 5.95542C3.2925 6.11833 3.2925 6.38167 3.45542 6.54458C3.53667 6.62583 3.64333 6.66667 3.75 6.66667C3.85667 6.66667 3.96333 6.62583 4.04458 6.54458L9.16667 1.4225V4.16667C9.16667 4.39667 9.35333 4.58333 9.58333 4.58333C9.81333 4.58333 10 4.39667 10 4.16667V1.25C10 0.560833 9.43917 0 8.75 0Z" fill="#FF1901"/>
</svg>
