<svg width="36" height="36" viewBox="0 0 36 36" fill="none" xmlns="http://www.w3.org/2000/svg">
<g clip-path="url(#clip0_762_6393)">
<path fill-rule="evenodd" clip-rule="evenodd" d="M13.0015 3.01099C15.0407 2.93585 17.0704 3.32399 18.9381 4.14621C20.8057 4.96843 22.4626 6.20335 23.7843 7.75811C24.8515 9.0135 25.6777 10.451 26.2252 11.9981H27.0065C29.0061 11.9995 30.9493 12.6666 32.5275 13.8943C34.1058 15.1221 35.2303 16.8404 35.7235 18.7782C36.2167 20.716 36.0506 22.7628 35.2513 24.5957C34.452 26.4285 33.0651 27.943 31.3095 28.9001C30.5822 29.2967 29.6711 29.0285 29.2745 28.3011C28.878 27.5738 29.1462 26.6627 29.8735 26.2661C31.044 25.6281 31.9685 24.6184 32.5014 23.3965C33.0342 22.1746 33.145 20.81 32.8162 19.5182C32.4874 18.2263 31.7377 17.0808 30.6855 16.2623C29.6334 15.4438 28.3386 14.999 27.0055 14.9981H25.1165C24.4327 14.9981 23.8354 14.5357 23.6643 13.8736C23.267 12.337 22.5266 10.9104 21.4986 9.70116C20.4706 8.4919 19.1819 7.53141 17.7293 6.8919C16.2767 6.2524 14.698 5.95051 13.1119 6.00895C11.5259 6.06739 9.97368 6.48462 8.57208 7.22929C7.17047 7.97396 5.95592 9.02668 5.01972 10.3083C4.08353 11.5899 3.45006 13.0671 3.16694 14.6288C2.88382 16.1905 2.95842 17.7961 3.38513 19.3248C3.81183 20.8535 4.57954 22.2656 5.63053 23.4549C6.17911 24.0756 6.12059 25.0236 5.49982 25.5721C4.87905 26.1207 3.93111 26.0622 3.38253 25.4414C2.03125 23.9123 1.0442 22.0968 0.495579 20.1313C-0.0530406 18.1658 -0.148951 16.1015 0.21506 14.0937C0.579071 12.0858 1.39353 10.1865 2.59721 8.53873C3.80088 6.89092 5.36245 5.53742 7.16452 4.57999C8.96658 3.62257 10.9622 3.08612 13.0015 3.01099ZM16.9459 16.9375C17.5317 16.3517 18.4814 16.3517 19.0672 16.9375L25.0672 22.9375C25.653 23.5233 25.653 24.473 25.0672 25.0588C24.4814 25.6446 23.5317 25.6446 22.9459 25.0588L19.5065 21.6195V31.4982C19.5065 32.3266 18.835 32.9982 18.0065 32.9982C17.1781 32.9982 16.5065 32.3266 16.5065 31.4982V21.6195L13.0672 25.0588C12.4814 25.6446 11.5316 25.6446 10.9459 25.0588C10.3601 24.473 10.3601 23.5233 10.9459 22.9375L16.9459 16.9375Z" fill="#5D6C87"/>
</g>
<defs>
<clipPath id="clip0_762_6393">
<rect width="36" height="36" fill="white"/>
</clipPath>
</defs>
</svg>
