<svg width="35" height="47" viewBox="0 0 35 47" fill="none" xmlns="http://www.w3.org/2000/svg">
<path d="M34.4574 46.3997H0.542636C0.217054 46.3997 0 46.1827 0 45.8571C0 45.5315 0.217054 45.3145 0.542636 45.3145H34.4574C34.7829 45.3145 35 45.5315 35 45.8571C35 46.1284 34.7287 46.3997 34.4574 46.3997Z" fill="#F5230C"/>
<path d="M27.0775 0.0585938H7.54262C5.20929 0.0585938 3.2558 1.95782 3.2558 4.34542V22.6865C3.2558 25.0198 5.15502 26.9733 7.54262 26.9733H10.3101L5.15502 33.3764C5.0465 33.5392 4.99223 33.7563 5.10076 33.9733C5.20929 34.1361 5.37208 34.2989 5.58913 34.2989H12.7519V42.4927C12.7519 42.8183 12.969 43.0353 13.2946 43.0353H21.4341C21.7597 43.0353 21.9767 42.8183 21.9767 42.4927V34.2446H29.1395C29.4651 34.2446 29.6822 34.0276 29.6822 33.702C29.6822 33.5392 29.6279 33.3764 29.5194 33.2679L24.4186 26.9191H27.0775C29.4108 26.9191 31.3643 25.0198 31.3643 22.6322V4.29115C31.3643 1.95782 29.4108 0.0585938 27.0775 0.0585938ZM27.9457 33.1594H21.3798C21.0542 33.1594 20.8372 33.3764 20.8372 33.702V41.8958H13.7829V33.702C13.7829 33.3764 13.5659 33.1594 13.2403 33.1594H6.6744L11.6667 26.9191L12.5349 25.8338L15.0853 22.6322L15.9535 21.547L17.3101 19.8648L18.6667 21.547L19.5349 22.6322L22.0853 25.8338L22.9535 26.9191L27.9457 33.1594ZM14.5969 21.547H7.81394V16.7718L11.5039 13.8415L18.0698 18.8881C18.2868 19.0508 18.5039 19.0508 18.7209 18.8881L21.7054 16.7175L26.6977 19.9191V21.547H20.0775L17.7442 18.6167C17.5271 18.3454 17.093 18.3454 16.876 18.6167L14.5969 21.547ZM30.2791 22.6865C30.2791 24.4229 28.8682 25.8881 27.0775 25.8881H23.5504L21 22.6865H27.2403C27.5659 22.6865 27.7829 22.4694 27.7829 22.1439V19.702C27.7829 19.5392 27.6744 19.3222 27.5116 19.2679L21.9767 15.6322C21.8139 15.5237 21.5426 15.5237 21.3798 15.6322L18.4496 17.7485L11.8837 12.6477C11.6667 12.485 11.3953 12.485 11.2325 12.6477L6.99998 16.0121C6.89146 16.1206 6.78293 16.2834 6.78293 16.4462V22.0353C6.78293 22.3609 6.99998 22.578 7.32557 22.578H13.7829L11.124 25.8338H7.48836C5.75192 25.8338 4.28681 24.4229 4.28681 22.6322V4.29115C4.28681 2.55472 5.69766 1.0896 7.48836 1.0896H27.0232C28.7597 1.0896 30.2248 2.50045 30.2248 4.29115V22.6865H30.2791Z" fill="#F5230C"/>
<path d="M23.4419 11.508C21.5969 11.508 20.0775 9.9886 20.0775 8.14364C20.0775 6.29868 21.5969 4.7793 23.4419 4.7793C25.2868 4.7793 26.8062 6.29868 26.8062 8.14364C26.8062 9.9886 25.2868 11.508 23.4419 11.508ZM23.4419 5.86457C22.1938 5.86457 21.1628 6.89558 21.1628 8.14364C21.1628 9.3917 22.1938 10.4227 23.4419 10.4227C24.6899 10.4227 25.7209 9.3917 25.7209 8.14364C25.7209 6.89558 24.6899 5.86457 23.4419 5.86457Z" fill="#FF1901"/>
</svg>
