<svg width="24" height="25" viewBox="0 0 24 25" fill="none" xmlns="http://www.w3.org/2000/svg">
<path fill-rule="evenodd" clip-rule="evenodd" d="M11.2929 2.79289C11.6834 2.40237 12.3166 2.40237 12.7071 2.79289L17.7071 7.79289C18.0976 8.18342 18.0976 8.81658 17.7071 9.20711C17.3166 9.59763 16.6834 9.59763 16.2929 9.20711L13 5.91421V15.5C13 16.0523 12.5523 16.5 12 16.5C11.4477 16.5 11 16.0523 11 15.5V5.91421L7.70711 9.20711C7.31658 9.59763 6.68342 9.59763 6.29289 9.20711C5.90237 8.81658 5.90237 8.18342 6.29289 7.79289L11.2929 2.79289ZM3 14.5C3.55228 14.5 4 14.9477 4 15.5V19.5C4 19.7652 4.10536 20.0196 4.29289 20.2071C4.48043 20.3946 4.73478 20.5 5 20.5H19C19.2652 20.5 19.5196 20.3946 19.7071 20.2071C19.8946 20.0196 20 19.7652 20 19.5V15.5C20 14.9477 20.4477 14.5 21 14.5C21.5523 14.5 22 14.9477 22 15.5V19.5C22 20.2957 21.6839 21.0587 21.1213 21.6213C20.5587 22.1839 19.7957 22.5 19 22.5H5C4.20435 22.5 3.44129 22.1839 2.87868 21.6213C2.31607 21.0587 2 20.2957 2 19.5V15.5C2 14.9477 2.44772 14.5 3 14.5Z" fill="#798AA3"/>
</svg>
