<svg width="26" height="25" viewBox="0 0 26 25" fill="none" xmlns="http://www.w3.org/2000/svg">
<circle cx="12.5" cy="12.5" r="12.5" transform="matrix(1 0 0 -1 0.5 25)" fill="#FF961B" fill-opacity="0.1"/>
<path d="M8.21055 14.6966C7.81937 15.0877 7.18484 15.0875 6.79356 14.6966C6.40231 14.3054 6.40238 13.6709 6.79356 13.2796L12.7682 7.30502C12.7715 7.30156 12.7745 7.29771 12.7779 7.29428C13.1448 6.92739 13.7262 6.90379 14.1197 7.22495C14.146 7.24633 14.1715 7.26984 14.1959 7.29428C14.199 7.29738 14.2016 7.30092 14.2047 7.30405L20.1734 13.2718C20.5645 13.6631 20.5646 14.2976 20.1734 14.6888C19.7822 15.08 19.1478 15.0799 18.7565 14.6888L13.4879 9.42026L8.21055 14.6966Z" fill="#FF1901"/>
</svg>
