<svg width="23" height="22" viewBox="0 0 23 22" fill="none" xmlns="http://www.w3.org/2000/svg">
<path d="M16.2065 1.47246L13.772 3.75702L19.244 8.88294L21.6785 6.60248C22.6356 5.70585 22.6356 4.25651 21.6785 3.35988L19.668 1.47246C18.7108 0.575831 17.1636 0.575831 16.2065 1.47246ZM12.6925 4.59632L12.2904 4.71096L5.9923 6.47965C5.12255 6.7253 4.43199 7.34762 4.14353 8.15827L0.271151 18.9751C0.105067 19.4378 0.227444 19.9536 0.590206 20.3016L7.30349 14.0171C7.17237 13.7591 7.09807 13.4725 7.09807 13.1696C7.09807 12.0846 8.03775 11.2043 9.19597 11.2043C10.3542 11.2043 11.2939 12.0846 11.2939 13.1696C11.2939 14.2545 10.3542 15.1348 9.19597 15.1348C8.87254 15.1348 8.5666 15.0652 8.29125 14.9423L1.57797 21.231C1.95384 21.5708 2.50017 21.6896 2.99405 21.5299L14.5456 17.9024C15.4066 17.6322 16.0753 16.9853 16.3376 16.1706L18.2257 10.2709L18.3481 9.8942L12.6925 4.59632Z" fill="white"/>
</svg>
