<svg width="11" height="14" viewBox="0 0 11 14" fill="none" xmlns="http://www.w3.org/2000/svg">
<path d="M0.785714 0.875C0.351116 0.875 0 1.26602 0 1.75V4.375C0 4.85898 0.351116 5.25 0.785714 5.25C1.22031 5.25 1.57143 4.85898 1.57143 4.375V2.625H3.14286C3.57746 2.625 3.92857 2.23398 3.92857 1.75C3.92857 1.26602 3.57746 0.875 3.14286 0.875H0.785714ZM1.57143 9.625C1.57143 9.14102 1.22031 8.75 0.785714 8.75C0.351116 8.75 0 9.14102 0 9.625V12.25C0 12.734 0.351116 13.125 0.785714 13.125H3.14286C3.57746 13.125 3.92857 12.734 3.92857 12.25C3.92857 11.766 3.57746 11.375 3.14286 11.375H1.57143V9.625ZM7.85714 0.875C7.42254 0.875 7.07143 1.26602 7.07143 1.75C7.07143 2.23398 7.42254 2.625 7.85714 2.625H9.42857V4.375C9.42857 4.85898 9.77969 5.25 10.2143 5.25C10.6489 5.25 11 4.85898 11 4.375V1.75C11 1.26602 10.6489 0.875 10.2143 0.875H7.85714ZM11 9.625C11 9.14102 10.6489 8.75 10.2143 8.75C9.77969 8.75 9.42857 9.14102 9.42857 9.625V11.375H7.85714C7.42254 11.375 7.07143 11.766 7.07143 12.25C7.07143 12.734 7.42254 13.125 7.85714 13.125H10.2143C10.6489 13.125 11 12.734 11 12.25V9.625Z" fill="#FF1901"/>
</svg>
